G75*
%MOIN*%
%OFA0B0*%
%FSLAX25Y25*%
%IPPOS*%
%LPD*%
%AMOC8*
5,1,8,0,0,1.08239X$1,22.5*
%
%ADD10C,0.00800*%
%ADD11C,0.00079*%
%ADD12C,0.00000*%
D10*
X0123333Y0052333D02*
X0123333Y0152333D01*
X0223333Y0152333D01*
X0223333Y0052333D01*
X0123333Y0052333D01*
D11*
X0139987Y0132239D02*
X0139987Y0133814D01*
X0139983Y0133881D01*
X0139983Y0133948D01*
X0139987Y0134016D01*
X0139995Y0134082D01*
X0140006Y0134149D01*
X0140022Y0134214D01*
X0140041Y0134279D01*
X0140063Y0134342D01*
X0140089Y0134404D01*
X0140119Y0134465D01*
X0140152Y0134523D01*
X0140188Y0134580D01*
X0140228Y0134634D01*
X0140270Y0134687D01*
X0140316Y0134736D01*
X0140364Y0134783D01*
X0140415Y0134827D01*
X0140468Y0134869D01*
X0140523Y0134907D01*
X0140581Y0134941D01*
X0140640Y0134973D01*
X0140702Y0135001D01*
X0140764Y0135026D01*
X0140828Y0135047D01*
X0140893Y0135064D01*
X0140959Y0135077D01*
X0141026Y0135087D01*
X0141093Y0135093D01*
X0141160Y0135095D01*
X0141227Y0135093D01*
X0141227Y0135094D02*
X0141300Y0135091D01*
X0141372Y0135084D01*
X0141443Y0135073D01*
X0141514Y0135059D01*
X0141584Y0135041D01*
X0141653Y0135018D01*
X0141721Y0134993D01*
X0141787Y0134963D01*
X0141851Y0134930D01*
X0141914Y0134894D01*
X0141974Y0134854D01*
X0142033Y0134811D01*
X0142088Y0134765D01*
X0142142Y0134716D01*
X0142192Y0134665D01*
X0142240Y0134610D01*
X0142285Y0134553D01*
X0142326Y0134494D01*
X0142364Y0134433D01*
X0142399Y0134369D01*
X0142431Y0134304D01*
X0142458Y0134237D01*
X0142483Y0134169D01*
X0142503Y0134100D01*
X0142520Y0134029D01*
X0142533Y0133958D01*
X0142542Y0133886D01*
X0142547Y0133814D01*
X0142546Y0133814D02*
X0142546Y0132239D01*
X0142545Y0132169D01*
X0142540Y0132100D01*
X0142532Y0132031D01*
X0142520Y0131962D01*
X0142504Y0131895D01*
X0142484Y0131828D01*
X0142460Y0131762D01*
X0142433Y0131698D01*
X0142403Y0131636D01*
X0142369Y0131575D01*
X0142332Y0131516D01*
X0142291Y0131459D01*
X0142248Y0131405D01*
X0142201Y0131353D01*
X0142152Y0131304D01*
X0142100Y0131257D01*
X0142046Y0131214D01*
X0141989Y0131173D01*
X0141930Y0131136D01*
X0141869Y0131102D01*
X0141807Y0131072D01*
X0141743Y0131045D01*
X0141677Y0131021D01*
X0141610Y0131001D01*
X0141543Y0130985D01*
X0141474Y0130973D01*
X0141405Y0130965D01*
X0141336Y0130960D01*
X0141266Y0130959D01*
X0141197Y0130961D01*
X0141128Y0130967D01*
X0141059Y0130976D01*
X0140991Y0130989D01*
X0140924Y0131006D01*
X0140857Y0131026D01*
X0140792Y0131050D01*
X0140729Y0131077D01*
X0140666Y0131108D01*
X0140606Y0131142D01*
X0140548Y0131180D01*
X0140491Y0131220D01*
X0140437Y0131263D01*
X0140386Y0131310D01*
X0140337Y0131359D01*
X0140290Y0131410D01*
X0140247Y0131464D01*
X0140207Y0131521D01*
X0140169Y0131579D01*
X0140135Y0131639D01*
X0140104Y0131702D01*
X0140077Y0131765D01*
X0140053Y0131830D01*
X0140033Y0131897D01*
X0140016Y0131964D01*
X0140003Y0132032D01*
X0139994Y0132101D01*
X0139988Y0132170D01*
X0139986Y0132239D01*
X0159121Y0132239D02*
X0159121Y0133814D01*
X0159117Y0133881D01*
X0159117Y0133948D01*
X0159121Y0134016D01*
X0159129Y0134082D01*
X0159140Y0134149D01*
X0159156Y0134214D01*
X0159175Y0134279D01*
X0159197Y0134342D01*
X0159223Y0134404D01*
X0159253Y0134465D01*
X0159286Y0134523D01*
X0159322Y0134580D01*
X0159362Y0134634D01*
X0159404Y0134687D01*
X0159450Y0134736D01*
X0159498Y0134783D01*
X0159549Y0134827D01*
X0159602Y0134869D01*
X0159657Y0134907D01*
X0159715Y0134941D01*
X0159774Y0134973D01*
X0159836Y0135001D01*
X0159898Y0135026D01*
X0159962Y0135047D01*
X0160027Y0135064D01*
X0160093Y0135077D01*
X0160160Y0135087D01*
X0160227Y0135093D01*
X0160294Y0135095D01*
X0160361Y0135093D01*
X0160360Y0135094D02*
X0160433Y0135091D01*
X0160505Y0135084D01*
X0160576Y0135073D01*
X0160647Y0135059D01*
X0160717Y0135041D01*
X0160786Y0135018D01*
X0160854Y0134993D01*
X0160920Y0134963D01*
X0160984Y0134930D01*
X0161047Y0134894D01*
X0161107Y0134854D01*
X0161166Y0134811D01*
X0161221Y0134765D01*
X0161275Y0134716D01*
X0161325Y0134665D01*
X0161373Y0134610D01*
X0161418Y0134553D01*
X0161459Y0134494D01*
X0161497Y0134433D01*
X0161532Y0134369D01*
X0161564Y0134304D01*
X0161591Y0134237D01*
X0161616Y0134169D01*
X0161636Y0134100D01*
X0161653Y0134029D01*
X0161666Y0133958D01*
X0161675Y0133886D01*
X0161680Y0133814D01*
X0161680Y0132239D01*
X0161679Y0132169D01*
X0161674Y0132100D01*
X0161666Y0132031D01*
X0161654Y0131962D01*
X0161638Y0131895D01*
X0161618Y0131828D01*
X0161594Y0131762D01*
X0161567Y0131698D01*
X0161537Y0131636D01*
X0161503Y0131575D01*
X0161466Y0131516D01*
X0161425Y0131459D01*
X0161382Y0131405D01*
X0161335Y0131353D01*
X0161286Y0131304D01*
X0161234Y0131257D01*
X0161180Y0131214D01*
X0161123Y0131173D01*
X0161064Y0131136D01*
X0161003Y0131102D01*
X0160941Y0131072D01*
X0160877Y0131045D01*
X0160811Y0131021D01*
X0160744Y0131001D01*
X0160677Y0130985D01*
X0160608Y0130973D01*
X0160539Y0130965D01*
X0160470Y0130960D01*
X0160400Y0130959D01*
X0160331Y0130961D01*
X0160262Y0130967D01*
X0160193Y0130976D01*
X0160125Y0130989D01*
X0160058Y0131006D01*
X0159991Y0131026D01*
X0159926Y0131050D01*
X0159863Y0131077D01*
X0159800Y0131108D01*
X0159740Y0131142D01*
X0159682Y0131180D01*
X0159625Y0131220D01*
X0159571Y0131263D01*
X0159520Y0131310D01*
X0159471Y0131359D01*
X0159424Y0131410D01*
X0159381Y0131464D01*
X0159341Y0131521D01*
X0159303Y0131579D01*
X0159269Y0131639D01*
X0159238Y0131702D01*
X0159211Y0131765D01*
X0159187Y0131830D01*
X0159167Y0131897D01*
X0159150Y0131964D01*
X0159137Y0132032D01*
X0159128Y0132101D01*
X0159122Y0132170D01*
X0159120Y0132239D01*
X0160203Y0143774D02*
X0160203Y0146136D01*
X0160204Y0146136D02*
X0160214Y0146207D01*
X0160228Y0146276D01*
X0160246Y0146345D01*
X0160267Y0146413D01*
X0160292Y0146480D01*
X0160321Y0146545D01*
X0160353Y0146609D01*
X0160388Y0146670D01*
X0160426Y0146730D01*
X0160468Y0146788D01*
X0160513Y0146843D01*
X0160560Y0146897D01*
X0160610Y0146947D01*
X0160663Y0146995D01*
X0160718Y0147040D01*
X0160776Y0147081D01*
X0160835Y0147120D01*
X0160897Y0147156D01*
X0160960Y0147188D01*
X0161026Y0147217D01*
X0161092Y0147242D01*
X0161160Y0147264D01*
X0161229Y0147282D01*
X0161298Y0147297D01*
X0161368Y0147307D01*
X0161439Y0147314D01*
X0161510Y0147318D01*
X0161581Y0147317D01*
X0161582Y0147317D02*
X0161653Y0147318D01*
X0161724Y0147314D01*
X0161795Y0147307D01*
X0161865Y0147297D01*
X0161934Y0147282D01*
X0162003Y0147264D01*
X0162071Y0147242D01*
X0162137Y0147217D01*
X0162203Y0147188D01*
X0162266Y0147156D01*
X0162328Y0147120D01*
X0162387Y0147081D01*
X0162445Y0147040D01*
X0162500Y0146995D01*
X0162553Y0146947D01*
X0162603Y0146897D01*
X0162650Y0146843D01*
X0162695Y0146788D01*
X0162737Y0146730D01*
X0162775Y0146670D01*
X0162810Y0146609D01*
X0162842Y0146545D01*
X0162871Y0146480D01*
X0162896Y0146413D01*
X0162917Y0146345D01*
X0162935Y0146276D01*
X0162949Y0146207D01*
X0162959Y0146136D01*
X0162959Y0143774D01*
X0162959Y0143775D02*
X0162949Y0143704D01*
X0162935Y0143635D01*
X0162917Y0143566D01*
X0162896Y0143498D01*
X0162871Y0143431D01*
X0162842Y0143366D01*
X0162810Y0143302D01*
X0162775Y0143241D01*
X0162737Y0143181D01*
X0162695Y0143123D01*
X0162650Y0143068D01*
X0162603Y0143014D01*
X0162553Y0142964D01*
X0162500Y0142916D01*
X0162445Y0142871D01*
X0162387Y0142830D01*
X0162328Y0142791D01*
X0162266Y0142755D01*
X0162203Y0142723D01*
X0162137Y0142694D01*
X0162071Y0142669D01*
X0162003Y0142647D01*
X0161934Y0142629D01*
X0161865Y0142614D01*
X0161795Y0142604D01*
X0161724Y0142597D01*
X0161653Y0142593D01*
X0161582Y0142594D01*
X0161581Y0142594D02*
X0161510Y0142593D01*
X0161439Y0142597D01*
X0161368Y0142604D01*
X0161298Y0142614D01*
X0161229Y0142629D01*
X0161160Y0142647D01*
X0161092Y0142669D01*
X0161026Y0142694D01*
X0160960Y0142723D01*
X0160897Y0142755D01*
X0160835Y0142791D01*
X0160776Y0142830D01*
X0160718Y0142871D01*
X0160663Y0142916D01*
X0160610Y0142964D01*
X0160560Y0143014D01*
X0160513Y0143068D01*
X0160468Y0143123D01*
X0160426Y0143181D01*
X0160388Y0143241D01*
X0160353Y0143302D01*
X0160321Y0143366D01*
X0160292Y0143431D01*
X0160267Y0143498D01*
X0160246Y0143566D01*
X0160228Y0143635D01*
X0160214Y0143704D01*
X0160204Y0143775D01*
X0141463Y0143774D02*
X0141463Y0146136D01*
X0141453Y0146207D01*
X0141439Y0146276D01*
X0141421Y0146345D01*
X0141400Y0146413D01*
X0141375Y0146480D01*
X0141346Y0146545D01*
X0141314Y0146609D01*
X0141279Y0146670D01*
X0141241Y0146730D01*
X0141199Y0146788D01*
X0141154Y0146843D01*
X0141107Y0146897D01*
X0141057Y0146947D01*
X0141004Y0146995D01*
X0140949Y0147040D01*
X0140891Y0147081D01*
X0140832Y0147120D01*
X0140770Y0147156D01*
X0140707Y0147188D01*
X0140641Y0147217D01*
X0140575Y0147242D01*
X0140507Y0147264D01*
X0140438Y0147282D01*
X0140369Y0147297D01*
X0140299Y0147307D01*
X0140228Y0147314D01*
X0140157Y0147318D01*
X0140086Y0147317D01*
X0140085Y0147317D02*
X0140014Y0147318D01*
X0139943Y0147314D01*
X0139872Y0147307D01*
X0139802Y0147297D01*
X0139733Y0147282D01*
X0139664Y0147264D01*
X0139596Y0147242D01*
X0139530Y0147217D01*
X0139464Y0147188D01*
X0139401Y0147156D01*
X0139339Y0147120D01*
X0139280Y0147081D01*
X0139222Y0147040D01*
X0139167Y0146995D01*
X0139114Y0146947D01*
X0139064Y0146897D01*
X0139017Y0146843D01*
X0138972Y0146788D01*
X0138930Y0146730D01*
X0138892Y0146670D01*
X0138857Y0146609D01*
X0138825Y0146545D01*
X0138796Y0146480D01*
X0138771Y0146413D01*
X0138750Y0146345D01*
X0138732Y0146276D01*
X0138718Y0146207D01*
X0138708Y0146136D01*
X0138707Y0146136D02*
X0138707Y0143774D01*
X0138708Y0143775D02*
X0138718Y0143704D01*
X0138732Y0143635D01*
X0138750Y0143566D01*
X0138771Y0143498D01*
X0138796Y0143431D01*
X0138825Y0143366D01*
X0138857Y0143302D01*
X0138892Y0143241D01*
X0138930Y0143181D01*
X0138972Y0143123D01*
X0139017Y0143068D01*
X0139064Y0143014D01*
X0139114Y0142964D01*
X0139167Y0142916D01*
X0139222Y0142871D01*
X0139280Y0142830D01*
X0139339Y0142791D01*
X0139401Y0142755D01*
X0139464Y0142723D01*
X0139530Y0142694D01*
X0139596Y0142669D01*
X0139664Y0142647D01*
X0139733Y0142629D01*
X0139802Y0142614D01*
X0139872Y0142604D01*
X0139943Y0142597D01*
X0140014Y0142593D01*
X0140085Y0142594D01*
X0140086Y0142594D02*
X0140157Y0142593D01*
X0140228Y0142597D01*
X0140299Y0142604D01*
X0140369Y0142614D01*
X0140438Y0142629D01*
X0140507Y0142647D01*
X0140575Y0142669D01*
X0140641Y0142694D01*
X0140707Y0142723D01*
X0140770Y0142755D01*
X0140832Y0142791D01*
X0140891Y0142830D01*
X0140949Y0142871D01*
X0141004Y0142916D01*
X0141057Y0142964D01*
X0141107Y0143014D01*
X0141154Y0143068D01*
X0141199Y0143123D01*
X0141241Y0143181D01*
X0141279Y0143241D01*
X0141314Y0143302D01*
X0141346Y0143366D01*
X0141375Y0143431D01*
X0141400Y0143498D01*
X0141421Y0143566D01*
X0141439Y0143635D01*
X0141453Y0143704D01*
X0141463Y0143775D01*
D12*
X0177656Y0145733D02*
X0177658Y0145817D01*
X0177664Y0145900D01*
X0177674Y0145983D01*
X0177688Y0146066D01*
X0177705Y0146148D01*
X0177727Y0146229D01*
X0177752Y0146308D01*
X0177781Y0146387D01*
X0177814Y0146464D01*
X0177850Y0146539D01*
X0177890Y0146613D01*
X0177933Y0146685D01*
X0177980Y0146754D01*
X0178030Y0146821D01*
X0178083Y0146886D01*
X0178139Y0146948D01*
X0178197Y0147008D01*
X0178259Y0147065D01*
X0178323Y0147118D01*
X0178390Y0147169D01*
X0178459Y0147216D01*
X0178530Y0147261D01*
X0178603Y0147301D01*
X0178678Y0147338D01*
X0178755Y0147372D01*
X0178833Y0147402D01*
X0178912Y0147428D01*
X0178993Y0147451D01*
X0179075Y0147469D01*
X0179157Y0147484D01*
X0179240Y0147495D01*
X0179323Y0147502D01*
X0179407Y0147505D01*
X0179491Y0147504D01*
X0179574Y0147499D01*
X0179658Y0147490D01*
X0179740Y0147477D01*
X0179822Y0147461D01*
X0179903Y0147440D01*
X0179984Y0147416D01*
X0180062Y0147388D01*
X0180140Y0147356D01*
X0180216Y0147320D01*
X0180290Y0147281D01*
X0180362Y0147239D01*
X0180432Y0147193D01*
X0180500Y0147144D01*
X0180565Y0147092D01*
X0180628Y0147037D01*
X0180688Y0146979D01*
X0180746Y0146918D01*
X0180800Y0146854D01*
X0180852Y0146788D01*
X0180900Y0146720D01*
X0180945Y0146649D01*
X0180986Y0146576D01*
X0181025Y0146502D01*
X0181059Y0146426D01*
X0181090Y0146348D01*
X0181117Y0146269D01*
X0181141Y0146188D01*
X0181160Y0146107D01*
X0181176Y0146025D01*
X0181188Y0145942D01*
X0181196Y0145858D01*
X0181200Y0145775D01*
X0181200Y0145691D01*
X0181196Y0145608D01*
X0181188Y0145524D01*
X0181176Y0145441D01*
X0181160Y0145359D01*
X0181141Y0145278D01*
X0181117Y0145197D01*
X0181090Y0145118D01*
X0181059Y0145040D01*
X0181025Y0144964D01*
X0180986Y0144890D01*
X0180945Y0144817D01*
X0180900Y0144746D01*
X0180852Y0144678D01*
X0180800Y0144612D01*
X0180746Y0144548D01*
X0180688Y0144487D01*
X0180628Y0144429D01*
X0180565Y0144374D01*
X0180500Y0144322D01*
X0180432Y0144273D01*
X0180362Y0144227D01*
X0180290Y0144185D01*
X0180216Y0144146D01*
X0180140Y0144110D01*
X0180062Y0144078D01*
X0179984Y0144050D01*
X0179903Y0144026D01*
X0179822Y0144005D01*
X0179740Y0143989D01*
X0179658Y0143976D01*
X0179574Y0143967D01*
X0179491Y0143962D01*
X0179407Y0143961D01*
X0179323Y0143964D01*
X0179240Y0143971D01*
X0179157Y0143982D01*
X0179075Y0143997D01*
X0178993Y0144015D01*
X0178912Y0144038D01*
X0178833Y0144064D01*
X0178755Y0144094D01*
X0178678Y0144128D01*
X0178603Y0144165D01*
X0178530Y0144205D01*
X0178459Y0144250D01*
X0178390Y0144297D01*
X0178323Y0144348D01*
X0178259Y0144401D01*
X0178197Y0144458D01*
X0178139Y0144518D01*
X0178083Y0144580D01*
X0178030Y0144645D01*
X0177980Y0144712D01*
X0177933Y0144781D01*
X0177890Y0144853D01*
X0177850Y0144927D01*
X0177814Y0145002D01*
X0177781Y0145079D01*
X0177752Y0145158D01*
X0177727Y0145237D01*
X0177705Y0145318D01*
X0177688Y0145400D01*
X0177674Y0145483D01*
X0177664Y0145566D01*
X0177658Y0145649D01*
X0177656Y0145733D01*
X0189467Y0145733D02*
X0189469Y0145817D01*
X0189475Y0145900D01*
X0189485Y0145983D01*
X0189499Y0146066D01*
X0189516Y0146148D01*
X0189538Y0146229D01*
X0189563Y0146308D01*
X0189592Y0146387D01*
X0189625Y0146464D01*
X0189661Y0146539D01*
X0189701Y0146613D01*
X0189744Y0146685D01*
X0189791Y0146754D01*
X0189841Y0146821D01*
X0189894Y0146886D01*
X0189950Y0146948D01*
X0190008Y0147008D01*
X0190070Y0147065D01*
X0190134Y0147118D01*
X0190201Y0147169D01*
X0190270Y0147216D01*
X0190341Y0147261D01*
X0190414Y0147301D01*
X0190489Y0147338D01*
X0190566Y0147372D01*
X0190644Y0147402D01*
X0190723Y0147428D01*
X0190804Y0147451D01*
X0190886Y0147469D01*
X0190968Y0147484D01*
X0191051Y0147495D01*
X0191134Y0147502D01*
X0191218Y0147505D01*
X0191302Y0147504D01*
X0191385Y0147499D01*
X0191469Y0147490D01*
X0191551Y0147477D01*
X0191633Y0147461D01*
X0191714Y0147440D01*
X0191795Y0147416D01*
X0191873Y0147388D01*
X0191951Y0147356D01*
X0192027Y0147320D01*
X0192101Y0147281D01*
X0192173Y0147239D01*
X0192243Y0147193D01*
X0192311Y0147144D01*
X0192376Y0147092D01*
X0192439Y0147037D01*
X0192499Y0146979D01*
X0192557Y0146918D01*
X0192611Y0146854D01*
X0192663Y0146788D01*
X0192711Y0146720D01*
X0192756Y0146649D01*
X0192797Y0146576D01*
X0192836Y0146502D01*
X0192870Y0146426D01*
X0192901Y0146348D01*
X0192928Y0146269D01*
X0192952Y0146188D01*
X0192971Y0146107D01*
X0192987Y0146025D01*
X0192999Y0145942D01*
X0193007Y0145858D01*
X0193011Y0145775D01*
X0193011Y0145691D01*
X0193007Y0145608D01*
X0192999Y0145524D01*
X0192987Y0145441D01*
X0192971Y0145359D01*
X0192952Y0145278D01*
X0192928Y0145197D01*
X0192901Y0145118D01*
X0192870Y0145040D01*
X0192836Y0144964D01*
X0192797Y0144890D01*
X0192756Y0144817D01*
X0192711Y0144746D01*
X0192663Y0144678D01*
X0192611Y0144612D01*
X0192557Y0144548D01*
X0192499Y0144487D01*
X0192439Y0144429D01*
X0192376Y0144374D01*
X0192311Y0144322D01*
X0192243Y0144273D01*
X0192173Y0144227D01*
X0192101Y0144185D01*
X0192027Y0144146D01*
X0191951Y0144110D01*
X0191873Y0144078D01*
X0191795Y0144050D01*
X0191714Y0144026D01*
X0191633Y0144005D01*
X0191551Y0143989D01*
X0191469Y0143976D01*
X0191385Y0143967D01*
X0191302Y0143962D01*
X0191218Y0143961D01*
X0191134Y0143964D01*
X0191051Y0143971D01*
X0190968Y0143982D01*
X0190886Y0143997D01*
X0190804Y0144015D01*
X0190723Y0144038D01*
X0190644Y0144064D01*
X0190566Y0144094D01*
X0190489Y0144128D01*
X0190414Y0144165D01*
X0190341Y0144205D01*
X0190270Y0144250D01*
X0190201Y0144297D01*
X0190134Y0144348D01*
X0190070Y0144401D01*
X0190008Y0144458D01*
X0189950Y0144518D01*
X0189894Y0144580D01*
X0189841Y0144645D01*
X0189791Y0144712D01*
X0189744Y0144781D01*
X0189701Y0144853D01*
X0189661Y0144927D01*
X0189625Y0145002D01*
X0189592Y0145079D01*
X0189563Y0145158D01*
X0189538Y0145237D01*
X0189516Y0145318D01*
X0189499Y0145400D01*
X0189485Y0145483D01*
X0189475Y0145566D01*
X0189469Y0145649D01*
X0189467Y0145733D01*
X0206833Y0142333D02*
X0206835Y0142494D01*
X0206841Y0142654D01*
X0206851Y0142815D01*
X0206865Y0142975D01*
X0206883Y0143135D01*
X0206904Y0143294D01*
X0206930Y0143453D01*
X0206960Y0143611D01*
X0206993Y0143768D01*
X0207031Y0143925D01*
X0207072Y0144080D01*
X0207117Y0144234D01*
X0207166Y0144387D01*
X0207219Y0144539D01*
X0207275Y0144690D01*
X0207336Y0144839D01*
X0207399Y0144987D01*
X0207467Y0145133D01*
X0207538Y0145277D01*
X0207612Y0145419D01*
X0207690Y0145560D01*
X0207772Y0145698D01*
X0207857Y0145835D01*
X0207945Y0145969D01*
X0208037Y0146101D01*
X0208132Y0146231D01*
X0208230Y0146359D01*
X0208331Y0146484D01*
X0208435Y0146606D01*
X0208542Y0146726D01*
X0208652Y0146843D01*
X0208765Y0146958D01*
X0208881Y0147069D01*
X0209000Y0147178D01*
X0209121Y0147283D01*
X0209245Y0147386D01*
X0209371Y0147486D01*
X0209499Y0147582D01*
X0209630Y0147675D01*
X0209764Y0147765D01*
X0209899Y0147852D01*
X0210037Y0147935D01*
X0210176Y0148015D01*
X0210318Y0148091D01*
X0210461Y0148164D01*
X0210606Y0148233D01*
X0210753Y0148299D01*
X0210901Y0148361D01*
X0211051Y0148419D01*
X0211202Y0148474D01*
X0211355Y0148525D01*
X0211509Y0148572D01*
X0211664Y0148615D01*
X0211820Y0148654D01*
X0211976Y0148690D01*
X0212134Y0148721D01*
X0212292Y0148749D01*
X0212451Y0148773D01*
X0212611Y0148793D01*
X0212771Y0148809D01*
X0212931Y0148821D01*
X0213092Y0148829D01*
X0213253Y0148833D01*
X0213413Y0148833D01*
X0213574Y0148829D01*
X0213735Y0148821D01*
X0213895Y0148809D01*
X0214055Y0148793D01*
X0214215Y0148773D01*
X0214374Y0148749D01*
X0214532Y0148721D01*
X0214690Y0148690D01*
X0214846Y0148654D01*
X0215002Y0148615D01*
X0215157Y0148572D01*
X0215311Y0148525D01*
X0215464Y0148474D01*
X0215615Y0148419D01*
X0215765Y0148361D01*
X0215913Y0148299D01*
X0216060Y0148233D01*
X0216205Y0148164D01*
X0216348Y0148091D01*
X0216490Y0148015D01*
X0216629Y0147935D01*
X0216767Y0147852D01*
X0216902Y0147765D01*
X0217036Y0147675D01*
X0217167Y0147582D01*
X0217295Y0147486D01*
X0217421Y0147386D01*
X0217545Y0147283D01*
X0217666Y0147178D01*
X0217785Y0147069D01*
X0217901Y0146958D01*
X0218014Y0146843D01*
X0218124Y0146726D01*
X0218231Y0146606D01*
X0218335Y0146484D01*
X0218436Y0146359D01*
X0218534Y0146231D01*
X0218629Y0146101D01*
X0218721Y0145969D01*
X0218809Y0145835D01*
X0218894Y0145698D01*
X0218976Y0145560D01*
X0219054Y0145419D01*
X0219128Y0145277D01*
X0219199Y0145133D01*
X0219267Y0144987D01*
X0219330Y0144839D01*
X0219391Y0144690D01*
X0219447Y0144539D01*
X0219500Y0144387D01*
X0219549Y0144234D01*
X0219594Y0144080D01*
X0219635Y0143925D01*
X0219673Y0143768D01*
X0219706Y0143611D01*
X0219736Y0143453D01*
X0219762Y0143294D01*
X0219783Y0143135D01*
X0219801Y0142975D01*
X0219815Y0142815D01*
X0219825Y0142654D01*
X0219831Y0142494D01*
X0219833Y0142333D01*
X0219831Y0142172D01*
X0219825Y0142012D01*
X0219815Y0141851D01*
X0219801Y0141691D01*
X0219783Y0141531D01*
X0219762Y0141372D01*
X0219736Y0141213D01*
X0219706Y0141055D01*
X0219673Y0140898D01*
X0219635Y0140741D01*
X0219594Y0140586D01*
X0219549Y0140432D01*
X0219500Y0140279D01*
X0219447Y0140127D01*
X0219391Y0139976D01*
X0219330Y0139827D01*
X0219267Y0139679D01*
X0219199Y0139533D01*
X0219128Y0139389D01*
X0219054Y0139247D01*
X0218976Y0139106D01*
X0218894Y0138968D01*
X0218809Y0138831D01*
X0218721Y0138697D01*
X0218629Y0138565D01*
X0218534Y0138435D01*
X0218436Y0138307D01*
X0218335Y0138182D01*
X0218231Y0138060D01*
X0218124Y0137940D01*
X0218014Y0137823D01*
X0217901Y0137708D01*
X0217785Y0137597D01*
X0217666Y0137488D01*
X0217545Y0137383D01*
X0217421Y0137280D01*
X0217295Y0137180D01*
X0217167Y0137084D01*
X0217036Y0136991D01*
X0216902Y0136901D01*
X0216767Y0136814D01*
X0216629Y0136731D01*
X0216490Y0136651D01*
X0216348Y0136575D01*
X0216205Y0136502D01*
X0216060Y0136433D01*
X0215913Y0136367D01*
X0215765Y0136305D01*
X0215615Y0136247D01*
X0215464Y0136192D01*
X0215311Y0136141D01*
X0215157Y0136094D01*
X0215002Y0136051D01*
X0214846Y0136012D01*
X0214690Y0135976D01*
X0214532Y0135945D01*
X0214374Y0135917D01*
X0214215Y0135893D01*
X0214055Y0135873D01*
X0213895Y0135857D01*
X0213735Y0135845D01*
X0213574Y0135837D01*
X0213413Y0135833D01*
X0213253Y0135833D01*
X0213092Y0135837D01*
X0212931Y0135845D01*
X0212771Y0135857D01*
X0212611Y0135873D01*
X0212451Y0135893D01*
X0212292Y0135917D01*
X0212134Y0135945D01*
X0211976Y0135976D01*
X0211820Y0136012D01*
X0211664Y0136051D01*
X0211509Y0136094D01*
X0211355Y0136141D01*
X0211202Y0136192D01*
X0211051Y0136247D01*
X0210901Y0136305D01*
X0210753Y0136367D01*
X0210606Y0136433D01*
X0210461Y0136502D01*
X0210318Y0136575D01*
X0210176Y0136651D01*
X0210037Y0136731D01*
X0209899Y0136814D01*
X0209764Y0136901D01*
X0209630Y0136991D01*
X0209499Y0137084D01*
X0209371Y0137180D01*
X0209245Y0137280D01*
X0209121Y0137383D01*
X0209000Y0137488D01*
X0208881Y0137597D01*
X0208765Y0137708D01*
X0208652Y0137823D01*
X0208542Y0137940D01*
X0208435Y0138060D01*
X0208331Y0138182D01*
X0208230Y0138307D01*
X0208132Y0138435D01*
X0208037Y0138565D01*
X0207945Y0138697D01*
X0207857Y0138831D01*
X0207772Y0138968D01*
X0207690Y0139106D01*
X0207612Y0139247D01*
X0207538Y0139389D01*
X0207467Y0139533D01*
X0207399Y0139679D01*
X0207336Y0139827D01*
X0207275Y0139976D01*
X0207219Y0140127D01*
X0207166Y0140279D01*
X0207117Y0140432D01*
X0207072Y0140586D01*
X0207031Y0140741D01*
X0206993Y0140898D01*
X0206960Y0141055D01*
X0206930Y0141213D01*
X0206904Y0141372D01*
X0206883Y0141531D01*
X0206865Y0141691D01*
X0206851Y0141851D01*
X0206841Y0142012D01*
X0206835Y0142172D01*
X0206833Y0142333D01*
X0206833Y0062333D02*
X0206835Y0062494D01*
X0206841Y0062654D01*
X0206851Y0062815D01*
X0206865Y0062975D01*
X0206883Y0063135D01*
X0206904Y0063294D01*
X0206930Y0063453D01*
X0206960Y0063611D01*
X0206993Y0063768D01*
X0207031Y0063925D01*
X0207072Y0064080D01*
X0207117Y0064234D01*
X0207166Y0064387D01*
X0207219Y0064539D01*
X0207275Y0064690D01*
X0207336Y0064839D01*
X0207399Y0064987D01*
X0207467Y0065133D01*
X0207538Y0065277D01*
X0207612Y0065419D01*
X0207690Y0065560D01*
X0207772Y0065698D01*
X0207857Y0065835D01*
X0207945Y0065969D01*
X0208037Y0066101D01*
X0208132Y0066231D01*
X0208230Y0066359D01*
X0208331Y0066484D01*
X0208435Y0066606D01*
X0208542Y0066726D01*
X0208652Y0066843D01*
X0208765Y0066958D01*
X0208881Y0067069D01*
X0209000Y0067178D01*
X0209121Y0067283D01*
X0209245Y0067386D01*
X0209371Y0067486D01*
X0209499Y0067582D01*
X0209630Y0067675D01*
X0209764Y0067765D01*
X0209899Y0067852D01*
X0210037Y0067935D01*
X0210176Y0068015D01*
X0210318Y0068091D01*
X0210461Y0068164D01*
X0210606Y0068233D01*
X0210753Y0068299D01*
X0210901Y0068361D01*
X0211051Y0068419D01*
X0211202Y0068474D01*
X0211355Y0068525D01*
X0211509Y0068572D01*
X0211664Y0068615D01*
X0211820Y0068654D01*
X0211976Y0068690D01*
X0212134Y0068721D01*
X0212292Y0068749D01*
X0212451Y0068773D01*
X0212611Y0068793D01*
X0212771Y0068809D01*
X0212931Y0068821D01*
X0213092Y0068829D01*
X0213253Y0068833D01*
X0213413Y0068833D01*
X0213574Y0068829D01*
X0213735Y0068821D01*
X0213895Y0068809D01*
X0214055Y0068793D01*
X0214215Y0068773D01*
X0214374Y0068749D01*
X0214532Y0068721D01*
X0214690Y0068690D01*
X0214846Y0068654D01*
X0215002Y0068615D01*
X0215157Y0068572D01*
X0215311Y0068525D01*
X0215464Y0068474D01*
X0215615Y0068419D01*
X0215765Y0068361D01*
X0215913Y0068299D01*
X0216060Y0068233D01*
X0216205Y0068164D01*
X0216348Y0068091D01*
X0216490Y0068015D01*
X0216629Y0067935D01*
X0216767Y0067852D01*
X0216902Y0067765D01*
X0217036Y0067675D01*
X0217167Y0067582D01*
X0217295Y0067486D01*
X0217421Y0067386D01*
X0217545Y0067283D01*
X0217666Y0067178D01*
X0217785Y0067069D01*
X0217901Y0066958D01*
X0218014Y0066843D01*
X0218124Y0066726D01*
X0218231Y0066606D01*
X0218335Y0066484D01*
X0218436Y0066359D01*
X0218534Y0066231D01*
X0218629Y0066101D01*
X0218721Y0065969D01*
X0218809Y0065835D01*
X0218894Y0065698D01*
X0218976Y0065560D01*
X0219054Y0065419D01*
X0219128Y0065277D01*
X0219199Y0065133D01*
X0219267Y0064987D01*
X0219330Y0064839D01*
X0219391Y0064690D01*
X0219447Y0064539D01*
X0219500Y0064387D01*
X0219549Y0064234D01*
X0219594Y0064080D01*
X0219635Y0063925D01*
X0219673Y0063768D01*
X0219706Y0063611D01*
X0219736Y0063453D01*
X0219762Y0063294D01*
X0219783Y0063135D01*
X0219801Y0062975D01*
X0219815Y0062815D01*
X0219825Y0062654D01*
X0219831Y0062494D01*
X0219833Y0062333D01*
X0219831Y0062172D01*
X0219825Y0062012D01*
X0219815Y0061851D01*
X0219801Y0061691D01*
X0219783Y0061531D01*
X0219762Y0061372D01*
X0219736Y0061213D01*
X0219706Y0061055D01*
X0219673Y0060898D01*
X0219635Y0060741D01*
X0219594Y0060586D01*
X0219549Y0060432D01*
X0219500Y0060279D01*
X0219447Y0060127D01*
X0219391Y0059976D01*
X0219330Y0059827D01*
X0219267Y0059679D01*
X0219199Y0059533D01*
X0219128Y0059389D01*
X0219054Y0059247D01*
X0218976Y0059106D01*
X0218894Y0058968D01*
X0218809Y0058831D01*
X0218721Y0058697D01*
X0218629Y0058565D01*
X0218534Y0058435D01*
X0218436Y0058307D01*
X0218335Y0058182D01*
X0218231Y0058060D01*
X0218124Y0057940D01*
X0218014Y0057823D01*
X0217901Y0057708D01*
X0217785Y0057597D01*
X0217666Y0057488D01*
X0217545Y0057383D01*
X0217421Y0057280D01*
X0217295Y0057180D01*
X0217167Y0057084D01*
X0217036Y0056991D01*
X0216902Y0056901D01*
X0216767Y0056814D01*
X0216629Y0056731D01*
X0216490Y0056651D01*
X0216348Y0056575D01*
X0216205Y0056502D01*
X0216060Y0056433D01*
X0215913Y0056367D01*
X0215765Y0056305D01*
X0215615Y0056247D01*
X0215464Y0056192D01*
X0215311Y0056141D01*
X0215157Y0056094D01*
X0215002Y0056051D01*
X0214846Y0056012D01*
X0214690Y0055976D01*
X0214532Y0055945D01*
X0214374Y0055917D01*
X0214215Y0055893D01*
X0214055Y0055873D01*
X0213895Y0055857D01*
X0213735Y0055845D01*
X0213574Y0055837D01*
X0213413Y0055833D01*
X0213253Y0055833D01*
X0213092Y0055837D01*
X0212931Y0055845D01*
X0212771Y0055857D01*
X0212611Y0055873D01*
X0212451Y0055893D01*
X0212292Y0055917D01*
X0212134Y0055945D01*
X0211976Y0055976D01*
X0211820Y0056012D01*
X0211664Y0056051D01*
X0211509Y0056094D01*
X0211355Y0056141D01*
X0211202Y0056192D01*
X0211051Y0056247D01*
X0210901Y0056305D01*
X0210753Y0056367D01*
X0210606Y0056433D01*
X0210461Y0056502D01*
X0210318Y0056575D01*
X0210176Y0056651D01*
X0210037Y0056731D01*
X0209899Y0056814D01*
X0209764Y0056901D01*
X0209630Y0056991D01*
X0209499Y0057084D01*
X0209371Y0057180D01*
X0209245Y0057280D01*
X0209121Y0057383D01*
X0209000Y0057488D01*
X0208881Y0057597D01*
X0208765Y0057708D01*
X0208652Y0057823D01*
X0208542Y0057940D01*
X0208435Y0058060D01*
X0208331Y0058182D01*
X0208230Y0058307D01*
X0208132Y0058435D01*
X0208037Y0058565D01*
X0207945Y0058697D01*
X0207857Y0058831D01*
X0207772Y0058968D01*
X0207690Y0059106D01*
X0207612Y0059247D01*
X0207538Y0059389D01*
X0207467Y0059533D01*
X0207399Y0059679D01*
X0207336Y0059827D01*
X0207275Y0059976D01*
X0207219Y0060127D01*
X0207166Y0060279D01*
X0207117Y0060432D01*
X0207072Y0060586D01*
X0207031Y0060741D01*
X0206993Y0060898D01*
X0206960Y0061055D01*
X0206930Y0061213D01*
X0206904Y0061372D01*
X0206883Y0061531D01*
X0206865Y0061691D01*
X0206851Y0061851D01*
X0206841Y0062012D01*
X0206835Y0062172D01*
X0206833Y0062333D01*
X0126833Y0062333D02*
X0126835Y0062494D01*
X0126841Y0062654D01*
X0126851Y0062815D01*
X0126865Y0062975D01*
X0126883Y0063135D01*
X0126904Y0063294D01*
X0126930Y0063453D01*
X0126960Y0063611D01*
X0126993Y0063768D01*
X0127031Y0063925D01*
X0127072Y0064080D01*
X0127117Y0064234D01*
X0127166Y0064387D01*
X0127219Y0064539D01*
X0127275Y0064690D01*
X0127336Y0064839D01*
X0127399Y0064987D01*
X0127467Y0065133D01*
X0127538Y0065277D01*
X0127612Y0065419D01*
X0127690Y0065560D01*
X0127772Y0065698D01*
X0127857Y0065835D01*
X0127945Y0065969D01*
X0128037Y0066101D01*
X0128132Y0066231D01*
X0128230Y0066359D01*
X0128331Y0066484D01*
X0128435Y0066606D01*
X0128542Y0066726D01*
X0128652Y0066843D01*
X0128765Y0066958D01*
X0128881Y0067069D01*
X0129000Y0067178D01*
X0129121Y0067283D01*
X0129245Y0067386D01*
X0129371Y0067486D01*
X0129499Y0067582D01*
X0129630Y0067675D01*
X0129764Y0067765D01*
X0129899Y0067852D01*
X0130037Y0067935D01*
X0130176Y0068015D01*
X0130318Y0068091D01*
X0130461Y0068164D01*
X0130606Y0068233D01*
X0130753Y0068299D01*
X0130901Y0068361D01*
X0131051Y0068419D01*
X0131202Y0068474D01*
X0131355Y0068525D01*
X0131509Y0068572D01*
X0131664Y0068615D01*
X0131820Y0068654D01*
X0131976Y0068690D01*
X0132134Y0068721D01*
X0132292Y0068749D01*
X0132451Y0068773D01*
X0132611Y0068793D01*
X0132771Y0068809D01*
X0132931Y0068821D01*
X0133092Y0068829D01*
X0133253Y0068833D01*
X0133413Y0068833D01*
X0133574Y0068829D01*
X0133735Y0068821D01*
X0133895Y0068809D01*
X0134055Y0068793D01*
X0134215Y0068773D01*
X0134374Y0068749D01*
X0134532Y0068721D01*
X0134690Y0068690D01*
X0134846Y0068654D01*
X0135002Y0068615D01*
X0135157Y0068572D01*
X0135311Y0068525D01*
X0135464Y0068474D01*
X0135615Y0068419D01*
X0135765Y0068361D01*
X0135913Y0068299D01*
X0136060Y0068233D01*
X0136205Y0068164D01*
X0136348Y0068091D01*
X0136490Y0068015D01*
X0136629Y0067935D01*
X0136767Y0067852D01*
X0136902Y0067765D01*
X0137036Y0067675D01*
X0137167Y0067582D01*
X0137295Y0067486D01*
X0137421Y0067386D01*
X0137545Y0067283D01*
X0137666Y0067178D01*
X0137785Y0067069D01*
X0137901Y0066958D01*
X0138014Y0066843D01*
X0138124Y0066726D01*
X0138231Y0066606D01*
X0138335Y0066484D01*
X0138436Y0066359D01*
X0138534Y0066231D01*
X0138629Y0066101D01*
X0138721Y0065969D01*
X0138809Y0065835D01*
X0138894Y0065698D01*
X0138976Y0065560D01*
X0139054Y0065419D01*
X0139128Y0065277D01*
X0139199Y0065133D01*
X0139267Y0064987D01*
X0139330Y0064839D01*
X0139391Y0064690D01*
X0139447Y0064539D01*
X0139500Y0064387D01*
X0139549Y0064234D01*
X0139594Y0064080D01*
X0139635Y0063925D01*
X0139673Y0063768D01*
X0139706Y0063611D01*
X0139736Y0063453D01*
X0139762Y0063294D01*
X0139783Y0063135D01*
X0139801Y0062975D01*
X0139815Y0062815D01*
X0139825Y0062654D01*
X0139831Y0062494D01*
X0139833Y0062333D01*
X0139831Y0062172D01*
X0139825Y0062012D01*
X0139815Y0061851D01*
X0139801Y0061691D01*
X0139783Y0061531D01*
X0139762Y0061372D01*
X0139736Y0061213D01*
X0139706Y0061055D01*
X0139673Y0060898D01*
X0139635Y0060741D01*
X0139594Y0060586D01*
X0139549Y0060432D01*
X0139500Y0060279D01*
X0139447Y0060127D01*
X0139391Y0059976D01*
X0139330Y0059827D01*
X0139267Y0059679D01*
X0139199Y0059533D01*
X0139128Y0059389D01*
X0139054Y0059247D01*
X0138976Y0059106D01*
X0138894Y0058968D01*
X0138809Y0058831D01*
X0138721Y0058697D01*
X0138629Y0058565D01*
X0138534Y0058435D01*
X0138436Y0058307D01*
X0138335Y0058182D01*
X0138231Y0058060D01*
X0138124Y0057940D01*
X0138014Y0057823D01*
X0137901Y0057708D01*
X0137785Y0057597D01*
X0137666Y0057488D01*
X0137545Y0057383D01*
X0137421Y0057280D01*
X0137295Y0057180D01*
X0137167Y0057084D01*
X0137036Y0056991D01*
X0136902Y0056901D01*
X0136767Y0056814D01*
X0136629Y0056731D01*
X0136490Y0056651D01*
X0136348Y0056575D01*
X0136205Y0056502D01*
X0136060Y0056433D01*
X0135913Y0056367D01*
X0135765Y0056305D01*
X0135615Y0056247D01*
X0135464Y0056192D01*
X0135311Y0056141D01*
X0135157Y0056094D01*
X0135002Y0056051D01*
X0134846Y0056012D01*
X0134690Y0055976D01*
X0134532Y0055945D01*
X0134374Y0055917D01*
X0134215Y0055893D01*
X0134055Y0055873D01*
X0133895Y0055857D01*
X0133735Y0055845D01*
X0133574Y0055837D01*
X0133413Y0055833D01*
X0133253Y0055833D01*
X0133092Y0055837D01*
X0132931Y0055845D01*
X0132771Y0055857D01*
X0132611Y0055873D01*
X0132451Y0055893D01*
X0132292Y0055917D01*
X0132134Y0055945D01*
X0131976Y0055976D01*
X0131820Y0056012D01*
X0131664Y0056051D01*
X0131509Y0056094D01*
X0131355Y0056141D01*
X0131202Y0056192D01*
X0131051Y0056247D01*
X0130901Y0056305D01*
X0130753Y0056367D01*
X0130606Y0056433D01*
X0130461Y0056502D01*
X0130318Y0056575D01*
X0130176Y0056651D01*
X0130037Y0056731D01*
X0129899Y0056814D01*
X0129764Y0056901D01*
X0129630Y0056991D01*
X0129499Y0057084D01*
X0129371Y0057180D01*
X0129245Y0057280D01*
X0129121Y0057383D01*
X0129000Y0057488D01*
X0128881Y0057597D01*
X0128765Y0057708D01*
X0128652Y0057823D01*
X0128542Y0057940D01*
X0128435Y0058060D01*
X0128331Y0058182D01*
X0128230Y0058307D01*
X0128132Y0058435D01*
X0128037Y0058565D01*
X0127945Y0058697D01*
X0127857Y0058831D01*
X0127772Y0058968D01*
X0127690Y0059106D01*
X0127612Y0059247D01*
X0127538Y0059389D01*
X0127467Y0059533D01*
X0127399Y0059679D01*
X0127336Y0059827D01*
X0127275Y0059976D01*
X0127219Y0060127D01*
X0127166Y0060279D01*
X0127117Y0060432D01*
X0127072Y0060586D01*
X0127031Y0060741D01*
X0126993Y0060898D01*
X0126960Y0061055D01*
X0126930Y0061213D01*
X0126904Y0061372D01*
X0126883Y0061531D01*
X0126865Y0061691D01*
X0126851Y0061851D01*
X0126841Y0062012D01*
X0126835Y0062172D01*
X0126833Y0062333D01*
M02*
