G75*
%MOIN*%
%OFA0B0*%
%FSLAX25Y25*%
%IPPOS*%
%LPD*%
%AMOC8*
5,1,8,0,0,1.08239X$1,22.5*
%
%ADD10C,0.01200*%
%ADD11C,0.00591*%
%ADD12C,0.02362*%
%ADD13C,0.00800*%
%ADD14C,0.00300*%
%ADD15R,0.02559X0.00197*%
%ADD16R,0.02953X0.00197*%
%ADD17R,0.02953X0.00236*%
%ADD18R,0.00591X0.00197*%
%ADD19R,0.00984X0.00197*%
%ADD20R,0.01378X0.00197*%
%ADD21R,0.03346X0.00236*%
%ADD22R,0.03346X0.00197*%
%ADD23R,0.01378X0.00236*%
%ADD24R,0.00984X0.00236*%
%ADD25R,0.10039X0.00118*%
%ADD26R,0.10394X0.00118*%
%ADD27R,0.10630X0.00079*%
%ADD28R,0.10748X0.00157*%
%ADD29R,0.10866X0.00118*%
%ADD30R,0.10984X0.00118*%
%ADD31R,0.11102X0.00079*%
%ADD32R,0.02835X0.00118*%
%ADD33R,0.02480X0.00118*%
%ADD34R,0.02953X0.00118*%
%ADD35R,0.01654X0.00118*%
%ADD36R,0.02598X0.00157*%
%ADD37R,0.01772X0.00157*%
%ADD38R,0.00827X0.00157*%
%ADD39R,0.01063X0.00157*%
%ADD40R,0.01535X0.00157*%
%ADD41R,0.01299X0.00118*%
%ADD42R,0.00472X0.00118*%
%ADD43R,0.00945X0.00118*%
%ADD44R,0.01417X0.00118*%
%ADD45R,0.00354X0.00118*%
%ADD46R,0.00709X0.00118*%
%ADD47R,0.02598X0.00118*%
%ADD48R,0.00827X0.00118*%
%ADD49R,0.00236X0.00118*%
%ADD50R,0.00591X0.00118*%
%ADD51R,0.02480X0.00157*%
%ADD52R,0.00236X0.00157*%
%ADD53R,0.00472X0.00157*%
%ADD54R,0.01417X0.00157*%
%ADD55R,0.01535X0.00118*%
%ADD56R,0.01772X0.00118*%
%ADD57R,0.01181X0.00118*%
%ADD58R,0.01654X0.00157*%
%ADD59R,0.02008X0.00157*%
%ADD60R,0.00118X0.00157*%
%ADD61R,0.01890X0.00157*%
%ADD62R,0.02126X0.00118*%
%ADD63R,0.02008X0.00118*%
%ADD64R,0.02717X0.00118*%
%ADD65R,0.02244X0.00118*%
%ADD66R,0.02835X0.00157*%
%ADD67R,0.00354X0.00157*%
%ADD68R,0.02126X0.00157*%
%ADD69R,0.02362X0.00157*%
%ADD70R,0.02362X0.00118*%
%ADD71R,0.03189X0.00118*%
%ADD72R,0.03661X0.00118*%
%ADD73R,0.03898X0.00157*%
%ADD74R,0.00118X0.00118*%
%ADD75R,0.01890X0.00118*%
%ADD76R,0.01063X0.00118*%
%ADD77R,0.00591X0.00157*%
%ADD78R,0.00709X0.00157*%
%ADD79R,0.00945X0.00157*%
%ADD80R,0.11102X0.00118*%
%ADD81R,0.10748X0.00118*%
%ADD82R,0.10512X0.00118*%
%ADD83R,0.01299X0.00157*%
%ADD84R,0.01181X0.00157*%
%ADD85R,0.03425X0.00118*%
%ADD86R,0.02244X0.00157*%
%ADD87R,0.00118X0.09331*%
%ADD88R,0.00118X0.10039*%
%ADD89R,0.00079X0.10512*%
%ADD90R,0.00157X0.10984*%
%ADD91R,0.00118X0.11220*%
%ADD92R,0.00118X0.11457*%
%ADD93R,0.00079X0.11693*%
%ADD94R,0.00118X0.11929*%
%ADD95R,0.00157X0.02244*%
%ADD96R,0.00157X0.01890*%
%ADD97R,0.00157X0.00354*%
%ADD98R,0.00157X0.03071*%
%ADD99R,0.00118X0.02126*%
%ADD100R,0.00118X0.01890*%
%ADD101R,0.00118X0.00354*%
%ADD102R,0.00118X0.02835*%
%ADD103R,0.00118X0.02244*%
%ADD104R,0.00118X0.01772*%
%ADD105R,0.00118X0.02598*%
%ADD106R,0.00157X0.02362*%
%ADD107R,0.00157X0.01772*%
%ADD108R,0.00157X0.02717*%
%ADD109R,0.00118X0.02362*%
%ADD110R,0.00118X0.00472*%
%ADD111R,0.00118X0.02008*%
%ADD112R,0.00118X0.00709*%
%ADD113R,0.00118X0.02480*%
%ADD114R,0.00118X0.00945*%
%ADD115R,0.00157X0.02480*%
%ADD116R,0.00157X0.02008*%
%ADD117R,0.00157X0.01063*%
%ADD118R,0.00118X0.01063*%
%ADD119R,0.00118X0.00827*%
%ADD120R,0.00118X0.01181*%
%ADD121R,0.00157X0.00827*%
%ADD122R,0.00157X0.01181*%
%ADD123R,0.00118X0.00591*%
%ADD124R,0.00157X0.02598*%
%ADD125R,0.00118X0.02717*%
%ADD126R,0.00157X0.02953*%
%ADD127R,0.00118X0.03071*%
%ADD128R,0.00118X0.11693*%
%ADD129R,0.00118X0.10984*%
%ADD130R,0.00118X0.10512*%
%ADD131R,0.02717X0.00157*%
%ADD132R,0.07323X0.00118*%
%ADD133R,0.07677X0.00118*%
%ADD134R,0.07913X0.00079*%
%ADD135R,0.08150X0.00157*%
%ADD136R,0.08268X0.00118*%
%ADD137R,0.08386X0.00118*%
%ADD138R,0.08504X0.00079*%
%ADD139R,0.05197X0.00118*%
%ADD140R,0.08504X0.00118*%
%ADD141R,0.08150X0.00118*%
%ADD142R,0.07913X0.00118*%
%ADD143R,0.00787X0.00197*%
%ADD144R,0.01181X0.00197*%
%ADD145R,0.02165X0.00197*%
%ADD146R,0.03740X0.00197*%
%ADD147R,0.04134X0.00197*%
%ADD148R,0.00394X0.00197*%
%ADD149R,0.04528X0.00197*%
%ADD150R,0.01772X0.00197*%
%ADD151R,0.01575X0.00197*%
%ADD152R,0.03150X0.00197*%
%ADD153R,0.04724X0.00236*%
%ADD154R,0.01181X0.00236*%
%ADD155R,0.00394X0.00236*%
%ADD156R,0.04331X0.00197*%
%ADD157R,0.01772X0.00236*%
%ADD158R,0.01969X0.00236*%
%ADD159R,0.05118X0.00197*%
%ADD160R,0.04921X0.00197*%
%ADD161R,0.04724X0.00197*%
%ADD162R,0.02756X0.00236*%
%ADD163R,0.02165X0.00236*%
%ADD164R,0.00197X0.00197*%
%ADD165R,0.01969X0.00197*%
%ADD166R,0.02362X0.00197*%
%ADD167R,0.02756X0.00197*%
%ADD168R,0.05709X0.00197*%
%ADD169R,0.03543X0.00197*%
%ADD170R,0.01575X0.00236*%
%ADD171R,0.02362X0.00236*%
%ADD172R,0.01102X0.00157*%
%ADD173R,0.00157X0.00157*%
%ADD174R,0.01260X0.00157*%
%ADD175R,0.00787X0.00157*%
%ADD176R,0.02205X0.00157*%
%ADD177R,0.01732X0.00157*%
%ADD178R,0.02677X0.00157*%
%ADD179R,0.02047X0.00157*%
%ADD180R,0.02520X0.00157*%
%ADD181R,0.02992X0.00157*%
%ADD182R,0.03150X0.00157*%
%ADD183R,0.01575X0.00157*%
%ADD184R,0.03307X0.00157*%
%ADD185R,0.04567X0.00157*%
%ADD186R,0.00315X0.00157*%
%ADD187R,0.03465X0.00157*%
%ADD188R,0.03622X0.00157*%
%ADD189R,0.00630X0.00157*%
%ADD190R,0.03780X0.00157*%
%ADD191R,0.03937X0.00157*%
%ADD192R,0.13386X0.00157*%
%ADD193R,0.13386X0.00118*%
%ADD194R,0.02913X0.00118*%
%ADD195R,0.09646X0.00118*%
%ADD196R,0.02638X0.00157*%
%ADD197R,0.00551X0.00157*%
%ADD198R,0.01378X0.00118*%
%ADD199R,0.00433X0.00118*%
%ADD200R,0.01220X0.00157*%
%ADD201R,0.00433X0.00157*%
%ADD202R,0.01929X0.00118*%
%ADD203R,0.00551X0.00118*%
%ADD204R,0.01220X0.00118*%
%ADD205R,0.02087X0.00118*%
%ADD206R,0.01929X0.00157*%
%ADD207R,0.01811X0.00118*%
%ADD208R,0.00984X0.00118*%
%ADD209R,0.00669X0.00157*%
%ADD210R,0.02638X0.00118*%
%ADD211R,0.01260X0.00118*%
%ADD212R,0.00394X0.00157*%
%ADD213R,0.01378X0.00157*%
%ADD214R,0.00394X0.00118*%
%ADD215R,0.00276X0.00157*%
%ADD216R,0.00276X0.00118*%
%ADD217R,0.01102X0.00118*%
%ADD218R,0.00984X0.00157*%
%ADD219R,0.01811X0.00157*%
%ADD220R,0.02087X0.00157*%
%ADD221R,0.02205X0.00118*%
%ADD222R,0.01496X0.00157*%
%ADD223R,0.02756X0.00118*%
%ADD224R,0.00669X0.00118*%
%ADD225R,0.12520X0.00157*%
%ADD226R,0.12520X0.00118*%
%ADD227R,0.06220X0.00118*%
%ADD228R,0.02047X0.00118*%
%ADD229R,0.01496X0.00118*%
%ADD230R,0.03031X0.00118*%
%ADD231R,0.00157X0.00118*%
%ADD232R,0.00157X0.01654*%
%ADD233R,0.00157X0.00591*%
%ADD234R,0.00157X0.01299*%
%ADD235R,0.00118X0.01299*%
%ADD236R,0.00118X0.01417*%
%ADD237R,0.00118X0.00236*%
%ADD238R,0.00157X0.00945*%
%ADD239R,0.00157X0.01535*%
%ADD240R,0.00118X0.01654*%
%ADD241R,0.00157X0.02835*%
%ADD242R,0.00157X0.00709*%
%ADD243R,0.00118X0.01535*%
%ADD244R,0.17480X0.00118*%
%ADD245R,0.17835X0.00118*%
%ADD246R,0.18071X0.00079*%
%ADD247R,0.18307X0.00157*%
%ADD248R,0.18425X0.00118*%
%ADD249R,0.18543X0.00118*%
%ADD250R,0.09921X0.00079*%
%ADD251R,0.08386X0.00079*%
%ADD252R,0.09803X0.00118*%
%ADD253R,0.03071X0.00157*%
%ADD254R,0.03307X0.00118*%
%ADD255R,0.03425X0.00157*%
%ADD256R,0.09567X0.00118*%
%ADD257R,0.08622X0.00118*%
%ADD258R,0.18307X0.00118*%
%ADD259R,0.18071X0.00118*%
%ADD260R,0.17008X0.00118*%
%ADD261R,0.17362X0.00118*%
%ADD262R,0.17598X0.00079*%
%ADD263R,0.17835X0.00157*%
%ADD264R,0.17953X0.00118*%
%ADD265R,0.09094X0.00118*%
%ADD266R,0.17598X0.00118*%
%ADD267R,0.07087X0.00118*%
%ADD268R,0.07441X0.00118*%
%ADD269R,0.07677X0.00079*%
%ADD270R,0.07913X0.00157*%
%ADD271R,0.08031X0.00118*%
%ADD272R,0.08268X0.00079*%
D10*
X0191733Y0096333D02*
X0191735Y0096434D01*
X0191741Y0096536D01*
X0191751Y0096637D01*
X0191765Y0096737D01*
X0191782Y0096837D01*
X0191804Y0096936D01*
X0191829Y0097034D01*
X0191859Y0097132D01*
X0191892Y0097228D01*
X0191928Y0097322D01*
X0191969Y0097415D01*
X0192013Y0097507D01*
X0192060Y0097596D01*
X0192112Y0097684D01*
X0192166Y0097770D01*
X0192224Y0097853D01*
X0192285Y0097934D01*
X0192349Y0098013D01*
X0192416Y0098089D01*
X0192486Y0098162D01*
X0192558Y0098233D01*
X0192634Y0098301D01*
X0192712Y0098366D01*
X0192792Y0098427D01*
X0192875Y0098486D01*
X0192960Y0098541D01*
X0193048Y0098593D01*
X0193137Y0098642D01*
X0193228Y0098686D01*
X0193320Y0098728D01*
X0193415Y0098765D01*
X0193510Y0098799D01*
X0193607Y0098830D01*
X0193705Y0098856D01*
X0193804Y0098879D01*
X0193904Y0098897D01*
X0194004Y0098912D01*
X0194105Y0098923D01*
X0194206Y0098930D01*
X0194308Y0098933D01*
X0194409Y0098932D01*
X0194510Y0098927D01*
X0194612Y0098918D01*
X0194712Y0098905D01*
X0194812Y0098888D01*
X0194912Y0098868D01*
X0195010Y0098843D01*
X0195107Y0098815D01*
X0195204Y0098783D01*
X0195299Y0098747D01*
X0195392Y0098708D01*
X0195484Y0098664D01*
X0195574Y0098618D01*
X0195662Y0098568D01*
X0195748Y0098514D01*
X0195832Y0098457D01*
X0195914Y0098397D01*
X0195993Y0098334D01*
X0196070Y0098267D01*
X0196144Y0098198D01*
X0196216Y0098126D01*
X0196284Y0098051D01*
X0196350Y0097974D01*
X0196412Y0097894D01*
X0196472Y0097812D01*
X0196528Y0097727D01*
X0196580Y0097640D01*
X0196630Y0097552D01*
X0196676Y0097461D01*
X0196718Y0097369D01*
X0196756Y0097275D01*
X0196791Y0097180D01*
X0196822Y0097083D01*
X0196850Y0096985D01*
X0196873Y0096887D01*
X0196893Y0096787D01*
X0196909Y0096687D01*
X0196921Y0096586D01*
X0196929Y0096485D01*
X0196933Y0096384D01*
X0196933Y0096282D01*
X0196929Y0096181D01*
X0196921Y0096080D01*
X0196909Y0095979D01*
X0196893Y0095879D01*
X0196873Y0095779D01*
X0196850Y0095681D01*
X0196822Y0095583D01*
X0196791Y0095486D01*
X0196756Y0095391D01*
X0196718Y0095297D01*
X0196676Y0095205D01*
X0196630Y0095114D01*
X0196580Y0095026D01*
X0196528Y0094939D01*
X0196472Y0094854D01*
X0196412Y0094772D01*
X0196350Y0094692D01*
X0196284Y0094615D01*
X0196216Y0094540D01*
X0196144Y0094468D01*
X0196070Y0094399D01*
X0195993Y0094332D01*
X0195914Y0094269D01*
X0195832Y0094209D01*
X0195748Y0094152D01*
X0195662Y0094098D01*
X0195574Y0094048D01*
X0195484Y0094002D01*
X0195392Y0093958D01*
X0195299Y0093919D01*
X0195204Y0093883D01*
X0195107Y0093851D01*
X0195010Y0093823D01*
X0194912Y0093798D01*
X0194812Y0093778D01*
X0194712Y0093761D01*
X0194612Y0093748D01*
X0194510Y0093739D01*
X0194409Y0093734D01*
X0194308Y0093733D01*
X0194206Y0093736D01*
X0194105Y0093743D01*
X0194004Y0093754D01*
X0193904Y0093769D01*
X0193804Y0093787D01*
X0193705Y0093810D01*
X0193607Y0093836D01*
X0193510Y0093867D01*
X0193415Y0093901D01*
X0193320Y0093938D01*
X0193228Y0093980D01*
X0193137Y0094024D01*
X0193048Y0094073D01*
X0192960Y0094125D01*
X0192875Y0094180D01*
X0192792Y0094239D01*
X0192712Y0094300D01*
X0192634Y0094365D01*
X0192558Y0094433D01*
X0192486Y0094504D01*
X0192416Y0094577D01*
X0192349Y0094653D01*
X0192285Y0094732D01*
X0192224Y0094813D01*
X0192166Y0094896D01*
X0192112Y0094982D01*
X0192060Y0095070D01*
X0192013Y0095159D01*
X0191969Y0095251D01*
X0191928Y0095344D01*
X0191892Y0095438D01*
X0191859Y0095534D01*
X0191829Y0095632D01*
X0191804Y0095730D01*
X0191782Y0095829D01*
X0191765Y0095929D01*
X0191751Y0096029D01*
X0191741Y0096130D01*
X0191735Y0096232D01*
X0191733Y0096333D01*
D11*
X0190969Y0118680D02*
X0189485Y0119890D01*
X0188887Y0119582D01*
X0188040Y0121628D01*
X0188418Y0121840D01*
X0188737Y0122135D01*
X0188978Y0122495D01*
X0189128Y0122902D01*
X0189179Y0123333D01*
X0189126Y0123772D01*
X0188970Y0124185D01*
X0188721Y0124550D01*
X0188392Y0124845D01*
X0188002Y0125053D01*
X0187574Y0125163D01*
X0187133Y0125167D01*
X0186702Y0125067D01*
X0186308Y0124867D01*
X0185973Y0124580D01*
X0185716Y0124221D01*
X0185551Y0123811D01*
X0185489Y0123373D01*
X0185532Y0122934D01*
X0185678Y0122517D01*
X0185920Y0122147D01*
X0186242Y0121845D01*
X0186627Y0121628D01*
X0185779Y0119582D01*
X0185182Y0119890D01*
X0183698Y0118680D01*
X0182680Y0119698D01*
X0183890Y0121182D01*
X0183582Y0121780D01*
X0183377Y0122420D01*
X0181472Y0122614D01*
X0181472Y0124053D01*
X0183377Y0124247D01*
X0183582Y0124887D01*
X0183890Y0125485D01*
X0182680Y0126969D01*
X0183698Y0127987D01*
X0185182Y0126777D01*
X0185780Y0127085D01*
X0186420Y0127290D01*
X0186614Y0129195D01*
X0188053Y0129195D01*
X0188247Y0127290D01*
X0188887Y0127085D01*
X0189485Y0126777D01*
X0190969Y0127987D01*
X0191987Y0126969D01*
X0190777Y0125485D01*
X0191085Y0124887D01*
X0191290Y0124247D01*
X0193195Y0124053D01*
X0193195Y0122614D01*
X0191290Y0122420D01*
X0191085Y0121780D01*
X0190777Y0121182D01*
X0191987Y0119698D01*
X0190969Y0118680D01*
X0191187Y0118897D02*
X0190702Y0118897D01*
X0189980Y0119486D02*
X0191776Y0119486D01*
X0191679Y0120076D02*
X0188683Y0120076D01*
X0188439Y0120665D02*
X0191198Y0120665D01*
X0190814Y0121254D02*
X0188195Y0121254D01*
X0188421Y0121843D02*
X0191105Y0121843D01*
X0191406Y0122432D02*
X0188935Y0122432D01*
X0189142Y0123021D02*
X0193195Y0123021D01*
X0193195Y0123610D02*
X0189146Y0123610D01*
X0188961Y0124199D02*
X0191759Y0124199D01*
X0191116Y0124788D02*
X0188455Y0124788D01*
X0186216Y0124788D02*
X0183550Y0124788D01*
X0183834Y0125377D02*
X0190832Y0125377D01*
X0191169Y0125966D02*
X0183498Y0125966D01*
X0183017Y0126555D02*
X0191649Y0126555D01*
X0191812Y0127144D02*
X0189936Y0127144D01*
X0190658Y0127733D02*
X0191223Y0127733D01*
X0188701Y0127144D02*
X0185966Y0127144D01*
X0186465Y0127733D02*
X0188202Y0127733D01*
X0188142Y0128322D02*
X0186525Y0128322D01*
X0186585Y0128911D02*
X0188082Y0128911D01*
X0184731Y0127144D02*
X0182855Y0127144D01*
X0183444Y0127733D02*
X0184008Y0127733D01*
X0182907Y0124199D02*
X0185707Y0124199D01*
X0185523Y0123610D02*
X0181472Y0123610D01*
X0181472Y0123021D02*
X0185523Y0123021D01*
X0185734Y0122432D02*
X0183261Y0122432D01*
X0183562Y0121843D02*
X0186246Y0121843D01*
X0186472Y0121254D02*
X0183853Y0121254D01*
X0183468Y0120665D02*
X0186228Y0120665D01*
X0185984Y0120076D02*
X0182988Y0120076D01*
X0182891Y0119486D02*
X0184687Y0119486D01*
X0183964Y0118897D02*
X0183480Y0118897D01*
D12*
X0169408Y0112908D03*
D13*
X0172227Y0111227D02*
X0172227Y0109940D01*
X0172227Y0111227D02*
X0150440Y0111227D01*
X0150440Y0109940D01*
X0147735Y0117617D02*
X0144585Y0117617D01*
X0144585Y0131396D01*
X0147735Y0127459D02*
X0147735Y0117617D01*
X0147735Y0127459D02*
X0152459Y0127459D01*
X0168207Y0127459D02*
X0172932Y0127459D01*
X0172932Y0117617D01*
X0176081Y0117617D01*
X0176081Y0131396D01*
X0168207Y0147144D02*
X0152459Y0147144D01*
X0150440Y0090727D02*
X0150440Y0089440D01*
X0172227Y0089440D01*
X0172227Y0090727D01*
X0193133Y0065133D02*
X0197533Y0065133D01*
X0197616Y0065131D01*
X0197699Y0065125D01*
X0197782Y0065116D01*
X0197864Y0065102D01*
X0197945Y0065085D01*
X0198026Y0065064D01*
X0198105Y0065040D01*
X0198183Y0065011D01*
X0198260Y0064980D01*
X0198335Y0064944D01*
X0198409Y0064906D01*
X0198481Y0064863D01*
X0198550Y0064818D01*
X0198618Y0064769D01*
X0198683Y0064718D01*
X0198746Y0064663D01*
X0198806Y0064606D01*
X0198863Y0064546D01*
X0198918Y0064483D01*
X0198969Y0064418D01*
X0199018Y0064350D01*
X0199063Y0064281D01*
X0199106Y0064209D01*
X0199144Y0064135D01*
X0199180Y0064060D01*
X0199211Y0063983D01*
X0199240Y0063905D01*
X0199264Y0063826D01*
X0199285Y0063745D01*
X0199302Y0063664D01*
X0199316Y0063582D01*
X0199325Y0063499D01*
X0199331Y0063416D01*
X0199333Y0063333D01*
X0199333Y0057333D01*
X0199331Y0057250D01*
X0199325Y0057167D01*
X0199316Y0057084D01*
X0199302Y0057002D01*
X0199285Y0056921D01*
X0199264Y0056840D01*
X0199240Y0056761D01*
X0199211Y0056683D01*
X0199180Y0056606D01*
X0199144Y0056531D01*
X0199106Y0056457D01*
X0199063Y0056385D01*
X0199018Y0056316D01*
X0198969Y0056248D01*
X0198918Y0056183D01*
X0198863Y0056120D01*
X0198806Y0056060D01*
X0198746Y0056003D01*
X0198683Y0055948D01*
X0198618Y0055897D01*
X0198550Y0055848D01*
X0198481Y0055803D01*
X0198409Y0055760D01*
X0198335Y0055722D01*
X0198260Y0055686D01*
X0198183Y0055655D01*
X0198105Y0055626D01*
X0198026Y0055602D01*
X0197945Y0055581D01*
X0197864Y0055564D01*
X0197782Y0055550D01*
X0197699Y0055541D01*
X0197616Y0055535D01*
X0197533Y0055533D01*
X0193133Y0055533D01*
X0193050Y0055535D01*
X0192967Y0055541D01*
X0192884Y0055550D01*
X0192802Y0055564D01*
X0192721Y0055581D01*
X0192640Y0055602D01*
X0192561Y0055626D01*
X0192483Y0055655D01*
X0192406Y0055686D01*
X0192331Y0055722D01*
X0192257Y0055760D01*
X0192185Y0055803D01*
X0192116Y0055848D01*
X0192048Y0055897D01*
X0191983Y0055948D01*
X0191920Y0056003D01*
X0191860Y0056060D01*
X0191803Y0056120D01*
X0191748Y0056183D01*
X0191697Y0056248D01*
X0191648Y0056316D01*
X0191603Y0056385D01*
X0191560Y0056457D01*
X0191522Y0056531D01*
X0191486Y0056606D01*
X0191455Y0056683D01*
X0191426Y0056761D01*
X0191402Y0056840D01*
X0191381Y0056921D01*
X0191364Y0057002D01*
X0191350Y0057084D01*
X0191341Y0057167D01*
X0191335Y0057250D01*
X0191333Y0057333D01*
X0191333Y0063333D01*
X0191335Y0063416D01*
X0191341Y0063499D01*
X0191350Y0063582D01*
X0191364Y0063664D01*
X0191381Y0063745D01*
X0191402Y0063826D01*
X0191426Y0063905D01*
X0191455Y0063983D01*
X0191486Y0064060D01*
X0191522Y0064135D01*
X0191560Y0064209D01*
X0191603Y0064281D01*
X0191648Y0064350D01*
X0191697Y0064418D01*
X0191748Y0064483D01*
X0191803Y0064546D01*
X0191860Y0064606D01*
X0191920Y0064663D01*
X0191983Y0064718D01*
X0192048Y0064769D01*
X0192116Y0064818D01*
X0192185Y0064863D01*
X0192257Y0064906D01*
X0192331Y0064944D01*
X0192406Y0064980D01*
X0192483Y0065011D01*
X0192561Y0065040D01*
X0192640Y0065064D01*
X0192721Y0065085D01*
X0192802Y0065102D01*
X0192884Y0065116D01*
X0192967Y0065125D01*
X0193050Y0065131D01*
X0193133Y0065133D01*
D14*
X0189542Y0076802D02*
X0189739Y0076959D01*
X0189936Y0077156D01*
X0190329Y0077471D01*
X0190684Y0077825D01*
X0190881Y0077983D01*
X0191077Y0078180D01*
X0191077Y0085424D01*
X0190881Y0085463D01*
X0190723Y0085503D01*
X0190526Y0085542D01*
X0190369Y0085542D01*
X0189975Y0085621D01*
X0189818Y0085660D01*
X0189621Y0085699D01*
X0189621Y0084991D01*
X0189306Y0085385D01*
X0188912Y0085621D01*
X0188676Y0085739D01*
X0187967Y0085857D01*
X0187337Y0085778D01*
X0186825Y0085581D01*
X0186392Y0085306D01*
X0186038Y0084951D01*
X0185762Y0084479D01*
X0185566Y0083967D01*
X0185448Y0083416D01*
X0185448Y0082865D01*
X0186944Y0082904D01*
X0187022Y0083534D01*
X0187140Y0083849D01*
X0187259Y0084125D01*
X0187455Y0084361D01*
X0187692Y0084518D01*
X0187967Y0084636D01*
X0188282Y0084676D01*
X0188636Y0084636D01*
X0188912Y0084518D01*
X0189148Y0084361D01*
X0189345Y0084125D01*
X0189463Y0083849D01*
X0189621Y0083219D01*
X0189621Y0082550D01*
X0189463Y0081920D01*
X0189148Y0081448D01*
X0188912Y0081290D01*
X0188636Y0081172D01*
X0188282Y0081133D01*
X0187928Y0081172D01*
X0187652Y0081290D01*
X0187416Y0081448D01*
X0187101Y0081920D01*
X0185762Y0081290D01*
X0186038Y0080857D01*
X0186392Y0080503D01*
X0186786Y0080227D01*
X0187298Y0080030D01*
X0187888Y0079991D01*
X0188125Y0079991D01*
X0188361Y0080030D01*
X0188833Y0080188D01*
X0189030Y0080306D01*
X0189227Y0080463D01*
X0189385Y0080621D01*
X0189542Y0080818D01*
X0189542Y0076802D01*
X0189542Y0076811D02*
X0189554Y0076811D01*
X0189542Y0077110D02*
X0189889Y0077110D01*
X0189542Y0077408D02*
X0190251Y0077408D01*
X0190565Y0077707D02*
X0189542Y0077707D01*
X0189542Y0078005D02*
X0190903Y0078005D01*
X0191077Y0078304D02*
X0189542Y0078304D01*
X0189542Y0078602D02*
X0191077Y0078602D01*
X0191077Y0078901D02*
X0189542Y0078901D01*
X0189542Y0079199D02*
X0191077Y0079199D01*
X0191077Y0079498D02*
X0189542Y0079498D01*
X0189542Y0079796D02*
X0191077Y0079796D01*
X0191077Y0080095D02*
X0189542Y0080095D01*
X0189542Y0080393D02*
X0191077Y0080393D01*
X0191077Y0080692D02*
X0189542Y0080692D01*
X0189441Y0080692D02*
X0186203Y0080692D01*
X0185953Y0080990D02*
X0191077Y0080990D01*
X0191077Y0081289D02*
X0188910Y0081289D01*
X0189242Y0081587D02*
X0191077Y0081587D01*
X0191077Y0081886D02*
X0189441Y0081886D01*
X0189529Y0082184D02*
X0191077Y0082184D01*
X0191077Y0082483D02*
X0189604Y0082483D01*
X0189621Y0082781D02*
X0191077Y0082781D01*
X0191077Y0083080D02*
X0189621Y0083080D01*
X0189581Y0083379D02*
X0191077Y0083379D01*
X0191077Y0083677D02*
X0189506Y0083677D01*
X0189409Y0083976D02*
X0191077Y0083976D01*
X0191077Y0084274D02*
X0189221Y0084274D01*
X0188786Y0084573D02*
X0191077Y0084573D01*
X0191077Y0084871D02*
X0185991Y0084871D01*
X0185817Y0084573D02*
X0187818Y0084573D01*
X0187383Y0084274D02*
X0185684Y0084274D01*
X0185569Y0083976D02*
X0187195Y0083976D01*
X0187076Y0083677D02*
X0185503Y0083677D01*
X0185448Y0083379D02*
X0187003Y0083379D01*
X0186966Y0083080D02*
X0185448Y0083080D01*
X0185448Y0082865D02*
X0185487Y0082314D01*
X0185566Y0081762D01*
X0185762Y0081290D01*
X0187101Y0081920D01*
X0187022Y0082235D01*
X0186983Y0082550D01*
X0186944Y0082904D01*
X0185448Y0082865D01*
X0185453Y0082781D02*
X0186957Y0082781D01*
X0186991Y0082483D02*
X0185475Y0082483D01*
X0185505Y0082184D02*
X0187035Y0082184D01*
X0187029Y0081886D02*
X0187124Y0081886D01*
X0187029Y0081886D02*
X0185548Y0081886D01*
X0185639Y0081587D02*
X0186394Y0081587D01*
X0187323Y0081587D01*
X0187655Y0081289D02*
X0185763Y0081289D01*
X0184975Y0081408D02*
X0184936Y0081211D01*
X0184857Y0080896D01*
X0184778Y0080739D01*
X0184660Y0080581D01*
X0184424Y0080345D01*
X0184306Y0080266D01*
X0183991Y0080109D01*
X0183833Y0080070D01*
X0183676Y0079991D01*
X0183479Y0079991D01*
X0183282Y0079951D01*
X0182967Y0079951D01*
X0182849Y0079991D01*
X0182573Y0079991D01*
X0182455Y0080030D01*
X0182337Y0080030D01*
X0182219Y0080070D01*
X0182062Y0080109D01*
X0181944Y0080148D01*
X0181825Y0080227D01*
X0181747Y0080266D01*
X0181629Y0080345D01*
X0181510Y0080385D01*
X0181392Y0080463D01*
X0181314Y0080581D01*
X0181235Y0080660D01*
X0181235Y0080581D01*
X0181196Y0080542D01*
X0181196Y0080306D01*
X0181156Y0080266D01*
X0181156Y0080227D01*
X0181117Y0080188D01*
X0181117Y0080109D01*
X0179581Y0080109D01*
X0179581Y0080148D01*
X0179621Y0080227D01*
X0179621Y0080266D01*
X0179660Y0080345D01*
X0179660Y0080385D01*
X0179699Y0080463D01*
X0179699Y0080621D01*
X0179739Y0080699D01*
X0179739Y0084243D01*
X0179818Y0084715D01*
X0179896Y0084873D01*
X0179975Y0085070D01*
X0180251Y0085345D01*
X0180408Y0085463D01*
X0180566Y0085542D01*
X0180762Y0085621D01*
X0180920Y0085660D01*
X0181156Y0085739D01*
X0181353Y0085778D01*
X0181550Y0085778D01*
X0181786Y0085818D01*
X0182652Y0085818D01*
X0183361Y0085699D01*
X0183755Y0085542D01*
X0183951Y0085424D01*
X0184266Y0085188D01*
X0184424Y0085030D01*
X0184542Y0084873D01*
X0184660Y0084676D01*
X0184739Y0084440D01*
X0184778Y0084243D01*
X0184818Y0083967D01*
X0183282Y0083967D01*
X0183282Y0084085D01*
X0183243Y0084164D01*
X0183243Y0084282D01*
X0183164Y0084440D01*
X0182928Y0084676D01*
X0182770Y0084755D01*
X0182692Y0084755D01*
X0182573Y0084794D01*
X0182377Y0084794D01*
X0182259Y0084833D01*
X0182180Y0084794D01*
X0181904Y0084794D01*
X0181825Y0084755D01*
X0181747Y0084755D01*
X0181510Y0084636D01*
X0181392Y0084518D01*
X0181314Y0084361D01*
X0181314Y0084282D01*
X0181274Y0084164D01*
X0181274Y0084046D01*
X0181314Y0083849D01*
X0181432Y0083692D01*
X0181589Y0083573D01*
X0181825Y0083495D01*
X0182101Y0083455D01*
X0181944Y0082629D01*
X0181747Y0082629D01*
X0181589Y0082707D01*
X0181510Y0082707D01*
X0181471Y0082747D01*
X0181392Y0082786D01*
X0181353Y0082825D01*
X0181274Y0082865D01*
X0181274Y0082117D01*
X0181314Y0082038D01*
X0181314Y0081920D01*
X0181353Y0081841D01*
X0181353Y0081723D01*
X0181392Y0081605D01*
X0181471Y0081526D01*
X0181510Y0081408D01*
X0181707Y0081211D01*
X0181825Y0081133D01*
X0182298Y0081014D01*
X0182888Y0081014D01*
X0182967Y0081054D01*
X0183046Y0081054D01*
X0183125Y0081093D01*
X0183164Y0081133D01*
X0183243Y0081172D01*
X0183361Y0081290D01*
X0183400Y0081369D01*
X0183400Y0081408D01*
X0183440Y0081526D01*
X0183440Y0081605D01*
X0183479Y0081684D01*
X0183440Y0081802D01*
X0183440Y0081959D01*
X0183361Y0082117D01*
X0183203Y0082274D01*
X0182810Y0082471D01*
X0183125Y0083298D01*
X0183440Y0083259D01*
X0183794Y0083180D01*
X0184109Y0083062D01*
X0184385Y0082904D01*
X0184621Y0082668D01*
X0184818Y0082392D01*
X0184936Y0082038D01*
X0184975Y0081605D01*
X0184975Y0081408D01*
X0184951Y0081289D02*
X0183360Y0081289D01*
X0183440Y0081587D02*
X0184975Y0081587D01*
X0184950Y0081886D02*
X0183440Y0081886D01*
X0183293Y0082184D02*
X0184887Y0082184D01*
X0184753Y0082483D02*
X0182814Y0082483D01*
X0182707Y0082483D01*
X0182731Y0082471D02*
X0182810Y0082471D01*
X0183125Y0083298D01*
X0182770Y0083377D01*
X0182416Y0083416D01*
X0182101Y0083455D01*
X0181944Y0082629D01*
X0182022Y0082589D01*
X0182180Y0082589D01*
X0182298Y0082550D01*
X0182455Y0082550D01*
X0182573Y0082510D01*
X0182652Y0082510D01*
X0182731Y0082471D01*
X0182928Y0082781D02*
X0181973Y0082781D01*
X0181402Y0082781D01*
X0181274Y0082781D02*
X0179739Y0082781D01*
X0179739Y0082483D02*
X0181274Y0082483D01*
X0181274Y0082184D02*
X0179739Y0082184D01*
X0179739Y0081886D02*
X0181331Y0081886D01*
X0181410Y0081587D02*
X0179739Y0081587D01*
X0179739Y0081289D02*
X0181630Y0081289D01*
X0181497Y0080393D02*
X0184472Y0080393D01*
X0184743Y0080692D02*
X0179735Y0080692D01*
X0179739Y0080990D02*
X0184880Y0080990D01*
X0183935Y0080095D02*
X0182118Y0080095D01*
X0181196Y0080393D02*
X0179665Y0080393D01*
X0178912Y0080393D02*
X0177377Y0080393D01*
X0177377Y0080109D02*
X0178912Y0080109D01*
X0178912Y0085424D01*
X0178518Y0085503D01*
X0178361Y0085542D01*
X0178164Y0085542D01*
X0177967Y0085581D01*
X0177810Y0085621D01*
X0177613Y0085660D01*
X0177455Y0085699D01*
X0177455Y0084636D01*
X0177416Y0084636D01*
X0177298Y0084912D01*
X0177140Y0085148D01*
X0176944Y0085345D01*
X0176471Y0085660D01*
X0175920Y0085818D01*
X0175369Y0085818D01*
X0175329Y0085778D01*
X0175329Y0084361D01*
X0175369Y0084361D01*
X0175448Y0084400D01*
X0175881Y0084400D01*
X0176274Y0084361D01*
X0176589Y0084282D01*
X0176825Y0084125D01*
X0177062Y0083888D01*
X0177298Y0083337D01*
X0177377Y0082983D01*
X0177377Y0080109D01*
X0177377Y0080692D02*
X0178912Y0080692D01*
X0178912Y0080990D02*
X0177377Y0080990D01*
X0177377Y0081289D02*
X0178912Y0081289D01*
X0178912Y0081587D02*
X0177377Y0081587D01*
X0177377Y0081886D02*
X0178912Y0081886D01*
X0178912Y0082184D02*
X0177377Y0082184D01*
X0177377Y0082483D02*
X0178912Y0082483D01*
X0178912Y0082781D02*
X0177377Y0082781D01*
X0177355Y0083080D02*
X0178912Y0083080D01*
X0178912Y0083379D02*
X0177280Y0083379D01*
X0177152Y0083677D02*
X0178912Y0083677D01*
X0178912Y0083976D02*
X0176975Y0083976D01*
X0176601Y0084274D02*
X0178912Y0084274D01*
X0178912Y0084573D02*
X0175329Y0084573D01*
X0175329Y0084871D02*
X0177315Y0084871D01*
X0177455Y0084871D02*
X0178912Y0084871D01*
X0178912Y0085170D02*
X0177455Y0085170D01*
X0177455Y0085468D02*
X0178691Y0085468D01*
X0179896Y0084871D02*
X0184543Y0084871D01*
X0184695Y0084573D02*
X0183031Y0084573D01*
X0183243Y0084274D02*
X0184772Y0084274D01*
X0184816Y0083976D02*
X0183282Y0083976D01*
X0182754Y0083379D02*
X0182086Y0083379D01*
X0179739Y0083379D01*
X0179739Y0083677D02*
X0181451Y0083677D01*
X0181288Y0083976D02*
X0179739Y0083976D01*
X0179744Y0084274D02*
X0181311Y0084274D01*
X0181447Y0084573D02*
X0179794Y0084573D01*
X0180075Y0085170D02*
X0184284Y0085170D01*
X0183878Y0085468D02*
X0180418Y0085468D01*
X0181295Y0085767D02*
X0182958Y0085767D01*
X0186256Y0085170D02*
X0189478Y0085170D01*
X0189621Y0085170D02*
X0191077Y0085170D01*
X0190861Y0085468D02*
X0189621Y0085468D01*
X0189166Y0085468D02*
X0186647Y0085468D01*
X0187307Y0085767D02*
X0188509Y0085767D01*
X0191944Y0084518D02*
X0191865Y0084085D01*
X0193322Y0084085D01*
X0193361Y0084282D01*
X0193400Y0084440D01*
X0193636Y0084676D01*
X0193794Y0084755D01*
X0193951Y0084794D01*
X0194148Y0084833D01*
X0194503Y0084833D01*
X0194621Y0084794D01*
X0194778Y0084794D01*
X0194896Y0084755D01*
X0195133Y0084597D01*
X0195172Y0084479D01*
X0195211Y0084322D01*
X0195172Y0084125D01*
X0195054Y0083967D01*
X0194896Y0083849D01*
X0194660Y0083770D01*
X0194109Y0083613D01*
X0193794Y0083573D01*
X0193479Y0083495D01*
X0193125Y0083416D01*
X0192810Y0083298D01*
X0192534Y0083180D01*
X0192259Y0083022D01*
X0192022Y0082825D01*
X0191865Y0082589D01*
X0191747Y0082274D01*
X0191707Y0081920D01*
X0191747Y0081408D01*
X0191944Y0081014D01*
X0192180Y0080660D01*
X0192495Y0080424D01*
X0192888Y0080227D01*
X0193322Y0080070D01*
X0193794Y0079991D01*
X0194739Y0079991D01*
X0195211Y0080070D01*
X0195644Y0080227D01*
X0196038Y0080424D01*
X0196353Y0080660D01*
X0196629Y0081014D01*
X0196786Y0081448D01*
X0196865Y0081920D01*
X0195408Y0081920D01*
X0195369Y0081684D01*
X0195290Y0081526D01*
X0195211Y0081329D01*
X0195054Y0081211D01*
X0194660Y0081054D01*
X0194463Y0081014D01*
X0194227Y0080975D01*
X0194070Y0081014D01*
X0193912Y0081014D01*
X0193715Y0081093D01*
X0193558Y0081133D01*
X0193322Y0081369D01*
X0193243Y0081526D01*
X0193243Y0081723D01*
X0193282Y0081881D01*
X0193361Y0081999D01*
X0193479Y0082117D01*
X0193676Y0082235D01*
X0194227Y0082392D01*
X0194581Y0082471D01*
X0194975Y0082550D01*
X0195290Y0082668D01*
X0195605Y0082747D01*
X0195920Y0082865D01*
X0196196Y0083022D01*
X0196589Y0083416D01*
X0196707Y0083731D01*
X0196747Y0084046D01*
X0196668Y0084558D01*
X0196510Y0084951D01*
X0196274Y0085227D01*
X0195959Y0085463D01*
X0195605Y0085660D01*
X0195211Y0085778D01*
X0194778Y0085818D01*
X0194306Y0085857D01*
X0193440Y0085778D01*
X0193046Y0085660D01*
X0192692Y0085463D01*
X0192377Y0085227D01*
X0192101Y0084912D01*
X0191944Y0084518D01*
X0191965Y0084573D02*
X0193533Y0084573D01*
X0193359Y0084274D02*
X0191899Y0084274D01*
X0192085Y0084871D02*
X0196543Y0084871D01*
X0196662Y0084573D02*
X0195141Y0084573D01*
X0195202Y0084274D02*
X0196712Y0084274D01*
X0196738Y0083976D02*
X0195060Y0083976D01*
X0194333Y0083677D02*
X0196687Y0083677D01*
X0196552Y0083379D02*
X0193025Y0083379D01*
X0192359Y0083080D02*
X0196253Y0083080D01*
X0195698Y0082781D02*
X0191993Y0082781D01*
X0191825Y0082483D02*
X0194641Y0082483D01*
X0195402Y0081886D02*
X0196859Y0081886D01*
X0196809Y0081587D02*
X0195321Y0081587D01*
X0195157Y0081289D02*
X0196728Y0081289D01*
X0196610Y0080990D02*
X0194319Y0080990D01*
X0194166Y0080990D02*
X0191960Y0080990D01*
X0191806Y0081289D02*
X0193401Y0081289D01*
X0193243Y0081587D02*
X0191733Y0081587D01*
X0191710Y0081886D02*
X0193286Y0081886D01*
X0193592Y0082184D02*
X0191737Y0082184D01*
X0192159Y0080692D02*
X0196378Y0080692D01*
X0195977Y0080393D02*
X0192556Y0080393D01*
X0193252Y0080095D02*
X0195281Y0080095D01*
X0196324Y0085170D02*
X0192326Y0085170D01*
X0192700Y0085468D02*
X0195951Y0085468D01*
X0195250Y0085767D02*
X0193401Y0085767D01*
X0184507Y0082781D02*
X0182928Y0082781D01*
X0183042Y0083080D02*
X0184060Y0083080D01*
X0183042Y0083080D02*
X0182030Y0083080D01*
X0179739Y0083080D01*
X0177119Y0085170D02*
X0175329Y0085170D01*
X0175329Y0085468D02*
X0176759Y0085468D01*
X0176098Y0085767D02*
X0175329Y0085767D01*
X0174699Y0085767D02*
X0173203Y0085767D01*
X0173203Y0086065D02*
X0174699Y0086065D01*
X0174699Y0086364D02*
X0173203Y0086364D01*
X0173203Y0086662D02*
X0174699Y0086662D01*
X0174699Y0086959D02*
X0174699Y0080109D01*
X0173203Y0080109D01*
X0173203Y0082038D01*
X0172613Y0082629D01*
X0171077Y0080109D01*
X0169227Y0080109D01*
X0171550Y0083652D01*
X0169463Y0085699D01*
X0171274Y0085699D01*
X0173203Y0083692D01*
X0173203Y0087825D01*
X0174699Y0086959D01*
X0174697Y0086961D02*
X0173203Y0086961D01*
X0173203Y0087259D02*
X0174182Y0087259D01*
X0173666Y0087558D02*
X0173203Y0087558D01*
X0173203Y0085468D02*
X0174699Y0085468D01*
X0174699Y0085170D02*
X0173203Y0085170D01*
X0173203Y0084871D02*
X0174699Y0084871D01*
X0174699Y0084573D02*
X0173203Y0084573D01*
X0173203Y0084274D02*
X0174699Y0084274D01*
X0174699Y0083976D02*
X0173203Y0083976D01*
X0172931Y0083976D02*
X0171220Y0083976D01*
X0170916Y0084274D02*
X0172644Y0084274D01*
X0172357Y0084573D02*
X0170612Y0084573D01*
X0170308Y0084871D02*
X0172070Y0084871D01*
X0171783Y0085170D02*
X0170003Y0085170D01*
X0169699Y0085468D02*
X0171497Y0085468D01*
X0171525Y0083677D02*
X0174699Y0083677D01*
X0174699Y0083379D02*
X0171370Y0083379D01*
X0171175Y0083080D02*
X0174699Y0083080D01*
X0174699Y0082781D02*
X0170979Y0082781D01*
X0170783Y0082483D02*
X0172524Y0082483D01*
X0172758Y0082483D02*
X0174699Y0082483D01*
X0174699Y0082184D02*
X0173057Y0082184D01*
X0173203Y0081886D02*
X0174699Y0081886D01*
X0174699Y0081587D02*
X0173203Y0081587D01*
X0173203Y0081289D02*
X0174699Y0081289D01*
X0174699Y0080990D02*
X0173203Y0080990D01*
X0173203Y0080692D02*
X0174699Y0080692D01*
X0174699Y0080393D02*
X0173203Y0080393D01*
X0171796Y0081289D02*
X0170001Y0081289D01*
X0170196Y0081587D02*
X0171978Y0081587D01*
X0172160Y0081886D02*
X0170392Y0081886D01*
X0170588Y0082184D02*
X0172342Y0082184D01*
X0171615Y0080990D02*
X0169805Y0080990D01*
X0169609Y0080692D02*
X0171433Y0080692D01*
X0171251Y0080393D02*
X0169414Y0080393D01*
X0168282Y0080393D02*
X0166747Y0080393D01*
X0166747Y0080109D02*
X0168282Y0080109D01*
X0168282Y0084676D01*
X0169778Y0084676D01*
X0169542Y0084912D01*
X0169385Y0085030D01*
X0169266Y0085188D01*
X0169030Y0085424D01*
X0168873Y0085542D01*
X0168755Y0085699D01*
X0168282Y0085699D01*
X0168282Y0086133D01*
X0168243Y0086487D01*
X0168164Y0086802D01*
X0168007Y0087077D01*
X0167810Y0087314D01*
X0167573Y0087550D01*
X0167259Y0087668D01*
X0166865Y0087786D01*
X0166432Y0087825D01*
X0166117Y0087825D01*
X0165999Y0087786D01*
X0165605Y0087786D01*
X0165605Y0086644D01*
X0166314Y0086644D01*
X0166550Y0086566D01*
X0166629Y0086526D01*
X0166668Y0086408D01*
X0166707Y0086329D01*
X0166747Y0086172D01*
X0166747Y0085699D01*
X0165684Y0085699D01*
X0165684Y0084676D01*
X0166747Y0084676D01*
X0166747Y0080109D01*
X0166747Y0080692D02*
X0168282Y0080692D01*
X0168282Y0080990D02*
X0166747Y0080990D01*
X0166747Y0081289D02*
X0168282Y0081289D01*
X0168282Y0081587D02*
X0166747Y0081587D01*
X0166747Y0081886D02*
X0168282Y0081886D01*
X0168282Y0082184D02*
X0166747Y0082184D01*
X0166747Y0082483D02*
X0168282Y0082483D01*
X0168282Y0082781D02*
X0166747Y0082781D01*
X0166747Y0083080D02*
X0168282Y0083080D01*
X0168282Y0083379D02*
X0166747Y0083379D01*
X0166747Y0083677D02*
X0168282Y0083677D01*
X0168282Y0083976D02*
X0166747Y0083976D01*
X0166747Y0084274D02*
X0168282Y0084274D01*
X0168282Y0084573D02*
X0166747Y0084573D01*
X0165684Y0084871D02*
X0169583Y0084871D01*
X0169280Y0085170D02*
X0165684Y0085170D01*
X0165684Y0085468D02*
X0168971Y0085468D01*
X0168282Y0085767D02*
X0166747Y0085767D01*
X0166747Y0086065D02*
X0168282Y0086065D01*
X0168256Y0086364D02*
X0166690Y0086364D01*
X0165605Y0086662D02*
X0168199Y0086662D01*
X0168073Y0086961D02*
X0165605Y0086961D01*
X0165605Y0087259D02*
X0167855Y0087259D01*
X0167553Y0087558D02*
X0165605Y0087558D01*
X0165251Y0085699D02*
X0163715Y0085699D01*
X0163715Y0082235D01*
X0163676Y0081959D01*
X0163597Y0081723D01*
X0163518Y0081526D01*
X0163361Y0081369D01*
X0163203Y0081251D01*
X0163007Y0081211D01*
X0162731Y0081172D01*
X0162455Y0081211D01*
X0162219Y0081251D01*
X0162022Y0081369D01*
X0161825Y0081566D01*
X0161707Y0081762D01*
X0161629Y0082038D01*
X0161589Y0082392D01*
X0161550Y0082786D01*
X0161550Y0085699D01*
X0160054Y0085699D01*
X0160054Y0080109D01*
X0161510Y0080109D01*
X0161510Y0080896D01*
X0161668Y0080660D01*
X0161865Y0080503D01*
X0162062Y0080306D01*
X0162259Y0080188D01*
X0162731Y0080030D01*
X0162967Y0079991D01*
X0163243Y0079951D01*
X0163794Y0080030D01*
X0164227Y0080148D01*
X0164581Y0080345D01*
X0164857Y0080581D01*
X0165054Y0080936D01*
X0165172Y0081329D01*
X0165251Y0081762D01*
X0165251Y0085699D01*
X0165251Y0085468D02*
X0163715Y0085468D01*
X0163715Y0085170D02*
X0165251Y0085170D01*
X0165251Y0084871D02*
X0163715Y0084871D01*
X0163715Y0084573D02*
X0165251Y0084573D01*
X0165251Y0084274D02*
X0163715Y0084274D01*
X0163715Y0083976D02*
X0165251Y0083976D01*
X0165251Y0083677D02*
X0163715Y0083677D01*
X0163715Y0083379D02*
X0165251Y0083379D01*
X0165251Y0083080D02*
X0163715Y0083080D01*
X0163715Y0082781D02*
X0165251Y0082781D01*
X0165251Y0082483D02*
X0163715Y0082483D01*
X0163708Y0082184D02*
X0165251Y0082184D01*
X0165251Y0081886D02*
X0163651Y0081886D01*
X0163543Y0081587D02*
X0165219Y0081587D01*
X0165160Y0081289D02*
X0163254Y0081289D01*
X0162155Y0081289D02*
X0160054Y0081289D01*
X0160054Y0081587D02*
X0161812Y0081587D01*
X0161672Y0081886D02*
X0160054Y0081886D01*
X0160054Y0082184D02*
X0161612Y0082184D01*
X0161580Y0082483D02*
X0160054Y0082483D01*
X0160054Y0082781D02*
X0161550Y0082781D01*
X0161550Y0083080D02*
X0160054Y0083080D01*
X0160054Y0083379D02*
X0161550Y0083379D01*
X0161550Y0083677D02*
X0160054Y0083677D01*
X0160054Y0083976D02*
X0161550Y0083976D01*
X0161550Y0084274D02*
X0160054Y0084274D01*
X0160054Y0084573D02*
X0161550Y0084573D01*
X0161550Y0084871D02*
X0160054Y0084871D01*
X0160054Y0085170D02*
X0161550Y0085170D01*
X0161550Y0085468D02*
X0160054Y0085468D01*
X0159201Y0085468D02*
X0157770Y0085468D01*
X0157770Y0085699D02*
X0157770Y0084912D01*
X0157731Y0084912D01*
X0157573Y0085148D01*
X0157416Y0085345D01*
X0157180Y0085503D01*
X0156983Y0085621D01*
X0156510Y0085778D01*
X0156038Y0085857D01*
X0155487Y0085778D01*
X0155014Y0085660D01*
X0154660Y0085463D01*
X0154424Y0085227D01*
X0154227Y0084873D01*
X0154070Y0084479D01*
X0154030Y0084046D01*
X0153991Y0083534D01*
X0153991Y0080109D01*
X0155526Y0080109D01*
X0155526Y0083573D01*
X0155566Y0083849D01*
X0155644Y0084085D01*
X0155762Y0084282D01*
X0155881Y0084440D01*
X0156038Y0084558D01*
X0156510Y0084636D01*
X0157062Y0084558D01*
X0157259Y0084440D01*
X0157416Y0084243D01*
X0157534Y0084046D01*
X0157613Y0083770D01*
X0157692Y0083416D01*
X0157692Y0080109D01*
X0159227Y0080109D01*
X0159227Y0084991D01*
X0159188Y0085699D01*
X0157770Y0085699D01*
X0157770Y0085170D02*
X0159217Y0085170D01*
X0159227Y0084871D02*
X0154226Y0084871D01*
X0154107Y0084573D02*
X0156127Y0084573D01*
X0155758Y0084274D02*
X0154051Y0084274D01*
X0154025Y0083976D02*
X0155608Y0083976D01*
X0155541Y0083677D02*
X0154002Y0083677D01*
X0153991Y0083379D02*
X0155526Y0083379D01*
X0155526Y0083080D02*
X0153991Y0083080D01*
X0153991Y0082781D02*
X0155526Y0082781D01*
X0155526Y0082483D02*
X0153991Y0082483D01*
X0153991Y0082184D02*
X0155526Y0082184D01*
X0155526Y0081886D02*
X0153991Y0081886D01*
X0153991Y0081587D02*
X0155526Y0081587D01*
X0155526Y0081289D02*
X0153991Y0081289D01*
X0153991Y0080990D02*
X0155526Y0080990D01*
X0155526Y0080692D02*
X0153991Y0080692D01*
X0153991Y0080393D02*
X0155526Y0080393D01*
X0157692Y0080393D02*
X0159227Y0080393D01*
X0159227Y0080692D02*
X0157692Y0080692D01*
X0157692Y0080990D02*
X0159227Y0080990D01*
X0159227Y0081289D02*
X0157692Y0081289D01*
X0157692Y0081587D02*
X0159227Y0081587D01*
X0159227Y0081886D02*
X0157692Y0081886D01*
X0157692Y0082184D02*
X0159227Y0082184D01*
X0159227Y0082483D02*
X0157692Y0082483D01*
X0157692Y0082781D02*
X0159227Y0082781D01*
X0159227Y0083080D02*
X0157692Y0083080D01*
X0157692Y0083379D02*
X0159227Y0083379D01*
X0159227Y0083677D02*
X0157634Y0083677D01*
X0157554Y0083976D02*
X0159227Y0083976D01*
X0159227Y0084274D02*
X0157391Y0084274D01*
X0156958Y0084573D02*
X0159227Y0084573D01*
X0157556Y0085170D02*
X0154392Y0085170D01*
X0154669Y0085468D02*
X0157232Y0085468D01*
X0156545Y0085767D02*
X0155440Y0085767D01*
X0160054Y0080990D02*
X0165070Y0080990D01*
X0164918Y0080692D02*
X0161647Y0080692D01*
X0161510Y0080692D02*
X0160054Y0080692D01*
X0160054Y0080393D02*
X0161510Y0080393D01*
X0161974Y0080393D02*
X0164638Y0080393D01*
X0164031Y0080095D02*
X0162537Y0080095D01*
X0186548Y0080393D02*
X0189140Y0080393D01*
X0188555Y0080095D02*
X0187130Y0080095D01*
D15*
X0169975Y0075944D03*
X0164329Y0075944D03*
X0161180Y0076140D03*
X0155865Y0073188D03*
X0169975Y0073188D03*
X0169329Y0120739D03*
X0169329Y0121526D03*
X0169329Y0121723D03*
D16*
X0169329Y0121369D03*
X0169329Y0121172D03*
X0150633Y0121156D03*
X0184148Y0077518D03*
X0169975Y0075747D03*
X0169975Y0073385D03*
X0156062Y0073739D03*
X0155865Y0073385D03*
X0156062Y0075353D03*
X0155865Y0075747D03*
X0152518Y0075944D03*
D17*
X0169329Y0120955D03*
D18*
X0150633Y0122337D03*
X0158818Y0076928D03*
X0172928Y0076928D03*
X0177455Y0072755D03*
X0184148Y0072558D03*
D19*
X0176471Y0076337D03*
X0174699Y0076337D03*
X0172928Y0076337D03*
X0172928Y0078109D03*
X0169385Y0075156D03*
X0172928Y0072755D03*
X0174699Y0072755D03*
X0164920Y0072755D03*
X0160589Y0072755D03*
X0158818Y0072755D03*
X0155077Y0075156D03*
X0153306Y0076337D03*
X0158818Y0076337D03*
X0158818Y0078109D03*
X0153306Y0072755D03*
X0150633Y0119188D03*
X0150633Y0122140D03*
D20*
X0150633Y0121944D03*
X0150633Y0121747D03*
X0150633Y0121550D03*
X0150633Y0121353D03*
X0150633Y0119739D03*
X0150633Y0119542D03*
X0150633Y0119385D03*
X0158818Y0077912D03*
X0158818Y0077715D03*
X0158818Y0077518D03*
X0158818Y0077322D03*
X0158818Y0076140D03*
X0158818Y0075944D03*
X0158818Y0075747D03*
X0158818Y0075550D03*
X0158818Y0075353D03*
X0158818Y0075156D03*
X0158818Y0074723D03*
X0158818Y0074526D03*
X0158818Y0074369D03*
X0158818Y0074172D03*
X0158818Y0073739D03*
X0158818Y0073542D03*
X0158818Y0073385D03*
X0158818Y0073188D03*
X0160589Y0073188D03*
X0160589Y0073385D03*
X0160589Y0073542D03*
X0160589Y0073739D03*
X0160589Y0074172D03*
X0160589Y0074369D03*
X0160589Y0074526D03*
X0160589Y0074723D03*
X0160589Y0075156D03*
X0160589Y0075353D03*
X0157046Y0074723D03*
X0157046Y0074526D03*
X0157046Y0074369D03*
X0157046Y0074172D03*
X0153306Y0074172D03*
X0153306Y0074369D03*
X0153306Y0074526D03*
X0153306Y0074723D03*
X0153306Y0073739D03*
X0153306Y0073542D03*
X0153306Y0073385D03*
X0150353Y0074172D03*
X0150353Y0074369D03*
X0150353Y0074526D03*
X0150353Y0074723D03*
X0147794Y0074723D03*
X0147794Y0074526D03*
X0147794Y0074369D03*
X0160786Y0077518D03*
X0164920Y0077518D03*
X0169975Y0076337D03*
X0171156Y0074723D03*
X0171353Y0074526D03*
X0171156Y0074369D03*
X0171156Y0074172D03*
X0172928Y0074172D03*
X0172928Y0074369D03*
X0172928Y0074526D03*
X0172928Y0074723D03*
X0172928Y0075156D03*
X0172928Y0075353D03*
X0172928Y0075550D03*
X0172928Y0075747D03*
X0172928Y0075944D03*
X0172928Y0076140D03*
X0172928Y0077322D03*
X0172928Y0077518D03*
X0172928Y0077715D03*
X0172928Y0077912D03*
X0176471Y0075944D03*
X0176471Y0075747D03*
X0176471Y0075550D03*
X0176668Y0075353D03*
X0176668Y0075156D03*
X0178440Y0075747D03*
X0178440Y0075944D03*
X0180211Y0075156D03*
X0180408Y0075353D03*
X0180408Y0075550D03*
X0180408Y0075747D03*
X0180605Y0075944D03*
X0182180Y0075747D03*
X0182180Y0075550D03*
X0182180Y0075353D03*
X0182180Y0075156D03*
X0182377Y0074526D03*
X0182377Y0075944D03*
X0182377Y0076140D03*
X0185920Y0076140D03*
X0185920Y0075944D03*
X0186117Y0075747D03*
X0186117Y0075550D03*
X0186117Y0075353D03*
X0186117Y0075156D03*
X0186117Y0074723D03*
X0185920Y0074526D03*
X0177455Y0073385D03*
X0177455Y0073188D03*
X0172928Y0073188D03*
X0172928Y0073385D03*
X0172928Y0073542D03*
X0172928Y0073739D03*
X0169975Y0072755D03*
X0164920Y0073385D03*
X0164920Y0073542D03*
X0164920Y0073739D03*
X0164920Y0074172D03*
X0164920Y0074369D03*
X0164920Y0074526D03*
X0164920Y0074723D03*
X0164920Y0075156D03*
D21*
X0150633Y0120940D03*
D22*
X0150633Y0120723D03*
X0150633Y0120526D03*
X0150633Y0120369D03*
X0150633Y0120172D03*
X0184148Y0077322D03*
D23*
X0182180Y0074940D03*
X0186117Y0074940D03*
X0172928Y0074940D03*
X0172928Y0073955D03*
X0172928Y0072971D03*
X0171156Y0074940D03*
X0164920Y0074940D03*
X0164920Y0073955D03*
X0160589Y0073955D03*
X0160589Y0074940D03*
X0158818Y0074940D03*
X0158818Y0073955D03*
X0158818Y0072971D03*
X0157046Y0074940D03*
X0153306Y0074940D03*
X0153306Y0073955D03*
X0150353Y0074940D03*
X0147794Y0074940D03*
X0150633Y0119955D03*
D24*
X0150633Y0118971D03*
X0155274Y0073955D03*
X0169385Y0073955D03*
X0177455Y0072971D03*
D25*
X0136433Y0104991D03*
X0136433Y0109676D03*
D26*
X0136610Y0109558D03*
X0136610Y0105109D03*
D27*
X0136729Y0109459D03*
D28*
X0136788Y0109341D03*
D29*
X0136847Y0109203D03*
X0136847Y0105424D03*
D30*
X0136906Y0105542D03*
X0136906Y0109085D03*
D31*
X0136965Y0108987D03*
D32*
X0141217Y0108888D03*
X0204704Y0125678D03*
X0208011Y0109888D03*
X0207539Y0108471D03*
X0207993Y0099688D03*
D33*
X0207580Y0099216D03*
X0207462Y0098940D03*
X0207462Y0098862D03*
X0207344Y0098744D03*
X0207344Y0098468D03*
X0207344Y0098350D03*
X0207344Y0098271D03*
X0207344Y0097996D03*
X0207344Y0097917D03*
X0207344Y0097799D03*
X0207344Y0097523D03*
X0207462Y0097326D03*
X0207580Y0097051D03*
X0207580Y0096972D03*
X0207698Y0096854D03*
X0204043Y0089925D03*
X0214082Y0089925D03*
X0214082Y0088547D03*
X0214082Y0088271D03*
X0214082Y0087996D03*
X0211402Y0078622D03*
X0207716Y0107054D03*
X0207598Y0107172D03*
X0207362Y0107723D03*
X0207480Y0109062D03*
X0207480Y0109140D03*
X0207598Y0109416D03*
X0207716Y0109613D03*
X0204645Y0126072D03*
X0204645Y0126151D03*
X0197472Y0136501D03*
X0185172Y0136451D03*
X0182101Y0138616D03*
X0182101Y0138734D03*
X0182101Y0138813D03*
X0179385Y0138813D03*
X0179385Y0138734D03*
X0179385Y0138616D03*
X0134049Y0116051D03*
X0137969Y0108888D03*
X0141512Y0108613D03*
X0141630Y0108534D03*
X0141748Y0108140D03*
X0141748Y0106526D03*
X0141748Y0106251D03*
X0138939Y0098140D03*
X0138939Y0098062D03*
X0138939Y0096605D03*
X0138939Y0096526D03*
X0132679Y0097944D03*
X0132679Y0098062D03*
X0138939Y0087944D03*
X0138939Y0087668D03*
X0138939Y0087550D03*
X0138939Y0087471D03*
X0138939Y0087196D03*
X0138939Y0087117D03*
X0138939Y0086999D03*
X0138939Y0086723D03*
X0138939Y0078044D03*
X0138939Y0077768D03*
X0138939Y0077650D03*
X0138939Y0077571D03*
X0138939Y0077296D03*
X0138939Y0077217D03*
X0138939Y0077099D03*
X0138939Y0076823D03*
D34*
X0141630Y0107196D03*
X0134780Y0108888D03*
X0197913Y0116523D03*
X0197913Y0117744D03*
X0197440Y0126623D03*
X0197440Y0127844D03*
D35*
X0201870Y0127844D03*
X0201870Y0126505D03*
X0204232Y0127844D03*
X0204232Y0127962D03*
X0210964Y0125954D03*
X0211082Y0118413D03*
X0194815Y0137721D03*
X0194815Y0137800D03*
X0193752Y0137367D03*
X0193752Y0137249D03*
X0142072Y0127550D03*
X0140300Y0127550D03*
X0137702Y0128613D03*
X0134749Y0128613D03*
X0134631Y0127196D03*
X0136943Y0118413D03*
X0140250Y0117350D03*
X0142022Y0117350D03*
X0132240Y0108888D03*
X0132240Y0108062D03*
X0132240Y0106526D03*
X0134273Y0096723D03*
X0134273Y0078162D03*
X0132148Y0077571D03*
X0202721Y0077244D03*
X0202721Y0078622D03*
X0208508Y0076142D03*
X0214453Y0077244D03*
X0214453Y0078622D03*
X0214496Y0088822D03*
X0214496Y0089098D03*
X0214496Y0089373D03*
X0206779Y0088547D03*
X0203629Y0088547D03*
X0203629Y0087996D03*
X0203629Y0089373D03*
D36*
X0207757Y0096716D03*
X0207775Y0106916D03*
X0207421Y0108806D03*
X0204704Y0125816D03*
X0141807Y0107806D03*
X0141453Y0108751D03*
X0141453Y0105916D03*
X0138998Y0097806D03*
X0138998Y0097333D03*
X0138998Y0096861D03*
X0134109Y0116188D03*
X0137702Y0126388D03*
X0137702Y0128278D03*
D37*
X0136884Y0117133D03*
X0137969Y0108751D03*
X0185172Y0136116D03*
X0194756Y0137583D03*
X0197472Y0136166D03*
X0201810Y0127706D03*
X0201810Y0126761D03*
X0204291Y0127706D03*
X0211023Y0125816D03*
X0211023Y0115716D03*
X0211259Y0109751D03*
X0211241Y0099551D03*
X0214436Y0089511D03*
X0203688Y0089511D03*
X0132207Y0077433D03*
D38*
X0134569Y0076961D03*
X0138205Y0108278D03*
X0135488Y0108751D03*
X0138774Y0115716D03*
X0138774Y0116188D03*
X0138774Y0116661D03*
X0138774Y0117133D03*
X0138774Y0117606D03*
X0138774Y0118078D03*
X0137593Y0117606D03*
X0139837Y0117133D03*
X0139837Y0116661D03*
X0139837Y0116188D03*
X0139837Y0115716D03*
X0141136Y0116661D03*
X0142435Y0116661D03*
X0142435Y0117133D03*
X0142435Y0116188D03*
X0142435Y0115716D03*
X0135231Y0117133D03*
X0135112Y0117606D03*
X0132868Y0117133D03*
X0132986Y0116661D03*
X0133036Y0125916D03*
X0133036Y0126388D03*
X0133036Y0126861D03*
X0133036Y0127333D03*
X0133036Y0127806D03*
X0133036Y0128278D03*
X0134099Y0126861D03*
X0136580Y0126861D03*
X0136580Y0127333D03*
X0138824Y0127333D03*
X0138824Y0126861D03*
X0139887Y0126861D03*
X0139887Y0127333D03*
X0139887Y0126388D03*
X0139887Y0125916D03*
X0141186Y0126861D03*
X0142485Y0126861D03*
X0142485Y0127333D03*
X0142485Y0126388D03*
X0142485Y0125916D03*
X0180212Y0136588D03*
X0180212Y0137061D03*
X0180212Y0138006D03*
X0182928Y0138006D03*
X0182928Y0137061D03*
X0182928Y0136588D03*
X0184109Y0137061D03*
X0183991Y0137533D03*
X0184109Y0138006D03*
X0186235Y0138006D03*
X0186353Y0137533D03*
X0186235Y0137061D03*
X0193338Y0137583D03*
X0193338Y0138056D03*
X0193338Y0138528D03*
X0193338Y0136166D03*
X0195228Y0136638D03*
X0195228Y0137111D03*
X0196291Y0137583D03*
X0196409Y0137111D03*
X0196409Y0138056D03*
X0198535Y0138056D03*
X0198653Y0137583D03*
X0198535Y0137111D03*
X0199921Y0128178D03*
X0211023Y0128178D03*
X0211023Y0118078D03*
X0210669Y0117133D03*
X0209015Y0116661D03*
X0209133Y0115716D03*
X0203346Y0116188D03*
X0200393Y0118078D03*
X0209706Y0098606D03*
X0209706Y0098133D03*
X0209706Y0097661D03*
X0211123Y0099078D03*
X0208252Y0078760D03*
X0205221Y0078760D03*
X0210457Y0076280D03*
X0212504Y0077658D03*
X0212504Y0077933D03*
D39*
X0212540Y0097661D03*
X0212540Y0098606D03*
X0212559Y0107861D03*
X0212559Y0108806D03*
X0212559Y0116661D03*
X0212559Y0117606D03*
X0208897Y0117133D03*
X0201810Y0116661D03*
X0210669Y0126761D03*
X0212559Y0127706D03*
X0195110Y0138528D03*
X0133953Y0108751D03*
X0136459Y0097806D03*
X0136459Y0096861D03*
X0134805Y0088278D03*
X0136340Y0086861D03*
X0134451Y0077433D03*
X0136340Y0076961D03*
D40*
X0132088Y0087333D03*
X0134333Y0096861D03*
X0135277Y0098751D03*
X0132207Y0097333D03*
X0132181Y0106388D03*
X0132181Y0108751D03*
X0137002Y0115716D03*
X0140191Y0117606D03*
X0141136Y0117133D03*
X0142081Y0117606D03*
X0134808Y0125916D03*
X0140241Y0127806D03*
X0141186Y0127333D03*
X0142131Y0127806D03*
X0193693Y0137111D03*
X0199921Y0125816D03*
X0200393Y0118551D03*
X0200393Y0115716D03*
X0205236Y0115716D03*
X0211241Y0096716D03*
X0214512Y0078209D03*
X0214512Y0077933D03*
X0214512Y0077658D03*
X0202662Y0077658D03*
X0202662Y0077933D03*
X0202662Y0078209D03*
X0202662Y0078485D03*
X0202662Y0077382D03*
D41*
X0207480Y0115578D03*
X0207362Y0115854D03*
X0207362Y0115972D03*
X0206889Y0116996D03*
X0206771Y0117271D03*
X0206653Y0117350D03*
X0206417Y0117862D03*
X0206417Y0117940D03*
X0206299Y0118216D03*
X0205118Y0116326D03*
X0200393Y0115854D03*
X0208779Y0117350D03*
X0208779Y0117468D03*
X0211023Y0118334D03*
X0210905Y0116051D03*
X0202047Y0125954D03*
X0202047Y0126072D03*
X0202047Y0126151D03*
X0199921Y0125954D03*
X0206771Y0127371D03*
X0212440Y0127371D03*
X0212440Y0127096D03*
X0197472Y0136028D03*
X0194992Y0138194D03*
X0194992Y0138312D03*
X0193575Y0136855D03*
X0193575Y0136776D03*
X0185172Y0135978D03*
X0142249Y0128062D03*
X0141186Y0127117D03*
X0140123Y0128062D03*
X0140073Y0117862D03*
X0141136Y0116917D03*
X0142199Y0117862D03*
X0134049Y0115578D03*
X0137969Y0108613D03*
X0135159Y0098613D03*
X0132088Y0096999D03*
X0132088Y0096723D03*
X0132088Y0096605D03*
X0132088Y0096526D03*
X0134805Y0088416D03*
X0131970Y0086999D03*
X0131970Y0086723D03*
X0131970Y0086605D03*
X0131970Y0086526D03*
X0131970Y0078713D03*
X0131970Y0078240D03*
X0131970Y0078162D03*
X0134333Y0077768D03*
D42*
X0136636Y0076626D03*
X0136636Y0086526D03*
X0134982Y0086526D03*
X0133801Y0096999D03*
X0134864Y0097944D03*
X0135429Y0106605D03*
X0135429Y0108062D03*
X0135429Y0108613D03*
X0138146Y0106605D03*
X0138146Y0106526D03*
X0139445Y0108140D03*
X0137702Y0125660D03*
X0134277Y0128062D03*
X0199980Y0126426D03*
X0206712Y0126426D03*
X0206712Y0126505D03*
X0206830Y0126151D03*
X0206948Y0126072D03*
X0206948Y0125954D03*
X0209192Y0126072D03*
X0209192Y0126151D03*
X0209192Y0127844D03*
X0211082Y0127962D03*
X0212736Y0126426D03*
X0211082Y0117862D03*
X0204704Y0117940D03*
X0202106Y0118216D03*
X0209783Y0107999D03*
X0210846Y0108471D03*
X0210846Y0108550D03*
X0210964Y0108668D03*
X0210964Y0108944D03*
X0211082Y0107605D03*
X0211082Y0107526D03*
X0211064Y0098862D03*
X0211064Y0098744D03*
X0211064Y0097523D03*
X0211064Y0097405D03*
X0209765Y0097326D03*
D43*
X0211064Y0099216D03*
X0212599Y0098744D03*
X0212599Y0097523D03*
X0209062Y0088547D03*
X0208311Y0078898D03*
X0211200Y0107172D03*
X0211082Y0109416D03*
X0212618Y0108944D03*
X0210728Y0116523D03*
X0210728Y0116799D03*
X0208956Y0116799D03*
X0208956Y0116917D03*
X0212618Y0117744D03*
X0204940Y0116996D03*
X0203287Y0117350D03*
X0203287Y0117468D03*
X0203287Y0117744D03*
X0201633Y0117350D03*
X0201870Y0116523D03*
X0200452Y0116051D03*
X0203287Y0115972D03*
X0203287Y0115854D03*
X0199980Y0126151D03*
X0199980Y0128316D03*
X0206712Y0127096D03*
X0208956Y0128434D03*
X0210610Y0127371D03*
X0210610Y0127096D03*
X0210610Y0127017D03*
X0210610Y0126899D03*
X0209074Y0125678D03*
X0212618Y0126505D03*
X0212618Y0127844D03*
X0198476Y0136973D03*
X0198476Y0138194D03*
X0196468Y0138194D03*
X0196350Y0137249D03*
X0196468Y0136973D03*
X0195169Y0138666D03*
X0195169Y0138784D03*
X0193398Y0136422D03*
X0193398Y0136304D03*
X0186176Y0136923D03*
X0186176Y0138144D03*
X0184168Y0138144D03*
X0184050Y0137199D03*
X0184168Y0136923D03*
X0142426Y0128534D03*
X0139946Y0128534D03*
X0138647Y0127944D03*
X0138765Y0126723D03*
X0138647Y0126605D03*
X0136757Y0126605D03*
X0136757Y0127944D03*
X0135458Y0128140D03*
X0134935Y0117862D03*
X0135053Y0117744D03*
X0135053Y0116405D03*
X0133164Y0116405D03*
X0133046Y0116523D03*
X0133046Y0117744D03*
X0137652Y0116326D03*
X0139896Y0118334D03*
X0142376Y0118334D03*
X0138028Y0108534D03*
X0139563Y0106723D03*
X0135548Y0105778D03*
X0134012Y0108613D03*
X0135100Y0098534D03*
X0136518Y0097944D03*
X0135218Y0096054D03*
X0136399Y0086723D03*
X0134982Y0086172D03*
X0135218Y0078713D03*
X0134510Y0077296D03*
X0134510Y0077217D03*
X0134746Y0076626D03*
X0134864Y0076351D03*
X0136399Y0076823D03*
D44*
X0132029Y0078044D03*
X0132029Y0086172D03*
X0132029Y0086251D03*
X0132029Y0087117D03*
X0132029Y0088140D03*
X0132029Y0088416D03*
X0132029Y0088534D03*
X0132029Y0088613D03*
X0132148Y0096251D03*
X0132148Y0097117D03*
X0132148Y0097196D03*
X0132148Y0098416D03*
X0132148Y0098534D03*
X0132148Y0098613D03*
X0132122Y0106054D03*
X0132122Y0106172D03*
X0132122Y0106251D03*
X0132122Y0108416D03*
X0132122Y0108534D03*
X0132122Y0108613D03*
X0138736Y0107668D03*
X0141195Y0116996D03*
X0142140Y0117744D03*
X0140132Y0117744D03*
X0141245Y0127196D03*
X0142190Y0127944D03*
X0140182Y0127944D03*
X0193634Y0136973D03*
X0199980Y0128513D03*
X0201988Y0128040D03*
X0206358Y0128316D03*
X0206476Y0128040D03*
X0210964Y0128434D03*
X0210846Y0126151D03*
X0210846Y0126072D03*
X0214507Y0126072D03*
X0214507Y0126151D03*
X0214507Y0125954D03*
X0214507Y0126426D03*
X0214507Y0126505D03*
X0214507Y0126623D03*
X0214507Y0126899D03*
X0214507Y0127017D03*
X0214507Y0127096D03*
X0214507Y0127371D03*
X0214507Y0127450D03*
X0214507Y0127568D03*
X0214507Y0127844D03*
X0214507Y0127962D03*
X0214507Y0128040D03*
X0214507Y0128316D03*
X0214507Y0128434D03*
X0214507Y0128513D03*
X0214507Y0118413D03*
X0214507Y0118334D03*
X0214507Y0118216D03*
X0214507Y0117940D03*
X0214507Y0117862D03*
X0214507Y0117744D03*
X0214507Y0117468D03*
X0214507Y0117350D03*
X0214507Y0117271D03*
X0214507Y0116996D03*
X0214507Y0116917D03*
X0214507Y0116799D03*
X0214507Y0116523D03*
X0214507Y0116405D03*
X0214507Y0116326D03*
X0214507Y0116051D03*
X0214507Y0115972D03*
X0214507Y0115854D03*
X0210964Y0115972D03*
X0207303Y0116051D03*
X0207185Y0116326D03*
X0207185Y0116405D03*
X0207066Y0116523D03*
X0206948Y0116799D03*
X0206948Y0116917D03*
X0206240Y0118334D03*
X0206240Y0118413D03*
X0205177Y0116051D03*
X0205177Y0115972D03*
X0200452Y0118413D03*
X0211200Y0109613D03*
X0214507Y0109613D03*
X0214507Y0109534D03*
X0214507Y0109416D03*
X0214507Y0109140D03*
X0214507Y0109062D03*
X0214507Y0108944D03*
X0214507Y0108668D03*
X0214507Y0108550D03*
X0214507Y0108471D03*
X0214507Y0108196D03*
X0214507Y0108117D03*
X0214507Y0107999D03*
X0214507Y0107723D03*
X0214507Y0107605D03*
X0214507Y0107526D03*
X0214507Y0107251D03*
X0214507Y0107172D03*
X0214507Y0107054D03*
X0214489Y0099413D03*
X0214489Y0099334D03*
X0214489Y0099216D03*
X0214489Y0098940D03*
X0214489Y0098862D03*
X0214489Y0098744D03*
X0214489Y0098468D03*
X0214489Y0098350D03*
X0214489Y0098271D03*
X0214489Y0097996D03*
X0214489Y0097917D03*
X0214489Y0097799D03*
X0214489Y0097523D03*
X0214489Y0097405D03*
X0214489Y0097326D03*
X0214489Y0097051D03*
X0214489Y0096972D03*
X0214489Y0096854D03*
X0214489Y0096578D03*
X0211182Y0099413D03*
D45*
X0211005Y0098468D03*
X0211023Y0107723D03*
X0211023Y0107999D03*
X0210905Y0108117D03*
X0210905Y0108196D03*
X0209724Y0109140D03*
X0200393Y0116405D03*
X0200393Y0117862D03*
X0204645Y0118216D03*
X0204645Y0118334D03*
X0209251Y0117940D03*
X0211023Y0117468D03*
X0209251Y0126426D03*
X0209251Y0126505D03*
X0209251Y0126623D03*
X0209251Y0127017D03*
X0209251Y0127096D03*
X0209251Y0127371D03*
X0209251Y0127450D03*
X0209251Y0127568D03*
X0210905Y0127450D03*
X0211023Y0127844D03*
X0199921Y0127962D03*
X0199921Y0126505D03*
X0193338Y0139138D03*
X0137711Y0116523D03*
X0136412Y0117862D03*
X0134049Y0115460D03*
X0135370Y0108534D03*
X0135370Y0108140D03*
X0134189Y0108140D03*
X0134189Y0108062D03*
X0134189Y0106526D03*
X0135370Y0106526D03*
X0135370Y0106054D03*
X0138205Y0106723D03*
X0138205Y0106999D03*
X0138323Y0107196D03*
X0134923Y0097668D03*
X0134805Y0087668D03*
X0134805Y0087550D03*
X0134923Y0086723D03*
X0134923Y0086605D03*
X0135517Y0126723D03*
D46*
X0134277Y0128140D03*
X0137702Y0128888D03*
X0134109Y0118688D03*
X0132927Y0116917D03*
X0136471Y0117940D03*
X0137652Y0117862D03*
X0138264Y0108140D03*
X0139445Y0108062D03*
X0139445Y0106526D03*
X0134012Y0106172D03*
X0134012Y0106054D03*
X0134012Y0108534D03*
X0136636Y0098062D03*
X0134864Y0096605D03*
X0136518Y0088062D03*
X0134982Y0086251D03*
X0133683Y0086605D03*
X0133683Y0086723D03*
X0135100Y0078516D03*
X0136518Y0078162D03*
X0201870Y0116405D03*
X0203405Y0116326D03*
X0203405Y0117862D03*
X0202224Y0118413D03*
X0204822Y0117468D03*
X0209074Y0116405D03*
X0209074Y0116326D03*
X0209074Y0116051D03*
X0209074Y0115972D03*
X0209074Y0115854D03*
X0212736Y0117862D03*
X0207185Y0125678D03*
X0208011Y0126505D03*
X0212736Y0127962D03*
X0195287Y0136028D03*
X0209783Y0107605D03*
X0212736Y0109062D03*
X0212718Y0098862D03*
X0211064Y0098940D03*
X0209765Y0098744D03*
X0209765Y0097523D03*
X0211267Y0089649D03*
X0209062Y0088271D03*
X0207133Y0088822D03*
X0206858Y0089649D03*
X0210516Y0079449D03*
X0208862Y0077244D03*
X0211894Y0076969D03*
D47*
X0207875Y0096578D03*
X0207639Y0099334D03*
X0207757Y0099413D03*
X0207893Y0106778D03*
X0207421Y0107999D03*
X0207421Y0108117D03*
X0207421Y0108668D03*
X0207421Y0108944D03*
X0207657Y0109534D03*
X0197854Y0116326D03*
X0197854Y0117940D03*
X0197381Y0126426D03*
X0197381Y0128040D03*
X0204704Y0125954D03*
X0141807Y0108062D03*
X0141807Y0107944D03*
X0141807Y0107668D03*
X0141807Y0107550D03*
X0141689Y0108416D03*
X0141807Y0106605D03*
X0141335Y0105778D03*
X0138998Y0097944D03*
X0138998Y0097668D03*
X0138998Y0097550D03*
X0138998Y0097471D03*
X0138998Y0097196D03*
X0138998Y0097117D03*
X0138998Y0096999D03*
X0138998Y0096723D03*
X0132620Y0087668D03*
X0137702Y0128140D03*
D48*
X0138824Y0127668D03*
X0138824Y0127550D03*
X0138824Y0127471D03*
X0138824Y0127196D03*
X0138824Y0127117D03*
X0138824Y0126999D03*
X0139887Y0126999D03*
X0139887Y0127117D03*
X0139887Y0127196D03*
X0139887Y0126723D03*
X0139887Y0126605D03*
X0139887Y0126526D03*
X0139887Y0126251D03*
X0139887Y0126172D03*
X0139887Y0126054D03*
X0141186Y0126723D03*
X0142485Y0126723D03*
X0142485Y0126605D03*
X0142485Y0126526D03*
X0142485Y0126251D03*
X0142485Y0126172D03*
X0142485Y0126054D03*
X0142485Y0126999D03*
X0142485Y0127117D03*
X0142485Y0127196D03*
X0142485Y0128613D03*
X0139887Y0128613D03*
X0136580Y0127668D03*
X0136580Y0127550D03*
X0136580Y0127471D03*
X0136580Y0127196D03*
X0136580Y0127117D03*
X0136580Y0126999D03*
X0136698Y0126723D03*
X0135517Y0126526D03*
X0134099Y0126526D03*
X0134099Y0126605D03*
X0134099Y0126723D03*
X0133036Y0126723D03*
X0133036Y0126605D03*
X0133036Y0126526D03*
X0133036Y0126251D03*
X0133036Y0126172D03*
X0133036Y0126054D03*
X0133036Y0126999D03*
X0133036Y0127117D03*
X0133036Y0127196D03*
X0133036Y0127471D03*
X0133036Y0127550D03*
X0133036Y0127668D03*
X0133036Y0127944D03*
X0133036Y0128062D03*
X0133036Y0128140D03*
X0133036Y0128416D03*
X0133036Y0128534D03*
X0133036Y0128613D03*
X0134808Y0128888D03*
X0135517Y0128062D03*
X0135517Y0127944D03*
X0137002Y0118688D03*
X0137593Y0117940D03*
X0137711Y0117744D03*
X0138774Y0117744D03*
X0138774Y0117862D03*
X0138774Y0117940D03*
X0138774Y0118216D03*
X0138774Y0118334D03*
X0138774Y0118413D03*
X0138774Y0117468D03*
X0138774Y0117350D03*
X0138774Y0117271D03*
X0138774Y0116996D03*
X0138774Y0116917D03*
X0138774Y0116799D03*
X0138774Y0116523D03*
X0138774Y0116405D03*
X0138774Y0116326D03*
X0138774Y0116051D03*
X0138774Y0115972D03*
X0138774Y0115854D03*
X0139837Y0115854D03*
X0139837Y0115972D03*
X0139837Y0116051D03*
X0139837Y0116326D03*
X0139837Y0116405D03*
X0139837Y0116523D03*
X0139837Y0116799D03*
X0139837Y0116917D03*
X0139837Y0116996D03*
X0141136Y0116523D03*
X0142435Y0116523D03*
X0142435Y0116405D03*
X0142435Y0116326D03*
X0142435Y0116051D03*
X0142435Y0115972D03*
X0142435Y0115854D03*
X0142435Y0116799D03*
X0142435Y0116917D03*
X0142435Y0116996D03*
X0142435Y0118413D03*
X0139837Y0118413D03*
X0136294Y0116326D03*
X0136175Y0116405D03*
X0136175Y0116523D03*
X0135231Y0116799D03*
X0135231Y0116917D03*
X0135231Y0116996D03*
X0135231Y0117271D03*
X0135231Y0117350D03*
X0135231Y0117468D03*
X0135112Y0116523D03*
X0132986Y0116799D03*
X0132868Y0116996D03*
X0132868Y0117271D03*
X0132986Y0117350D03*
X0132986Y0117468D03*
X0136551Y0108062D03*
X0138087Y0108416D03*
X0138323Y0108062D03*
X0138559Y0107550D03*
X0139504Y0106605D03*
X0138087Y0106172D03*
X0135041Y0098416D03*
X0133860Y0096605D03*
X0135159Y0096172D03*
X0136577Y0096605D03*
X0134805Y0088140D03*
X0136459Y0087944D03*
X0136459Y0086605D03*
X0135159Y0078634D03*
X0136459Y0078044D03*
X0136459Y0076705D03*
X0134687Y0076705D03*
X0134687Y0076823D03*
X0134569Y0077099D03*
X0203346Y0116051D03*
X0203346Y0117271D03*
X0204881Y0117271D03*
X0204881Y0117350D03*
X0201692Y0117468D03*
X0209015Y0116523D03*
X0209133Y0115578D03*
X0210669Y0116917D03*
X0210669Y0116996D03*
X0210669Y0117271D03*
X0212677Y0116405D03*
X0212677Y0107605D03*
X0211141Y0107251D03*
X0209724Y0107723D03*
X0209706Y0098468D03*
X0209706Y0098350D03*
X0209706Y0098271D03*
X0209706Y0097996D03*
X0209706Y0097917D03*
X0209706Y0097799D03*
X0211123Y0097051D03*
X0212659Y0097405D03*
X0210933Y0088547D03*
X0208252Y0078622D03*
X0208803Y0076969D03*
X0212504Y0077796D03*
X0212504Y0078071D03*
X0206653Y0126899D03*
X0206653Y0127017D03*
X0209015Y0128316D03*
X0195228Y0136304D03*
X0195228Y0136422D03*
X0195228Y0136501D03*
X0195228Y0136776D03*
X0195228Y0136855D03*
X0195228Y0136973D03*
X0195228Y0137249D03*
X0195228Y0137367D03*
X0195228Y0137446D03*
X0196291Y0137446D03*
X0196291Y0137367D03*
X0196291Y0137721D03*
X0196291Y0137800D03*
X0196409Y0137918D03*
X0195228Y0138863D03*
X0193338Y0138863D03*
X0193338Y0138784D03*
X0193338Y0138666D03*
X0193338Y0138390D03*
X0193338Y0138312D03*
X0193338Y0138194D03*
X0193338Y0137918D03*
X0193338Y0137800D03*
X0193338Y0137721D03*
X0197472Y0139138D03*
X0198535Y0137918D03*
X0198653Y0137800D03*
X0198653Y0137721D03*
X0198653Y0137446D03*
X0198653Y0137367D03*
X0198653Y0137249D03*
X0186353Y0137199D03*
X0186353Y0137317D03*
X0186353Y0137396D03*
X0186353Y0137671D03*
X0186353Y0137750D03*
X0186235Y0137868D03*
X0185172Y0139088D03*
X0184109Y0137868D03*
X0183991Y0137750D03*
X0183991Y0137671D03*
X0183991Y0137396D03*
X0183991Y0137317D03*
X0182928Y0136923D03*
X0182928Y0136805D03*
X0182928Y0136726D03*
X0182928Y0136451D03*
X0182928Y0136372D03*
X0182928Y0136254D03*
X0182928Y0138144D03*
X0182928Y0138262D03*
X0180212Y0138262D03*
X0180212Y0138144D03*
X0180212Y0136923D03*
X0180212Y0136805D03*
X0180212Y0136726D03*
X0180212Y0136451D03*
X0180212Y0136372D03*
X0180212Y0136254D03*
D49*
X0195287Y0139138D03*
X0199980Y0127844D03*
X0201515Y0128316D03*
X0201515Y0128513D03*
X0204704Y0128434D03*
X0204704Y0128316D03*
X0209310Y0126899D03*
X0210964Y0127568D03*
X0209310Y0118413D03*
X0209310Y0118334D03*
X0209310Y0118216D03*
X0211082Y0117744D03*
X0210964Y0117350D03*
X0204586Y0118413D03*
X0201988Y0116051D03*
X0201988Y0115972D03*
X0201988Y0115854D03*
X0211064Y0098350D03*
X0211064Y0098271D03*
X0211064Y0097996D03*
X0211064Y0097917D03*
X0211064Y0097799D03*
X0138264Y0107117D03*
X0135311Y0106251D03*
X0135311Y0106172D03*
X0134248Y0106605D03*
X0134248Y0107944D03*
X0135311Y0108416D03*
X0136943Y0115460D03*
X0134864Y0097550D03*
X0134864Y0097471D03*
X0134864Y0097196D03*
X0134864Y0097117D03*
X0134864Y0087471D03*
X0134864Y0087196D03*
X0134864Y0087117D03*
X0134864Y0086999D03*
D50*
X0134805Y0087944D03*
X0134805Y0088062D03*
X0133624Y0086526D03*
X0134923Y0078240D03*
X0135159Y0096251D03*
X0134923Y0096526D03*
X0134805Y0096999D03*
X0133860Y0096526D03*
X0134923Y0098062D03*
X0134923Y0098140D03*
X0136695Y0096526D03*
X0138087Y0106251D03*
X0138441Y0107471D03*
X0136551Y0106526D03*
X0135488Y0107944D03*
X0134071Y0108416D03*
X0134071Y0106251D03*
X0138774Y0115578D03*
X0139837Y0115578D03*
X0141136Y0116405D03*
X0142435Y0115578D03*
X0137711Y0116405D03*
X0139887Y0125778D03*
X0141186Y0126605D03*
X0142485Y0125778D03*
X0135517Y0126605D03*
X0133036Y0125778D03*
X0180212Y0135978D03*
X0182928Y0135978D03*
X0185172Y0135860D03*
X0193338Y0136028D03*
X0197472Y0135910D03*
X0199921Y0128040D03*
X0206653Y0126623D03*
X0208070Y0126623D03*
X0208070Y0126426D03*
X0209133Y0125954D03*
X0209133Y0127962D03*
X0209133Y0128040D03*
X0211023Y0128040D03*
X0211023Y0117940D03*
X0212795Y0116326D03*
X0211023Y0109140D03*
X0211023Y0109062D03*
X0209724Y0109062D03*
X0209724Y0108944D03*
X0209724Y0107526D03*
X0212795Y0107526D03*
X0201929Y0115578D03*
X0201929Y0116326D03*
X0201810Y0117744D03*
X0201810Y0117862D03*
X0201929Y0117940D03*
X0202165Y0118334D03*
X0200393Y0117940D03*
X0200393Y0116326D03*
X0204763Y0117744D03*
X0204763Y0117862D03*
X0209706Y0098862D03*
X0209706Y0097405D03*
X0211123Y0097326D03*
X0212777Y0097326D03*
D51*
X0207462Y0097188D03*
X0207344Y0097661D03*
X0207344Y0098133D03*
X0207344Y0098606D03*
X0207462Y0099078D03*
X0207480Y0107388D03*
X0207362Y0107861D03*
X0207480Y0109278D03*
X0197795Y0116188D03*
X0197795Y0118078D03*
X0197322Y0126288D03*
X0197322Y0128178D03*
X0197472Y0138528D03*
X0185172Y0138478D03*
X0182101Y0138478D03*
X0179385Y0138478D03*
X0134049Y0118078D03*
X0141748Y0108278D03*
X0138939Y0098278D03*
X0138939Y0096388D03*
X0132679Y0097806D03*
X0132561Y0087806D03*
X0138939Y0087806D03*
X0138939Y0087333D03*
X0138939Y0086861D03*
X0138939Y0077906D03*
X0138939Y0077433D03*
X0138939Y0076961D03*
X0203134Y0076280D03*
X0214040Y0076280D03*
X0214082Y0087858D03*
X0214082Y0088133D03*
X0214082Y0088409D03*
D52*
X0211064Y0098133D03*
X0201988Y0115716D03*
X0204586Y0118551D03*
X0209310Y0118078D03*
X0211082Y0117606D03*
X0208011Y0126288D03*
X0135311Y0108278D03*
X0134864Y0097333D03*
X0134864Y0087333D03*
X0134864Y0086861D03*
X0133683Y0086388D03*
D53*
X0133683Y0086861D03*
X0134864Y0097806D03*
X0134130Y0106388D03*
X0134130Y0108278D03*
X0201515Y0128178D03*
X0204704Y0128178D03*
X0206830Y0126288D03*
X0207066Y0125816D03*
X0208011Y0126761D03*
X0209192Y0127706D03*
X0204704Y0118078D03*
X0201988Y0118078D03*
X0201988Y0116188D03*
X0209783Y0108806D03*
X0210846Y0108333D03*
X0210964Y0108806D03*
X0177428Y0069278D03*
X0179160Y0067546D03*
D54*
X0178845Y0068806D03*
X0178215Y0066286D03*
X0174593Y0069593D03*
X0171444Y0069593D03*
X0169869Y0067861D03*
X0168294Y0069751D03*
X0161207Y0068176D03*
X0161050Y0068333D03*
X0158688Y0069751D03*
X0135100Y0076016D03*
X0134273Y0077906D03*
X0132029Y0077906D03*
X0135100Y0085916D03*
X0132029Y0088278D03*
X0132029Y0088751D03*
X0132148Y0096388D03*
X0132148Y0098278D03*
X0132148Y0098751D03*
X0132122Y0105916D03*
X0132122Y0108278D03*
X0138028Y0105916D03*
X0136943Y0118551D03*
X0137702Y0128751D03*
X0185231Y0138951D03*
X0194933Y0138056D03*
X0197531Y0139001D03*
X0206358Y0128178D03*
X0208720Y0128651D03*
X0214507Y0128651D03*
X0214507Y0128178D03*
X0214507Y0127706D03*
X0214507Y0127233D03*
X0214507Y0126761D03*
X0214507Y0126288D03*
X0214507Y0125816D03*
X0201988Y0126288D03*
X0208720Y0117606D03*
X0207066Y0116661D03*
X0207303Y0116188D03*
X0214507Y0116188D03*
X0214507Y0115716D03*
X0214507Y0116661D03*
X0214507Y0117133D03*
X0214507Y0117606D03*
X0214507Y0118078D03*
X0214507Y0118551D03*
X0214507Y0109751D03*
X0214507Y0109278D03*
X0214507Y0108806D03*
X0214507Y0108333D03*
X0214507Y0107861D03*
X0214507Y0107388D03*
X0214507Y0106916D03*
X0211200Y0106916D03*
X0214489Y0099551D03*
X0214489Y0099078D03*
X0214489Y0098606D03*
X0214489Y0098133D03*
X0214489Y0097661D03*
X0214489Y0097188D03*
X0214489Y0096716D03*
D55*
X0214448Y0106778D03*
X0214448Y0115578D03*
X0211023Y0115854D03*
X0208661Y0117744D03*
X0208661Y0117862D03*
X0205236Y0115854D03*
X0202047Y0125678D03*
X0201929Y0126426D03*
X0201929Y0127962D03*
X0204173Y0128040D03*
X0206299Y0128434D03*
X0206299Y0128513D03*
X0214448Y0125678D03*
X0194874Y0137918D03*
X0142131Y0127668D03*
X0140241Y0127668D03*
X0135044Y0127550D03*
X0134454Y0127117D03*
X0137238Y0117350D03*
X0136648Y0116917D03*
X0140191Y0117468D03*
X0142081Y0117468D03*
X0132181Y0108140D03*
X0132181Y0105778D03*
X0132207Y0098140D03*
X0132207Y0097471D03*
X0132207Y0096172D03*
X0132207Y0096054D03*
X0134805Y0088534D03*
X0132088Y0087196D03*
X0132088Y0086054D03*
X0132088Y0077768D03*
X0132088Y0077650D03*
X0134333Y0078044D03*
X0202662Y0078071D03*
X0202662Y0077796D03*
X0202662Y0077520D03*
X0202662Y0078347D03*
X0214512Y0078347D03*
X0214512Y0078071D03*
X0214512Y0077796D03*
X0214512Y0077520D03*
D56*
X0214436Y0086618D03*
X0203688Y0086618D03*
X0203688Y0088271D03*
X0205236Y0115578D03*
X0200393Y0115578D03*
X0200393Y0118688D03*
X0199921Y0125678D03*
X0201810Y0126623D03*
X0204291Y0127568D03*
X0206889Y0127450D03*
X0211023Y0128513D03*
X0197472Y0138863D03*
X0193811Y0137446D03*
X0185172Y0138813D03*
X0182456Y0137868D03*
X0179739Y0137868D03*
X0137002Y0117271D03*
X0136766Y0116996D03*
X0137002Y0115854D03*
X0134049Y0118413D03*
X0134808Y0126054D03*
X0134926Y0127471D03*
X0134808Y0128534D03*
X0132299Y0107944D03*
X0132299Y0106605D03*
X0138914Y0107944D03*
X0132325Y0097550D03*
X0135277Y0095778D03*
X0134805Y0088613D03*
X0132207Y0087471D03*
X0132207Y0077296D03*
D57*
X0131911Y0078516D03*
X0131911Y0078634D03*
X0134392Y0077650D03*
X0134392Y0077571D03*
X0134982Y0076154D03*
X0136281Y0077217D03*
X0136281Y0077296D03*
X0136281Y0077571D03*
X0136281Y0077650D03*
X0136281Y0087117D03*
X0136281Y0087196D03*
X0136281Y0087471D03*
X0136281Y0087550D03*
X0136399Y0096999D03*
X0136399Y0097117D03*
X0136399Y0097196D03*
X0136399Y0097471D03*
X0136399Y0097550D03*
X0136399Y0097668D03*
X0138028Y0106054D03*
X0136492Y0107944D03*
X0136471Y0116799D03*
X0133282Y0116326D03*
X0140014Y0117940D03*
X0142258Y0117940D03*
X0137702Y0125778D03*
X0138529Y0126526D03*
X0136875Y0126526D03*
X0135340Y0127668D03*
X0134277Y0126999D03*
X0140064Y0128140D03*
X0142308Y0128140D03*
X0184405Y0136726D03*
X0185940Y0136726D03*
X0195051Y0138390D03*
X0196705Y0136776D03*
X0198240Y0136776D03*
X0199980Y0128434D03*
X0199980Y0126072D03*
X0208838Y0128513D03*
X0210728Y0126426D03*
X0212499Y0126899D03*
X0212499Y0127017D03*
X0212499Y0127450D03*
X0212499Y0127568D03*
X0212499Y0117468D03*
X0212499Y0117350D03*
X0212499Y0117271D03*
X0212499Y0116996D03*
X0212499Y0116917D03*
X0212499Y0116799D03*
X0208838Y0117271D03*
X0206594Y0117468D03*
X0206476Y0117744D03*
X0205059Y0116523D03*
X0205059Y0116405D03*
X0203287Y0115578D03*
X0201751Y0116799D03*
X0201633Y0116996D03*
X0200452Y0118334D03*
X0212499Y0108668D03*
X0212499Y0108550D03*
X0212499Y0108471D03*
X0212499Y0108196D03*
X0212499Y0108117D03*
X0212499Y0107999D03*
X0211200Y0107054D03*
X0211182Y0099334D03*
X0212481Y0098350D03*
X0212481Y0098271D03*
X0212481Y0097996D03*
X0212481Y0097917D03*
X0212481Y0097799D03*
X0211182Y0096854D03*
D58*
X0208984Y0089236D03*
X0214496Y0089236D03*
X0214496Y0088960D03*
X0214496Y0087582D03*
X0214496Y0086755D03*
X0208508Y0079587D03*
X0202721Y0078760D03*
X0202721Y0077107D03*
X0214453Y0077107D03*
X0214453Y0077382D03*
X0214453Y0078485D03*
X0214453Y0078760D03*
X0203629Y0086755D03*
X0203629Y0087858D03*
X0203629Y0088409D03*
X0203629Y0089236D03*
X0206240Y0118551D03*
X0206240Y0128651D03*
X0199980Y0128651D03*
X0137702Y0125916D03*
X0134109Y0115716D03*
X0138855Y0107806D03*
X0132266Y0095916D03*
X0132148Y0085916D03*
D59*
X0132325Y0076961D03*
X0132418Y0106861D03*
X0136197Y0107806D03*
X0137002Y0118078D03*
X0179621Y0137533D03*
X0182338Y0137533D03*
X0204409Y0127233D03*
X0211141Y0118551D03*
D60*
X0204645Y0128651D03*
X0134307Y0107806D03*
D61*
X0132359Y0107806D03*
X0134749Y0127333D03*
X0134867Y0128278D03*
X0178136Y0070223D03*
X0174514Y0069121D03*
X0171207Y0068963D03*
X0169948Y0068176D03*
X0168530Y0069121D03*
X0161916Y0067546D03*
X0161759Y0067703D03*
X0158924Y0068806D03*
X0158924Y0069278D03*
D62*
X0138762Y0076154D03*
X0138644Y0075878D03*
X0138762Y0078713D03*
X0132384Y0076823D03*
X0132384Y0076705D03*
X0138644Y0085778D03*
X0138762Y0086054D03*
X0138762Y0088613D03*
X0132384Y0088062D03*
X0132477Y0106999D03*
X0132477Y0107550D03*
X0136256Y0107550D03*
X0136256Y0107471D03*
X0136256Y0107668D03*
X0136256Y0107196D03*
X0136256Y0107117D03*
X0136256Y0106999D03*
X0137702Y0126172D03*
X0137702Y0128534D03*
X0134867Y0126251D03*
X0197381Y0125954D03*
X0197381Y0128513D03*
X0201633Y0127371D03*
X0201633Y0127096D03*
X0204468Y0127017D03*
X0204468Y0126899D03*
X0206948Y0127844D03*
X0211200Y0125678D03*
X0197854Y0118413D03*
X0197854Y0115854D03*
X0211200Y0115578D03*
D63*
X0211259Y0106778D03*
X0211241Y0096578D03*
X0204409Y0127096D03*
X0206771Y0127962D03*
X0201692Y0127450D03*
X0201692Y0127017D03*
X0197472Y0136304D03*
X0197472Y0138784D03*
X0185172Y0138734D03*
X0185172Y0136254D03*
X0182338Y0137317D03*
X0182338Y0137396D03*
X0182338Y0137671D03*
X0182101Y0139088D03*
X0179385Y0139088D03*
X0179621Y0137671D03*
X0179621Y0137396D03*
X0179621Y0137317D03*
X0137002Y0118216D03*
X0137002Y0115972D03*
X0134049Y0115854D03*
X0134049Y0118334D03*
X0134808Y0126172D03*
X0134808Y0128416D03*
X0132418Y0107668D03*
X0136197Y0106723D03*
X0132325Y0087550D03*
X0135159Y0085778D03*
X0132325Y0077099D03*
D64*
X0141748Y0106723D03*
X0141748Y0107471D03*
X0134049Y0117940D03*
X0185172Y0138340D03*
X0197472Y0138390D03*
X0197440Y0127962D03*
X0197440Y0126505D03*
X0197913Y0117862D03*
X0197913Y0116405D03*
X0207480Y0108550D03*
X0207480Y0108196D03*
D65*
X0198031Y0115578D03*
X0197795Y0115972D03*
X0197795Y0116051D03*
X0197795Y0118216D03*
X0197795Y0118334D03*
X0198031Y0118688D03*
X0197559Y0125678D03*
X0197322Y0126072D03*
X0197322Y0128316D03*
X0197322Y0128434D03*
X0197559Y0128788D03*
X0204527Y0126623D03*
X0204527Y0126505D03*
X0207125Y0127568D03*
X0197472Y0136422D03*
X0197472Y0138666D03*
X0185172Y0138616D03*
X0185172Y0136372D03*
X0137002Y0116051D03*
X0134049Y0115972D03*
X0134049Y0118216D03*
X0132536Y0107471D03*
X0132536Y0107117D03*
X0138821Y0098613D03*
X0138821Y0096054D03*
X0138703Y0095778D03*
X0138821Y0088534D03*
X0138821Y0088416D03*
X0138821Y0086251D03*
X0138821Y0086172D03*
X0138821Y0078634D03*
X0138821Y0078516D03*
X0138821Y0076351D03*
X0138821Y0076272D03*
X0132443Y0076272D03*
X0132443Y0076351D03*
X0132443Y0076154D03*
X0132443Y0076626D03*
D66*
X0165853Y0066601D03*
X0141689Y0107333D03*
D67*
X0138323Y0107333D03*
X0138205Y0106861D03*
X0135370Y0106388D03*
X0134805Y0087806D03*
X0201456Y0128651D03*
X0209251Y0127233D03*
X0209251Y0126761D03*
X0209251Y0126288D03*
X0211023Y0127706D03*
X0209370Y0118551D03*
X0211023Y0107861D03*
X0211005Y0098606D03*
X0211005Y0097661D03*
D68*
X0211082Y0128651D03*
X0136256Y0107333D03*
X0136256Y0106861D03*
D69*
X0132595Y0107333D03*
X0141807Y0106388D03*
X0138880Y0088278D03*
X0138880Y0086388D03*
X0138880Y0078378D03*
X0138880Y0076488D03*
X0161837Y0069908D03*
X0174593Y0068648D03*
X0177900Y0068176D03*
X0178058Y0068333D03*
X0178215Y0068491D03*
X0178215Y0066601D03*
X0204586Y0126288D03*
X0182160Y0138951D03*
X0179444Y0138951D03*
D70*
X0132502Y0075878D03*
X0138880Y0076626D03*
X0138880Y0076705D03*
X0138880Y0078162D03*
X0138880Y0078240D03*
X0138880Y0086526D03*
X0138880Y0086605D03*
X0138880Y0088062D03*
X0138880Y0088140D03*
X0132502Y0087944D03*
X0138880Y0096172D03*
X0138880Y0096251D03*
X0138880Y0098416D03*
X0138880Y0098534D03*
X0141571Y0106054D03*
X0141689Y0106172D03*
X0132595Y0107196D03*
X0137702Y0126251D03*
X0137702Y0128416D03*
X0179444Y0138340D03*
X0182160Y0138340D03*
X0197381Y0126151D03*
X0204586Y0126426D03*
X0207421Y0107605D03*
X0207421Y0107526D03*
X0207539Y0107251D03*
X0207403Y0097405D03*
X0203075Y0079449D03*
X0214099Y0079449D03*
D71*
X0198031Y0116799D03*
X0198031Y0117350D03*
X0198031Y0117468D03*
X0203228Y0118688D03*
X0197559Y0126899D03*
X0197559Y0127568D03*
X0141512Y0107117D03*
D72*
X0141276Y0106999D03*
X0202992Y0128788D03*
D73*
X0141158Y0106861D03*
D74*
X0134307Y0106723D03*
X0138774Y0118688D03*
X0139837Y0118688D03*
X0142435Y0118688D03*
X0134808Y0125660D03*
X0133036Y0128888D03*
X0139887Y0128888D03*
X0142485Y0128888D03*
X0129888Y0146479D03*
X0126660Y0149550D03*
X0201574Y0128434D03*
X0204645Y0128513D03*
X0208188Y0127450D03*
X0210196Y0127450D03*
X0200393Y0117744D03*
X0200393Y0116523D03*
X0207898Y0077796D03*
X0133860Y0087550D03*
D75*
X0132266Y0085778D03*
X0132266Y0077217D03*
X0135218Y0075878D03*
X0132384Y0095778D03*
X0132384Y0097668D03*
X0132359Y0106723D03*
X0138028Y0105778D03*
X0136943Y0118334D03*
X0137702Y0126054D03*
X0179680Y0137199D03*
X0179680Y0137750D03*
X0182397Y0137750D03*
X0182397Y0137199D03*
X0199980Y0128788D03*
X0201751Y0127568D03*
X0201751Y0126899D03*
X0204350Y0127371D03*
X0204350Y0127450D03*
D76*
X0210669Y0126623D03*
X0210669Y0126505D03*
X0211023Y0128316D03*
X0212559Y0126623D03*
X0211023Y0118216D03*
X0210787Y0116405D03*
X0210787Y0116326D03*
X0212559Y0116523D03*
X0208897Y0116996D03*
X0204999Y0116917D03*
X0204999Y0116799D03*
X0201692Y0116917D03*
X0201574Y0117271D03*
X0200393Y0118216D03*
X0200393Y0115972D03*
X0211141Y0109534D03*
X0212559Y0107723D03*
X0212540Y0098468D03*
X0211123Y0096972D03*
X0198417Y0136855D03*
X0198299Y0138312D03*
X0196646Y0138312D03*
X0196527Y0136855D03*
X0193457Y0136501D03*
X0186117Y0136805D03*
X0185999Y0138262D03*
X0184346Y0138262D03*
X0184227Y0136805D03*
X0142367Y0128416D03*
X0141186Y0126999D03*
X0140005Y0128416D03*
X0138588Y0128062D03*
X0136816Y0128062D03*
X0134808Y0125778D03*
X0133223Y0117862D03*
X0134876Y0116326D03*
X0137002Y0115578D03*
X0137475Y0117468D03*
X0139955Y0118216D03*
X0141136Y0116799D03*
X0142317Y0118216D03*
X0136551Y0106605D03*
X0133953Y0105778D03*
X0136459Y0096723D03*
X0136340Y0087668D03*
X0136340Y0086999D03*
X0135041Y0086054D03*
X0136340Y0077768D03*
X0136340Y0077099D03*
X0134923Y0076272D03*
D77*
X0135041Y0078378D03*
X0134923Y0086388D03*
X0135041Y0096388D03*
X0138087Y0106388D03*
X0142435Y0118551D03*
X0142485Y0128751D03*
X0206653Y0126761D03*
X0211141Y0107388D03*
D78*
X0209783Y0107861D03*
X0211082Y0109278D03*
X0209074Y0116188D03*
X0204822Y0117606D03*
X0201751Y0117606D03*
X0200452Y0116188D03*
X0199980Y0126288D03*
X0209074Y0125816D03*
X0209074Y0128178D03*
X0195287Y0136166D03*
X0195287Y0139001D03*
X0193279Y0139001D03*
X0182987Y0136116D03*
X0180271Y0136116D03*
X0139946Y0128751D03*
X0132977Y0128751D03*
X0138715Y0118551D03*
X0139896Y0118551D03*
X0135429Y0105916D03*
X0134982Y0098278D03*
X0207133Y0088960D03*
X0209062Y0088133D03*
X0211064Y0097188D03*
X0210516Y0078760D03*
X0208862Y0077107D03*
D79*
X0211894Y0078760D03*
X0212445Y0078209D03*
X0212645Y0088685D03*
X0211267Y0089787D03*
X0209062Y0088409D03*
X0206858Y0089787D03*
X0205755Y0088685D03*
X0174514Y0070066D03*
X0171680Y0070223D03*
X0169948Y0067546D03*
X0171680Y0066601D03*
X0171680Y0066444D03*
X0172940Y0066444D03*
X0176089Y0066444D03*
X0177507Y0069436D03*
X0179081Y0069278D03*
X0168215Y0070223D03*
X0164121Y0068491D03*
X0164121Y0068176D03*
X0164121Y0068018D03*
X0162861Y0068491D03*
X0162861Y0068648D03*
X0162861Y0068806D03*
X0161759Y0070381D03*
X0158451Y0070066D03*
X0158451Y0068491D03*
X0158451Y0068333D03*
X0158451Y0068176D03*
X0158451Y0068018D03*
X0158451Y0067861D03*
X0158451Y0067703D03*
X0158451Y0067546D03*
X0158451Y0067388D03*
X0158451Y0067231D03*
X0158451Y0067073D03*
X0158451Y0066916D03*
X0158451Y0066759D03*
X0158451Y0066601D03*
X0158451Y0066444D03*
X0158451Y0066286D03*
X0168215Y0066444D03*
X0136399Y0077906D03*
X0134746Y0076488D03*
X0136399Y0087806D03*
X0134012Y0105916D03*
X0135172Y0116661D03*
X0136235Y0116661D03*
X0133046Y0117606D03*
X0135458Y0127806D03*
X0136639Y0127806D03*
X0138765Y0127806D03*
X0202224Y0118551D03*
X0203287Y0117606D03*
X0204940Y0117133D03*
X0203287Y0115716D03*
X0210728Y0116661D03*
X0210610Y0127233D03*
D80*
X0136965Y0105660D03*
D81*
X0136788Y0105345D03*
D82*
X0136670Y0105227D03*
D83*
X0135159Y0095916D03*
X0132088Y0096861D03*
X0131970Y0086861D03*
X0131970Y0086388D03*
X0131970Y0078851D03*
X0131970Y0078378D03*
X0134049Y0118551D03*
X0134808Y0128751D03*
X0202047Y0125816D03*
X0210787Y0126288D03*
X0212440Y0127233D03*
X0206299Y0118078D03*
X0206535Y0117606D03*
X0206771Y0117133D03*
X0205118Y0116188D03*
D84*
X0205059Y0116661D03*
X0207421Y0115716D03*
X0210846Y0116188D03*
X0212499Y0117133D03*
X0212499Y0126761D03*
X0206712Y0127233D03*
X0193516Y0136638D03*
X0201515Y0117133D03*
X0212499Y0108333D03*
X0212481Y0098133D03*
X0142258Y0118078D03*
X0140014Y0118078D03*
X0140064Y0128278D03*
X0142308Y0128278D03*
X0136399Y0097333D03*
X0136281Y0087333D03*
X0135336Y0078851D03*
X0136281Y0077433D03*
D85*
X0198149Y0116996D03*
X0197677Y0127096D03*
X0197677Y0127371D03*
X0141186Y0127471D03*
X0141136Y0117271D03*
D86*
X0137002Y0116188D03*
X0134808Y0126388D03*
X0138821Y0098751D03*
X0138821Y0095916D03*
X0138703Y0088751D03*
X0138703Y0085916D03*
X0134805Y0088751D03*
X0138703Y0078851D03*
X0138703Y0076016D03*
X0132443Y0076016D03*
X0132443Y0076488D03*
X0197913Y0115716D03*
X0197913Y0118551D03*
X0197440Y0125816D03*
X0197440Y0128651D03*
X0201574Y0127233D03*
X0204527Y0126761D03*
X0207007Y0127706D03*
D87*
X0205076Y0060675D03*
X0200391Y0060675D03*
D88*
X0200509Y0060675D03*
X0204958Y0060675D03*
D89*
X0204859Y0060675D03*
D90*
X0204741Y0060675D03*
D91*
X0204603Y0060675D03*
X0200824Y0060675D03*
D92*
X0200942Y0060675D03*
X0204485Y0060675D03*
D93*
X0204387Y0060675D03*
D94*
X0204288Y0060675D03*
D95*
X0204151Y0055714D03*
X0201316Y0055714D03*
D96*
X0204151Y0058372D03*
X0126916Y0143113D03*
D97*
X0201316Y0061856D03*
X0201788Y0061856D03*
X0203678Y0061856D03*
X0204151Y0061856D03*
X0201316Y0059139D03*
D98*
X0204151Y0065222D03*
D99*
X0204013Y0055655D03*
X0201454Y0055655D03*
X0201178Y0055773D03*
X0127054Y0143231D03*
X0129534Y0149491D03*
D100*
X0204013Y0058372D03*
D101*
X0201651Y0059139D03*
X0201572Y0059139D03*
X0201454Y0059139D03*
X0201454Y0061856D03*
X0201572Y0061856D03*
X0201651Y0061856D03*
X0203816Y0061856D03*
X0203934Y0061856D03*
X0204013Y0061856D03*
X0127605Y0150259D03*
D102*
X0127526Y0146420D03*
X0203934Y0065458D03*
X0204013Y0065340D03*
D103*
X0203934Y0055596D03*
X0203816Y0055596D03*
X0201651Y0055596D03*
X0201572Y0055596D03*
X0129534Y0143290D03*
X0127172Y0143290D03*
X0127172Y0149550D03*
D104*
X0129613Y0149550D03*
X0128550Y0146479D03*
X0201926Y0058431D03*
X0202005Y0058431D03*
X0202123Y0058431D03*
X0202399Y0058431D03*
X0202517Y0058431D03*
X0202596Y0058431D03*
X0202871Y0058431D03*
X0202950Y0058431D03*
X0203068Y0058431D03*
X0203344Y0058431D03*
X0203462Y0058431D03*
X0203540Y0058431D03*
X0203816Y0058431D03*
X0203934Y0058431D03*
D105*
X0203816Y0065576D03*
X0203540Y0065694D03*
X0203344Y0065812D03*
X0202123Y0065812D03*
X0201926Y0065694D03*
X0201651Y0065576D03*
X0127526Y0143467D03*
X0127605Y0146420D03*
X0127723Y0146420D03*
D106*
X0127861Y0146420D03*
X0127388Y0149373D03*
X0201788Y0055537D03*
X0203678Y0055537D03*
D107*
X0203678Y0058431D03*
X0203206Y0058431D03*
X0202733Y0058431D03*
X0202261Y0058431D03*
X0201788Y0058431D03*
D108*
X0203678Y0065635D03*
D109*
X0203540Y0055537D03*
X0203462Y0055537D03*
X0202005Y0055537D03*
X0201926Y0055537D03*
X0129416Y0143349D03*
X0127251Y0143349D03*
X0127999Y0146420D03*
X0127251Y0149491D03*
X0129140Y0149373D03*
X0129416Y0149491D03*
D110*
X0201178Y0061797D03*
X0203540Y0061797D03*
X0201178Y0059080D03*
D111*
X0201926Y0061029D03*
X0202005Y0061029D03*
X0202123Y0061029D03*
X0203068Y0061029D03*
X0203344Y0061029D03*
X0203462Y0061029D03*
X0129613Y0143172D03*
X0127054Y0149550D03*
D112*
X0127526Y0150199D03*
X0129613Y0146420D03*
X0128471Y0144530D03*
X0128196Y0144530D03*
X0128117Y0144530D03*
X0203462Y0063096D03*
D113*
X0203462Y0065753D03*
X0203068Y0065872D03*
X0202950Y0065872D03*
X0202871Y0065872D03*
X0202596Y0065872D03*
X0202517Y0065872D03*
X0202399Y0065872D03*
X0202005Y0065753D03*
X0202123Y0055478D03*
X0202399Y0055478D03*
X0202517Y0055478D03*
X0202596Y0055478D03*
X0202871Y0055478D03*
X0202950Y0055478D03*
X0203068Y0055478D03*
X0203344Y0055478D03*
X0129140Y0143408D03*
D114*
X0129888Y0142995D03*
X0128944Y0144294D03*
X0127723Y0144412D03*
X0127605Y0144294D03*
X0127251Y0145357D03*
X0128196Y0145829D03*
X0128471Y0145948D03*
X0129416Y0146420D03*
X0128944Y0148546D03*
X0127605Y0148546D03*
X0127054Y0147601D03*
X0127251Y0147483D03*
X0202123Y0063214D03*
X0203344Y0063214D03*
X0202399Y0061560D03*
D115*
X0202261Y0065872D03*
X0202733Y0065872D03*
X0203206Y0065872D03*
X0203206Y0055478D03*
X0202733Y0055478D03*
X0202261Y0055478D03*
X0129278Y0143408D03*
X0127388Y0143408D03*
X0129278Y0149432D03*
D116*
X0202261Y0061029D03*
X0203206Y0061029D03*
D117*
X0203206Y0063273D03*
X0202261Y0063273D03*
X0129278Y0146479D03*
D118*
X0126778Y0149550D03*
X0203068Y0063273D03*
D119*
X0202005Y0063155D03*
X0202517Y0061620D03*
X0202596Y0061620D03*
X0202871Y0061620D03*
X0202950Y0061620D03*
X0129062Y0142581D03*
X0128944Y0142581D03*
X0128668Y0142581D03*
X0128550Y0142581D03*
X0128471Y0142581D03*
X0128196Y0142581D03*
X0128117Y0142581D03*
X0127999Y0142581D03*
X0127723Y0142581D03*
X0127605Y0142581D03*
X0127999Y0144471D03*
X0128550Y0144471D03*
X0128668Y0144471D03*
X0128117Y0145770D03*
X0127172Y0145298D03*
X0127054Y0145298D03*
X0128117Y0147070D03*
X0128196Y0147070D03*
X0128471Y0146951D03*
X0129534Y0146479D03*
X0128668Y0148369D03*
X0128550Y0148369D03*
X0128471Y0148369D03*
X0128196Y0148369D03*
X0128117Y0148369D03*
X0127999Y0148369D03*
X0127723Y0148487D03*
X0127172Y0147542D03*
D120*
X0127526Y0148664D03*
X0129062Y0148664D03*
X0129140Y0146420D03*
X0129062Y0144176D03*
X0202399Y0063332D03*
X0202517Y0063332D03*
X0202596Y0063332D03*
X0202871Y0063332D03*
X0202950Y0063332D03*
D121*
X0202733Y0061620D03*
X0128806Y0142581D03*
X0128333Y0142581D03*
X0127861Y0142581D03*
X0127861Y0144471D03*
X0128333Y0144589D03*
X0128333Y0145888D03*
X0128333Y0148369D03*
X0127861Y0148369D03*
D122*
X0202733Y0063332D03*
D123*
X0201926Y0063037D03*
X0126778Y0145298D03*
X0126778Y0147542D03*
X0129062Y0150140D03*
X0129888Y0149550D03*
D124*
X0201788Y0065694D03*
D125*
X0201572Y0065517D03*
X0201454Y0065399D03*
D126*
X0201316Y0065281D03*
D127*
X0201178Y0065104D03*
D128*
X0201060Y0060675D03*
D129*
X0200745Y0060675D03*
D130*
X0200627Y0060675D03*
D131*
X0207816Y0099551D03*
X0207480Y0108333D03*
X0207834Y0109751D03*
X0197472Y0136638D03*
X0185172Y0136588D03*
D132*
X0211555Y0110676D03*
X0211555Y0105991D03*
X0211536Y0100476D03*
X0211536Y0095791D03*
D133*
X0211359Y0095909D03*
X0211359Y0100358D03*
X0211377Y0106109D03*
X0211377Y0110558D03*
X0135277Y0095227D03*
X0135159Y0085227D03*
X0135159Y0075327D03*
D134*
X0200984Y0118787D03*
X0211259Y0110459D03*
X0211241Y0100259D03*
D135*
X0211123Y0100141D03*
X0211141Y0110341D03*
D136*
X0211082Y0110203D03*
X0211082Y0106424D03*
X0211064Y0100003D03*
X0211064Y0096224D03*
X0135573Y0095660D03*
X0135455Y0085660D03*
X0135455Y0075760D03*
D137*
X0135514Y0078988D03*
X0135514Y0088888D03*
X0135632Y0098888D03*
X0211005Y0099885D03*
X0211005Y0096342D03*
X0211023Y0106542D03*
X0211023Y0110085D03*
D138*
X0210964Y0109987D03*
X0210946Y0099787D03*
D139*
X0212599Y0099688D03*
X0212618Y0109888D03*
D140*
X0210964Y0106660D03*
X0210964Y0115460D03*
X0210964Y0125560D03*
X0210946Y0096460D03*
D141*
X0211123Y0096145D03*
X0211141Y0106345D03*
X0135514Y0099085D03*
X0135514Y0095542D03*
X0135396Y0089085D03*
X0135396Y0085542D03*
X0135396Y0079185D03*
X0135396Y0075642D03*
D142*
X0135277Y0075445D03*
X0135277Y0085345D03*
X0135396Y0095345D03*
X0211241Y0096027D03*
X0211259Y0106227D03*
D143*
X0174798Y0078109D03*
X0178538Y0076337D03*
X0180507Y0076337D03*
X0179522Y0072755D03*
X0181885Y0072755D03*
X0162853Y0074172D03*
D144*
X0162853Y0074369D03*
X0165018Y0073188D03*
X0158916Y0077125D03*
X0160688Y0077715D03*
X0165018Y0077715D03*
X0173026Y0077125D03*
X0174798Y0077125D03*
X0174798Y0077322D03*
X0174798Y0077518D03*
X0174798Y0077715D03*
X0174798Y0077912D03*
X0174798Y0076140D03*
X0174798Y0075944D03*
X0174798Y0075747D03*
X0174798Y0075550D03*
X0174798Y0075353D03*
X0174798Y0075156D03*
X0174798Y0074723D03*
X0174798Y0074526D03*
X0174798Y0074369D03*
X0174798Y0074172D03*
X0174798Y0073739D03*
X0174798Y0073542D03*
X0174798Y0073385D03*
X0174798Y0073188D03*
X0179522Y0073188D03*
X0182278Y0074723D03*
X0180507Y0076140D03*
X0178538Y0076140D03*
X0176373Y0076140D03*
X0184247Y0077912D03*
X0153404Y0073188D03*
X0151829Y0076337D03*
D145*
X0155865Y0076140D03*
X0160983Y0076534D03*
X0160983Y0076731D03*
X0164526Y0076534D03*
X0164526Y0076337D03*
X0169975Y0076140D03*
X0184148Y0077715D03*
X0184148Y0072755D03*
D146*
X0184148Y0077125D03*
D147*
X0184148Y0076928D03*
X0178440Y0074172D03*
X0163542Y0075353D03*
D148*
X0169286Y0074172D03*
X0174798Y0076928D03*
X0155176Y0074172D03*
X0149073Y0076534D03*
D149*
X0178440Y0074723D03*
X0178440Y0074526D03*
X0184148Y0076731D03*
D150*
X0182770Y0076534D03*
X0185526Y0076534D03*
X0185723Y0074172D03*
X0179424Y0073739D03*
X0178440Y0075156D03*
X0178440Y0075353D03*
X0177455Y0073739D03*
X0177455Y0073542D03*
X0170959Y0075156D03*
X0164723Y0076928D03*
X0162755Y0074723D03*
X0160786Y0077125D03*
X0156849Y0075156D03*
X0149172Y0076337D03*
D151*
X0150255Y0075156D03*
X0148089Y0075156D03*
X0147892Y0074172D03*
X0149073Y0072755D03*
X0153207Y0075156D03*
X0155766Y0076337D03*
X0155766Y0072755D03*
X0160688Y0077322D03*
X0162853Y0074526D03*
X0164822Y0077125D03*
X0164822Y0077322D03*
X0178538Y0075550D03*
X0179522Y0073542D03*
X0179522Y0073385D03*
X0182475Y0074369D03*
X0182672Y0074172D03*
X0182475Y0076337D03*
X0185822Y0076337D03*
X0185822Y0074369D03*
D152*
X0170270Y0073739D03*
X0170073Y0073542D03*
X0170270Y0075353D03*
X0170073Y0075550D03*
X0155963Y0075550D03*
X0155963Y0073542D03*
X0149073Y0073385D03*
X0149073Y0075747D03*
D153*
X0178538Y0074940D03*
D154*
X0179522Y0072971D03*
X0181885Y0072971D03*
X0174798Y0072971D03*
X0174798Y0073955D03*
X0174798Y0074940D03*
X0165018Y0072971D03*
X0160688Y0072971D03*
X0153404Y0072971D03*
D155*
X0155176Y0074940D03*
X0169286Y0074940D03*
D156*
X0178538Y0074369D03*
D157*
X0177455Y0073955D03*
X0170959Y0073955D03*
X0156849Y0073955D03*
X0185526Y0073955D03*
D158*
X0182672Y0073955D03*
X0179522Y0073955D03*
X0162853Y0074940D03*
D159*
X0183656Y0073542D03*
X0183853Y0073739D03*
D160*
X0183558Y0073385D03*
D161*
X0183459Y0073188D03*
D162*
X0184247Y0072971D03*
D163*
X0169975Y0072971D03*
X0155865Y0072971D03*
D164*
X0151731Y0075156D03*
X0149172Y0072558D03*
X0160589Y0077912D03*
X0164920Y0077912D03*
D165*
X0164625Y0076731D03*
X0160885Y0076928D03*
D166*
X0161081Y0076337D03*
X0162853Y0075156D03*
X0164428Y0076140D03*
X0149073Y0076140D03*
D167*
X0149073Y0075944D03*
X0152617Y0076140D03*
X0152617Y0075747D03*
X0152617Y0075550D03*
X0152617Y0075353D03*
X0155766Y0075944D03*
X0161278Y0075944D03*
X0161278Y0075747D03*
X0164231Y0075747D03*
X0149073Y0073188D03*
D168*
X0162755Y0075550D03*
D169*
X0149073Y0075550D03*
X0149073Y0075353D03*
X0149073Y0073739D03*
X0149073Y0073542D03*
D170*
X0148089Y0073955D03*
X0150255Y0073955D03*
D171*
X0149073Y0072971D03*
D172*
X0160735Y0068963D03*
X0160735Y0068806D03*
X0160892Y0068648D03*
X0160892Y0069121D03*
X0160892Y0069278D03*
X0162782Y0069121D03*
X0162782Y0068963D03*
X0164042Y0068333D03*
X0164199Y0068648D03*
X0164199Y0068806D03*
X0164199Y0067861D03*
X0164199Y0067703D03*
X0166719Y0067703D03*
X0166719Y0067546D03*
X0166719Y0067388D03*
X0166719Y0067861D03*
X0166719Y0068018D03*
X0166719Y0068176D03*
X0166719Y0068333D03*
X0166719Y0068491D03*
X0166719Y0068648D03*
X0166719Y0068806D03*
X0166719Y0068963D03*
X0166719Y0069121D03*
X0166719Y0069278D03*
X0168136Y0068333D03*
X0168136Y0068176D03*
X0168136Y0068018D03*
X0168136Y0067861D03*
X0168136Y0067703D03*
X0168136Y0067546D03*
X0168136Y0067388D03*
X0168136Y0067231D03*
X0168136Y0067073D03*
X0168136Y0066916D03*
X0168136Y0066759D03*
X0168136Y0066601D03*
X0171601Y0066759D03*
X0171601Y0066916D03*
X0171601Y0067073D03*
X0171601Y0067231D03*
X0171601Y0067388D03*
X0171601Y0067546D03*
X0171601Y0067703D03*
X0171601Y0067861D03*
X0171601Y0068018D03*
X0171601Y0068176D03*
X0171601Y0070066D03*
X0173806Y0068333D03*
X0173648Y0068018D03*
X0173018Y0066759D03*
X0173018Y0066601D03*
X0175381Y0068176D03*
X0175223Y0068491D03*
X0174593Y0069908D03*
X0177113Y0067546D03*
X0177113Y0067388D03*
X0177270Y0067231D03*
X0176168Y0066601D03*
X0176010Y0066759D03*
X0176010Y0066916D03*
X0179003Y0068963D03*
X0179160Y0069121D03*
X0179003Y0069436D03*
X0178215Y0070381D03*
X0168294Y0070066D03*
X0205083Y0078485D03*
X0208390Y0079036D03*
X0210595Y0079587D03*
X0211973Y0077107D03*
X0208666Y0076555D03*
X0205677Y0087582D03*
X0207055Y0088685D03*
X0208984Y0088685D03*
X0212566Y0087582D03*
D173*
X0209062Y0087582D03*
X0209138Y0077933D03*
X0174593Y0070381D03*
X0171601Y0070381D03*
X0168136Y0070381D03*
X0158373Y0070381D03*
D174*
X0158609Y0069908D03*
X0160971Y0068491D03*
X0162703Y0069278D03*
X0164278Y0068963D03*
X0164436Y0069121D03*
X0164278Y0067546D03*
X0164436Y0067388D03*
X0169948Y0067703D03*
X0171522Y0069751D03*
X0171522Y0069908D03*
X0173885Y0068491D03*
X0173727Y0068176D03*
X0173097Y0066916D03*
X0175459Y0068018D03*
X0175302Y0068333D03*
X0174514Y0069751D03*
X0177192Y0067703D03*
X0179081Y0067231D03*
X0168215Y0069908D03*
X0166168Y0070381D03*
X0205004Y0077382D03*
X0210716Y0087858D03*
D175*
X0174593Y0070223D03*
X0173018Y0066286D03*
X0171601Y0066286D03*
X0168136Y0066286D03*
X0158373Y0070223D03*
X0179160Y0067388D03*
D176*
X0174514Y0068806D03*
X0171050Y0068648D03*
X0168688Y0068648D03*
X0168688Y0068806D03*
X0166010Y0070223D03*
X0178136Y0070066D03*
X0202996Y0079311D03*
X0214177Y0079311D03*
X0210519Y0086480D03*
X0207606Y0086480D03*
D177*
X0174593Y0069278D03*
X0171286Y0069278D03*
X0171286Y0069121D03*
X0168451Y0069278D03*
X0168451Y0069436D03*
X0162152Y0067388D03*
X0161522Y0067861D03*
X0161365Y0068018D03*
X0161837Y0070223D03*
X0158845Y0069436D03*
X0158845Y0068648D03*
D178*
X0161837Y0069593D03*
X0161837Y0069751D03*
X0165932Y0070066D03*
X0161837Y0067231D03*
X0178215Y0066759D03*
X0178215Y0069593D03*
X0178215Y0069751D03*
D179*
X0178530Y0068648D03*
X0177743Y0068018D03*
X0178215Y0066444D03*
X0174593Y0068963D03*
X0171129Y0068806D03*
X0168609Y0068963D03*
X0166089Y0066286D03*
X0161837Y0070066D03*
X0159003Y0069121D03*
X0159003Y0068963D03*
X0203826Y0089787D03*
X0209062Y0089787D03*
X0214299Y0089787D03*
D180*
X0178136Y0069908D03*
X0166010Y0066444D03*
D181*
X0165774Y0066759D03*
X0161680Y0066286D03*
X0161837Y0069436D03*
X0165774Y0069908D03*
X0178215Y0067073D03*
X0178215Y0066916D03*
D182*
X0174514Y0067861D03*
X0165696Y0066916D03*
X0161759Y0066916D03*
X0161759Y0067073D03*
X0161759Y0066444D03*
X0165696Y0069751D03*
D183*
X0164593Y0069278D03*
X0168373Y0069593D03*
X0169948Y0068018D03*
X0171365Y0069436D03*
X0174514Y0069436D03*
X0177507Y0067861D03*
X0158766Y0069593D03*
D184*
X0161680Y0066759D03*
X0161680Y0066601D03*
X0165617Y0067073D03*
X0165617Y0069436D03*
X0165617Y0069593D03*
X0170499Y0068333D03*
X0174593Y0067703D03*
D185*
X0169869Y0068491D03*
D186*
X0178136Y0066129D03*
X0159396Y0068491D03*
D187*
X0165538Y0067231D03*
X0174514Y0067546D03*
D188*
X0174593Y0067388D03*
D189*
X0176089Y0066286D03*
X0169948Y0067388D03*
D190*
X0174514Y0067231D03*
D191*
X0174593Y0067073D03*
D192*
X0208587Y0075177D03*
X0208587Y0075453D03*
X0208587Y0075729D03*
X0208587Y0076004D03*
X0208587Y0079862D03*
X0208587Y0080138D03*
X0208587Y0080414D03*
X0208587Y0080689D03*
D193*
X0208587Y0080551D03*
X0208587Y0080276D03*
X0208587Y0080000D03*
X0208587Y0075866D03*
X0208587Y0075591D03*
X0208587Y0075315D03*
D194*
X0203351Y0076142D03*
X0213823Y0079725D03*
D195*
X0206717Y0079725D03*
D196*
X0203213Y0079587D03*
X0211481Y0078485D03*
X0213961Y0079587D03*
D197*
X0210437Y0079311D03*
X0210437Y0079036D03*
X0210437Y0078209D03*
X0208941Y0077382D03*
X0206736Y0076280D03*
X0206736Y0079587D03*
X0207055Y0089236D03*
X0206936Y0089511D03*
X0210913Y0088960D03*
X0211070Y0089236D03*
X0211188Y0089511D03*
D198*
X0210499Y0087169D03*
X0207625Y0087169D03*
X0208528Y0079449D03*
X0204945Y0078071D03*
X0204945Y0077796D03*
X0212110Y0077520D03*
D199*
X0210378Y0077520D03*
X0210378Y0077796D03*
X0210378Y0078071D03*
X0210378Y0077244D03*
X0210378Y0076969D03*
X0210378Y0076693D03*
X0209000Y0077520D03*
X0206796Y0077520D03*
X0206796Y0077796D03*
X0206796Y0078071D03*
X0206796Y0078347D03*
X0206796Y0078622D03*
X0206796Y0078898D03*
X0206796Y0079173D03*
X0206796Y0079449D03*
X0206796Y0077244D03*
X0206796Y0076969D03*
X0206796Y0076693D03*
X0206796Y0076418D03*
X0206996Y0089373D03*
X0211129Y0089373D03*
D200*
X0210578Y0087582D03*
X0208449Y0079311D03*
D201*
X0206796Y0079311D03*
X0206796Y0079036D03*
X0206796Y0078760D03*
X0206796Y0078485D03*
X0206796Y0078209D03*
X0206796Y0077933D03*
X0206796Y0077658D03*
X0206796Y0077382D03*
X0206796Y0077107D03*
X0206796Y0076831D03*
X0206796Y0076555D03*
X0210378Y0076555D03*
X0210378Y0076831D03*
X0210378Y0077107D03*
X0210378Y0077382D03*
X0210378Y0077658D03*
X0210378Y0077933D03*
D202*
X0214315Y0076693D03*
X0214315Y0079173D03*
X0202859Y0076693D03*
X0207625Y0086618D03*
X0206917Y0087996D03*
X0203767Y0089649D03*
X0210499Y0086618D03*
X0214358Y0089649D03*
D203*
X0210913Y0088822D03*
X0207055Y0089098D03*
X0210437Y0079173D03*
X0210437Y0078898D03*
X0208114Y0078347D03*
X0210437Y0076418D03*
X0205359Y0076969D03*
D204*
X0208449Y0079173D03*
X0212032Y0077244D03*
X0210578Y0087444D03*
X0207547Y0087444D03*
D205*
X0202937Y0079173D03*
D206*
X0202859Y0079036D03*
X0214315Y0079036D03*
X0214358Y0086480D03*
X0214358Y0088685D03*
X0206917Y0088133D03*
X0203767Y0088133D03*
X0203767Y0086480D03*
D207*
X0206858Y0088271D03*
X0209062Y0089373D03*
X0214374Y0078898D03*
X0214374Y0076969D03*
X0202799Y0076969D03*
X0202799Y0078898D03*
D208*
X0205142Y0078622D03*
X0205618Y0087444D03*
X0205618Y0088822D03*
X0212507Y0088822D03*
X0212507Y0087444D03*
D209*
X0212507Y0088960D03*
X0210854Y0088685D03*
X0205618Y0088960D03*
X0208173Y0078485D03*
D210*
X0211481Y0078347D03*
X0210578Y0086342D03*
X0207547Y0086342D03*
X0206720Y0087720D03*
D211*
X0209062Y0088822D03*
X0205004Y0078347D03*
X0205004Y0077520D03*
X0208587Y0076418D03*
D212*
X0208036Y0078209D03*
X0209062Y0087858D03*
D213*
X0209003Y0088960D03*
X0207468Y0087582D03*
X0207625Y0087307D03*
X0210499Y0087307D03*
X0210933Y0088133D03*
X0212110Y0077382D03*
X0204945Y0077658D03*
X0204945Y0077933D03*
X0204945Y0078209D03*
D214*
X0208036Y0078071D03*
X0209062Y0087996D03*
X0210992Y0089098D03*
D215*
X0207977Y0077933D03*
X0209079Y0077658D03*
D216*
X0209079Y0077796D03*
X0212429Y0089098D03*
X0205539Y0089098D03*
D217*
X0210637Y0087720D03*
X0210795Y0087996D03*
X0210913Y0088271D03*
X0208666Y0076693D03*
X0210595Y0076142D03*
X0205083Y0077244D03*
D218*
X0205142Y0077107D03*
X0208725Y0076831D03*
X0205618Y0087307D03*
X0210854Y0088409D03*
X0212507Y0087307D03*
D219*
X0210440Y0086755D03*
X0207685Y0086755D03*
X0206858Y0088409D03*
X0209062Y0089511D03*
X0214374Y0076831D03*
X0202799Y0076831D03*
D220*
X0202937Y0076555D03*
X0214236Y0076555D03*
X0206996Y0087858D03*
D221*
X0203905Y0086342D03*
X0214220Y0086342D03*
X0214177Y0076418D03*
X0202996Y0076418D03*
D222*
X0208587Y0076280D03*
X0207685Y0087031D03*
X0210440Y0087031D03*
X0214574Y0087031D03*
X0214574Y0087307D03*
X0203551Y0087307D03*
X0203551Y0087582D03*
X0203551Y0087031D03*
X0203551Y0088685D03*
X0203551Y0088960D03*
D223*
X0213902Y0076142D03*
D224*
X0206796Y0076142D03*
X0205618Y0087169D03*
X0212507Y0087169D03*
D225*
X0209062Y0086204D03*
X0209062Y0085929D03*
X0209062Y0085653D03*
X0209062Y0085377D03*
X0209062Y0090062D03*
X0209062Y0090338D03*
X0209062Y0090614D03*
X0209062Y0090889D03*
D226*
X0209062Y0090751D03*
X0209062Y0090476D03*
X0209062Y0090200D03*
X0209062Y0086066D03*
X0209062Y0085791D03*
X0209062Y0085515D03*
D227*
X0209062Y0089925D03*
D228*
X0209062Y0089649D03*
D229*
X0209062Y0089098D03*
X0207685Y0086893D03*
X0210440Y0086893D03*
X0214574Y0086893D03*
X0214574Y0087169D03*
X0214574Y0087444D03*
X0203551Y0087444D03*
X0203551Y0087169D03*
X0203551Y0086893D03*
X0203551Y0087720D03*
X0203551Y0088822D03*
X0203551Y0089098D03*
D230*
X0213807Y0087720D03*
D231*
X0209062Y0087720D03*
D232*
X0129751Y0143113D03*
D233*
X0129751Y0146479D03*
D234*
X0129751Y0149550D03*
D235*
X0129062Y0146479D03*
D236*
X0128944Y0146420D03*
D237*
X0128944Y0150199D03*
D238*
X0128806Y0148428D03*
X0128333Y0147010D03*
X0128806Y0144412D03*
D239*
X0128806Y0146479D03*
X0126916Y0149550D03*
D240*
X0128668Y0146420D03*
D241*
X0127388Y0146420D03*
D242*
X0126916Y0147601D03*
X0126916Y0145239D03*
D243*
X0126778Y0143054D03*
D244*
X0206476Y0129576D03*
X0206476Y0124891D03*
D245*
X0206299Y0125009D03*
X0206299Y0129458D03*
X0206299Y0115145D03*
D246*
X0206181Y0129359D03*
D247*
X0206062Y0129241D03*
D248*
X0206003Y0129103D03*
X0206003Y0125324D03*
D249*
X0205944Y0128985D03*
D250*
X0210255Y0128887D03*
X0210255Y0118787D03*
D251*
X0200748Y0128887D03*
D252*
X0210314Y0128788D03*
X0210314Y0118688D03*
D253*
X0197972Y0117606D03*
X0197972Y0116661D03*
X0197499Y0126761D03*
X0197499Y0127706D03*
D254*
X0197618Y0127450D03*
X0197618Y0127017D03*
X0198090Y0117271D03*
X0198090Y0116917D03*
D255*
X0198149Y0117133D03*
X0197677Y0127233D03*
D256*
X0201338Y0125560D03*
X0201456Y0125442D03*
D257*
X0210905Y0125442D03*
X0210905Y0115342D03*
D258*
X0206062Y0125245D03*
D259*
X0206181Y0125127D03*
X0206181Y0118885D03*
D260*
X0206712Y0119476D03*
X0206712Y0114791D03*
D261*
X0206535Y0114909D03*
X0206535Y0119358D03*
D262*
X0206417Y0119259D03*
D263*
X0206299Y0119141D03*
D264*
X0206240Y0119003D03*
X0206240Y0115224D03*
D265*
X0201692Y0115342D03*
X0201574Y0115460D03*
D266*
X0206417Y0115027D03*
D267*
X0134982Y0099676D03*
X0134982Y0094991D03*
X0134864Y0089676D03*
X0134864Y0084991D03*
X0134864Y0079776D03*
X0134864Y0075091D03*
D268*
X0135041Y0075209D03*
X0135041Y0079658D03*
X0135041Y0085109D03*
X0135041Y0089558D03*
X0135159Y0095109D03*
X0135159Y0099558D03*
D269*
X0135277Y0099459D03*
X0135159Y0089459D03*
X0135159Y0079559D03*
D270*
X0135277Y0079441D03*
X0135277Y0089341D03*
X0135396Y0099341D03*
D271*
X0135455Y0099203D03*
X0135455Y0095424D03*
X0135336Y0089203D03*
X0135336Y0085424D03*
X0135336Y0079303D03*
X0135336Y0075524D03*
D272*
X0135455Y0079087D03*
X0135455Y0088987D03*
X0135573Y0098987D03*
M02*
