G75*
%MOIN*%
%OFA0B0*%
%FSLAX25Y25*%
%IPPOS*%
%LPD*%
%AMOC8*
5,1,8,0,0,1.08239X$1,22.5*
%
%ADD10C,0.08200*%
%ADD11C,0.13800*%
%ADD12R,0.07500X0.03200*%
%ADD13C,0.04343*%
%ADD14C,0.03000*%
%ADD15C,0.03300*%
%ADD16C,0.04737*%
%ADD17R,0.05800X0.03300*%
%ADD18C,0.00500*%
%ADD19R,0.04737X0.18910*%
%ADD20R,0.07099X0.14186*%
%ADD21C,0.05000*%
%ADD22C,0.06706*%
D10*
X0033500Y0063750D03*
X0033500Y0073750D03*
X0033500Y0083750D03*
X0033500Y0093750D03*
X0033500Y0103750D03*
X0033500Y0113750D03*
X0033500Y0123750D03*
X0033500Y0175750D03*
X0033500Y0185750D03*
X0033500Y0195750D03*
X0033500Y0205750D03*
X0033500Y0215750D03*
X0033500Y0225750D03*
X0033500Y0235750D03*
X0033500Y0287750D03*
X0033500Y0297750D03*
X0033500Y0307750D03*
X0033500Y0317750D03*
X0033500Y0327750D03*
X0033500Y0337750D03*
X0033500Y0347750D03*
X0033500Y0399750D03*
X0033500Y0409750D03*
X0033500Y0419750D03*
X0033500Y0429750D03*
X0033500Y0439750D03*
X0033500Y0449750D03*
X0033500Y0459750D03*
X0033500Y0511750D03*
X0033500Y0521750D03*
X0033500Y0531750D03*
X0033500Y0541750D03*
X0033500Y0551750D03*
X0033500Y0561750D03*
X0033500Y0571750D03*
X0123500Y0561750D03*
X0123500Y0551750D03*
X0123500Y0541750D03*
X0123500Y0531750D03*
X0123500Y0521750D03*
X0123500Y0511750D03*
X0135500Y0511750D03*
X0135500Y0521750D03*
X0135500Y0531750D03*
X0135500Y0541750D03*
X0135500Y0551750D03*
X0135500Y0561750D03*
X0135500Y0571750D03*
X0135500Y0459750D03*
X0135500Y0449750D03*
X0135500Y0439750D03*
X0135500Y0429750D03*
X0135500Y0419750D03*
X0135500Y0409750D03*
X0135500Y0399750D03*
X0123500Y0399750D03*
X0123500Y0409750D03*
X0123500Y0419750D03*
X0123500Y0429750D03*
X0123500Y0439750D03*
X0123500Y0449750D03*
X0135500Y0347750D03*
X0135500Y0337750D03*
X0135500Y0327750D03*
X0135500Y0317750D03*
X0135500Y0307750D03*
X0135500Y0297750D03*
X0135500Y0287750D03*
X0123500Y0287750D03*
X0123500Y0297750D03*
X0123500Y0307750D03*
X0123500Y0317750D03*
X0123500Y0327750D03*
X0123500Y0337750D03*
X0135500Y0235750D03*
X0135500Y0225750D03*
X0135500Y0215750D03*
X0135500Y0205750D03*
X0135500Y0195750D03*
X0135500Y0185750D03*
X0135500Y0175750D03*
X0123500Y0175750D03*
X0123500Y0185750D03*
X0123500Y0195750D03*
X0123500Y0205750D03*
X0123500Y0215750D03*
X0123500Y0225750D03*
X0135500Y0123750D03*
X0135500Y0113750D03*
X0135500Y0103750D03*
X0135500Y0093750D03*
X0135500Y0083750D03*
X0135500Y0073750D03*
X0135500Y0063750D03*
X0123500Y0063750D03*
X0123500Y0073750D03*
X0123500Y0083750D03*
X0123500Y0093750D03*
X0123500Y0103750D03*
X0123500Y0113750D03*
X0225500Y0113750D03*
X0225500Y0103750D03*
X0225500Y0093750D03*
X0225500Y0083750D03*
X0225500Y0073750D03*
X0225500Y0063750D03*
X0237500Y0063750D03*
X0237500Y0073750D03*
X0237500Y0083750D03*
X0237500Y0093750D03*
X0237500Y0103750D03*
X0237500Y0113750D03*
X0237500Y0123750D03*
X0237500Y0175750D03*
X0237500Y0185750D03*
X0237500Y0195750D03*
X0237500Y0205750D03*
X0237500Y0215750D03*
X0237500Y0225750D03*
X0237500Y0235750D03*
X0225500Y0225750D03*
X0225500Y0215750D03*
X0225500Y0205750D03*
X0225500Y0195750D03*
X0225500Y0185750D03*
X0225500Y0175750D03*
X0225500Y0287750D03*
X0225500Y0297750D03*
X0225500Y0307750D03*
X0225500Y0317750D03*
X0225500Y0327750D03*
X0225500Y0337750D03*
X0237500Y0337750D03*
X0237500Y0327750D03*
X0237500Y0317750D03*
X0237500Y0307750D03*
X0237500Y0297750D03*
X0237500Y0287750D03*
X0237500Y0347750D03*
X0237500Y0399750D03*
X0237500Y0409750D03*
X0237500Y0419750D03*
X0237500Y0429750D03*
X0237500Y0439750D03*
X0237500Y0449750D03*
X0237500Y0459750D03*
X0225500Y0449750D03*
X0225500Y0439750D03*
X0225500Y0429750D03*
X0225500Y0419750D03*
X0225500Y0409750D03*
X0225500Y0399750D03*
X0225500Y0511750D03*
X0225500Y0521750D03*
X0225500Y0531750D03*
X0225500Y0541750D03*
X0225500Y0551750D03*
X0225500Y0561750D03*
X0237500Y0561750D03*
X0237500Y0571750D03*
X0237500Y0551750D03*
X0237500Y0541750D03*
X0237500Y0531750D03*
X0237500Y0521750D03*
X0237500Y0511750D03*
X0327500Y0511750D03*
X0327500Y0521750D03*
X0327500Y0531750D03*
X0327500Y0541750D03*
X0327500Y0551750D03*
X0327500Y0561750D03*
X0339500Y0561750D03*
X0339500Y0571750D03*
X0339500Y0551750D03*
X0339500Y0541750D03*
X0339500Y0531750D03*
X0339500Y0521750D03*
X0339500Y0511750D03*
X0339500Y0459750D03*
X0339500Y0449750D03*
X0339500Y0439750D03*
X0339500Y0429750D03*
X0339500Y0419750D03*
X0339500Y0409750D03*
X0339500Y0399750D03*
X0327500Y0399750D03*
X0327500Y0409750D03*
X0327500Y0419750D03*
X0327500Y0429750D03*
X0327500Y0439750D03*
X0327500Y0449750D03*
X0339500Y0347750D03*
X0339500Y0337750D03*
X0339500Y0327750D03*
X0339500Y0317750D03*
X0339500Y0307750D03*
X0339500Y0297750D03*
X0339500Y0287750D03*
X0327500Y0287750D03*
X0327500Y0297750D03*
X0327500Y0307750D03*
X0327500Y0317750D03*
X0327500Y0327750D03*
X0327500Y0337750D03*
X0339500Y0235750D03*
X0339500Y0225750D03*
X0339500Y0215750D03*
X0339500Y0205750D03*
X0339500Y0195750D03*
X0339500Y0185750D03*
X0339500Y0175750D03*
X0327500Y0175750D03*
X0327500Y0185750D03*
X0327500Y0195750D03*
X0327500Y0205750D03*
X0327500Y0215750D03*
X0327500Y0225750D03*
X0339500Y0123750D03*
X0339500Y0113750D03*
X0339500Y0103750D03*
X0339500Y0093750D03*
X0339500Y0083750D03*
X0339500Y0073750D03*
X0339500Y0063750D03*
X0327500Y0063750D03*
X0327500Y0073750D03*
X0327500Y0083750D03*
X0327500Y0093750D03*
X0327500Y0103750D03*
X0327500Y0113750D03*
X0429500Y0113750D03*
X0429500Y0103750D03*
X0429500Y0093750D03*
X0429500Y0083750D03*
X0429500Y0073750D03*
X0429500Y0063750D03*
X0429500Y0175750D03*
X0429500Y0185750D03*
X0429500Y0195750D03*
X0429500Y0205750D03*
X0429500Y0215750D03*
X0429500Y0225750D03*
X0429500Y0287750D03*
X0429500Y0297750D03*
X0429500Y0307750D03*
X0429500Y0317750D03*
X0429500Y0327750D03*
X0429500Y0337750D03*
X0429500Y0399750D03*
X0429500Y0409750D03*
X0429500Y0419750D03*
X0429500Y0429750D03*
X0429500Y0439750D03*
X0429500Y0449750D03*
X0429500Y0511750D03*
X0429500Y0521750D03*
X0429500Y0531750D03*
X0429500Y0541750D03*
X0429500Y0551750D03*
X0429500Y0561750D03*
D11*
X0424500Y0576750D03*
X0424500Y0496750D03*
X0424500Y0464750D03*
X0424500Y0384750D03*
X0424500Y0352750D03*
X0424500Y0272750D03*
X0424500Y0240750D03*
X0424500Y0160750D03*
X0424500Y0128750D03*
X0424500Y0048750D03*
X0344500Y0048750D03*
X0322500Y0048750D03*
X0322500Y0128750D03*
X0322500Y0160750D03*
X0344500Y0160750D03*
X0322500Y0240750D03*
X0322500Y0272750D03*
X0344500Y0272750D03*
X0322500Y0352750D03*
X0322500Y0384750D03*
X0344500Y0384750D03*
X0322500Y0464750D03*
X0322500Y0496750D03*
X0344500Y0496750D03*
X0322500Y0576750D03*
X0242500Y0496750D03*
X0220500Y0496750D03*
X0220500Y0464750D03*
X0220500Y0384750D03*
X0220500Y0352750D03*
X0242500Y0384750D03*
X0242500Y0272750D03*
X0220500Y0272750D03*
X0220500Y0240750D03*
X0220500Y0160750D03*
X0242500Y0160750D03*
X0220500Y0128750D03*
X0220500Y0048750D03*
X0242500Y0048750D03*
X0140500Y0048750D03*
X0118500Y0048750D03*
X0118500Y0128750D03*
X0118500Y0160750D03*
X0140500Y0160750D03*
X0118500Y0240750D03*
X0118500Y0272750D03*
X0140500Y0272750D03*
X0118500Y0352750D03*
X0118500Y0384750D03*
X0140500Y0384750D03*
X0118500Y0464750D03*
X0118500Y0496750D03*
X0140500Y0496750D03*
X0118500Y0576750D03*
X0038500Y0496750D03*
X0038500Y0384750D03*
X0038500Y0272750D03*
X0038500Y0160750D03*
X0038500Y0048750D03*
X0220500Y0576750D03*
D12*
X0257700Y0541950D03*
X0257700Y0536950D03*
X0257700Y0531950D03*
X0257700Y0526950D03*
X0283300Y0526950D03*
X0283300Y0531950D03*
X0283300Y0536950D03*
X0283300Y0541950D03*
X0359700Y0541950D03*
X0359700Y0536950D03*
X0359700Y0531950D03*
X0359700Y0526950D03*
X0385300Y0526950D03*
X0385300Y0531950D03*
X0385300Y0536950D03*
X0385300Y0541950D03*
X0385300Y0429950D03*
X0385300Y0424950D03*
X0385300Y0419950D03*
X0385300Y0414950D03*
X0359700Y0414950D03*
X0359700Y0419950D03*
X0359700Y0424950D03*
X0359700Y0429950D03*
X0283300Y0429950D03*
X0283300Y0424950D03*
X0283300Y0419950D03*
X0283300Y0414950D03*
X0257700Y0414950D03*
X0257700Y0419950D03*
X0257700Y0424950D03*
X0257700Y0429950D03*
X0181300Y0429950D03*
X0181300Y0424950D03*
X0181300Y0419950D03*
X0181300Y0414950D03*
X0155700Y0414950D03*
X0155700Y0419950D03*
X0155700Y0424950D03*
X0155700Y0429950D03*
X0155700Y0526950D03*
X0155700Y0531950D03*
X0155700Y0536950D03*
X0155700Y0541950D03*
X0181300Y0541950D03*
X0181300Y0536950D03*
X0181300Y0531950D03*
X0181300Y0526950D03*
X0079300Y0526950D03*
X0079300Y0531950D03*
X0079300Y0536950D03*
X0079300Y0541950D03*
X0053700Y0541950D03*
X0053700Y0536950D03*
X0053700Y0531950D03*
X0053700Y0526950D03*
X0053700Y0429950D03*
X0053700Y0424950D03*
X0053700Y0419950D03*
X0053700Y0414950D03*
X0079300Y0414950D03*
X0079300Y0419950D03*
X0079300Y0424950D03*
X0079300Y0429950D03*
X0079300Y0317950D03*
X0079300Y0312950D03*
X0079300Y0307950D03*
X0079300Y0302950D03*
X0053700Y0302950D03*
X0053700Y0307950D03*
X0053700Y0312950D03*
X0053700Y0317950D03*
X0053700Y0205950D03*
X0053700Y0200950D03*
X0053700Y0195950D03*
X0053700Y0190950D03*
X0079300Y0190950D03*
X0079300Y0195950D03*
X0079300Y0200950D03*
X0079300Y0205950D03*
X0155700Y0205950D03*
X0155700Y0200950D03*
X0155700Y0195950D03*
X0155700Y0190950D03*
X0181300Y0190950D03*
X0181300Y0195950D03*
X0181300Y0200950D03*
X0181300Y0205950D03*
X0181300Y0302950D03*
X0181300Y0307950D03*
X0181300Y0312950D03*
X0181300Y0317950D03*
X0155700Y0317950D03*
X0155700Y0312950D03*
X0155700Y0307950D03*
X0155700Y0302950D03*
X0257700Y0302950D03*
X0257700Y0307950D03*
X0257700Y0312950D03*
X0257700Y0317950D03*
X0283300Y0317950D03*
X0283300Y0312950D03*
X0283300Y0307950D03*
X0283300Y0302950D03*
X0283300Y0205950D03*
X0283300Y0200950D03*
X0283300Y0195950D03*
X0283300Y0190950D03*
X0257700Y0190950D03*
X0257700Y0195950D03*
X0257700Y0200950D03*
X0257700Y0205950D03*
X0257700Y0093950D03*
X0257700Y0088950D03*
X0257700Y0083950D03*
X0257700Y0078950D03*
X0283300Y0078950D03*
X0283300Y0083950D03*
X0283300Y0088950D03*
X0283300Y0093950D03*
X0359700Y0093950D03*
X0359700Y0088950D03*
X0359700Y0083950D03*
X0359700Y0078950D03*
X0385300Y0078950D03*
X0385300Y0083950D03*
X0385300Y0088950D03*
X0385300Y0093950D03*
X0385300Y0190950D03*
X0385300Y0195950D03*
X0385300Y0200950D03*
X0385300Y0205950D03*
X0359700Y0205950D03*
X0359700Y0200950D03*
X0359700Y0195950D03*
X0359700Y0190950D03*
X0359700Y0302950D03*
X0359700Y0307950D03*
X0359700Y0312950D03*
X0359700Y0317950D03*
X0385300Y0317950D03*
X0385300Y0312950D03*
X0385300Y0307950D03*
X0385300Y0302950D03*
X0181300Y0093950D03*
X0181300Y0088950D03*
X0181300Y0083950D03*
X0181300Y0078950D03*
X0155700Y0078950D03*
X0155700Y0083950D03*
X0155700Y0088950D03*
X0155700Y0093950D03*
X0079300Y0093950D03*
X0079300Y0088950D03*
X0079300Y0083950D03*
X0079300Y0078950D03*
X0053700Y0078950D03*
X0053700Y0083950D03*
X0053700Y0088950D03*
X0053700Y0093950D03*
D13*
X0084594Y0132150D03*
X0096406Y0132150D03*
X0096406Y0244150D03*
X0084594Y0244150D03*
X0084594Y0356150D03*
X0096406Y0356150D03*
X0096406Y0468150D03*
X0084594Y0468150D03*
X0084594Y0580150D03*
X0096406Y0580150D03*
X0186594Y0580150D03*
X0198406Y0580150D03*
X0198406Y0468150D03*
X0186594Y0468150D03*
X0186594Y0356150D03*
X0198406Y0356150D03*
X0198406Y0244150D03*
X0186594Y0244150D03*
X0186594Y0132150D03*
X0198406Y0132150D03*
X0288594Y0132150D03*
X0300406Y0132150D03*
X0300406Y0244150D03*
X0288594Y0244150D03*
X0288594Y0356150D03*
X0300406Y0356150D03*
X0300406Y0468150D03*
X0288594Y0468150D03*
X0288594Y0580150D03*
X0300406Y0580150D03*
X0390594Y0580150D03*
X0402406Y0580150D03*
X0402406Y0468150D03*
X0390594Y0468150D03*
X0390594Y0356150D03*
X0402406Y0356150D03*
X0402406Y0244150D03*
X0390594Y0244150D03*
X0390594Y0132150D03*
X0402406Y0132150D03*
D14*
X0400800Y0119450D03*
X0396800Y0105450D03*
X0390700Y0090850D03*
X0390700Y0202850D03*
X0396800Y0217450D03*
X0400800Y0231450D03*
X0390700Y0314850D03*
X0396800Y0329450D03*
X0400800Y0343450D03*
X0390700Y0426850D03*
X0396800Y0441450D03*
X0400800Y0455450D03*
X0390700Y0538850D03*
X0396800Y0553450D03*
X0400800Y0567450D03*
X0298800Y0567450D03*
X0294800Y0553450D03*
X0288700Y0538850D03*
X0298800Y0455450D03*
X0294800Y0441450D03*
X0288700Y0426850D03*
X0298800Y0343450D03*
X0294800Y0329450D03*
X0288700Y0314850D03*
X0298800Y0231450D03*
X0294800Y0217450D03*
X0288700Y0202850D03*
X0298800Y0119450D03*
X0294800Y0105450D03*
X0288700Y0090850D03*
X0196800Y0119450D03*
X0192800Y0105450D03*
X0186700Y0090850D03*
X0186700Y0202850D03*
X0192800Y0217450D03*
X0196800Y0231450D03*
X0186700Y0314850D03*
X0192800Y0329450D03*
X0196800Y0343450D03*
X0186700Y0426850D03*
X0192800Y0441450D03*
X0196800Y0455450D03*
X0186700Y0538850D03*
X0192800Y0553450D03*
X0196800Y0567450D03*
X0094800Y0567450D03*
X0090800Y0553450D03*
X0084700Y0538850D03*
X0094800Y0455450D03*
X0090800Y0441450D03*
X0084700Y0426850D03*
X0094800Y0343450D03*
X0090800Y0329450D03*
X0084700Y0314850D03*
X0094800Y0231450D03*
X0090800Y0217450D03*
X0084700Y0202850D03*
X0094800Y0119450D03*
X0090800Y0105450D03*
X0084700Y0090850D03*
D15*
X0031500Y0041750D03*
X0031500Y0153750D03*
X0031500Y0265750D03*
X0031500Y0377750D03*
X0031500Y0489750D03*
X0125800Y0472050D03*
X0133500Y0489750D03*
X0125800Y0584050D03*
X0227800Y0584050D03*
X0235500Y0489750D03*
X0227800Y0472050D03*
X0235500Y0377750D03*
X0227800Y0360050D03*
X0235500Y0265750D03*
X0227800Y0248050D03*
X0235500Y0153750D03*
X0227800Y0136050D03*
X0235500Y0041750D03*
X0329800Y0136050D03*
X0337500Y0153750D03*
X0329800Y0248050D03*
X0337500Y0265750D03*
X0329800Y0360050D03*
X0337500Y0377750D03*
X0329800Y0472050D03*
X0337500Y0489750D03*
X0329800Y0584050D03*
X0431800Y0584050D03*
X0431800Y0472050D03*
X0431800Y0360050D03*
X0431800Y0248050D03*
X0431800Y0136050D03*
X0337500Y0041750D03*
X0133500Y0041750D03*
X0125800Y0136050D03*
X0133500Y0153750D03*
X0125800Y0248050D03*
X0133500Y0265750D03*
X0125800Y0360050D03*
X0133500Y0377750D03*
D16*
X0104500Y0418750D03*
X0099500Y0418750D03*
X0094500Y0418750D03*
X0089500Y0418750D03*
X0089500Y0306750D03*
X0094500Y0306750D03*
X0099500Y0306750D03*
X0104500Y0306750D03*
X0104500Y0194750D03*
X0099500Y0194750D03*
X0094500Y0194750D03*
X0089500Y0194750D03*
X0089500Y0082750D03*
X0094500Y0082750D03*
X0099500Y0082750D03*
X0104500Y0082750D03*
X0191500Y0082750D03*
X0196500Y0082750D03*
X0201500Y0082750D03*
X0206500Y0082750D03*
X0206500Y0194750D03*
X0201500Y0194750D03*
X0196500Y0194750D03*
X0191500Y0194750D03*
X0191500Y0306750D03*
X0196500Y0306750D03*
X0201500Y0306750D03*
X0206500Y0306750D03*
X0206500Y0418750D03*
X0201500Y0418750D03*
X0196500Y0418750D03*
X0191500Y0418750D03*
X0191500Y0530750D03*
X0196500Y0530750D03*
X0201500Y0530750D03*
X0206500Y0530750D03*
X0293500Y0530750D03*
X0298500Y0530750D03*
X0303500Y0530750D03*
X0308500Y0530750D03*
X0308500Y0418750D03*
X0303500Y0418750D03*
X0298500Y0418750D03*
X0293500Y0418750D03*
X0293500Y0306750D03*
X0298500Y0306750D03*
X0303500Y0306750D03*
X0308500Y0306750D03*
X0308500Y0194750D03*
X0303500Y0194750D03*
X0298500Y0194750D03*
X0293500Y0194750D03*
X0293500Y0082750D03*
X0298500Y0082750D03*
X0303500Y0082750D03*
X0308500Y0082750D03*
X0395500Y0082750D03*
X0400500Y0082750D03*
X0405500Y0082750D03*
X0410500Y0082750D03*
X0410500Y0194750D03*
X0405500Y0194750D03*
X0400500Y0194750D03*
X0395500Y0194750D03*
X0395500Y0306750D03*
X0400500Y0306750D03*
X0405500Y0306750D03*
X0410500Y0306750D03*
X0410500Y0418750D03*
X0405500Y0418750D03*
X0400500Y0418750D03*
X0395500Y0418750D03*
X0395500Y0530750D03*
X0400500Y0530750D03*
X0405500Y0530750D03*
X0410500Y0530750D03*
X0407500Y0605000D03*
X0104500Y0530750D03*
X0099500Y0530750D03*
X0094500Y0530750D03*
X0089500Y0530750D03*
X0055500Y0605000D03*
D17*
X0100500Y0496750D03*
X0100500Y0492750D03*
X0100500Y0384750D03*
X0100500Y0380750D03*
X0100500Y0272750D03*
X0100500Y0268750D03*
X0100500Y0160750D03*
X0100500Y0156750D03*
X0100500Y0048750D03*
X0100500Y0044750D03*
X0202500Y0044750D03*
X0202500Y0048750D03*
X0202500Y0156750D03*
X0202500Y0160750D03*
X0202500Y0268750D03*
X0202500Y0272750D03*
X0202500Y0380750D03*
X0202500Y0384750D03*
X0202500Y0492750D03*
X0202500Y0496750D03*
X0304500Y0496750D03*
X0304500Y0492750D03*
X0304500Y0384750D03*
X0304500Y0380750D03*
X0304500Y0272750D03*
X0304500Y0268750D03*
X0304500Y0160750D03*
X0304500Y0156750D03*
X0304500Y0048750D03*
X0304500Y0044750D03*
X0406500Y0044750D03*
X0406500Y0048750D03*
X0406500Y0156750D03*
X0406500Y0160750D03*
X0406500Y0268750D03*
X0406500Y0272750D03*
X0406500Y0380750D03*
X0406500Y0384750D03*
X0406500Y0492750D03*
X0406500Y0496750D03*
D18*
X0406000Y0495500D02*
X0406000Y0494000D01*
X0407000Y0494000D01*
X0407000Y0495500D01*
X0406000Y0495500D01*
X0406000Y0495386D02*
X0407000Y0495386D01*
X0407000Y0494888D02*
X0406000Y0494888D01*
X0406000Y0494389D02*
X0407000Y0494389D01*
X0407000Y0383500D02*
X0406000Y0383500D01*
X0406000Y0382000D01*
X0407000Y0382000D01*
X0407000Y0383500D01*
X0407000Y0383221D02*
X0406000Y0383221D01*
X0406000Y0382723D02*
X0407000Y0382723D01*
X0407000Y0382224D02*
X0406000Y0382224D01*
X0406000Y0271500D02*
X0406000Y0270000D01*
X0407000Y0270000D01*
X0407000Y0271500D01*
X0406000Y0271500D01*
X0406000Y0271056D02*
X0407000Y0271056D01*
X0407000Y0270558D02*
X0406000Y0270558D01*
X0406000Y0270059D02*
X0407000Y0270059D01*
X0407000Y0159500D02*
X0406000Y0159500D01*
X0406000Y0158000D01*
X0407000Y0158000D01*
X0407000Y0159500D01*
X0407000Y0159390D02*
X0406000Y0159390D01*
X0406000Y0158891D02*
X0407000Y0158891D01*
X0407000Y0158393D02*
X0406000Y0158393D01*
X0406000Y0047500D02*
X0406000Y0046000D01*
X0407000Y0046000D01*
X0407000Y0047500D01*
X0406000Y0047500D01*
X0406000Y0047225D02*
X0407000Y0047225D01*
X0407000Y0046726D02*
X0406000Y0046726D01*
X0406000Y0046228D02*
X0407000Y0046228D01*
X0305000Y0046228D02*
X0304000Y0046228D01*
X0304000Y0046000D02*
X0305000Y0046000D01*
X0305000Y0047500D01*
X0304000Y0047500D01*
X0304000Y0046000D01*
X0304000Y0046726D02*
X0305000Y0046726D01*
X0305000Y0047225D02*
X0304000Y0047225D01*
X0304000Y0158000D02*
X0305000Y0158000D01*
X0305000Y0159500D01*
X0304000Y0159500D01*
X0304000Y0158000D01*
X0304000Y0158393D02*
X0305000Y0158393D01*
X0305000Y0158891D02*
X0304000Y0158891D01*
X0304000Y0159390D02*
X0305000Y0159390D01*
X0305000Y0270000D02*
X0304000Y0270000D01*
X0304000Y0271500D01*
X0305000Y0271500D01*
X0305000Y0270000D01*
X0305000Y0270059D02*
X0304000Y0270059D01*
X0304000Y0270558D02*
X0305000Y0270558D01*
X0305000Y0271056D02*
X0304000Y0271056D01*
X0304000Y0382000D02*
X0305000Y0382000D01*
X0305000Y0383500D01*
X0304000Y0383500D01*
X0304000Y0382000D01*
X0304000Y0382224D02*
X0305000Y0382224D01*
X0305000Y0382723D02*
X0304000Y0382723D01*
X0304000Y0383221D02*
X0305000Y0383221D01*
X0305000Y0494000D02*
X0304000Y0494000D01*
X0304000Y0495500D01*
X0305000Y0495500D01*
X0305000Y0494000D01*
X0305000Y0494389D02*
X0304000Y0494389D01*
X0304000Y0494888D02*
X0305000Y0494888D01*
X0305000Y0495386D02*
X0304000Y0495386D01*
X0203000Y0495386D02*
X0202000Y0495386D01*
X0202000Y0495500D02*
X0202000Y0494000D01*
X0203000Y0494000D01*
X0203000Y0495500D01*
X0202000Y0495500D01*
X0202000Y0494888D02*
X0203000Y0494888D01*
X0203000Y0494389D02*
X0202000Y0494389D01*
X0202000Y0383500D02*
X0202000Y0382000D01*
X0203000Y0382000D01*
X0203000Y0383500D01*
X0202000Y0383500D01*
X0202000Y0383221D02*
X0203000Y0383221D01*
X0203000Y0382723D02*
X0202000Y0382723D01*
X0202000Y0382224D02*
X0203000Y0382224D01*
X0203000Y0271500D02*
X0202000Y0271500D01*
X0202000Y0270000D01*
X0203000Y0270000D01*
X0203000Y0271500D01*
X0203000Y0271056D02*
X0202000Y0271056D01*
X0202000Y0270558D02*
X0203000Y0270558D01*
X0203000Y0270059D02*
X0202000Y0270059D01*
X0202000Y0159500D02*
X0202000Y0158000D01*
X0203000Y0158000D01*
X0203000Y0159500D01*
X0202000Y0159500D01*
X0202000Y0159390D02*
X0203000Y0159390D01*
X0203000Y0158891D02*
X0202000Y0158891D01*
X0202000Y0158393D02*
X0203000Y0158393D01*
X0203000Y0047500D02*
X0202000Y0047500D01*
X0202000Y0046000D01*
X0203000Y0046000D01*
X0203000Y0047500D01*
X0203000Y0047225D02*
X0202000Y0047225D01*
X0202000Y0046726D02*
X0203000Y0046726D01*
X0203000Y0046228D02*
X0202000Y0046228D01*
X0101000Y0046228D02*
X0100000Y0046228D01*
X0100000Y0046000D02*
X0101000Y0046000D01*
X0101000Y0047500D01*
X0100000Y0047500D01*
X0100000Y0046000D01*
X0100000Y0046726D02*
X0101000Y0046726D01*
X0101000Y0047225D02*
X0100000Y0047225D01*
X0100000Y0158000D02*
X0101000Y0158000D01*
X0101000Y0159500D01*
X0100000Y0159500D01*
X0100000Y0158000D01*
X0100000Y0158393D02*
X0101000Y0158393D01*
X0101000Y0158891D02*
X0100000Y0158891D01*
X0100000Y0159390D02*
X0101000Y0159390D01*
X0101000Y0270000D02*
X0100000Y0270000D01*
X0100000Y0271500D01*
X0101000Y0271500D01*
X0101000Y0270000D01*
X0101000Y0270059D02*
X0100000Y0270059D01*
X0100000Y0270558D02*
X0101000Y0270558D01*
X0101000Y0271056D02*
X0100000Y0271056D01*
X0100000Y0382000D02*
X0101000Y0382000D01*
X0101000Y0383500D01*
X0100000Y0383500D01*
X0100000Y0382000D01*
X0100000Y0382224D02*
X0101000Y0382224D01*
X0101000Y0382723D02*
X0100000Y0382723D01*
X0100000Y0383221D02*
X0101000Y0383221D01*
X0101000Y0494000D02*
X0100000Y0494000D01*
X0100000Y0495500D01*
X0101000Y0495500D01*
X0101000Y0494000D01*
X0101000Y0494389D02*
X0100000Y0494389D01*
X0100000Y0494888D02*
X0101000Y0494888D01*
X0101000Y0495386D02*
X0100000Y0495386D01*
D19*
X0069437Y0443883D03*
X0061563Y0443883D03*
X0061563Y0331883D03*
X0069437Y0331883D03*
X0069437Y0219883D03*
X0061563Y0219883D03*
X0061563Y0107883D03*
X0069437Y0107883D03*
X0163563Y0107883D03*
X0171437Y0107883D03*
X0171437Y0219883D03*
X0163563Y0219883D03*
X0163563Y0331883D03*
X0171437Y0331883D03*
X0171437Y0443883D03*
X0163563Y0443883D03*
X0163563Y0555883D03*
X0171437Y0555883D03*
X0265563Y0555883D03*
X0273437Y0555883D03*
X0273437Y0443883D03*
X0265563Y0443883D03*
X0265563Y0331883D03*
X0273437Y0331883D03*
X0273437Y0219883D03*
X0265563Y0219883D03*
X0265563Y0107883D03*
X0273437Y0107883D03*
X0367563Y0107883D03*
X0375437Y0107883D03*
X0375437Y0219883D03*
X0367563Y0219883D03*
X0367563Y0331883D03*
X0375437Y0331883D03*
X0375437Y0443883D03*
X0367563Y0443883D03*
X0367563Y0555883D03*
X0375437Y0555883D03*
X0069437Y0555883D03*
X0061563Y0555883D03*
D20*
X0052114Y0576356D03*
X0078886Y0576356D03*
X0154114Y0576356D03*
X0180886Y0576356D03*
X0256114Y0576356D03*
X0282886Y0576356D03*
X0358114Y0576356D03*
X0384886Y0576356D03*
X0384886Y0464356D03*
X0358114Y0464356D03*
X0282886Y0464356D03*
X0256114Y0464356D03*
X0180886Y0464356D03*
X0154114Y0464356D03*
X0078886Y0464356D03*
X0052114Y0464356D03*
X0052114Y0352356D03*
X0078886Y0352356D03*
X0154114Y0352356D03*
X0180886Y0352356D03*
X0256114Y0352356D03*
X0282886Y0352356D03*
X0358114Y0352356D03*
X0384886Y0352356D03*
X0384886Y0240356D03*
X0358114Y0240356D03*
X0282886Y0240356D03*
X0256114Y0240356D03*
X0180886Y0240356D03*
X0154114Y0240356D03*
X0078886Y0240356D03*
X0052114Y0240356D03*
X0052114Y0128356D03*
X0078886Y0128356D03*
X0154114Y0128356D03*
X0180886Y0128356D03*
X0256114Y0128356D03*
X0282886Y0128356D03*
X0358114Y0128356D03*
X0384886Y0128356D03*
D21*
X0051935Y0020500D02*
X0051937Y0020619D01*
X0051943Y0020738D01*
X0051953Y0020857D01*
X0051967Y0020975D01*
X0051985Y0021093D01*
X0052006Y0021210D01*
X0052032Y0021326D01*
X0052062Y0021442D01*
X0052095Y0021556D01*
X0052132Y0021669D01*
X0052173Y0021781D01*
X0052218Y0021892D01*
X0052266Y0022001D01*
X0052318Y0022108D01*
X0052374Y0022213D01*
X0052433Y0022317D01*
X0052495Y0022418D01*
X0052561Y0022518D01*
X0052630Y0022615D01*
X0052702Y0022709D01*
X0052778Y0022802D01*
X0052856Y0022891D01*
X0052937Y0022978D01*
X0053022Y0023063D01*
X0053109Y0023144D01*
X0053198Y0023222D01*
X0053291Y0023298D01*
X0053385Y0023370D01*
X0053482Y0023439D01*
X0053582Y0023505D01*
X0053683Y0023567D01*
X0053787Y0023626D01*
X0053892Y0023682D01*
X0053999Y0023734D01*
X0054108Y0023782D01*
X0054219Y0023827D01*
X0054331Y0023868D01*
X0054444Y0023905D01*
X0054558Y0023938D01*
X0054674Y0023968D01*
X0054790Y0023994D01*
X0054907Y0024015D01*
X0055025Y0024033D01*
X0055143Y0024047D01*
X0055262Y0024057D01*
X0055381Y0024063D01*
X0055500Y0024065D01*
X0055619Y0024063D01*
X0055738Y0024057D01*
X0055857Y0024047D01*
X0055975Y0024033D01*
X0056093Y0024015D01*
X0056210Y0023994D01*
X0056326Y0023968D01*
X0056442Y0023938D01*
X0056556Y0023905D01*
X0056669Y0023868D01*
X0056781Y0023827D01*
X0056892Y0023782D01*
X0057001Y0023734D01*
X0057108Y0023682D01*
X0057213Y0023626D01*
X0057317Y0023567D01*
X0057418Y0023505D01*
X0057518Y0023439D01*
X0057615Y0023370D01*
X0057709Y0023298D01*
X0057802Y0023222D01*
X0057891Y0023144D01*
X0057978Y0023063D01*
X0058063Y0022978D01*
X0058144Y0022891D01*
X0058222Y0022802D01*
X0058298Y0022709D01*
X0058370Y0022615D01*
X0058439Y0022518D01*
X0058505Y0022418D01*
X0058567Y0022317D01*
X0058626Y0022213D01*
X0058682Y0022108D01*
X0058734Y0022001D01*
X0058782Y0021892D01*
X0058827Y0021781D01*
X0058868Y0021669D01*
X0058905Y0021556D01*
X0058938Y0021442D01*
X0058968Y0021326D01*
X0058994Y0021210D01*
X0059015Y0021093D01*
X0059033Y0020975D01*
X0059047Y0020857D01*
X0059057Y0020738D01*
X0059063Y0020619D01*
X0059065Y0020500D01*
X0059063Y0020381D01*
X0059057Y0020262D01*
X0059047Y0020143D01*
X0059033Y0020025D01*
X0059015Y0019907D01*
X0058994Y0019790D01*
X0058968Y0019674D01*
X0058938Y0019558D01*
X0058905Y0019444D01*
X0058868Y0019331D01*
X0058827Y0019219D01*
X0058782Y0019108D01*
X0058734Y0018999D01*
X0058682Y0018892D01*
X0058626Y0018787D01*
X0058567Y0018683D01*
X0058505Y0018582D01*
X0058439Y0018482D01*
X0058370Y0018385D01*
X0058298Y0018291D01*
X0058222Y0018198D01*
X0058144Y0018109D01*
X0058063Y0018022D01*
X0057978Y0017937D01*
X0057891Y0017856D01*
X0057802Y0017778D01*
X0057709Y0017702D01*
X0057615Y0017630D01*
X0057518Y0017561D01*
X0057418Y0017495D01*
X0057317Y0017433D01*
X0057213Y0017374D01*
X0057108Y0017318D01*
X0057001Y0017266D01*
X0056892Y0017218D01*
X0056781Y0017173D01*
X0056669Y0017132D01*
X0056556Y0017095D01*
X0056442Y0017062D01*
X0056326Y0017032D01*
X0056210Y0017006D01*
X0056093Y0016985D01*
X0055975Y0016967D01*
X0055857Y0016953D01*
X0055738Y0016943D01*
X0055619Y0016937D01*
X0055500Y0016935D01*
X0055381Y0016937D01*
X0055262Y0016943D01*
X0055143Y0016953D01*
X0055025Y0016967D01*
X0054907Y0016985D01*
X0054790Y0017006D01*
X0054674Y0017032D01*
X0054558Y0017062D01*
X0054444Y0017095D01*
X0054331Y0017132D01*
X0054219Y0017173D01*
X0054108Y0017218D01*
X0053999Y0017266D01*
X0053892Y0017318D01*
X0053787Y0017374D01*
X0053683Y0017433D01*
X0053582Y0017495D01*
X0053482Y0017561D01*
X0053385Y0017630D01*
X0053291Y0017702D01*
X0053198Y0017778D01*
X0053109Y0017856D01*
X0053022Y0017937D01*
X0052937Y0018022D01*
X0052856Y0018109D01*
X0052778Y0018198D01*
X0052702Y0018291D01*
X0052630Y0018385D01*
X0052561Y0018482D01*
X0052495Y0018582D01*
X0052433Y0018683D01*
X0052374Y0018787D01*
X0052318Y0018892D01*
X0052266Y0018999D01*
X0052218Y0019108D01*
X0052173Y0019219D01*
X0052132Y0019331D01*
X0052095Y0019444D01*
X0052062Y0019558D01*
X0052032Y0019674D01*
X0052006Y0019790D01*
X0051985Y0019907D01*
X0051967Y0020025D01*
X0051953Y0020143D01*
X0051943Y0020262D01*
X0051937Y0020381D01*
X0051935Y0020500D01*
D22*
X0055500Y0020500D03*
M02*
