G75*
%MOIN*%
%OFA0B0*%
%FSLAX25Y25*%
%IPPOS*%
%LPD*%
%AMOC8*
5,1,8,0,0,1.08239X$1,22.5*
%
%ADD10C,0.01200*%
%ADD11C,0.00800*%
%ADD12C,0.00300*%
%ADD13C,0.01000*%
%ADD14C,0.00500*%
%ADD15C,0.00050*%
%ADD16R,0.00118X0.00827*%
%ADD17R,0.00118X0.00236*%
%ADD18R,0.00118X0.00354*%
%ADD19R,0.00157X0.01417*%
%ADD20R,0.00157X0.01299*%
%ADD21R,0.00157X0.00591*%
%ADD22R,0.00118X0.01654*%
%ADD23R,0.00118X0.01890*%
%ADD24R,0.00118X0.02008*%
%ADD25R,0.00118X0.00945*%
%ADD26R,0.00157X0.02126*%
%ADD27R,0.00157X0.00945*%
%ADD28R,0.00118X0.02244*%
%ADD29R,0.00118X0.02126*%
%ADD30R,0.00118X0.00591*%
%ADD31R,0.00118X0.00709*%
%ADD32R,0.00157X0.00472*%
%ADD33R,0.00118X0.01417*%
%ADD34R,0.00118X0.01299*%
%ADD35R,0.00118X0.01181*%
%ADD36R,0.00157X0.01181*%
%ADD37R,0.00157X0.00827*%
%ADD38R,0.00157X0.01772*%
%ADD39R,0.00118X0.01535*%
%ADD40R,0.00157X0.02362*%
%ADD41R,0.00118X0.01063*%
%ADD42R,0.00157X0.01654*%
%ADD43R,0.01299X0.00118*%
%ADD44R,0.00827X0.00118*%
%ADD45R,0.01772X0.00157*%
%ADD46R,0.01417X0.00157*%
%ADD47R,0.02126X0.00118*%
%ADD48R,0.01654X0.00118*%
%ADD49R,0.02244X0.00118*%
%ADD50R,0.01890X0.00118*%
%ADD51R,0.02362X0.00118*%
%ADD52R,0.02008X0.00118*%
%ADD53R,0.02480X0.00157*%
%ADD54R,0.02126X0.00157*%
%ADD55R,0.02598X0.00118*%
%ADD56R,0.01181X0.00118*%
%ADD57R,0.01063X0.00118*%
%ADD58R,0.00591X0.00118*%
%ADD59R,0.00827X0.00157*%
%ADD60R,0.00945X0.00157*%
%ADD61R,0.00472X0.00157*%
%ADD62R,0.01417X0.00118*%
%ADD63R,0.00945X0.00118*%
%ADD64R,0.01299X0.00157*%
%ADD65R,0.00591X0.00157*%
%ADD66R,0.02362X0.00157*%
%ADD67R,0.02008X0.00157*%
%ADD68R,0.01654X0.00157*%
%ADD69R,0.00709X0.00118*%
%ADD70R,0.00354X0.00118*%
%ADD71R,0.00472X0.00118*%
%ADD72R,0.00709X0.00157*%
%ADD73R,0.02480X0.00118*%
%ADD74R,0.01890X0.00157*%
%ADD75R,0.01181X0.00157*%
%ADD76R,0.01772X0.00118*%
%ADD77R,0.00236X0.00157*%
%ADD78R,0.01535X0.00157*%
%ADD79R,0.01063X0.00157*%
%ADD80R,0.01535X0.00118*%
%ADD81R,0.00157X0.01535*%
%ADD82R,0.00157X0.00709*%
%ADD83R,0.00157X0.01890*%
%ADD84R,0.00118X0.02362*%
%ADD85R,0.00157X0.01063*%
%ADD86R,0.00157X0.02480*%
%ADD87R,0.00118X0.02480*%
%ADD88R,0.00118X0.01772*%
%ADD89R,0.00118X0.02598*%
%ADD90R,0.00157X0.02598*%
%ADD91R,0.00157X0.02008*%
%ADD92R,0.02717X0.00118*%
%ADD93R,0.02717X0.00157*%
%ADD94R,0.00236X0.00118*%
%ADD95R,0.03307X0.00157*%
%ADD96R,0.03307X0.00118*%
%ADD97R,0.02244X0.00157*%
%ADD98R,0.00118X0.00472*%
%ADD99R,0.00157X0.02244*%
%ADD100R,0.00118X0.02717*%
%ADD101R,0.00118X0.02835*%
%ADD102R,0.00157X0.02953*%
%ADD103R,0.00118X0.00118*%
%ADD104R,0.02953X0.00157*%
%ADD105R,0.03071X0.00118*%
%ADD106R,0.05669X0.00118*%
%ADD107R,0.02953X0.00118*%
%ADD108C,0.00400*%
%ADD109C,0.00600*%
%ADD110C,0.02000*%
D10*
X0191801Y0096333D02*
X0191803Y0096433D01*
X0191809Y0096533D01*
X0191819Y0096632D01*
X0191833Y0096732D01*
X0191850Y0096830D01*
X0191872Y0096928D01*
X0191897Y0097024D01*
X0191926Y0097120D01*
X0191959Y0097215D01*
X0191996Y0097308D01*
X0192036Y0097399D01*
X0192080Y0097489D01*
X0192128Y0097577D01*
X0192179Y0097663D01*
X0192233Y0097747D01*
X0192290Y0097829D01*
X0192351Y0097909D01*
X0192415Y0097986D01*
X0192482Y0098060D01*
X0192551Y0098132D01*
X0192624Y0098201D01*
X0192699Y0098267D01*
X0192777Y0098330D01*
X0192857Y0098390D01*
X0192939Y0098447D01*
X0193024Y0098500D01*
X0193111Y0098550D01*
X0193199Y0098597D01*
X0193289Y0098640D01*
X0193381Y0098679D01*
X0193475Y0098715D01*
X0193570Y0098747D01*
X0193666Y0098775D01*
X0193763Y0098800D01*
X0193861Y0098821D01*
X0193959Y0098837D01*
X0194058Y0098850D01*
X0194158Y0098859D01*
X0194258Y0098864D01*
X0194358Y0098865D01*
X0194458Y0098862D01*
X0194558Y0098855D01*
X0194657Y0098844D01*
X0194756Y0098829D01*
X0194855Y0098811D01*
X0194952Y0098788D01*
X0195049Y0098762D01*
X0195144Y0098732D01*
X0195238Y0098698D01*
X0195331Y0098660D01*
X0195422Y0098619D01*
X0195511Y0098574D01*
X0195599Y0098526D01*
X0195685Y0098474D01*
X0195768Y0098419D01*
X0195849Y0098361D01*
X0195928Y0098299D01*
X0196005Y0098235D01*
X0196079Y0098167D01*
X0196150Y0098097D01*
X0196218Y0098024D01*
X0196283Y0097948D01*
X0196346Y0097869D01*
X0196405Y0097789D01*
X0196461Y0097706D01*
X0196513Y0097621D01*
X0196562Y0097533D01*
X0196608Y0097444D01*
X0196650Y0097354D01*
X0196689Y0097261D01*
X0196724Y0097168D01*
X0196755Y0097072D01*
X0196782Y0096976D01*
X0196805Y0096879D01*
X0196825Y0096781D01*
X0196841Y0096682D01*
X0196853Y0096583D01*
X0196861Y0096483D01*
X0196865Y0096383D01*
X0196865Y0096283D01*
X0196861Y0096183D01*
X0196853Y0096083D01*
X0196841Y0095984D01*
X0196825Y0095885D01*
X0196805Y0095787D01*
X0196782Y0095690D01*
X0196755Y0095594D01*
X0196724Y0095498D01*
X0196689Y0095405D01*
X0196650Y0095312D01*
X0196608Y0095222D01*
X0196562Y0095133D01*
X0196513Y0095045D01*
X0196461Y0094960D01*
X0196405Y0094877D01*
X0196346Y0094797D01*
X0196283Y0094718D01*
X0196218Y0094642D01*
X0196150Y0094569D01*
X0196079Y0094499D01*
X0196005Y0094431D01*
X0195928Y0094367D01*
X0195849Y0094305D01*
X0195768Y0094247D01*
X0195685Y0094192D01*
X0195599Y0094140D01*
X0195511Y0094092D01*
X0195422Y0094047D01*
X0195331Y0094006D01*
X0195238Y0093968D01*
X0195144Y0093934D01*
X0195049Y0093904D01*
X0194952Y0093878D01*
X0194855Y0093855D01*
X0194756Y0093837D01*
X0194657Y0093822D01*
X0194558Y0093811D01*
X0194458Y0093804D01*
X0194358Y0093801D01*
X0194258Y0093802D01*
X0194158Y0093807D01*
X0194058Y0093816D01*
X0193959Y0093829D01*
X0193861Y0093845D01*
X0193763Y0093866D01*
X0193666Y0093891D01*
X0193570Y0093919D01*
X0193475Y0093951D01*
X0193381Y0093987D01*
X0193289Y0094026D01*
X0193199Y0094069D01*
X0193111Y0094116D01*
X0193024Y0094166D01*
X0192939Y0094219D01*
X0192857Y0094276D01*
X0192777Y0094336D01*
X0192699Y0094399D01*
X0192624Y0094465D01*
X0192551Y0094534D01*
X0192482Y0094606D01*
X0192415Y0094680D01*
X0192351Y0094757D01*
X0192290Y0094837D01*
X0192233Y0094919D01*
X0192179Y0095003D01*
X0192128Y0095089D01*
X0192080Y0095177D01*
X0192036Y0095267D01*
X0191996Y0095358D01*
X0191959Y0095451D01*
X0191926Y0095546D01*
X0191897Y0095642D01*
X0191872Y0095738D01*
X0191850Y0095836D01*
X0191833Y0095934D01*
X0191819Y0096034D01*
X0191809Y0096133D01*
X0191803Y0096233D01*
X0191801Y0096333D01*
D11*
X0201822Y0105066D02*
X0202845Y0105066D01*
X0207845Y0108066D02*
X0207845Y0118601D01*
X0202845Y0121601D02*
X0201822Y0121601D01*
X0196822Y0118601D02*
X0196822Y0108066D01*
X0195445Y0121277D02*
X0193083Y0121277D01*
X0195445Y0121277D02*
X0195445Y0124427D01*
X0193277Y0130673D02*
X0186190Y0130673D01*
X0182765Y0130673D02*
X0182765Y0135594D01*
X0186190Y0135594D02*
X0193277Y0135594D01*
X0191739Y0140115D02*
X0184833Y0140115D01*
X0171644Y0144052D02*
X0171644Y0147414D01*
X0174703Y0151351D02*
X0195963Y0151351D01*
X0199022Y0147414D02*
X0199022Y0144052D01*
X0184422Y0124427D02*
X0184422Y0121277D01*
X0186784Y0121277D01*
X0197977Y0080224D02*
X0200090Y0080224D01*
X0204033Y0079124D02*
X0204033Y0075743D01*
X0194033Y0075743D02*
X0194033Y0079124D01*
X0185144Y0070955D02*
X0182192Y0070955D01*
X0185144Y0070955D02*
X0185144Y0064459D01*
X0179239Y0054223D02*
X0167428Y0054223D01*
X0156583Y0059558D02*
X0156583Y0063308D01*
X0161522Y0064459D02*
X0161522Y0070955D01*
X0164475Y0070955D01*
X0163091Y0073514D02*
X0163093Y0073554D01*
X0163099Y0073593D01*
X0163109Y0073632D01*
X0163122Y0073669D01*
X0163140Y0073705D01*
X0163161Y0073739D01*
X0163185Y0073771D01*
X0163212Y0073800D01*
X0163242Y0073827D01*
X0163274Y0073850D01*
X0163309Y0073870D01*
X0163345Y0073886D01*
X0163383Y0073899D01*
X0163422Y0073908D01*
X0163461Y0073913D01*
X0163501Y0073914D01*
X0163541Y0073911D01*
X0163580Y0073904D01*
X0163618Y0073893D01*
X0163656Y0073879D01*
X0163691Y0073860D01*
X0163724Y0073839D01*
X0163756Y0073814D01*
X0163784Y0073786D01*
X0163810Y0073756D01*
X0163832Y0073723D01*
X0163851Y0073688D01*
X0163867Y0073651D01*
X0163879Y0073613D01*
X0163887Y0073574D01*
X0163891Y0073534D01*
X0163891Y0073494D01*
X0163887Y0073454D01*
X0163879Y0073415D01*
X0163867Y0073377D01*
X0163851Y0073340D01*
X0163832Y0073305D01*
X0163810Y0073272D01*
X0163784Y0073242D01*
X0163756Y0073214D01*
X0163724Y0073189D01*
X0163691Y0073168D01*
X0163656Y0073149D01*
X0163618Y0073135D01*
X0163580Y0073124D01*
X0163541Y0073117D01*
X0163501Y0073114D01*
X0163461Y0073115D01*
X0163422Y0073120D01*
X0163383Y0073129D01*
X0163345Y0073142D01*
X0163309Y0073158D01*
X0163274Y0073178D01*
X0163242Y0073201D01*
X0163212Y0073228D01*
X0163185Y0073257D01*
X0163161Y0073289D01*
X0163140Y0073323D01*
X0163122Y0073359D01*
X0163109Y0073396D01*
X0163099Y0073435D01*
X0163093Y0073474D01*
X0163091Y0073514D01*
X0202083Y0063308D02*
X0202083Y0059558D01*
D12*
X0165711Y0108396D02*
X0165751Y0108475D01*
X0165908Y0108633D01*
X0166144Y0108908D01*
X0166420Y0109262D01*
X0166774Y0109656D01*
X0167168Y0110129D01*
X0167601Y0110601D01*
X0168073Y0111113D01*
X0168585Y0111664D01*
X0169018Y0112176D01*
X0169451Y0112609D01*
X0169845Y0112963D01*
X0170239Y0113239D01*
X0170672Y0113436D01*
X0171105Y0113554D01*
X0172640Y0113554D01*
X0173585Y0113672D01*
X0174451Y0113908D01*
X0175239Y0114262D01*
X0175987Y0114735D01*
X0176656Y0115247D01*
X0177247Y0115877D01*
X0177798Y0116585D01*
X0178546Y0118042D01*
X0178940Y0119459D01*
X0179018Y0120837D01*
X0178822Y0122136D01*
X0178428Y0123239D01*
X0177916Y0124184D01*
X0177247Y0124853D01*
X0176617Y0125247D01*
X0176617Y0125010D01*
X0176656Y0124814D01*
X0176577Y0124341D01*
X0176459Y0124144D01*
X0176262Y0123948D01*
X0175987Y0123829D01*
X0175711Y0123829D01*
X0175160Y0123987D01*
X0174845Y0124144D01*
X0174294Y0124538D01*
X0174018Y0124774D01*
X0173822Y0124971D01*
X0173625Y0125286D01*
X0173467Y0125522D01*
X0173388Y0125798D01*
X0173349Y0126034D01*
X0173388Y0126270D01*
X0173467Y0126467D01*
X0173585Y0126703D01*
X0173743Y0126900D01*
X0174058Y0127176D01*
X0174373Y0127333D01*
X0174688Y0127412D01*
X0175042Y0127451D01*
X0175554Y0127451D01*
X0175711Y0127412D01*
X0175751Y0127412D01*
X0175633Y0127491D01*
X0175357Y0127688D01*
X0174885Y0127963D01*
X0174294Y0128199D01*
X0173585Y0128396D01*
X0172798Y0128436D01*
X0171932Y0128239D01*
X0171026Y0127766D01*
X0170357Y0127215D01*
X0169924Y0126585D01*
X0169688Y0125916D01*
X0169688Y0125247D01*
X0169885Y0124577D01*
X0170239Y0123869D01*
X0170751Y0123199D01*
X0171420Y0122530D01*
X0171932Y0121940D01*
X0172207Y0121349D01*
X0172207Y0120798D01*
X0172050Y0120286D01*
X0171696Y0119892D01*
X0171223Y0119577D01*
X0170672Y0119420D01*
X0170042Y0119420D01*
X0169609Y0119538D01*
X0169255Y0119656D01*
X0168979Y0119892D01*
X0168743Y0120129D01*
X0168625Y0120365D01*
X0168546Y0120640D01*
X0168546Y0120916D01*
X0168625Y0121152D01*
X0168743Y0121310D01*
X0168900Y0121467D01*
X0169097Y0121625D01*
X0169255Y0121743D01*
X0169451Y0121822D01*
X0169688Y0121940D01*
X0169727Y0121979D01*
X0169688Y0121979D01*
X0169570Y0122018D01*
X0169373Y0122097D01*
X0169097Y0122136D01*
X0168388Y0122136D01*
X0167995Y0122058D01*
X0167562Y0121940D01*
X0167168Y0121782D01*
X0166814Y0121546D01*
X0166499Y0121231D01*
X0166223Y0120877D01*
X0165987Y0120444D01*
X0165829Y0119892D01*
X0165751Y0119262D01*
X0165711Y0118514D01*
X0165711Y0108396D01*
X0165711Y0108453D02*
X0165740Y0108453D01*
X0165711Y0108752D02*
X0166010Y0108752D01*
X0166255Y0109050D02*
X0165711Y0109050D01*
X0165711Y0109349D02*
X0166498Y0109349D01*
X0166766Y0109648D02*
X0165711Y0109648D01*
X0165711Y0109946D02*
X0167016Y0109946D01*
X0167274Y0110245D02*
X0165711Y0110245D01*
X0165711Y0110543D02*
X0167548Y0110543D01*
X0167823Y0110842D02*
X0165711Y0110842D01*
X0165711Y0111140D02*
X0168099Y0111140D01*
X0168376Y0111439D02*
X0165711Y0111439D01*
X0165711Y0111737D02*
X0168647Y0111737D01*
X0168900Y0112036D02*
X0165711Y0112036D01*
X0165711Y0112334D02*
X0169177Y0112334D01*
X0169478Y0112633D02*
X0165711Y0112633D01*
X0165711Y0112931D02*
X0169809Y0112931D01*
X0170226Y0113230D02*
X0165711Y0113230D01*
X0165711Y0113528D02*
X0171011Y0113528D01*
X0174153Y0113827D02*
X0165711Y0113827D01*
X0165711Y0114125D02*
X0174934Y0114125D01*
X0175494Y0114424D02*
X0165711Y0114424D01*
X0165711Y0114722D02*
X0175967Y0114722D01*
X0176361Y0115021D02*
X0165711Y0115021D01*
X0165711Y0115319D02*
X0176724Y0115319D01*
X0177004Y0115618D02*
X0165711Y0115618D01*
X0165711Y0115916D02*
X0177278Y0115916D01*
X0177510Y0116215D02*
X0165711Y0116215D01*
X0165711Y0116513D02*
X0177742Y0116513D01*
X0177914Y0116812D02*
X0165711Y0116812D01*
X0165711Y0117110D02*
X0178067Y0117110D01*
X0178221Y0117409D02*
X0165711Y0117409D01*
X0165711Y0117707D02*
X0178374Y0117707D01*
X0178527Y0118006D02*
X0165711Y0118006D01*
X0165711Y0118304D02*
X0178619Y0118304D01*
X0178702Y0118603D02*
X0165716Y0118603D01*
X0165732Y0118901D02*
X0178785Y0118901D01*
X0178868Y0119200D02*
X0165747Y0119200D01*
X0165780Y0119498D02*
X0169754Y0119498D01*
X0169090Y0119797D02*
X0165817Y0119797D01*
X0165887Y0120095D02*
X0168776Y0120095D01*
X0168616Y0120394D02*
X0165973Y0120394D01*
X0166123Y0120692D02*
X0168546Y0120692D01*
X0168571Y0120991D02*
X0166312Y0120991D01*
X0166557Y0121289D02*
X0168728Y0121289D01*
X0169051Y0121588D02*
X0166877Y0121588D01*
X0167429Y0121886D02*
X0169581Y0121886D01*
X0170870Y0123081D02*
X0178484Y0123081D01*
X0178591Y0122782D02*
X0171168Y0122782D01*
X0171460Y0122483D02*
X0178698Y0122483D01*
X0178804Y0122185D02*
X0171719Y0122185D01*
X0171957Y0121886D02*
X0178859Y0121886D01*
X0178905Y0121588D02*
X0172096Y0121588D01*
X0172207Y0121289D02*
X0178950Y0121289D01*
X0178995Y0120991D02*
X0172207Y0120991D01*
X0172175Y0120692D02*
X0179010Y0120692D01*
X0178993Y0120394D02*
X0172083Y0120394D01*
X0171878Y0120095D02*
X0178976Y0120095D01*
X0178959Y0119797D02*
X0171552Y0119797D01*
X0170946Y0119498D02*
X0178942Y0119498D01*
X0178352Y0123379D02*
X0170613Y0123379D01*
X0170385Y0123678D02*
X0178190Y0123678D01*
X0178029Y0123976D02*
X0176291Y0123976D01*
X0176537Y0124275D02*
X0177825Y0124275D01*
X0177527Y0124573D02*
X0176616Y0124573D01*
X0176645Y0124872D02*
X0177217Y0124872D01*
X0176739Y0125170D02*
X0176617Y0125170D01*
X0175198Y0123976D02*
X0170185Y0123976D01*
X0170036Y0124275D02*
X0174663Y0124275D01*
X0174253Y0124573D02*
X0169887Y0124573D01*
X0169798Y0124872D02*
X0173921Y0124872D01*
X0173697Y0125170D02*
X0169710Y0125170D01*
X0169688Y0125469D02*
X0173503Y0125469D01*
X0173397Y0125767D02*
X0169688Y0125767D01*
X0169740Y0126066D02*
X0173354Y0126066D01*
X0173426Y0126364D02*
X0169846Y0126364D01*
X0169977Y0126663D02*
X0173565Y0126663D01*
X0173812Y0126961D02*
X0170182Y0126961D01*
X0170411Y0127260D02*
X0174225Y0127260D01*
X0174405Y0128155D02*
X0171771Y0128155D01*
X0171199Y0127857D02*
X0175067Y0127857D01*
X0175538Y0127558D02*
X0170773Y0127558D01*
D13*
X0192733Y0073433D03*
D14*
X0199164Y0113333D02*
X0199166Y0113445D01*
X0199172Y0113558D01*
X0199182Y0113670D01*
X0199196Y0113781D01*
X0199214Y0113893D01*
X0199236Y0114003D01*
X0199261Y0114112D01*
X0199291Y0114221D01*
X0199324Y0114328D01*
X0199362Y0114434D01*
X0199403Y0114539D01*
X0199447Y0114642D01*
X0199495Y0114744D01*
X0199547Y0114844D01*
X0199603Y0114942D01*
X0199662Y0115038D01*
X0199724Y0115131D01*
X0199789Y0115223D01*
X0199858Y0115312D01*
X0199930Y0115399D01*
X0200005Y0115483D01*
X0200082Y0115564D01*
X0200163Y0115642D01*
X0200246Y0115718D01*
X0200332Y0115790D01*
X0200421Y0115860D01*
X0200511Y0115926D01*
X0200605Y0115989D01*
X0200700Y0116049D01*
X0200797Y0116105D01*
X0200897Y0116158D01*
X0200998Y0116207D01*
X0201101Y0116253D01*
X0201205Y0116295D01*
X0201311Y0116333D01*
X0201418Y0116367D01*
X0201526Y0116398D01*
X0201636Y0116424D01*
X0201746Y0116447D01*
X0201857Y0116466D01*
X0201968Y0116481D01*
X0202080Y0116492D01*
X0202192Y0116499D01*
X0202305Y0116502D01*
X0202417Y0116501D01*
X0202530Y0116496D01*
X0202642Y0116487D01*
X0202754Y0116474D01*
X0202865Y0116457D01*
X0202975Y0116436D01*
X0203085Y0116411D01*
X0203194Y0116383D01*
X0203302Y0116350D01*
X0203408Y0116314D01*
X0203513Y0116274D01*
X0203617Y0116230D01*
X0203719Y0116183D01*
X0203819Y0116132D01*
X0203917Y0116077D01*
X0204014Y0116019D01*
X0204108Y0115958D01*
X0204200Y0115893D01*
X0204290Y0115826D01*
X0204377Y0115755D01*
X0204462Y0115680D01*
X0204544Y0115603D01*
X0204623Y0115524D01*
X0204699Y0115441D01*
X0204773Y0115356D01*
X0204843Y0115268D01*
X0204910Y0115177D01*
X0204974Y0115085D01*
X0205034Y0114990D01*
X0205091Y0114893D01*
X0205145Y0114794D01*
X0205195Y0114693D01*
X0205242Y0114591D01*
X0205284Y0114487D01*
X0205324Y0114382D01*
X0205359Y0114275D01*
X0205390Y0114167D01*
X0205418Y0114058D01*
X0205442Y0113948D01*
X0205462Y0113837D01*
X0205478Y0113726D01*
X0205490Y0113614D01*
X0205498Y0113502D01*
X0205502Y0113389D01*
X0205502Y0113277D01*
X0205498Y0113164D01*
X0205490Y0113052D01*
X0205478Y0112940D01*
X0205462Y0112829D01*
X0205442Y0112718D01*
X0205418Y0112608D01*
X0205390Y0112499D01*
X0205359Y0112391D01*
X0205324Y0112284D01*
X0205284Y0112179D01*
X0205242Y0112075D01*
X0205195Y0111973D01*
X0205145Y0111872D01*
X0205091Y0111773D01*
X0205034Y0111676D01*
X0204974Y0111581D01*
X0204910Y0111489D01*
X0204843Y0111398D01*
X0204773Y0111310D01*
X0204699Y0111225D01*
X0204623Y0111142D01*
X0204544Y0111063D01*
X0204462Y0110986D01*
X0204377Y0110911D01*
X0204290Y0110840D01*
X0204200Y0110773D01*
X0204108Y0110708D01*
X0204014Y0110647D01*
X0203918Y0110589D01*
X0203819Y0110534D01*
X0203719Y0110483D01*
X0203617Y0110436D01*
X0203513Y0110392D01*
X0203408Y0110352D01*
X0203302Y0110316D01*
X0203194Y0110283D01*
X0203085Y0110255D01*
X0202975Y0110230D01*
X0202865Y0110209D01*
X0202754Y0110192D01*
X0202642Y0110179D01*
X0202530Y0110170D01*
X0202417Y0110165D01*
X0202305Y0110164D01*
X0202192Y0110167D01*
X0202080Y0110174D01*
X0201968Y0110185D01*
X0201857Y0110200D01*
X0201746Y0110219D01*
X0201636Y0110242D01*
X0201526Y0110268D01*
X0201418Y0110299D01*
X0201311Y0110333D01*
X0201205Y0110371D01*
X0201101Y0110413D01*
X0200998Y0110459D01*
X0200897Y0110508D01*
X0200797Y0110561D01*
X0200700Y0110617D01*
X0200605Y0110677D01*
X0200511Y0110740D01*
X0200421Y0110806D01*
X0200332Y0110876D01*
X0200246Y0110948D01*
X0200163Y0111024D01*
X0200082Y0111102D01*
X0200005Y0111183D01*
X0199930Y0111267D01*
X0199858Y0111354D01*
X0199789Y0111443D01*
X0199724Y0111535D01*
X0199662Y0111628D01*
X0199603Y0111724D01*
X0199547Y0111822D01*
X0199495Y0111922D01*
X0199447Y0112024D01*
X0199403Y0112127D01*
X0199362Y0112232D01*
X0199324Y0112338D01*
X0199291Y0112445D01*
X0199261Y0112554D01*
X0199236Y0112663D01*
X0199214Y0112773D01*
X0199196Y0112885D01*
X0199182Y0112996D01*
X0199172Y0113108D01*
X0199166Y0113221D01*
X0199164Y0113333D01*
D15*
X0178132Y0079448D02*
X0177949Y0079547D01*
X0177551Y0079671D01*
X0177344Y0079692D01*
X0177184Y0079708D01*
X0169259Y0079708D01*
X0168844Y0079672D01*
X0168445Y0079552D01*
X0168262Y0079452D01*
X0168085Y0079343D01*
X0167924Y0079210D01*
X0167778Y0079063D01*
X0167646Y0078902D01*
X0167538Y0078724D01*
X0167439Y0078541D01*
X0167322Y0078141D01*
X0167302Y0077933D01*
X0167294Y0077726D01*
X0167315Y0077518D01*
X0167355Y0077315D01*
X0167417Y0077116D01*
X0167504Y0076927D01*
X0167603Y0076744D01*
X0167732Y0076580D01*
X0167869Y0076423D01*
X0168030Y0076290D01*
X0168199Y0076170D01*
X0168382Y0076070D01*
X0168575Y0075993D01*
X0168774Y0075931D01*
X0168980Y0075902D01*
X0169187Y0075881D01*
X0169604Y0075879D01*
X0169794Y0075898D01*
X0169794Y0076940D01*
X0169662Y0076817D01*
X0169484Y0076710D01*
X0169284Y0076654D01*
X0169076Y0076648D01*
X0168870Y0076678D01*
X0168675Y0076749D01*
X0168501Y0076861D01*
X0168356Y0077010D01*
X0168246Y0077186D01*
X0168171Y0077380D01*
X0168128Y0077583D01*
X0168114Y0077791D01*
X0168130Y0077999D01*
X0168176Y0078202D01*
X0168255Y0078395D01*
X0168370Y0078568D01*
X0168521Y0078711D01*
X0168700Y0078817D01*
X0168898Y0078880D01*
X0169106Y0078901D01*
X0169313Y0078884D01*
X0169511Y0078819D01*
X0169794Y0078637D01*
X0169794Y0078845D01*
X0169970Y0078878D01*
X0170387Y0078878D01*
X0170477Y0078827D01*
X0170693Y0078807D01*
X0170717Y0078878D01*
X0171343Y0078878D01*
X0171424Y0078707D01*
X0171778Y0077507D01*
X0171836Y0077463D01*
X0172242Y0078865D01*
X0172441Y0078878D01*
X0172858Y0078878D01*
X0172976Y0078756D01*
X0173327Y0077555D01*
X0173385Y0077415D01*
X0173798Y0078815D01*
X0173960Y0078878D01*
X0174377Y0078878D01*
X0174462Y0078842D01*
X0174658Y0078872D01*
X0174809Y0078878D01*
X0175226Y0078878D01*
X0175296Y0078809D01*
X0175526Y0078858D01*
X0175658Y0078878D01*
X0176075Y0078878D01*
X0176159Y0078821D01*
X0176675Y0078601D01*
X0176979Y0078805D01*
X0177180Y0078852D01*
X0177386Y0078887D01*
X0177593Y0078897D01*
X0177614Y0078708D01*
X0177614Y0078291D01*
X0177445Y0078290D01*
X0177257Y0078213D01*
X0177129Y0078054D01*
X0177074Y0077856D01*
X0177078Y0077649D01*
X0177143Y0077455D01*
X0177281Y0077304D01*
X0177475Y0077239D01*
X0177614Y0077176D01*
X0177614Y0076759D01*
X0177511Y0076647D01*
X0177305Y0076674D01*
X0177099Y0076709D01*
X0176909Y0076784D01*
X0176733Y0076895D01*
X0176587Y0077037D01*
X0176473Y0077212D01*
X0176395Y0077401D01*
X0176358Y0077606D01*
X0176339Y0077812D01*
X0176411Y0078222D01*
X0176521Y0078399D01*
X0176654Y0078568D01*
X0176196Y0078768D01*
X0176200Y0076708D01*
X0176009Y0076671D01*
X0175592Y0076671D01*
X0175478Y0076765D01*
X0175481Y0078813D01*
X0175331Y0078776D01*
X0175331Y0076689D01*
X0175329Y0076671D01*
X0174703Y0076671D01*
X0174609Y0076785D01*
X0174609Y0078829D01*
X0174490Y0078809D01*
X0173790Y0076865D01*
X0173671Y0076671D01*
X0173046Y0076671D01*
X0172953Y0076828D01*
X0172584Y0078023D01*
X0172522Y0077845D01*
X0172212Y0076849D01*
X0172135Y0076671D01*
X0171509Y0076671D01*
X0171391Y0076800D01*
X0170687Y0078765D01*
X0170520Y0078789D01*
X0170520Y0075883D01*
X0177190Y0075880D01*
X0177603Y0075929D01*
X0177803Y0075990D01*
X0177996Y0076066D01*
X0178179Y0076165D01*
X0178349Y0076285D01*
X0178510Y0076417D01*
X0178648Y0076573D01*
X0178778Y0076736D01*
X0178878Y0076919D01*
X0178966Y0077107D01*
X0179028Y0077306D01*
X0179070Y0077509D01*
X0179091Y0077717D01*
X0179085Y0077924D01*
X0179064Y0078132D01*
X0179012Y0078333D01*
X0178950Y0078532D01*
X0178852Y0078716D01*
X0178746Y0078895D01*
X0178613Y0079056D01*
X0178469Y0079205D01*
X0178308Y0079337D01*
X0178132Y0079448D01*
X0178126Y0079451D02*
X0168261Y0079451D01*
X0168182Y0079403D02*
X0178204Y0079403D01*
X0178281Y0079354D02*
X0168103Y0079354D01*
X0168040Y0079306D02*
X0178346Y0079306D01*
X0178405Y0079257D02*
X0167981Y0079257D01*
X0167923Y0079209D02*
X0178464Y0079209D01*
X0178512Y0079160D02*
X0167875Y0079160D01*
X0167827Y0079112D02*
X0178559Y0079112D01*
X0178606Y0079063D02*
X0167779Y0079063D01*
X0167739Y0079015D02*
X0178647Y0079015D01*
X0178688Y0078966D02*
X0167699Y0078966D01*
X0167659Y0078918D02*
X0178728Y0078918D01*
X0178762Y0078869D02*
X0177596Y0078869D01*
X0177601Y0078821D02*
X0178790Y0078821D01*
X0178819Y0078772D02*
X0177607Y0078772D01*
X0177612Y0078723D02*
X0178848Y0078723D01*
X0178874Y0078675D02*
X0177614Y0078675D01*
X0177614Y0078626D02*
X0178900Y0078626D01*
X0178926Y0078578D02*
X0177614Y0078578D01*
X0177614Y0078529D02*
X0178951Y0078529D01*
X0178966Y0078481D02*
X0177614Y0078481D01*
X0177614Y0078432D02*
X0178981Y0078432D01*
X0178996Y0078384D02*
X0177614Y0078384D01*
X0177614Y0078335D02*
X0179011Y0078335D01*
X0179024Y0078287D02*
X0177436Y0078287D01*
X0177319Y0078238D02*
X0179037Y0078238D01*
X0179049Y0078190D02*
X0177239Y0078190D01*
X0177200Y0078141D02*
X0179062Y0078141D01*
X0179068Y0078093D02*
X0177160Y0078093D01*
X0177126Y0078044D02*
X0179073Y0078044D01*
X0179078Y0077996D02*
X0177113Y0077996D01*
X0177099Y0077947D02*
X0179083Y0077947D01*
X0179086Y0077899D02*
X0177086Y0077899D01*
X0177074Y0077850D02*
X0179087Y0077850D01*
X0179089Y0077802D02*
X0177075Y0077802D01*
X0177076Y0077753D02*
X0179090Y0077753D01*
X0179090Y0077705D02*
X0177077Y0077705D01*
X0177078Y0077656D02*
X0179085Y0077656D01*
X0179080Y0077608D02*
X0177092Y0077608D01*
X0177108Y0077559D02*
X0179075Y0077559D01*
X0179070Y0077511D02*
X0177124Y0077511D01*
X0177141Y0077462D02*
X0179060Y0077462D01*
X0179050Y0077414D02*
X0177180Y0077414D01*
X0177225Y0077365D02*
X0179040Y0077365D01*
X0179030Y0077317D02*
X0177269Y0077317D01*
X0177388Y0077268D02*
X0179016Y0077268D01*
X0179001Y0077220D02*
X0177518Y0077220D01*
X0177614Y0077171D02*
X0178986Y0077171D01*
X0178971Y0077123D02*
X0177614Y0077123D01*
X0177614Y0077074D02*
X0178951Y0077074D01*
X0178928Y0077026D02*
X0177614Y0077026D01*
X0177614Y0076977D02*
X0178905Y0076977D01*
X0178882Y0076929D02*
X0177614Y0076929D01*
X0177614Y0076880D02*
X0178857Y0076880D01*
X0178830Y0076832D02*
X0177614Y0076832D01*
X0177614Y0076783D02*
X0178804Y0076783D01*
X0178777Y0076735D02*
X0177591Y0076735D01*
X0177547Y0076686D02*
X0178738Y0076686D01*
X0178699Y0076638D02*
X0170520Y0076638D01*
X0170520Y0076686D02*
X0171495Y0076686D01*
X0171451Y0076735D02*
X0170520Y0076735D01*
X0170520Y0076783D02*
X0171407Y0076783D01*
X0171380Y0076832D02*
X0170520Y0076832D01*
X0170520Y0076880D02*
X0171363Y0076880D01*
X0171345Y0076929D02*
X0170520Y0076929D01*
X0170520Y0076977D02*
X0171328Y0076977D01*
X0171310Y0077026D02*
X0170520Y0077026D01*
X0170520Y0077074D02*
X0171293Y0077074D01*
X0171276Y0077123D02*
X0170520Y0077123D01*
X0170520Y0077171D02*
X0171258Y0077171D01*
X0171241Y0077220D02*
X0170520Y0077220D01*
X0170520Y0077268D02*
X0171223Y0077268D01*
X0171206Y0077317D02*
X0170520Y0077317D01*
X0170520Y0077365D02*
X0171189Y0077365D01*
X0171171Y0077414D02*
X0170520Y0077414D01*
X0170520Y0077462D02*
X0171154Y0077462D01*
X0171136Y0077511D02*
X0170520Y0077511D01*
X0170520Y0077559D02*
X0171119Y0077559D01*
X0171102Y0077608D02*
X0170520Y0077608D01*
X0170520Y0077656D02*
X0171084Y0077656D01*
X0171067Y0077705D02*
X0170520Y0077705D01*
X0170520Y0077753D02*
X0171049Y0077753D01*
X0171032Y0077802D02*
X0170520Y0077802D01*
X0170520Y0077850D02*
X0171015Y0077850D01*
X0170997Y0077899D02*
X0170520Y0077899D01*
X0170520Y0077947D02*
X0170980Y0077947D01*
X0170962Y0077996D02*
X0170520Y0077996D01*
X0170520Y0078044D02*
X0170945Y0078044D01*
X0170928Y0078093D02*
X0170520Y0078093D01*
X0170520Y0078141D02*
X0170910Y0078141D01*
X0170893Y0078190D02*
X0170520Y0078190D01*
X0170520Y0078238D02*
X0170875Y0078238D01*
X0170858Y0078287D02*
X0170520Y0078287D01*
X0170520Y0078335D02*
X0170841Y0078335D01*
X0170823Y0078384D02*
X0170520Y0078384D01*
X0170520Y0078432D02*
X0170806Y0078432D01*
X0170788Y0078481D02*
X0170520Y0078481D01*
X0170520Y0078529D02*
X0170771Y0078529D01*
X0170754Y0078578D02*
X0170520Y0078578D01*
X0170520Y0078626D02*
X0170736Y0078626D01*
X0170719Y0078675D02*
X0170520Y0078675D01*
X0170520Y0078723D02*
X0170701Y0078723D01*
X0170638Y0078772D02*
X0170520Y0078772D01*
X0170547Y0078821D02*
X0170698Y0078821D01*
X0170714Y0078869D02*
X0170403Y0078869D01*
X0169921Y0078869D02*
X0169359Y0078869D01*
X0169507Y0078821D02*
X0169794Y0078821D01*
X0169794Y0078772D02*
X0169584Y0078772D01*
X0169659Y0078723D02*
X0169794Y0078723D01*
X0169794Y0078675D02*
X0169735Y0078675D01*
X0169536Y0078259D02*
X0169342Y0078311D01*
X0169144Y0078279D01*
X0168978Y0078164D01*
X0168878Y0077988D01*
X0168847Y0077787D01*
X0168871Y0077587D01*
X0168954Y0077404D01*
X0169103Y0077271D01*
X0169296Y0077218D01*
X0169495Y0077250D01*
X0169660Y0077364D01*
X0169760Y0077541D01*
X0169791Y0077741D01*
X0169767Y0077942D01*
X0169685Y0078125D01*
X0169536Y0078259D01*
X0169558Y0078238D02*
X0169085Y0078238D01*
X0169015Y0078190D02*
X0169612Y0078190D01*
X0169666Y0078141D02*
X0168965Y0078141D01*
X0168937Y0078093D02*
X0169699Y0078093D01*
X0169721Y0078044D02*
X0168910Y0078044D01*
X0168882Y0077996D02*
X0169743Y0077996D01*
X0169765Y0077947D02*
X0168872Y0077947D01*
X0168864Y0077899D02*
X0169772Y0077899D01*
X0169778Y0077850D02*
X0168857Y0077850D01*
X0168849Y0077802D02*
X0169784Y0077802D01*
X0169789Y0077753D02*
X0168851Y0077753D01*
X0168857Y0077705D02*
X0169785Y0077705D01*
X0169778Y0077656D02*
X0168862Y0077656D01*
X0168868Y0077608D02*
X0169770Y0077608D01*
X0169763Y0077559D02*
X0168883Y0077559D01*
X0168905Y0077511D02*
X0169743Y0077511D01*
X0169715Y0077462D02*
X0168927Y0077462D01*
X0168950Y0077414D02*
X0169688Y0077414D01*
X0169661Y0077365D02*
X0168997Y0077365D01*
X0169052Y0077317D02*
X0169592Y0077317D01*
X0169522Y0077268D02*
X0169112Y0077268D01*
X0169292Y0077220D02*
X0169304Y0077220D01*
X0169605Y0076783D02*
X0169794Y0076783D01*
X0169794Y0076735D02*
X0169525Y0076735D01*
X0169399Y0076686D02*
X0169794Y0076686D01*
X0169794Y0076638D02*
X0167687Y0076638D01*
X0167649Y0076686D02*
X0168848Y0076686D01*
X0168715Y0076735D02*
X0167611Y0076735D01*
X0167582Y0076783D02*
X0168622Y0076783D01*
X0168547Y0076832D02*
X0167556Y0076832D01*
X0167529Y0076880D02*
X0168482Y0076880D01*
X0168435Y0076929D02*
X0167503Y0076929D01*
X0167481Y0076977D02*
X0168388Y0076977D01*
X0168346Y0077026D02*
X0167459Y0077026D01*
X0167436Y0077074D02*
X0168316Y0077074D01*
X0168285Y0077123D02*
X0167415Y0077123D01*
X0167400Y0077171D02*
X0168255Y0077171D01*
X0168233Y0077220D02*
X0167385Y0077220D01*
X0167370Y0077268D02*
X0168214Y0077268D01*
X0168195Y0077317D02*
X0167355Y0077317D01*
X0167345Y0077365D02*
X0168177Y0077365D01*
X0168164Y0077414D02*
X0167336Y0077414D01*
X0167326Y0077462D02*
X0168154Y0077462D01*
X0168144Y0077511D02*
X0167317Y0077511D01*
X0167311Y0077559D02*
X0168133Y0077559D01*
X0168127Y0077608D02*
X0167306Y0077608D01*
X0167301Y0077656D02*
X0168123Y0077656D01*
X0168120Y0077705D02*
X0167296Y0077705D01*
X0167295Y0077753D02*
X0168116Y0077753D01*
X0168114Y0077802D02*
X0167297Y0077802D01*
X0167299Y0077850D02*
X0168118Y0077850D01*
X0168122Y0077899D02*
X0167300Y0077899D01*
X0167303Y0077947D02*
X0168126Y0077947D01*
X0168129Y0077996D02*
X0167308Y0077996D01*
X0167313Y0078044D02*
X0168140Y0078044D01*
X0168151Y0078093D02*
X0167318Y0078093D01*
X0167323Y0078141D02*
X0168162Y0078141D01*
X0168173Y0078190D02*
X0167337Y0078190D01*
X0167351Y0078238D02*
X0168190Y0078238D01*
X0168210Y0078287D02*
X0167365Y0078287D01*
X0167379Y0078335D02*
X0168230Y0078335D01*
X0168250Y0078384D02*
X0167393Y0078384D01*
X0167407Y0078432D02*
X0168280Y0078432D01*
X0168312Y0078481D02*
X0167421Y0078481D01*
X0167436Y0078529D02*
X0168345Y0078529D01*
X0168381Y0078578D02*
X0167459Y0078578D01*
X0167485Y0078626D02*
X0168432Y0078626D01*
X0168483Y0078675D02*
X0167512Y0078675D01*
X0167538Y0078723D02*
X0168541Y0078723D01*
X0168624Y0078772D02*
X0167567Y0078772D01*
X0167597Y0078821D02*
X0168712Y0078821D01*
X0168865Y0078869D02*
X0167626Y0078869D01*
X0168350Y0079500D02*
X0178036Y0079500D01*
X0177946Y0079548D02*
X0168439Y0079548D01*
X0168594Y0079597D02*
X0177790Y0079597D01*
X0177635Y0079645D02*
X0168755Y0079645D01*
X0169092Y0079694D02*
X0177328Y0079694D01*
X0177280Y0078869D02*
X0176089Y0078869D01*
X0176161Y0078821D02*
X0177047Y0078821D01*
X0176930Y0078772D02*
X0176275Y0078772D01*
X0176298Y0078723D02*
X0176196Y0078723D01*
X0176196Y0078675D02*
X0176409Y0078675D01*
X0176388Y0078723D02*
X0176858Y0078723D01*
X0176785Y0078675D02*
X0176502Y0078675D01*
X0176521Y0078626D02*
X0176196Y0078626D01*
X0176196Y0078578D02*
X0176632Y0078578D01*
X0176624Y0078529D02*
X0176196Y0078529D01*
X0176196Y0078481D02*
X0176585Y0078481D01*
X0176547Y0078432D02*
X0176196Y0078432D01*
X0176197Y0078384D02*
X0176511Y0078384D01*
X0176481Y0078335D02*
X0176197Y0078335D01*
X0176197Y0078287D02*
X0176451Y0078287D01*
X0176421Y0078238D02*
X0176197Y0078238D01*
X0176197Y0078190D02*
X0176405Y0078190D01*
X0176397Y0078141D02*
X0176197Y0078141D01*
X0176197Y0078093D02*
X0176388Y0078093D01*
X0176380Y0078044D02*
X0176197Y0078044D01*
X0176197Y0077996D02*
X0176371Y0077996D01*
X0176362Y0077947D02*
X0176197Y0077947D01*
X0176197Y0077899D02*
X0176354Y0077899D01*
X0176345Y0077850D02*
X0176198Y0077850D01*
X0176198Y0077802D02*
X0176340Y0077802D01*
X0176344Y0077753D02*
X0176198Y0077753D01*
X0176198Y0077705D02*
X0176349Y0077705D01*
X0176354Y0077656D02*
X0176198Y0077656D01*
X0176198Y0077608D02*
X0176358Y0077608D01*
X0176367Y0077559D02*
X0176198Y0077559D01*
X0176198Y0077511D02*
X0176375Y0077511D01*
X0176384Y0077462D02*
X0176198Y0077462D01*
X0176198Y0077414D02*
X0176392Y0077414D01*
X0176409Y0077365D02*
X0176198Y0077365D01*
X0176199Y0077317D02*
X0176430Y0077317D01*
X0176450Y0077268D02*
X0176199Y0077268D01*
X0176199Y0077220D02*
X0176470Y0077220D01*
X0176499Y0077171D02*
X0176199Y0077171D01*
X0176199Y0077123D02*
X0176531Y0077123D01*
X0176563Y0077074D02*
X0176199Y0077074D01*
X0176199Y0077026D02*
X0176599Y0077026D01*
X0176649Y0076977D02*
X0176199Y0076977D01*
X0176199Y0076929D02*
X0176699Y0076929D01*
X0176757Y0076880D02*
X0176199Y0076880D01*
X0176199Y0076832D02*
X0176833Y0076832D01*
X0176911Y0076783D02*
X0176200Y0076783D01*
X0176200Y0076735D02*
X0177035Y0076735D01*
X0177234Y0076686D02*
X0176087Y0076686D01*
X0175573Y0076686D02*
X0175330Y0076686D01*
X0175331Y0076735D02*
X0175514Y0076735D01*
X0175478Y0076783D02*
X0175331Y0076783D01*
X0175331Y0076832D02*
X0175478Y0076832D01*
X0175478Y0076880D02*
X0175331Y0076880D01*
X0175331Y0076929D02*
X0175478Y0076929D01*
X0175478Y0076977D02*
X0175331Y0076977D01*
X0175331Y0077026D02*
X0175478Y0077026D01*
X0175478Y0077074D02*
X0175331Y0077074D01*
X0175331Y0077123D02*
X0175478Y0077123D01*
X0175478Y0077171D02*
X0175331Y0077171D01*
X0175331Y0077220D02*
X0175478Y0077220D01*
X0175479Y0077268D02*
X0175331Y0077268D01*
X0175331Y0077317D02*
X0175479Y0077317D01*
X0175479Y0077365D02*
X0175331Y0077365D01*
X0175331Y0077414D02*
X0175479Y0077414D01*
X0175479Y0077462D02*
X0175331Y0077462D01*
X0175331Y0077511D02*
X0175479Y0077511D01*
X0175479Y0077559D02*
X0175331Y0077559D01*
X0175331Y0077608D02*
X0175479Y0077608D01*
X0175479Y0077656D02*
X0175331Y0077656D01*
X0175331Y0077705D02*
X0175479Y0077705D01*
X0175479Y0077753D02*
X0175331Y0077753D01*
X0175331Y0077802D02*
X0175480Y0077802D01*
X0175480Y0077850D02*
X0175331Y0077850D01*
X0175331Y0077899D02*
X0175480Y0077899D01*
X0175480Y0077947D02*
X0175331Y0077947D01*
X0175331Y0077996D02*
X0175480Y0077996D01*
X0175480Y0078044D02*
X0175331Y0078044D01*
X0175331Y0078093D02*
X0175480Y0078093D01*
X0175480Y0078141D02*
X0175331Y0078141D01*
X0175331Y0078190D02*
X0175480Y0078190D01*
X0175480Y0078238D02*
X0175331Y0078238D01*
X0175331Y0078287D02*
X0175480Y0078287D01*
X0175481Y0078335D02*
X0175331Y0078335D01*
X0175331Y0078384D02*
X0175481Y0078384D01*
X0175481Y0078432D02*
X0175331Y0078432D01*
X0175331Y0078481D02*
X0175481Y0078481D01*
X0175481Y0078529D02*
X0175331Y0078529D01*
X0175331Y0078578D02*
X0175481Y0078578D01*
X0175481Y0078626D02*
X0175331Y0078626D01*
X0175331Y0078675D02*
X0175481Y0078675D01*
X0175481Y0078723D02*
X0175331Y0078723D01*
X0175331Y0078772D02*
X0175481Y0078772D01*
X0175351Y0078821D02*
X0175284Y0078821D01*
X0175235Y0078869D02*
X0175599Y0078869D01*
X0174638Y0078869D02*
X0174398Y0078869D01*
X0174477Y0078772D02*
X0174609Y0078772D01*
X0174609Y0078821D02*
X0174560Y0078821D01*
X0174609Y0078723D02*
X0174459Y0078723D01*
X0174442Y0078675D02*
X0174609Y0078675D01*
X0174609Y0078626D02*
X0174424Y0078626D01*
X0174407Y0078578D02*
X0174609Y0078578D01*
X0174609Y0078529D02*
X0174390Y0078529D01*
X0174372Y0078481D02*
X0174609Y0078481D01*
X0174609Y0078432D02*
X0174355Y0078432D01*
X0174337Y0078384D02*
X0174609Y0078384D01*
X0174609Y0078335D02*
X0174320Y0078335D01*
X0174302Y0078287D02*
X0174609Y0078287D01*
X0174609Y0078238D02*
X0174285Y0078238D01*
X0174267Y0078190D02*
X0174609Y0078190D01*
X0174609Y0078141D02*
X0174250Y0078141D01*
X0174232Y0078093D02*
X0174609Y0078093D01*
X0174609Y0078044D02*
X0174215Y0078044D01*
X0174197Y0077996D02*
X0174609Y0077996D01*
X0174609Y0077947D02*
X0174180Y0077947D01*
X0174162Y0077899D02*
X0174609Y0077899D01*
X0174609Y0077850D02*
X0174145Y0077850D01*
X0174128Y0077802D02*
X0174609Y0077802D01*
X0174609Y0077753D02*
X0174110Y0077753D01*
X0174093Y0077705D02*
X0174609Y0077705D01*
X0174609Y0077656D02*
X0174075Y0077656D01*
X0174058Y0077608D02*
X0174609Y0077608D01*
X0174609Y0077559D02*
X0174040Y0077559D01*
X0174023Y0077511D02*
X0174609Y0077511D01*
X0174609Y0077462D02*
X0174005Y0077462D01*
X0173988Y0077414D02*
X0174609Y0077414D01*
X0174609Y0077365D02*
X0173970Y0077365D01*
X0173953Y0077317D02*
X0174609Y0077317D01*
X0174609Y0077268D02*
X0173935Y0077268D01*
X0173918Y0077220D02*
X0174609Y0077220D01*
X0174609Y0077171D02*
X0173900Y0077171D01*
X0173883Y0077123D02*
X0174609Y0077123D01*
X0174609Y0077074D02*
X0173866Y0077074D01*
X0173848Y0077026D02*
X0174609Y0077026D01*
X0174609Y0076977D02*
X0173831Y0076977D01*
X0173813Y0076929D02*
X0174609Y0076929D01*
X0174609Y0076880D02*
X0173796Y0076880D01*
X0173770Y0076832D02*
X0174609Y0076832D01*
X0174610Y0076783D02*
X0173740Y0076783D01*
X0173710Y0076735D02*
X0174650Y0076735D01*
X0174691Y0076686D02*
X0173681Y0076686D01*
X0173036Y0076686D02*
X0172141Y0076686D01*
X0172162Y0076735D02*
X0173008Y0076735D01*
X0172979Y0076783D02*
X0172183Y0076783D01*
X0172204Y0076832D02*
X0172951Y0076832D01*
X0172936Y0076880D02*
X0172222Y0076880D01*
X0172237Y0076929D02*
X0172922Y0076929D01*
X0172907Y0076977D02*
X0172252Y0076977D01*
X0172267Y0077026D02*
X0172892Y0077026D01*
X0172877Y0077074D02*
X0172282Y0077074D01*
X0172297Y0077123D02*
X0172862Y0077123D01*
X0172847Y0077171D02*
X0172312Y0077171D01*
X0172327Y0077220D02*
X0172832Y0077220D01*
X0172817Y0077268D02*
X0172342Y0077268D01*
X0172358Y0077317D02*
X0172802Y0077317D01*
X0172787Y0077365D02*
X0172373Y0077365D01*
X0172388Y0077414D02*
X0172772Y0077414D01*
X0172757Y0077462D02*
X0172403Y0077462D01*
X0172418Y0077511D02*
X0172742Y0077511D01*
X0172727Y0077559D02*
X0172433Y0077559D01*
X0172448Y0077608D02*
X0172712Y0077608D01*
X0172697Y0077656D02*
X0172463Y0077656D01*
X0172478Y0077705D02*
X0172682Y0077705D01*
X0172667Y0077753D02*
X0172494Y0077753D01*
X0172509Y0077802D02*
X0172652Y0077802D01*
X0172637Y0077850D02*
X0172524Y0077850D01*
X0172541Y0077899D02*
X0172622Y0077899D01*
X0172607Y0077947D02*
X0172558Y0077947D01*
X0172574Y0077996D02*
X0172592Y0077996D01*
X0172033Y0078141D02*
X0171590Y0078141D01*
X0171605Y0078093D02*
X0172019Y0078093D01*
X0172005Y0078044D02*
X0171619Y0078044D01*
X0171633Y0077996D02*
X0171991Y0077996D01*
X0171977Y0077947D02*
X0171648Y0077947D01*
X0171662Y0077899D02*
X0171963Y0077899D01*
X0171949Y0077850D02*
X0171676Y0077850D01*
X0171691Y0077802D02*
X0171934Y0077802D01*
X0171920Y0077753D02*
X0171705Y0077753D01*
X0171719Y0077705D02*
X0171906Y0077705D01*
X0171892Y0077656D02*
X0171734Y0077656D01*
X0171748Y0077608D02*
X0171878Y0077608D01*
X0171864Y0077559D02*
X0171762Y0077559D01*
X0171777Y0077511D02*
X0171850Y0077511D01*
X0172047Y0078190D02*
X0171576Y0078190D01*
X0171562Y0078238D02*
X0172061Y0078238D01*
X0172075Y0078287D02*
X0171548Y0078287D01*
X0171533Y0078335D02*
X0172089Y0078335D01*
X0172103Y0078384D02*
X0171519Y0078384D01*
X0171505Y0078432D02*
X0172117Y0078432D01*
X0172131Y0078481D02*
X0171490Y0078481D01*
X0171476Y0078529D02*
X0172145Y0078529D01*
X0172159Y0078578D02*
X0171462Y0078578D01*
X0171447Y0078626D02*
X0172173Y0078626D01*
X0172187Y0078675D02*
X0171433Y0078675D01*
X0171416Y0078723D02*
X0172201Y0078723D01*
X0172215Y0078772D02*
X0171393Y0078772D01*
X0171370Y0078821D02*
X0172230Y0078821D01*
X0172302Y0078869D02*
X0171347Y0078869D01*
X0172867Y0078869D02*
X0173937Y0078869D01*
X0173813Y0078821D02*
X0172914Y0078821D01*
X0172960Y0078772D02*
X0173786Y0078772D01*
X0173771Y0078723D02*
X0172985Y0078723D01*
X0172999Y0078675D02*
X0173757Y0078675D01*
X0173743Y0078626D02*
X0173013Y0078626D01*
X0173028Y0078578D02*
X0173729Y0078578D01*
X0173714Y0078529D02*
X0173042Y0078529D01*
X0173056Y0078481D02*
X0173700Y0078481D01*
X0173686Y0078432D02*
X0173070Y0078432D01*
X0173084Y0078384D02*
X0173671Y0078384D01*
X0173657Y0078335D02*
X0173098Y0078335D01*
X0173113Y0078287D02*
X0173643Y0078287D01*
X0173628Y0078238D02*
X0173127Y0078238D01*
X0173141Y0078190D02*
X0173614Y0078190D01*
X0173600Y0078141D02*
X0173155Y0078141D01*
X0173169Y0078093D02*
X0173585Y0078093D01*
X0173571Y0078044D02*
X0173184Y0078044D01*
X0173198Y0077996D02*
X0173557Y0077996D01*
X0173542Y0077947D02*
X0173212Y0077947D01*
X0173226Y0077899D02*
X0173528Y0077899D01*
X0173514Y0077850D02*
X0173240Y0077850D01*
X0173254Y0077802D02*
X0173499Y0077802D01*
X0173485Y0077753D02*
X0173269Y0077753D01*
X0173283Y0077705D02*
X0173471Y0077705D01*
X0173457Y0077656D02*
X0173297Y0077656D01*
X0173311Y0077608D02*
X0173442Y0077608D01*
X0173428Y0077559D02*
X0173325Y0077559D01*
X0173345Y0077511D02*
X0173414Y0077511D01*
X0173399Y0077462D02*
X0173365Y0077462D01*
X0170520Y0076589D02*
X0178660Y0076589D01*
X0178619Y0076540D02*
X0170520Y0076540D01*
X0170520Y0076492D02*
X0178576Y0076492D01*
X0178533Y0076443D02*
X0170520Y0076443D01*
X0170520Y0076395D02*
X0178483Y0076395D01*
X0178424Y0076346D02*
X0170520Y0076346D01*
X0170520Y0076298D02*
X0178366Y0076298D01*
X0178299Y0076249D02*
X0170520Y0076249D01*
X0170520Y0076201D02*
X0178230Y0076201D01*
X0178155Y0076152D02*
X0170520Y0076152D01*
X0170520Y0076104D02*
X0178066Y0076104D01*
X0177969Y0076055D02*
X0170520Y0076055D01*
X0170520Y0076007D02*
X0177845Y0076007D01*
X0177699Y0075958D02*
X0170520Y0075958D01*
X0170520Y0075910D02*
X0177445Y0075910D01*
X0176712Y0078626D02*
X0176616Y0078626D01*
X0169794Y0076929D02*
X0169781Y0076929D01*
X0169794Y0076880D02*
X0169729Y0076880D01*
X0169677Y0076832D02*
X0169794Y0076832D01*
X0169794Y0076589D02*
X0167726Y0076589D01*
X0167767Y0076540D02*
X0169794Y0076540D01*
X0169794Y0076492D02*
X0167809Y0076492D01*
X0167851Y0076443D02*
X0169794Y0076443D01*
X0169794Y0076395D02*
X0167903Y0076395D01*
X0167962Y0076346D02*
X0169794Y0076346D01*
X0169794Y0076298D02*
X0168020Y0076298D01*
X0168087Y0076249D02*
X0169794Y0076249D01*
X0169794Y0076201D02*
X0168155Y0076201D01*
X0168231Y0076152D02*
X0169794Y0076152D01*
X0169794Y0076104D02*
X0168320Y0076104D01*
X0168419Y0076055D02*
X0169794Y0076055D01*
X0169794Y0076007D02*
X0168540Y0076007D01*
X0168686Y0075958D02*
X0169794Y0075958D01*
X0169794Y0075910D02*
X0168922Y0075910D01*
X0169195Y0078287D02*
X0169431Y0078287D01*
D16*
X0210154Y0076334D03*
X0211571Y0076334D03*
X0211650Y0076334D03*
X0211768Y0076334D03*
X0212044Y0076334D03*
X0212162Y0076334D03*
X0212240Y0076334D03*
X0212516Y0076334D03*
X0212595Y0076334D03*
X0212713Y0076334D03*
X0212162Y0075271D03*
X0212044Y0075271D03*
X0212044Y0073381D03*
X0211768Y0073263D03*
X0211650Y0073263D03*
X0211571Y0073263D03*
X0211296Y0073263D03*
X0211217Y0073263D03*
X0211099Y0073263D03*
X0211099Y0078342D03*
X0211217Y0078342D03*
X0211296Y0078342D03*
X0211571Y0078342D03*
X0210823Y0078342D03*
X0210705Y0078342D03*
X0210626Y0078342D03*
X0210351Y0078342D03*
X0210233Y0078342D03*
X0210705Y0079405D03*
X0210823Y0079405D03*
X0211099Y0079405D03*
X0211217Y0079405D03*
X0211296Y0079405D03*
X0211571Y0079405D03*
X0211650Y0079405D03*
X0211768Y0079405D03*
X0212044Y0079405D03*
X0212162Y0079405D03*
X0211768Y0081295D03*
X0211650Y0081295D03*
X0211296Y0081295D03*
X0211217Y0081295D03*
X0211099Y0081295D03*
X0212044Y0083263D03*
X0212162Y0083263D03*
X0210705Y0083381D03*
X0209878Y0084090D03*
X0210705Y0084799D03*
X0210823Y0084799D03*
X0212516Y0085862D03*
X0212595Y0085862D03*
X0212713Y0085862D03*
X0210705Y0087043D03*
X0209878Y0087633D03*
X0210705Y0088342D03*
X0210233Y0089405D03*
X0210154Y0089405D03*
X0210823Y0089641D03*
X0211099Y0089759D03*
X0211296Y0089877D03*
X0211571Y0089996D03*
X0211768Y0090114D03*
X0211768Y0091059D03*
X0211650Y0091177D03*
X0211571Y0091177D03*
X0211296Y0091295D03*
X0211099Y0091413D03*
X0210823Y0091531D03*
X0210626Y0091649D03*
X0210351Y0091767D03*
X0210233Y0091767D03*
X0210154Y0091767D03*
X0212713Y0090586D03*
X0212162Y0088460D03*
X0212044Y0088460D03*
X0210823Y0094681D03*
X0210705Y0094681D03*
X0212044Y0096099D03*
X0212162Y0096099D03*
X0212162Y0097162D03*
X0212044Y0097162D03*
X0211768Y0097162D03*
X0211650Y0097162D03*
X0211571Y0097162D03*
X0211296Y0097162D03*
X0211217Y0097162D03*
X0211099Y0097162D03*
X0210823Y0097162D03*
X0210705Y0097162D03*
X0211217Y0099051D03*
X0211296Y0099051D03*
X0211571Y0099051D03*
X0211650Y0099051D03*
X0211768Y0099051D03*
X0212595Y0099878D03*
X0211571Y0100351D03*
X0211296Y0100469D03*
X0210233Y0100941D03*
X0211650Y0101650D03*
X0212713Y0102122D03*
X0210823Y0104763D03*
X0210705Y0104763D03*
X0209878Y0105472D03*
X0211217Y0107244D03*
X0211296Y0107244D03*
X0211571Y0107244D03*
X0211650Y0107244D03*
X0211768Y0107244D03*
X0212044Y0107362D03*
X0212044Y0106299D03*
X0212162Y0106299D03*
X0212240Y0106181D03*
X0212240Y0109015D03*
X0212240Y0110196D03*
X0212162Y0110196D03*
X0212044Y0110196D03*
X0211768Y0110196D03*
X0211650Y0110196D03*
X0211571Y0110196D03*
X0211296Y0110196D03*
X0211217Y0110196D03*
X0211099Y0110196D03*
X0210823Y0110196D03*
X0210705Y0110196D03*
X0210626Y0110196D03*
X0210351Y0110196D03*
X0210233Y0110196D03*
X0210154Y0110196D03*
X0210605Y0114581D03*
X0210723Y0114581D03*
X0210999Y0114581D03*
X0211117Y0114581D03*
X0211196Y0114581D03*
X0211471Y0114581D03*
X0211550Y0114581D03*
X0211668Y0114581D03*
X0211944Y0114581D03*
X0212062Y0114581D03*
X0211668Y0116471D03*
X0211550Y0116471D03*
X0211471Y0116471D03*
X0211196Y0116471D03*
X0211117Y0116471D03*
X0210999Y0116471D03*
X0211196Y0118125D03*
X0211471Y0118125D03*
X0211550Y0118125D03*
X0211668Y0118125D03*
X0211944Y0118125D03*
X0212062Y0118125D03*
X0212140Y0118125D03*
X0212416Y0118125D03*
X0212495Y0118125D03*
X0212613Y0118125D03*
X0212416Y0119660D03*
X0212140Y0119660D03*
X0211944Y0119778D03*
X0211668Y0119896D03*
X0210723Y0120487D03*
X0210605Y0120487D03*
X0210054Y0118125D03*
X0210605Y0124581D03*
X0210723Y0124581D03*
X0210999Y0124581D03*
X0211117Y0124581D03*
X0211196Y0124581D03*
X0211471Y0124581D03*
X0211550Y0124581D03*
X0211668Y0124581D03*
X0211944Y0124581D03*
X0212062Y0124581D03*
X0211668Y0126471D03*
X0211550Y0126471D03*
X0211471Y0126471D03*
X0211196Y0126471D03*
X0211117Y0126471D03*
X0210999Y0126471D03*
X0211196Y0128125D03*
X0211471Y0128125D03*
X0211550Y0128125D03*
X0211668Y0128125D03*
X0211944Y0128125D03*
X0212062Y0128125D03*
X0212140Y0128125D03*
X0212416Y0128125D03*
X0212495Y0128125D03*
X0212613Y0128125D03*
X0212062Y0129188D03*
X0211944Y0129188D03*
X0210999Y0129306D03*
X0210054Y0128125D03*
X0211944Y0130605D03*
X0212062Y0130605D03*
X0212140Y0130605D03*
X0129062Y0142581D03*
X0128944Y0142581D03*
X0128668Y0142581D03*
X0128550Y0142581D03*
X0128471Y0142581D03*
X0128196Y0142581D03*
X0128117Y0142581D03*
X0127999Y0142581D03*
X0127723Y0142581D03*
X0127605Y0142581D03*
X0127999Y0144471D03*
X0128117Y0144471D03*
X0128196Y0144471D03*
X0128471Y0144471D03*
X0128550Y0144471D03*
X0128668Y0144471D03*
X0128668Y0146125D03*
X0128550Y0146125D03*
X0128471Y0146125D03*
X0128196Y0146125D03*
X0128944Y0146125D03*
X0129062Y0146125D03*
X0129140Y0146125D03*
X0129416Y0146125D03*
X0129495Y0146125D03*
X0129613Y0146125D03*
X0127054Y0146125D03*
D17*
X0126778Y0146184D03*
X0209778Y0130546D03*
X0209778Y0128184D03*
X0209778Y0118184D03*
X0213107Y0102063D03*
X0209878Y0101000D03*
X0209878Y0089464D03*
X0209878Y0078283D03*
X0210823Y0075094D03*
D18*
X0209878Y0076334D03*
X0209878Y0091767D03*
X0210705Y0095862D03*
X0212044Y0104763D03*
X0212162Y0109133D03*
X0210823Y0109133D03*
X0209878Y0110196D03*
X0213007Y0129896D03*
D19*
X0212751Y0129955D03*
X0210016Y0108484D03*
X0210016Y0105531D03*
X0210016Y0095331D03*
X0210016Y0084031D03*
X0210961Y0076629D03*
D20*
X0212378Y0078106D03*
X0211433Y0084326D03*
X0210016Y0087633D03*
X0212378Y0090586D03*
D21*
X0210016Y0089405D03*
X0210016Y0091767D03*
X0211906Y0086807D03*
X0211906Y0083263D03*
X0210016Y0100941D03*
D22*
X0211099Y0101000D03*
X0210154Y0095331D03*
X0211217Y0095095D03*
X0210154Y0087692D03*
X0210154Y0084031D03*
X0211768Y0077929D03*
X0211217Y0076748D03*
X0211217Y0105295D03*
X0210154Y0105531D03*
X0209778Y0119955D03*
X0211196Y0129719D03*
X0210526Y0129955D03*
X0212613Y0129955D03*
D23*
X0212495Y0129955D03*
X0210233Y0105531D03*
X0210233Y0095331D03*
X0212713Y0095331D03*
X0212713Y0087692D03*
X0210233Y0087692D03*
X0210233Y0084031D03*
X0212713Y0084031D03*
X0210154Y0074385D03*
D24*
X0212713Y0074444D03*
X0210154Y0079996D03*
X0210351Y0084090D03*
X0210351Y0087633D03*
X0212595Y0087633D03*
X0212595Y0095272D03*
X0210351Y0095272D03*
X0210154Y0097752D03*
X0210351Y0105472D03*
X0212595Y0105472D03*
X0212713Y0108425D03*
X0210054Y0115172D03*
X0210054Y0125172D03*
X0211471Y0129778D03*
X0212416Y0129896D03*
X0127054Y0143172D03*
D25*
X0127723Y0144294D03*
X0128944Y0144294D03*
X0127133Y0146066D03*
X0210133Y0128066D03*
X0210723Y0129483D03*
X0210723Y0126294D03*
X0211944Y0126294D03*
X0210999Y0120310D03*
X0211117Y0120192D03*
X0211196Y0120192D03*
X0211471Y0120073D03*
X0211550Y0119955D03*
X0212062Y0119719D03*
X0210133Y0118066D03*
X0210723Y0116294D03*
X0211944Y0116294D03*
X0210823Y0107421D03*
X0211099Y0107303D03*
X0212240Y0104822D03*
X0212516Y0102063D03*
X0212595Y0102063D03*
X0211571Y0101591D03*
X0211296Y0101473D03*
X0210351Y0101000D03*
X0211650Y0100292D03*
X0212516Y0099937D03*
X0212713Y0099819D03*
X0212044Y0098874D03*
X0211099Y0098992D03*
X0210823Y0098874D03*
X0212240Y0096040D03*
X0212240Y0094622D03*
X0210626Y0094740D03*
X0209878Y0095331D03*
X0210705Y0091590D03*
X0211217Y0091354D03*
X0211650Y0090055D03*
X0211217Y0089818D03*
X0210705Y0089582D03*
X0210626Y0089582D03*
X0210351Y0089464D03*
X0210823Y0088401D03*
X0212240Y0088401D03*
X0212240Y0086984D03*
X0212162Y0086866D03*
X0212162Y0084858D03*
X0212044Y0084858D03*
X0212240Y0084740D03*
X0212240Y0083322D03*
X0211571Y0081354D03*
X0212044Y0081236D03*
X0210823Y0081118D03*
X0212713Y0078283D03*
X0211571Y0077338D03*
X0210233Y0076393D03*
X0209878Y0074385D03*
X0210823Y0073440D03*
D26*
X0210488Y0084031D03*
X0210488Y0087692D03*
X0212378Y0110846D03*
X0212278Y0129955D03*
D27*
X0211806Y0130546D03*
X0211806Y0129247D03*
X0211806Y0126412D03*
X0211333Y0120073D03*
X0211806Y0119837D03*
X0211806Y0116412D03*
X0211906Y0107303D03*
X0211906Y0106240D03*
X0210961Y0104822D03*
X0211433Y0100410D03*
X0210961Y0098992D03*
X0211906Y0098992D03*
X0211906Y0096040D03*
X0210488Y0091708D03*
X0210961Y0091472D03*
X0211433Y0091236D03*
X0211433Y0089936D03*
X0210961Y0089700D03*
X0210488Y0089464D03*
X0210961Y0088283D03*
X0210961Y0084740D03*
X0211433Y0081354D03*
X0210961Y0081236D03*
X0211906Y0081236D03*
X0211906Y0073322D03*
X0210961Y0073322D03*
X0128806Y0144412D03*
D28*
X0129495Y0143290D03*
X0127251Y0143290D03*
X0210251Y0125290D03*
X0212495Y0125290D03*
X0210251Y0119896D03*
X0210133Y0119896D03*
X0210054Y0119896D03*
X0210251Y0115290D03*
X0212495Y0115290D03*
X0212516Y0110905D03*
X0212595Y0110905D03*
X0212713Y0110905D03*
X0212595Y0108425D03*
X0210351Y0108425D03*
X0212516Y0105472D03*
X0212595Y0097870D03*
X0210351Y0097870D03*
X0212516Y0095272D03*
X0212516Y0087633D03*
X0212516Y0084090D03*
X0210626Y0084090D03*
X0210233Y0080114D03*
X0212595Y0080114D03*
X0212595Y0074444D03*
D29*
X0210233Y0074385D03*
X0212713Y0080055D03*
X0212595Y0084031D03*
X0210626Y0087692D03*
X0210233Y0097811D03*
X0212713Y0097811D03*
X0210233Y0108484D03*
X0212988Y0110964D03*
X0212613Y0115231D03*
X0210133Y0115231D03*
X0210526Y0119955D03*
X0210133Y0125231D03*
X0212613Y0125231D03*
X0211668Y0129837D03*
X0211550Y0129837D03*
X0129613Y0143231D03*
X0127133Y0143231D03*
D30*
X0129888Y0146125D03*
X0212888Y0128125D03*
X0212888Y0118125D03*
X0212162Y0104763D03*
X0212988Y0102122D03*
X0212988Y0090586D03*
X0213107Y0087633D03*
X0212988Y0085862D03*
X0212240Y0085862D03*
X0210823Y0083381D03*
X0212988Y0076334D03*
X0213107Y0074444D03*
X0210705Y0075035D03*
D31*
X0210154Y0078283D03*
X0212988Y0078283D03*
X0213107Y0084031D03*
X0212044Y0086866D03*
X0210823Y0086984D03*
X0212162Y0094622D03*
X0210626Y0095803D03*
X0210154Y0101000D03*
X0210626Y0106003D03*
X0209878Y0108484D03*
X0210705Y0109074D03*
X0212495Y0119601D03*
X0212613Y0119601D03*
X0212888Y0119601D03*
X0212140Y0129247D03*
D32*
X0210961Y0086984D03*
X0210961Y0083440D03*
D33*
X0211217Y0084385D03*
X0211099Y0084503D03*
X0211571Y0084385D03*
X0211650Y0084503D03*
X0211650Y0088047D03*
X0211099Y0088047D03*
X0212162Y0078047D03*
X0210823Y0076629D03*
X0211650Y0074976D03*
X0210823Y0101000D03*
X0210999Y0117829D03*
X0210605Y0117829D03*
X0210605Y0127829D03*
X0210999Y0127829D03*
X0211117Y0129601D03*
X0210133Y0130192D03*
X0127999Y0145829D03*
X0127605Y0145829D03*
D34*
X0127526Y0145888D03*
X0128117Y0145888D03*
X0210054Y0130251D03*
X0210526Y0127888D03*
X0211117Y0127888D03*
X0211117Y0117888D03*
X0210526Y0117888D03*
X0212988Y0108425D03*
X0211768Y0105944D03*
X0210705Y0100941D03*
X0211768Y0095862D03*
X0212240Y0090586D03*
X0211768Y0088224D03*
X0211571Y0087988D03*
X0211217Y0087988D03*
X0212988Y0087633D03*
X0211768Y0084562D03*
X0211296Y0084326D03*
X0212988Y0084090D03*
X0212240Y0078106D03*
X0210705Y0076570D03*
X0211217Y0074917D03*
X0211296Y0074917D03*
X0211768Y0075035D03*
X0212988Y0074444D03*
X0212240Y0073618D03*
D35*
X0210626Y0076511D03*
X0212516Y0078165D03*
X0209878Y0079818D03*
X0210705Y0080999D03*
X0211296Y0087929D03*
X0211099Y0094859D03*
X0212988Y0095331D03*
X0209878Y0097575D03*
X0210705Y0098756D03*
X0210626Y0101000D03*
X0211099Y0105059D03*
X0212988Y0105531D03*
X0212240Y0107657D03*
X0210705Y0107539D03*
X0210605Y0116176D03*
X0210605Y0126176D03*
X0127605Y0144176D03*
D36*
X0127388Y0145948D03*
X0210388Y0127948D03*
X0210388Y0117948D03*
X0211433Y0087929D03*
D37*
X0211906Y0088460D03*
X0212851Y0090586D03*
X0210961Y0094681D03*
X0210961Y0097162D03*
X0211433Y0097162D03*
X0211906Y0097162D03*
X0211433Y0099051D03*
X0211433Y0101532D03*
X0212851Y0102122D03*
X0211433Y0107244D03*
X0210961Y0107362D03*
X0210961Y0110196D03*
X0211433Y0110196D03*
X0211906Y0110196D03*
X0210488Y0110196D03*
X0210861Y0114581D03*
X0211333Y0114581D03*
X0211806Y0114581D03*
X0211333Y0116471D03*
X0210861Y0116353D03*
X0211333Y0118125D03*
X0211806Y0118125D03*
X0212278Y0118125D03*
X0212278Y0119660D03*
X0210861Y0120369D03*
X0210861Y0124581D03*
X0211333Y0124581D03*
X0211806Y0124581D03*
X0211333Y0126471D03*
X0210861Y0126353D03*
X0211333Y0128125D03*
X0211806Y0128125D03*
X0212278Y0128125D03*
X0210861Y0129424D03*
X0212378Y0085862D03*
X0212851Y0085862D03*
X0211906Y0084799D03*
X0211906Y0079405D03*
X0211433Y0079405D03*
X0210961Y0079405D03*
X0210961Y0078342D03*
X0211433Y0078342D03*
X0210488Y0078342D03*
X0212851Y0078224D03*
X0212851Y0076334D03*
X0212378Y0076334D03*
X0211906Y0076334D03*
X0211906Y0075271D03*
X0211433Y0073263D03*
X0128806Y0142581D03*
X0128333Y0142581D03*
X0127861Y0142581D03*
X0127861Y0144353D03*
X0128333Y0144471D03*
X0128333Y0146125D03*
X0128806Y0146125D03*
X0129278Y0146125D03*
D38*
X0126916Y0143054D03*
X0209916Y0125054D03*
X0209916Y0115054D03*
X0210016Y0097634D03*
X0211433Y0095390D03*
X0211906Y0090586D03*
X0211433Y0076807D03*
X0212851Y0074444D03*
D39*
X0211571Y0074917D03*
X0211099Y0076688D03*
X0212044Y0077988D03*
X0212988Y0079877D03*
X0212162Y0090586D03*
X0212044Y0090586D03*
X0211650Y0095626D03*
X0212988Y0097634D03*
X0211650Y0105826D03*
X0212888Y0115054D03*
X0210723Y0117770D03*
X0212888Y0125054D03*
X0210723Y0127770D03*
X0210251Y0130133D03*
X0129888Y0143054D03*
X0127723Y0145770D03*
D40*
X0127388Y0143349D03*
X0210388Y0125349D03*
X0210388Y0115349D03*
X0210488Y0108366D03*
X0210488Y0097929D03*
X0212378Y0087692D03*
X0212378Y0084031D03*
X0210488Y0074267D03*
D41*
X0210705Y0073499D03*
X0212162Y0073499D03*
X0212240Y0075153D03*
X0210351Y0076452D03*
X0212595Y0078224D03*
X0212162Y0081059D03*
X0212516Y0090586D03*
X0212595Y0090586D03*
X0212162Y0098815D03*
X0210626Y0104881D03*
X0212162Y0107480D03*
X0209778Y0114936D03*
X0212062Y0116235D03*
X0210251Y0118007D03*
X0209778Y0124936D03*
X0212062Y0126235D03*
X0210251Y0128007D03*
X0210605Y0129660D03*
X0212888Y0129896D03*
X0129062Y0144235D03*
X0127251Y0146007D03*
X0126778Y0142936D03*
D42*
X0210388Y0130073D03*
X0212851Y0108484D03*
X0212851Y0095331D03*
X0212851Y0087692D03*
X0212851Y0084031D03*
X0211906Y0077929D03*
D43*
X0199286Y0067938D03*
X0197042Y0065773D03*
X0195270Y0065773D03*
X0192436Y0067938D03*
X0153669Y0067350D03*
X0153551Y0067271D03*
X0153669Y0066996D03*
X0151188Y0067350D03*
X0151188Y0067940D03*
X0137597Y0088613D03*
X0133986Y0095888D03*
X0133936Y0108888D03*
X0137361Y0115778D03*
X0137833Y0116999D03*
X0137597Y0117471D03*
X0134054Y0118888D03*
X0137007Y0126605D03*
X0137479Y0126999D03*
X0170494Y0131978D03*
X0198194Y0132028D03*
X0200675Y0134194D03*
X0200675Y0134312D03*
X0202092Y0132855D03*
X0202092Y0132776D03*
X0183054Y0114888D03*
X0189077Y0112999D03*
D44*
X0133581Y0076605D03*
X0133581Y0076723D03*
X0133581Y0076999D03*
X0133581Y0077117D03*
X0133581Y0077196D03*
X0133581Y0077471D03*
X0133581Y0077550D03*
X0133581Y0077668D03*
X0133581Y0077944D03*
X0133581Y0078062D03*
X0135471Y0077668D03*
X0135471Y0077550D03*
X0135471Y0076999D03*
X0137007Y0076605D03*
X0137007Y0076526D03*
X0136888Y0076251D03*
X0136888Y0076172D03*
X0136888Y0076054D03*
X0137243Y0077117D03*
X0137597Y0077668D03*
X0137715Y0077944D03*
X0137833Y0078062D03*
X0137833Y0086526D03*
X0137951Y0086605D03*
X0137951Y0086723D03*
X0136534Y0086723D03*
X0136534Y0086605D03*
X0136534Y0086526D03*
X0136652Y0087668D03*
X0135471Y0087668D03*
X0135471Y0087550D03*
X0135471Y0087471D03*
X0135471Y0087117D03*
X0135471Y0086999D03*
X0133581Y0086999D03*
X0133581Y0087117D03*
X0133581Y0087196D03*
X0133581Y0087471D03*
X0133581Y0087550D03*
X0133581Y0087668D03*
X0133581Y0087944D03*
X0133581Y0088062D03*
X0133581Y0086723D03*
X0133581Y0086605D03*
X0133513Y0093605D03*
X0133513Y0093723D03*
X0133513Y0093999D03*
X0133513Y0094117D03*
X0133513Y0094196D03*
X0133513Y0094471D03*
X0133513Y0094550D03*
X0133513Y0094668D03*
X0133513Y0094944D03*
X0133513Y0095062D03*
X0135521Y0094550D03*
X0135521Y0094471D03*
X0135521Y0094196D03*
X0135521Y0094117D03*
X0136584Y0094944D03*
X0136584Y0095062D03*
X0137765Y0093723D03*
X0137765Y0093605D03*
X0137951Y0106054D03*
X0137951Y0106172D03*
X0137951Y0106251D03*
X0137951Y0106526D03*
X0137951Y0107471D03*
X0137951Y0107550D03*
X0137951Y0107668D03*
X0137951Y0107944D03*
X0137951Y0108062D03*
X0137951Y0108140D03*
X0137951Y0108416D03*
X0137951Y0108534D03*
X0137951Y0108613D03*
X0136770Y0108613D03*
X0136770Y0108534D03*
X0136652Y0108140D03*
X0136652Y0108062D03*
X0136534Y0107668D03*
X0136534Y0107550D03*
X0135471Y0107550D03*
X0135471Y0107471D03*
X0135471Y0107196D03*
X0135471Y0107117D03*
X0133463Y0107117D03*
X0133463Y0107196D03*
X0133463Y0106999D03*
X0133463Y0106723D03*
X0133463Y0106605D03*
X0133463Y0107471D03*
X0133463Y0107550D03*
X0133463Y0107668D03*
X0133463Y0107944D03*
X0133463Y0108062D03*
X0133581Y0116605D03*
X0133581Y0116723D03*
X0133581Y0116999D03*
X0133581Y0117117D03*
X0133581Y0117196D03*
X0133581Y0117471D03*
X0133581Y0117550D03*
X0133581Y0117668D03*
X0133581Y0117944D03*
X0133581Y0118062D03*
X0135471Y0117668D03*
X0135589Y0117471D03*
X0135589Y0117196D03*
X0135589Y0117117D03*
X0135471Y0116999D03*
X0136534Y0116723D03*
X0136534Y0116605D03*
X0136652Y0118062D03*
X0137361Y0118888D03*
X0138070Y0118062D03*
X0138070Y0117944D03*
X0133581Y0126605D03*
X0133581Y0126723D03*
X0133581Y0126999D03*
X0133581Y0127117D03*
X0133581Y0127196D03*
X0133581Y0127471D03*
X0133581Y0127550D03*
X0133581Y0127668D03*
X0133581Y0127944D03*
X0133581Y0128062D03*
X0135471Y0127668D03*
X0135471Y0127550D03*
X0135471Y0126999D03*
X0136534Y0127550D03*
X0136534Y0127668D03*
X0136534Y0127944D03*
X0138070Y0127944D03*
X0138070Y0127668D03*
X0138070Y0127550D03*
X0169313Y0133199D03*
X0169313Y0133317D03*
X0169313Y0133396D03*
X0169313Y0133671D03*
X0169313Y0133750D03*
X0169431Y0133868D03*
X0170494Y0135088D03*
X0171557Y0133868D03*
X0171675Y0133750D03*
X0171675Y0133671D03*
X0171675Y0133396D03*
X0171675Y0133317D03*
X0172738Y0132923D03*
X0172738Y0132805D03*
X0172738Y0132726D03*
X0172738Y0132451D03*
X0172738Y0132372D03*
X0172738Y0132254D03*
X0172738Y0134144D03*
X0172738Y0134262D03*
X0175455Y0134262D03*
X0175455Y0134144D03*
X0175455Y0132923D03*
X0175455Y0132805D03*
X0175455Y0132726D03*
X0175455Y0132451D03*
X0175455Y0132372D03*
X0175455Y0132254D03*
X0197013Y0133249D03*
X0197013Y0133367D03*
X0197013Y0133446D03*
X0197013Y0133721D03*
X0197013Y0133800D03*
X0197131Y0133918D03*
X0198194Y0135138D03*
X0199257Y0133918D03*
X0199375Y0133800D03*
X0199375Y0133721D03*
X0199375Y0133446D03*
X0199375Y0133367D03*
X0200438Y0133367D03*
X0200438Y0133446D03*
X0200438Y0133249D03*
X0200438Y0132973D03*
X0200438Y0132855D03*
X0200438Y0132776D03*
X0200438Y0132501D03*
X0200438Y0132422D03*
X0200438Y0132304D03*
X0202328Y0133721D03*
X0202328Y0133800D03*
X0202328Y0133918D03*
X0202328Y0134194D03*
X0202328Y0134312D03*
X0202328Y0134390D03*
X0202328Y0134666D03*
X0202328Y0134784D03*
X0202328Y0134863D03*
X0200438Y0134863D03*
X0194156Y0114140D03*
X0194156Y0114062D03*
X0194156Y0113944D03*
X0194156Y0113668D03*
X0194156Y0113550D03*
X0194156Y0113471D03*
X0194156Y0113196D03*
X0194156Y0113117D03*
X0194156Y0112999D03*
X0194156Y0112723D03*
X0194156Y0112605D03*
X0194156Y0112526D03*
X0194156Y0112251D03*
X0194156Y0112172D03*
X0194156Y0112054D03*
X0190377Y0112605D03*
X0190377Y0112723D03*
X0189432Y0112723D03*
X0189432Y0112605D03*
X0189314Y0112526D03*
X0190377Y0113944D03*
X0190377Y0114062D03*
X0188605Y0114888D03*
X0187896Y0114062D03*
X0187896Y0113944D03*
X0185180Y0113944D03*
X0185180Y0114062D03*
X0184235Y0113668D03*
X0184235Y0113550D03*
X0184117Y0113471D03*
X0184117Y0112251D03*
X0184235Y0112054D03*
X0185180Y0112605D03*
X0185180Y0112723D03*
X0182581Y0112526D03*
X0182581Y0112251D03*
X0182581Y0112172D03*
X0182581Y0112054D03*
X0182581Y0113471D03*
X0182581Y0113550D03*
X0182581Y0113668D03*
X0182581Y0113944D03*
X0182581Y0114062D03*
X0194444Y0067663D03*
X0194444Y0067584D03*
X0194562Y0067466D03*
X0194562Y0067190D03*
X0194680Y0067112D03*
X0194680Y0066994D03*
X0194798Y0066718D03*
X0194798Y0066600D03*
X0194798Y0066521D03*
X0193617Y0066600D03*
X0193617Y0066718D03*
X0193617Y0066994D03*
X0191963Y0066994D03*
X0191963Y0067112D03*
X0191963Y0066718D03*
X0191963Y0066600D03*
X0191963Y0066521D03*
X0191963Y0065576D03*
X0191963Y0065301D03*
X0191963Y0065222D03*
X0191963Y0065104D03*
X0197514Y0066521D03*
X0197514Y0066600D03*
X0197514Y0066718D03*
X0197633Y0066994D03*
X0197633Y0067112D03*
X0197751Y0067190D03*
X0197751Y0067466D03*
X0197869Y0067663D03*
X0198814Y0067112D03*
X0198814Y0066994D03*
X0198814Y0066718D03*
X0198814Y0066600D03*
X0198814Y0066521D03*
X0198814Y0065576D03*
X0198814Y0065301D03*
X0198814Y0065222D03*
X0198814Y0065104D03*
X0200349Y0065576D03*
X0200467Y0065222D03*
X0200467Y0065104D03*
X0200467Y0066600D03*
X0200467Y0066718D03*
X0200467Y0066994D03*
X0196097Y0067584D03*
X0154141Y0066523D03*
X0154141Y0066405D03*
X0154023Y0066326D03*
X0154023Y0067744D03*
X0154023Y0067862D03*
X0153314Y0068688D03*
X0152606Y0067862D03*
X0152488Y0066523D03*
X0152488Y0066405D03*
X0149771Y0066799D03*
X0149771Y0066917D03*
X0149771Y0066996D03*
X0149771Y0067271D03*
X0149771Y0067350D03*
X0149771Y0067468D03*
X0147881Y0067468D03*
X0147881Y0067350D03*
X0147881Y0067271D03*
X0147881Y0066996D03*
X0147881Y0066917D03*
X0147881Y0066799D03*
X0147881Y0066523D03*
X0147881Y0066405D03*
X0147881Y0067744D03*
X0147881Y0067862D03*
D45*
X0148354Y0068551D03*
X0137361Y0088278D03*
X0137175Y0095278D03*
X0134104Y0095751D03*
X0134054Y0108751D03*
X0134172Y0118751D03*
X0170494Y0132116D03*
X0198194Y0132166D03*
X0200911Y0133583D03*
X0183054Y0114751D03*
X0192554Y0067801D03*
X0199404Y0067801D03*
D46*
X0196983Y0065911D03*
X0195329Y0065911D03*
X0137184Y0085916D03*
X0188664Y0114751D03*
X0200734Y0134056D03*
X0198135Y0135001D03*
X0170435Y0134951D03*
X0137302Y0126861D03*
X0137302Y0118751D03*
D47*
X0137302Y0116172D03*
X0134231Y0116054D03*
X0134231Y0118613D03*
X0134231Y0126054D03*
X0137302Y0128140D03*
X0134113Y0108613D03*
X0137302Y0106605D03*
X0134163Y0095613D03*
X0137184Y0087117D03*
X0137184Y0086999D03*
X0134231Y0086054D03*
X0137184Y0078140D03*
X0134231Y0076054D03*
X0148531Y0068334D03*
X0148531Y0065854D03*
X0192613Y0067663D03*
X0199463Y0067584D03*
X0183231Y0112999D03*
X0183231Y0114534D03*
X0185829Y0113471D03*
X0185829Y0113196D03*
X0186066Y0114888D03*
X0191026Y0113471D03*
X0191026Y0113196D03*
X0191262Y0114888D03*
D48*
X0188664Y0114613D03*
X0188428Y0113550D03*
X0200852Y0133721D03*
X0200852Y0133800D03*
X0201915Y0133367D03*
X0201915Y0133249D03*
X0137302Y0118613D03*
X0134113Y0115778D03*
X0133995Y0105778D03*
X0136998Y0094550D03*
X0134045Y0092778D03*
X0137420Y0088416D03*
X0137302Y0088140D03*
X0137184Y0086054D03*
X0137184Y0078888D03*
X0192377Y0065655D03*
D49*
X0192672Y0066049D03*
X0192672Y0067584D03*
X0199522Y0067466D03*
X0199522Y0066049D03*
X0199522Y0065773D03*
X0153314Y0066051D03*
X0153314Y0067940D03*
X0148590Y0068216D03*
X0148590Y0065972D03*
X0134290Y0076172D03*
X0134290Y0078534D03*
X0134290Y0086172D03*
X0134290Y0088534D03*
X0134222Y0093054D03*
X0134222Y0095534D03*
X0134172Y0106054D03*
X0134172Y0108534D03*
X0134290Y0116172D03*
X0134290Y0118534D03*
X0137361Y0118140D03*
X0137361Y0116251D03*
X0137361Y0125778D03*
X0134290Y0126172D03*
X0134290Y0128534D03*
X0170494Y0132372D03*
X0170494Y0134616D03*
X0198194Y0134666D03*
X0198194Y0132422D03*
X0183290Y0114416D03*
X0183290Y0113117D03*
X0183290Y0112723D03*
X0183290Y0112605D03*
X0188605Y0112251D03*
D50*
X0188664Y0114534D03*
X0190908Y0113668D03*
X0185711Y0113668D03*
X0175986Y0133199D03*
X0175986Y0133750D03*
X0173270Y0133750D03*
X0173270Y0133199D03*
X0137302Y0128416D03*
X0137302Y0118534D03*
X0137302Y0116054D03*
X0137234Y0095613D03*
X0137234Y0095534D03*
X0137234Y0095416D03*
X0137116Y0095140D03*
X0137184Y0086172D03*
X0153255Y0065854D03*
D51*
X0148649Y0066051D03*
X0134349Y0076251D03*
X0134349Y0078416D03*
X0137184Y0078416D03*
X0137184Y0078534D03*
X0137184Y0078613D03*
X0134349Y0086251D03*
X0134349Y0088416D03*
X0134281Y0093172D03*
X0134281Y0095416D03*
X0134231Y0106172D03*
X0134231Y0108416D03*
X0137184Y0107196D03*
X0137184Y0107117D03*
X0137184Y0106999D03*
X0137184Y0106723D03*
X0134349Y0116251D03*
X0134349Y0118416D03*
X0134349Y0126251D03*
X0134349Y0128416D03*
X0173506Y0134340D03*
X0176223Y0134340D03*
X0183349Y0114140D03*
X0183349Y0113196D03*
X0185948Y0112526D03*
X0186066Y0111778D03*
X0186066Y0114613D03*
X0191144Y0112526D03*
X0191262Y0111778D03*
X0191262Y0114613D03*
X0192731Y0067466D03*
X0192731Y0066246D03*
X0192731Y0066167D03*
X0199581Y0066167D03*
X0199581Y0066246D03*
X0199581Y0065655D03*
X0199581Y0067190D03*
D52*
X0199404Y0067663D03*
X0192554Y0065773D03*
X0153314Y0065972D03*
X0153314Y0068216D03*
X0148472Y0068413D03*
X0134172Y0078613D03*
X0137243Y0086251D03*
X0137125Y0087196D03*
X0134172Y0088613D03*
X0137057Y0093172D03*
X0137057Y0093251D03*
X0137175Y0094117D03*
X0137057Y0094196D03*
X0137361Y0118416D03*
X0137243Y0126526D03*
X0134172Y0128613D03*
X0170494Y0132254D03*
X0170494Y0134734D03*
X0173329Y0133671D03*
X0173329Y0133396D03*
X0173329Y0133317D03*
X0173565Y0135088D03*
X0176282Y0135088D03*
X0176046Y0133671D03*
X0176046Y0133396D03*
X0176046Y0133317D03*
X0198194Y0132304D03*
X0198194Y0134784D03*
X0190967Y0113550D03*
X0190967Y0113117D03*
X0190967Y0112999D03*
X0188605Y0112172D03*
X0188605Y0114416D03*
X0185770Y0113550D03*
X0185770Y0113117D03*
X0185770Y0112999D03*
X0183172Y0114613D03*
D53*
X0186007Y0114278D03*
X0186007Y0112388D03*
X0191203Y0112388D03*
X0191203Y0114278D03*
X0198194Y0134528D03*
X0176282Y0134478D03*
X0173565Y0134478D03*
X0170494Y0134478D03*
X0134408Y0128278D03*
X0134408Y0126388D03*
X0134408Y0118278D03*
X0134408Y0116388D03*
X0134290Y0108278D03*
X0134290Y0106388D03*
X0134340Y0095278D03*
X0134340Y0093388D03*
X0134408Y0088278D03*
X0134408Y0086388D03*
X0134408Y0078278D03*
X0134408Y0076388D03*
X0148708Y0066188D03*
X0192790Y0066383D03*
X0199640Y0066383D03*
D54*
X0192613Y0065911D03*
X0137184Y0078751D03*
X0137184Y0086388D03*
X0137116Y0093388D03*
X0137302Y0118278D03*
X0137302Y0128278D03*
X0183231Y0112861D03*
X0185829Y0113333D03*
X0191026Y0113333D03*
D55*
X0191262Y0114416D03*
X0191262Y0112172D03*
X0191262Y0112054D03*
X0186066Y0112054D03*
X0186066Y0112172D03*
X0186066Y0114416D03*
X0186066Y0114534D03*
X0134467Y0116526D03*
X0134467Y0118140D03*
X0134467Y0126526D03*
X0134349Y0108140D03*
X0134349Y0106526D03*
X0134399Y0095140D03*
X0134399Y0093526D03*
X0134467Y0086526D03*
X0134467Y0076526D03*
D56*
X0135176Y0078062D03*
X0137184Y0085778D03*
X0136948Y0088062D03*
X0135176Y0088062D03*
X0133995Y0088888D03*
X0137116Y0092778D03*
X0135108Y0095062D03*
X0135058Y0108062D03*
X0135176Y0118062D03*
X0137656Y0127117D03*
X0137774Y0127196D03*
X0135176Y0128062D03*
X0169727Y0132726D03*
X0171262Y0132726D03*
X0197427Y0132776D03*
X0198962Y0132776D03*
X0200616Y0134390D03*
X0188192Y0113668D03*
X0188664Y0111778D03*
X0149476Y0067862D03*
X0153255Y0065578D03*
X0195329Y0065576D03*
X0195329Y0065655D03*
X0196156Y0066994D03*
X0196156Y0067112D03*
X0196983Y0065655D03*
X0196983Y0065576D03*
D57*
X0196097Y0067190D03*
X0200349Y0067112D03*
X0151307Y0068216D03*
X0149535Y0066405D03*
X0148236Y0068688D03*
X0135235Y0086605D03*
X0136770Y0087944D03*
X0135285Y0093605D03*
X0135285Y0094944D03*
X0135235Y0106605D03*
X0135235Y0107944D03*
X0135235Y0116605D03*
X0135353Y0117944D03*
X0169549Y0132805D03*
X0169668Y0134262D03*
X0171321Y0134262D03*
X0171439Y0132805D03*
X0197249Y0132855D03*
X0197368Y0134312D03*
X0199021Y0134312D03*
X0199139Y0132855D03*
X0202210Y0132501D03*
X0188014Y0114140D03*
D58*
X0187896Y0112605D03*
X0194156Y0111778D03*
X0182581Y0111778D03*
X0175455Y0131978D03*
X0172738Y0131978D03*
X0170494Y0131860D03*
X0198194Y0131910D03*
X0202328Y0132028D03*
X0136534Y0127471D03*
X0136652Y0117944D03*
X0137951Y0105778D03*
X0137057Y0092660D03*
X0137243Y0085660D03*
X0136888Y0075778D03*
X0191963Y0064828D03*
X0198814Y0064828D03*
X0200467Y0064828D03*
D59*
X0200349Y0065438D03*
X0200467Y0066856D03*
X0198814Y0066856D03*
X0197751Y0067328D03*
X0197633Y0066856D03*
X0198814Y0065438D03*
X0198814Y0064966D03*
X0194680Y0066856D03*
X0194562Y0067328D03*
X0193617Y0066856D03*
X0191963Y0066856D03*
X0191963Y0065438D03*
X0154023Y0067606D03*
X0149771Y0067133D03*
X0149653Y0067606D03*
X0147881Y0067606D03*
X0147881Y0067133D03*
X0147881Y0066661D03*
X0136888Y0075916D03*
X0136888Y0076388D03*
X0137125Y0076861D03*
X0135589Y0077333D03*
X0135471Y0076861D03*
X0133581Y0076861D03*
X0133581Y0077333D03*
X0133581Y0077806D03*
X0133581Y0086861D03*
X0133581Y0087333D03*
X0133581Y0087806D03*
X0137833Y0086861D03*
X0137765Y0093861D03*
X0135521Y0094333D03*
X0135403Y0093861D03*
X0135403Y0094806D03*
X0133513Y0094806D03*
X0133513Y0094333D03*
X0133513Y0093861D03*
X0133463Y0106861D03*
X0133463Y0107333D03*
X0133463Y0107806D03*
X0135353Y0107806D03*
X0135471Y0107333D03*
X0135353Y0106861D03*
X0136534Y0107806D03*
X0136652Y0108278D03*
X0137951Y0108278D03*
X0137951Y0107806D03*
X0137951Y0106388D03*
X0138070Y0116861D03*
X0135589Y0117333D03*
X0135471Y0116861D03*
X0133581Y0116861D03*
X0133581Y0117333D03*
X0133581Y0117806D03*
X0133581Y0126861D03*
X0133581Y0127333D03*
X0133581Y0127806D03*
X0135589Y0127333D03*
X0135471Y0126861D03*
X0136534Y0127806D03*
X0138070Y0127806D03*
X0169313Y0133533D03*
X0169431Y0133061D03*
X0169431Y0134006D03*
X0171557Y0134006D03*
X0171675Y0133533D03*
X0171557Y0133061D03*
X0172738Y0133061D03*
X0172738Y0132588D03*
X0172738Y0134006D03*
X0175455Y0134006D03*
X0175455Y0133061D03*
X0175455Y0132588D03*
X0197013Y0133583D03*
X0197131Y0133111D03*
X0197131Y0134056D03*
X0199257Y0134056D03*
X0199375Y0133583D03*
X0199257Y0133111D03*
X0200438Y0133111D03*
X0200438Y0132638D03*
X0202328Y0132166D03*
X0202328Y0133583D03*
X0202328Y0134056D03*
X0202328Y0134528D03*
X0194156Y0113806D03*
X0194156Y0113333D03*
X0194156Y0112861D03*
X0194156Y0112388D03*
X0194156Y0111916D03*
X0190377Y0112861D03*
X0190377Y0113806D03*
X0185180Y0113806D03*
X0184235Y0113806D03*
X0185180Y0112861D03*
X0184235Y0111916D03*
X0182581Y0112388D03*
X0182581Y0113806D03*
D60*
X0184058Y0112388D03*
X0187955Y0113806D03*
X0189373Y0112861D03*
X0138010Y0117806D03*
X0135412Y0117806D03*
X0137892Y0127333D03*
X0135412Y0127806D03*
X0135412Y0087806D03*
X0135530Y0087333D03*
X0135412Y0086861D03*
X0136593Y0086861D03*
X0136711Y0087806D03*
X0137656Y0077806D03*
X0137420Y0077333D03*
X0135412Y0077806D03*
X0149712Y0066661D03*
X0154082Y0066661D03*
X0196156Y0067328D03*
X0196983Y0065438D03*
D61*
X0152665Y0067606D03*
X0136711Y0117806D03*
D62*
X0137656Y0117550D03*
X0137774Y0117668D03*
X0137656Y0117196D03*
X0137774Y0117117D03*
X0137184Y0126723D03*
X0137234Y0095888D03*
X0136879Y0094668D03*
X0151129Y0067862D03*
X0151129Y0067468D03*
X0153728Y0067468D03*
X0153728Y0066917D03*
X0195329Y0066049D03*
X0196156Y0066600D03*
X0196156Y0066718D03*
X0196983Y0066049D03*
X0202033Y0132973D03*
D63*
X0202269Y0132422D03*
X0202269Y0132304D03*
X0200498Y0134666D03*
X0200498Y0134784D03*
X0199198Y0134194D03*
X0199316Y0133249D03*
X0199198Y0132973D03*
X0197190Y0132973D03*
X0197190Y0134194D03*
X0171616Y0133199D03*
X0171498Y0132923D03*
X0171498Y0134144D03*
X0169490Y0134144D03*
X0169490Y0132923D03*
X0184058Y0114062D03*
X0184176Y0113944D03*
X0184058Y0112526D03*
X0184176Y0112172D03*
X0187955Y0112526D03*
X0138129Y0116605D03*
X0138129Y0116723D03*
X0138010Y0116526D03*
X0136593Y0116526D03*
X0135412Y0116723D03*
X0135530Y0117550D03*
X0135294Y0126605D03*
X0135412Y0126723D03*
X0135294Y0127944D03*
X0136593Y0128062D03*
X0138010Y0128062D03*
X0138010Y0127471D03*
X0133995Y0128888D03*
X0136711Y0108416D03*
X0136593Y0107944D03*
X0136475Y0107471D03*
X0135412Y0107668D03*
X0135412Y0106999D03*
X0135294Y0106723D03*
X0135462Y0094668D03*
X0135462Y0093999D03*
X0135344Y0093723D03*
X0137706Y0093526D03*
X0137706Y0093999D03*
X0135294Y0087944D03*
X0135530Y0087196D03*
X0135412Y0086723D03*
X0133995Y0078888D03*
X0135294Y0077944D03*
X0135412Y0076723D03*
X0135294Y0076605D03*
X0137066Y0076723D03*
X0137184Y0076999D03*
X0137302Y0077196D03*
X0137420Y0077471D03*
X0137538Y0077550D03*
X0149594Y0067744D03*
X0149594Y0066523D03*
X0151366Y0068334D03*
X0152547Y0066326D03*
X0153964Y0066799D03*
X0193558Y0066521D03*
X0193558Y0067112D03*
X0195329Y0065301D03*
X0195329Y0065222D03*
X0196983Y0065222D03*
X0196983Y0065301D03*
X0200408Y0065301D03*
X0200408Y0066521D03*
X0197810Y0067584D03*
X0196156Y0067466D03*
D64*
X0196097Y0066856D03*
X0153551Y0067133D03*
X0153314Y0068551D03*
X0137597Y0117333D03*
D65*
X0136534Y0116861D03*
X0151543Y0068551D03*
X0152488Y0066661D03*
X0196097Y0067801D03*
D66*
X0192731Y0067328D03*
X0199581Y0067328D03*
X0148649Y0068078D03*
X0137184Y0106861D03*
X0137184Y0107333D03*
X0137302Y0116388D03*
X0137420Y0125916D03*
X0173506Y0134951D03*
X0176223Y0134951D03*
X0183349Y0114278D03*
X0183349Y0113333D03*
X0186066Y0111916D03*
X0186066Y0114751D03*
X0191262Y0114751D03*
X0191262Y0111916D03*
D67*
X0188605Y0114278D03*
X0176046Y0133533D03*
X0173329Y0133533D03*
X0134172Y0115916D03*
X0134172Y0085916D03*
X0153314Y0068078D03*
D68*
X0134113Y0078751D03*
X0137234Y0095751D03*
X0137302Y0115916D03*
X0134113Y0128751D03*
D69*
X0135530Y0127471D03*
X0135530Y0127196D03*
X0135530Y0127117D03*
X0137302Y0128888D03*
X0137302Y0115660D03*
X0136643Y0093999D03*
X0136525Y0093526D03*
X0135530Y0077471D03*
X0135530Y0077196D03*
X0135530Y0077117D03*
X0151484Y0068413D03*
X0151484Y0067271D03*
X0151484Y0066996D03*
X0151484Y0066917D03*
X0151484Y0066799D03*
X0151484Y0066523D03*
X0151484Y0066405D03*
X0151484Y0066326D03*
X0151484Y0066051D03*
X0151484Y0065972D03*
X0151484Y0065854D03*
X0151484Y0065578D03*
X0152665Y0067744D03*
X0195329Y0065104D03*
X0196983Y0065104D03*
X0196156Y0067663D03*
X0189136Y0114140D03*
X0200379Y0132028D03*
D70*
X0202328Y0135138D03*
X0187896Y0112723D03*
X0136652Y0108888D03*
X0136466Y0093605D03*
X0153314Y0065460D03*
X0194562Y0067938D03*
X0197751Y0067938D03*
D71*
X0196983Y0064828D03*
X0195329Y0064828D03*
X0137774Y0088888D03*
X0137892Y0108888D03*
X0184176Y0111778D03*
X0188664Y0111660D03*
X0189136Y0114062D03*
D72*
X0182522Y0111916D03*
X0175396Y0132116D03*
X0172679Y0132116D03*
X0200379Y0132166D03*
X0200379Y0135001D03*
X0202387Y0135001D03*
X0137892Y0108751D03*
X0136711Y0108751D03*
X0137892Y0105916D03*
X0194503Y0067801D03*
X0197810Y0067801D03*
X0196983Y0064966D03*
X0195329Y0064966D03*
X0192022Y0064966D03*
X0200526Y0064966D03*
X0151484Y0065716D03*
X0151484Y0066188D03*
X0151484Y0066661D03*
X0151484Y0067133D03*
D73*
X0148708Y0066326D03*
X0148708Y0067940D03*
X0134408Y0078140D03*
X0134408Y0088140D03*
X0134340Y0093251D03*
X0134290Y0106251D03*
X0137361Y0126054D03*
X0137361Y0126172D03*
X0137361Y0126251D03*
X0134408Y0128140D03*
X0170494Y0132451D03*
X0173565Y0134616D03*
X0173565Y0134734D03*
X0173565Y0134813D03*
X0176282Y0134813D03*
X0176282Y0134734D03*
X0176282Y0134616D03*
X0198194Y0132501D03*
X0191203Y0114140D03*
X0191203Y0112251D03*
X0186007Y0112251D03*
X0186007Y0114140D03*
X0192790Y0067190D03*
D74*
X0148413Y0065716D03*
X0134113Y0075916D03*
X0137066Y0087333D03*
X0134113Y0088751D03*
X0134163Y0092916D03*
X0137116Y0094333D03*
X0134113Y0105916D03*
X0134113Y0125916D03*
X0188664Y0113333D03*
D75*
X0202151Y0132638D03*
X0137302Y0128751D03*
X0136761Y0094806D03*
X0151248Y0068078D03*
D76*
X0153314Y0068334D03*
X0137007Y0087471D03*
X0137057Y0093054D03*
X0137057Y0094471D03*
X0188605Y0112054D03*
X0188841Y0113196D03*
X0188605Y0113471D03*
X0198194Y0134863D03*
X0201856Y0133446D03*
X0175927Y0133868D03*
X0173211Y0133868D03*
X0170494Y0134813D03*
X0137243Y0128534D03*
D77*
X0136643Y0093861D03*
D78*
X0137057Y0092916D03*
X0151070Y0067606D03*
X0153314Y0065716D03*
X0188605Y0111916D03*
X0201974Y0133111D03*
D79*
X0200557Y0134528D03*
X0137597Y0088751D03*
X0195270Y0065438D03*
D80*
X0195270Y0066167D03*
X0196097Y0066521D03*
X0197042Y0066167D03*
X0153314Y0068413D03*
X0151070Y0067744D03*
X0148354Y0065578D03*
X0134054Y0075778D03*
X0134054Y0085778D03*
X0136888Y0087550D03*
X0137479Y0088534D03*
X0188959Y0113117D03*
X0200793Y0133918D03*
X0137243Y0128613D03*
X0134054Y0125778D03*
D81*
X0127861Y0145770D03*
X0210861Y0127770D03*
X0210861Y0117770D03*
X0212851Y0105472D03*
X0210961Y0100941D03*
X0211433Y0074917D03*
X0210016Y0074444D03*
D82*
X0210016Y0076275D03*
X0210016Y0078283D03*
X0212851Y0099819D03*
X0210016Y0110137D03*
X0209916Y0118184D03*
X0212751Y0118184D03*
X0212751Y0119601D03*
X0212751Y0128184D03*
X0209916Y0128184D03*
X0129751Y0146184D03*
X0126916Y0146184D03*
D83*
X0129751Y0143113D03*
X0211333Y0129719D03*
X0212751Y0125113D03*
X0212751Y0115113D03*
X0211433Y0105531D03*
X0212851Y0097693D03*
X0210016Y0079936D03*
D84*
X0210351Y0080173D03*
X0212516Y0080173D03*
X0210351Y0074385D03*
X0210626Y0074267D03*
X0212516Y0097929D03*
X0211768Y0101000D03*
X0212516Y0108366D03*
X0212416Y0115349D03*
X0212416Y0125349D03*
X0129416Y0143349D03*
D85*
X0209916Y0130369D03*
X0210488Y0100941D03*
X0210488Y0076452D03*
D86*
X0210488Y0080232D03*
X0212378Y0080232D03*
X0212378Y0097988D03*
X0211906Y0100941D03*
X0212378Y0108307D03*
X0212278Y0115408D03*
X0212278Y0125408D03*
X0129278Y0143408D03*
D87*
X0129140Y0143408D03*
X0127526Y0143408D03*
X0210526Y0125408D03*
X0212140Y0125408D03*
X0212140Y0115408D03*
X0210526Y0115408D03*
X0210626Y0108307D03*
X0210626Y0097988D03*
X0212240Y0097988D03*
X0210626Y0080232D03*
X0212516Y0074444D03*
D88*
X0211296Y0076807D03*
X0211650Y0077870D03*
X0211296Y0095272D03*
X0211571Y0095508D03*
X0211217Y0100941D03*
X0211296Y0105472D03*
X0211571Y0105708D03*
X0212713Y0105472D03*
X0210154Y0108425D03*
D89*
X0212044Y0101000D03*
X0212240Y0080291D03*
D90*
X0212378Y0074385D03*
D91*
X0212851Y0079996D03*
X0210488Y0095272D03*
X0210488Y0105472D03*
D92*
X0194156Y0114888D03*
X0198194Y0134390D03*
X0170494Y0134340D03*
D93*
X0170494Y0132588D03*
X0198194Y0132638D03*
D94*
X0200379Y0135138D03*
X0196156Y0067938D03*
X0150775Y0067271D03*
D95*
X0196156Y0066383D03*
D96*
X0196156Y0066246D03*
D97*
X0199522Y0065911D03*
X0153314Y0066188D03*
X0137243Y0078278D03*
X0188605Y0112388D03*
X0137361Y0126388D03*
D98*
X0210705Y0106003D03*
X0213107Y0105531D03*
X0213107Y0108484D03*
X0212988Y0099819D03*
X0213107Y0095331D03*
X0212044Y0094622D03*
D99*
X0212378Y0095272D03*
X0212378Y0105472D03*
X0212851Y0110905D03*
X0210388Y0119896D03*
X0209916Y0119896D03*
D100*
X0212162Y0100941D03*
D101*
X0212240Y0101000D03*
D102*
X0212378Y0100941D03*
D103*
X0213107Y0099878D03*
X0211196Y0117416D03*
X0211196Y0127416D03*
X0184117Y0111660D03*
X0128196Y0145416D03*
X0151543Y0068688D03*
D104*
X0194156Y0114278D03*
X0194156Y0114751D03*
D105*
X0194097Y0114613D03*
D106*
X0192798Y0114534D03*
D107*
X0194156Y0114416D03*
D108*
X0163333Y0107018D02*
X0163333Y0105050D01*
X0163333Y0107018D02*
X0161365Y0107018D01*
X0145617Y0107018D02*
X0143648Y0107018D01*
X0143648Y0105050D01*
X0143648Y0089302D02*
X0143648Y0087333D01*
X0145617Y0087333D01*
X0161365Y0087333D02*
X0163333Y0087333D01*
X0163333Y0089302D01*
D109*
X0145617Y0087333D02*
X0143648Y0089302D01*
D110*
X0142333Y0085833D03*
M02*
