%
M48
M72
T01C0.0150
T02C0.0200
T03C0.0354
T04C0.0400
T05C0.1300
%
T01
X4350Y7245
X4635Y6980
X5595Y7030
X5820Y6135
X6260Y6060
X6290Y6800
X6830Y6865
X7700Y7555
X8405Y6950
X8047Y6675
X8840Y7285
X9285Y7685
X9675Y7065
X10330Y7285
X11360Y7270
X10435Y5325
X10630Y4235
X8850Y5375
X7870Y4475
X6830Y5565
X6200Y4285
X5470Y5575
X4550Y8085
X4730Y9645
X4920Y11285
X3620Y13185
X6200Y15485
X6830Y16765
X6260Y17260
X5820Y17335
X5470Y16775
X5595Y18230
X6290Y18000
X6830Y18065
X7700Y18755
X8405Y18150
X8047Y17875
X8840Y18485
X9285Y18885
X9675Y18265
X10330Y18485
X11360Y18470
X11570Y20425
X10450Y21025
X9895Y22175
X9080Y21745
X9010Y20635
X9010Y20145
X8470Y20285
X8475Y20665
X7920Y21470
X8325Y21725
X7465Y22440
X7855Y23020
X8475Y22855
X9480Y23145
X9170Y23905
X10470Y23405
X10630Y26635
X10435Y27725
X8850Y27775
X7870Y26875
X6830Y27965
X6260Y28460
X5820Y28535
X5470Y27975
X5595Y29430
X6290Y29200
X6830Y29265
X7700Y29955
X8405Y29350
X8047Y29075
X8840Y29685
X9285Y30085
X9675Y29465
X10330Y29685
X11360Y29670
X11570Y31625
X10450Y32225
X9895Y33375
X9080Y32945
X8325Y32925
X7920Y32670
X7465Y33640
X7855Y34220
X8475Y34055
X9480Y34345
X9170Y35105
X10470Y34605
X10630Y37835
X10435Y38925
X8850Y38975
X7870Y38075
X6830Y39165
X6260Y39660
X5820Y39735
X5470Y39175
X6290Y40400
X6830Y40465
X7700Y41155
X8405Y40550
X8047Y40275
X8840Y40885
X9285Y41285
X9675Y40665
X10330Y40885
X11360Y40870
X11570Y42825
X10450Y43425
X9895Y44575
X9080Y44145
X8325Y44125
X7920Y43870
X8475Y43065
X8470Y42685
X9010Y42545
X9010Y43035
X8480Y41685
X7370Y42635
X7090Y42405
X7160Y42935
X7465Y44840
X7855Y45420
X8475Y45255
X9480Y45545
X9170Y46305
X10470Y45805
X10630Y49035
X10435Y50125
X9675Y51865
X10330Y52085
X11360Y52070
X11570Y54025
X10450Y54625
X9895Y55775
X9080Y55345
X8325Y55325
X7920Y55070
X8475Y54265
X8470Y53885
X9010Y53745
X9010Y54235
X8480Y52885
X8840Y52085
X8405Y51750
X8047Y51475
X7700Y52355
X6830Y51665
X6290Y51600
X6260Y50860
X5820Y50935
X5470Y50375
X5595Y51830
X4635Y51780
X4350Y52045
X4550Y52885
X4730Y54445
X4920Y56085
X3620Y57985
X7090Y53605
X7370Y53835
X7160Y54135
X7465Y56040
X7855Y56620
X8475Y56455
X9480Y56745
X9170Y57505
X10470Y57005
X7355Y57110
X9285Y52485
X8850Y50175
X7870Y49275
X6830Y50365
X6200Y49085
X7355Y45910
X4920Y44885
X4730Y43245
X4550Y41685
X4350Y40845
X4635Y40580
X5595Y40630
X6200Y37885
X7355Y34710
X4920Y33685
X4730Y32045
X4550Y30485
X4350Y29645
X4635Y29380
X6200Y26685
X7355Y23510
X4920Y22485
X4730Y20845
X4550Y19285
X4350Y18445
X4635Y18180
X7090Y20005
X7370Y20235
X7160Y20535
X8480Y19285
X8850Y16575
X7870Y15675
X9170Y12705
X9480Y11945
X9895Y10975
X9080Y10545
X9010Y9435
X9010Y8945
X8470Y9085
X8475Y9465
X7920Y10270
X8325Y10525
X7465Y11240
X7855Y11820
X8475Y11655
X7355Y12310
X7160Y9335
X7370Y9035
X7090Y8805
X8480Y8085
X10450Y9825
X11570Y9225
X10470Y12205
X10630Y15435
X10435Y16525
X13820Y13185
X15120Y11285
X14930Y9645
X14750Y8085
X14550Y7245
X14835Y6980
X15795Y7030
X16490Y6800
X17030Y6865
X16460Y6060
X16020Y6135
X15670Y5575
X17030Y5565
X16400Y4285
X18070Y4475
X19050Y5375
X18247Y6675
X18605Y6950
X19040Y7285
X19485Y7685
X19875Y7065
X20530Y7285
X21560Y7270
X20635Y5325
X20830Y4235
X18680Y8085
X18670Y9085
X18675Y9465
X19210Y9435
X19210Y8945
X19280Y10545
X18525Y10525
X18120Y10270
X17665Y11240
X18055Y11820
X18675Y11655
X19680Y11945
X20095Y10975
X20650Y9825
X21770Y9225
X20670Y12205
X19370Y12705
X17555Y12310
X17360Y9335
X17570Y9035
X17290Y8805
X17900Y7555
X16400Y15485
X17030Y16765
X16460Y17260
X16020Y17335
X15670Y16775
X15795Y18230
X16490Y18000
X17030Y18065
X17900Y18755
X18605Y18150
X18247Y17875
X19040Y18485
X19485Y18885
X19875Y18265
X20530Y18485
X21560Y18470
X21770Y20425
X20650Y21025
X20095Y22175
X19680Y23145
X19370Y23905
X18675Y22855
X18055Y23020
X17665Y22440
X18120Y21470
X18525Y21725
X19280Y21745
X19210Y20635
X19210Y20145
X18670Y20285
X18675Y20665
X17570Y20235
X17290Y20005
X17360Y20535
X18680Y19285
X19050Y16575
X18070Y15675
X20635Y16525
X20830Y15435
X24020Y13185
X25320Y11285
X25130Y9645
X24950Y8085
X24750Y7245
X25035Y6980
X25995Y7030
X26220Y6135
X26660Y6060
X26690Y6800
X27230Y6865
X28100Y7555
X28805Y6950
X28447Y6675
X29240Y7285
X29685Y7685
X30075Y7065
X30730Y7285
X31760Y7270
X30835Y5325
X31030Y4235
X29250Y5375
X28270Y4475
X27230Y5565
X26600Y4285
X25870Y5575
X27490Y8805
X27770Y9035
X27560Y9335
X28320Y10270
X28725Y10525
X28875Y9465
X28870Y9085
X29410Y8945
X29410Y9435
X29480Y10545
X30295Y10975
X29880Y11945
X29570Y12705
X28875Y11655
X28255Y11820
X27865Y11240
X27755Y12310
X26600Y15485
X27230Y16765
X26660Y17260
X26220Y17335
X25870Y16775
X25995Y18230
X26690Y18000
X27230Y18065
X28100Y18755
X28805Y18150
X28447Y17875
X29240Y18485
X29685Y18885
X30075Y18265
X30730Y18485
X31760Y18470
X31970Y20425
X30850Y21025
X30295Y22175
X29480Y21745
X29410Y20635
X29410Y20145
X28870Y20285
X28875Y20665
X28320Y21470
X28725Y21725
X27865Y22440
X28255Y23020
X28875Y22855
X29880Y23145
X29570Y23905
X30870Y23405
X31030Y26635
X30835Y27725
X29250Y27775
X28270Y26875
X27230Y27965
X26660Y28460
X26220Y28535
X25870Y27975
X25995Y29430
X26690Y29200
X27230Y29265
X28100Y29955
X28805Y29350
X28447Y29075
X29240Y29685
X29685Y30085
X30075Y29465
X30730Y29685
X31760Y29670
X31970Y31625
X30850Y32225
X30295Y33375
X29480Y32945
X28725Y32925
X28320Y32670
X27865Y33640
X28255Y34220
X28875Y34055
X29880Y34345
X29570Y35105
X30870Y34605
X31030Y37835
X30835Y38925
X29250Y38975
X28270Y38075
X27230Y39165
X26660Y39660
X26220Y39735
X25870Y39175
X26690Y40400
X27230Y40465
X28100Y41155
X28805Y40550
X28447Y40275
X29240Y40885
X29685Y41285
X30075Y40665
X30730Y40885
X31760Y40870
X31970Y42825
X30850Y43425
X30295Y44575
X29480Y44145
X28725Y44125
X28320Y43870
X28875Y43065
X28870Y42685
X29410Y42545
X29410Y43035
X28880Y41685
X27770Y42635
X27490Y42405
X27560Y42935
X27865Y44840
X28255Y45420
X28875Y45255
X29880Y45545
X29570Y46305
X30870Y45805
X31030Y49035
X30835Y50125
X30075Y51865
X30730Y52085
X31760Y52070
X31970Y54025
X30850Y54625
X30295Y55775
X29480Y55345
X28725Y55325
X28320Y55070
X28875Y54265
X28870Y53885
X29410Y53745
X29410Y54235
X28880Y52885
X29240Y52085
X28805Y51750
X28447Y51475
X28100Y52355
X27230Y51665
X26690Y51600
X26660Y50860
X26220Y50935
X25870Y50375
X25995Y51830
X25035Y51780
X24750Y52045
X24950Y52885
X25130Y54445
X25320Y56085
X24020Y57985
X21770Y54025
X20650Y54625
X20095Y55775
X19280Y55345
X18525Y55325
X18120Y55070
X18675Y54265
X18670Y53885
X19210Y53745
X19210Y54235
X18680Y52885
X19040Y52085
X18605Y51750
X18247Y51475
X17900Y52355
X17030Y51665
X16490Y51600
X15795Y51830
X16020Y50935
X16460Y50860
X17030Y50365
X15670Y50375
X16400Y49085
X18070Y49275
X19050Y50175
X19875Y51865
X19485Y52485
X20530Y52085
X21560Y52070
X20635Y50125
X20830Y49035
X19370Y46305
X19680Y45545
X20670Y45805
X20095Y44575
X20650Y43425
X21770Y42825
X21560Y40870
X20530Y40885
X19875Y40665
X19485Y41285
X19040Y40885
X18605Y40550
X18247Y40275
X17900Y41155
X18680Y41685
X19210Y42545
X19210Y43035
X18675Y43065
X18670Y42685
X18120Y43870
X18525Y44125
X19280Y44145
X18675Y45255
X18055Y45420
X17665Y44840
X17555Y45910
X17360Y42935
X17570Y42635
X17290Y42405
X17030Y40465
X16490Y40400
X15795Y40630
X16020Y39735
X16460Y39660
X17030Y39165
X15670Y39175
X16400Y37885
X18070Y38075
X19050Y38975
X20635Y38925
X20830Y37835
X19370Y35105
X19680Y34345
X20095Y33375
X19280Y32945
X18525Y32925
X18120Y32670
X17665Y33640
X18055Y34220
X18675Y34055
X17555Y34710
X17360Y31735
X17570Y31435
X17290Y31205
X17900Y29955
X18605Y29350
X18247Y29075
X19040Y29685
X19485Y30085
X19875Y29465
X20530Y29685
X21560Y29670
X21770Y31625
X20650Y32225
X19210Y31835
X19210Y31345
X18670Y31485
X18675Y31865
X18680Y30485
X17030Y29265
X16490Y29200
X15795Y29430
X16020Y28535
X16460Y28460
X17030Y27965
X15670Y27975
X16400Y26685
X18070Y26875
X19050Y27775
X20635Y27725
X20830Y26635
X20670Y23405
X17555Y23510
X15120Y22485
X14930Y20845
X14750Y19285
X14550Y18445
X14835Y18180
X13820Y24385
X14835Y29380
X14550Y29645
X14750Y30485
X14930Y32045
X15120Y33685
X13820Y35585
X14835Y40580
X14550Y40845
X14750Y41685
X14930Y43245
X15120Y44885
X13820Y46785
X14835Y51780
X14550Y52045
X14750Y52885
X14930Y54445
X15120Y56085
X13820Y57985
X17360Y54135
X17570Y53835
X17290Y53605
X17665Y56040
X18055Y56620
X18675Y56455
X19680Y56745
X19370Y57505
X20670Y57005
X17555Y57110
X24020Y46785
X25320Y44885
X25130Y43245
X24950Y41685
X24750Y40845
X25035Y40580
X25995Y40630
X26600Y37885
X27755Y34710
X25320Y33685
X25130Y32045
X24950Y30485
X24750Y29645
X25035Y29380
X26600Y26685
X27755Y23510
X25320Y22485
X25130Y20845
X24950Y19285
X24750Y18445
X25035Y18180
X27490Y20005
X27770Y20235
X27560Y20535
X28880Y19285
X29250Y16575
X28270Y15675
X30835Y16525
X31030Y15435
X30870Y12205
X30850Y9825
X31970Y9225
X34950Y7245
X35235Y6980
X36195Y7030
X36890Y6800
X37430Y6865
X36860Y6060
X36420Y6135
X36070Y5575
X37430Y5565
X36800Y4285
X38470Y4475
X39450Y5375
X38647Y6675
X39005Y6950
X39440Y7285
X39885Y7685
X40275Y7065
X40930Y7285
X41960Y7270
X41035Y5325
X41230Y4235
X39080Y8085
X39070Y9085
X39075Y9465
X39610Y9435
X39610Y8945
X39680Y10545
X38925Y10525
X38520Y10270
X38065Y11240
X38455Y11820
X39075Y11655
X40080Y11945
X40495Y10975
X41050Y9825
X42170Y9225
X41070Y12205
X39770Y12705
X37955Y12310
X37760Y9335
X37970Y9035
X37690Y8805
X38300Y7555
X35150Y8085
X35330Y9645
X35520Y11285
X34220Y13185
X36800Y15485
X37430Y16765
X36860Y17260
X36420Y17335
X36070Y16775
X36195Y18230
X36890Y18000
X37430Y18065
X38300Y18755
X39005Y18150
X38647Y17875
X39440Y18485
X39885Y18885
X40275Y18265
X40930Y18485
X41960Y18470
X42170Y20425
X41050Y21025
X40495Y22175
X40080Y23145
X39770Y23905
X39075Y22855
X38455Y23020
X38065Y22440
X38520Y21470
X38925Y21725
X39680Y21745
X39610Y20635
X39610Y20145
X39070Y20285
X39075Y20665
X37970Y20235
X37690Y20005
X37760Y20535
X39080Y19285
X39450Y16575
X38470Y15675
X41035Y16525
X41230Y15435
X35235Y18180
X34950Y18445
X35150Y19285
X35330Y20845
X35520Y22485
X34220Y24385
X36800Y26685
X37430Y27965
X36860Y28460
X36420Y28535
X36070Y27975
X36890Y29200
X37430Y29265
X38300Y29955
X37690Y31205
X37970Y31435
X37760Y31735
X38520Y32670
X38925Y32925
X39680Y32945
X40495Y33375
X40080Y34345
X39770Y35105
X39075Y34055
X38455Y34220
X38065Y33640
X37955Y34710
X36800Y37885
X37430Y39165
X36860Y39660
X36420Y39735
X36070Y39175
X36890Y40400
X37430Y40465
X38300Y41155
X38647Y40275
X39005Y40550
X39440Y40885
X39885Y41285
X40275Y40665
X40930Y40885
X41960Y40870
X42170Y42825
X41050Y43425
X40495Y44575
X39680Y44145
X38925Y44125
X38520Y43870
X39075Y43065
X39070Y42685
X39610Y42545
X39610Y43035
X39080Y41685
X37970Y42635
X37690Y42405
X37760Y42935
X38065Y44840
X38455Y45420
X39075Y45255
X39770Y46305
X40080Y45545
X41070Y45805
X41230Y49035
X41035Y50125
X40275Y51865
X39885Y52485
X39440Y52085
X39005Y51750
X38647Y51475
X38300Y52355
X39080Y52885
X39070Y53885
X39075Y54265
X39610Y54235
X39610Y53745
X38520Y55070
X38925Y55325
X39680Y55345
X39075Y56455
X38455Y56620
X38065Y56040
X37955Y57110
X39770Y57505
X40080Y56745
X41070Y57005
X40495Y55775
X41050Y54625
X42170Y54025
X41960Y52070
X40930Y52085
X39450Y50175
X38470Y49275
X37430Y50365
X36860Y50860
X36420Y50935
X36070Y50375
X36195Y51830
X36890Y51600
X37430Y51665
X37690Y53605
X37970Y53835
X37760Y54135
X35330Y54445
X35150Y52885
X34950Y52045
X35235Y51780
X36800Y49085
X37955Y45910
X35520Y44885
X35330Y43245
X35150Y41685
X34950Y40845
X35235Y40580
X36195Y40630
X38470Y38075
X39450Y38975
X41035Y38925
X41230Y37835
X41070Y34605
X41050Y32225
X42170Y31625
X41960Y29670
X40930Y29685
X40275Y29465
X39885Y30085
X39440Y29685
X39005Y29350
X38647Y29075
X39080Y30485
X39070Y31485
X39075Y31865
X39610Y31835
X39610Y31345
X39450Y27775
X38470Y26875
X41035Y27725
X41230Y26635
X41070Y23405
X37955Y23510
X36195Y29430
X35235Y29380
X34950Y29645
X35150Y30485
X35330Y32045
X35520Y33685
X34220Y35585
X29410Y31835
X29410Y31345
X28870Y31485
X28875Y31865
X27770Y31435
X27490Y31205
X27560Y31735
X28880Y30485
X24020Y35585
X20670Y34605
X24020Y24385
X28880Y8085
X9010Y31345
X9010Y31835
X8475Y31865
X8470Y31485
X8480Y30485
X7370Y31435
X7090Y31205
X7160Y31735
X3620Y35585
X3620Y24385
X3620Y46785
X26600Y49085
X27230Y50365
X28270Y49275
X29250Y50175
X29685Y52485
X27770Y53835
X27490Y53605
X27560Y54135
X27865Y56040
X28255Y56620
X28875Y56455
X29880Y56745
X29570Y57505
X30870Y57005
X27755Y57110
X34220Y57985
X35520Y56085
X34220Y46785
X27755Y45910
T02
X29350Y41875
X29850Y41875
X30350Y41875
X30850Y41875
X30850Y30675
X30350Y30675
X29850Y30675
X29350Y30675
X29350Y19475
X29850Y19475
X30350Y19475
X30850Y19475
X30850Y8275
X30350Y8275
X29850Y8275
X29350Y8275
X20650Y8275
X20150Y8275
X19650Y8275
X19150Y8275
X19150Y19475
X19650Y19475
X20150Y19475
X20650Y19475
X20650Y30675
X20150Y30675
X19650Y30675
X19150Y30675
X19150Y41875
X19650Y41875
X20150Y41875
X20650Y41875
X20650Y53075
X20150Y53075
X19650Y53075
X19150Y53075
X10450Y53075
X9950Y53075
X9450Y53075
X8950Y53075
X8950Y41875
X9450Y41875
X9950Y41875
X10450Y41875
X10450Y30675
X9950Y30675
X9450Y30675
X8950Y30675
X8950Y19475
X9450Y19475
X9950Y19475
X10450Y19475
X10450Y8275
X9950Y8275
X9450Y8275
X8950Y8275
X39550Y8275
X40050Y8275
X40550Y8275
X41050Y8275
X41050Y19475
X40550Y19475
X40050Y19475
X39550Y19475
X39550Y30675
X40050Y30675
X40550Y30675
X41050Y30675
X41050Y41875
X40550Y41875
X40050Y41875
X39550Y41875
X39550Y53075
X40050Y53075
X40550Y53075
X41050Y53075
X30850Y53075
X30350Y53075
X29850Y53075
X29350Y53075
T03
X28859Y58015
X30041Y58015
X30041Y46815
X28859Y46815
X28859Y35615
X30041Y35615
X30041Y24415
X28859Y24415
X28859Y13215
X30041Y13215
X39059Y13215
X40241Y13215
X40241Y24415
X39059Y24415
X39059Y35615
X40241Y35615
X40241Y46815
X39059Y46815
X39059Y58015
X40241Y58015
X19841Y58015
X18659Y58015
X18659Y46815
X19841Y46815
X19841Y35615
X18659Y35615
X18659Y24415
X19841Y24415
X19841Y13215
X18659Y13215
X9641Y13215
X8459Y13215
X8459Y24415
X9641Y24415
X9641Y35615
X8459Y35615
X8459Y46815
X9641Y46815
X9641Y58015
X8459Y58015
T04
X12350Y56175
X12350Y55175
X12350Y54175
X12350Y53175
X12350Y52175
X12350Y51175
X13550Y51175
X13550Y52175
X13550Y53175
X13550Y54175
X13550Y55175
X13550Y56175
X13550Y57175
X13550Y45975
X13550Y44975
X13550Y43975
X13550Y42975
X13550Y41975
X13550Y40975
X13550Y39975
X12350Y39975
X12350Y40975
X12350Y41975
X12350Y42975
X12350Y43975
X12350Y44975
X13550Y34775
X13550Y33775
X13550Y32775
X13550Y31775
X13550Y30775
X13550Y29775
X13550Y28775
X12350Y28775
X12350Y29775
X12350Y30775
X12350Y31775
X12350Y32775
X12350Y33775
X13550Y23575
X13550Y22575
X13550Y21575
X13550Y20575
X13550Y19575
X13550Y18575
X13550Y17575
X12350Y17575
X12350Y18575
X12350Y19575
X12350Y20575
X12350Y21575
X12350Y22575
X13550Y12375
X13550Y11375
X13550Y10375
X13550Y9375
X13550Y8375
X13550Y7375
X13550Y6375
X12350Y6375
X12350Y7375
X12350Y8375
X12350Y9375
X12350Y10375
X12350Y11375
X3350Y11375
X3350Y12375
X3350Y10375
X3350Y9375
X3350Y8375
X3350Y7375
X3350Y6375
X3350Y17575
X3350Y18575
X3350Y19575
X3350Y20575
X3350Y21575
X3350Y22575
X3350Y23575
X3350Y28775
X3350Y29775
X3350Y30775
X3350Y31775
X3350Y32775
X3350Y33775
X3350Y34775
X3350Y39975
X3350Y40975
X3350Y41975
X3350Y42975
X3350Y43975
X3350Y44975
X3350Y45975
X3350Y51175
X3350Y52175
X3350Y53175
X3350Y54175
X3350Y55175
X3350Y56175
X3350Y57175
X22550Y56175
X22550Y55175
X22550Y54175
X22550Y53175
X22550Y52175
X22550Y51175
X23750Y51175
X23750Y52175
X23750Y53175
X23750Y54175
X23750Y55175
X23750Y56175
X23750Y57175
X23750Y45975
X23750Y44975
X23750Y43975
X23750Y42975
X23750Y41975
X23750Y40975
X23750Y39975
X22550Y39975
X22550Y40975
X22550Y41975
X22550Y42975
X22550Y43975
X22550Y44975
X23750Y34775
X23750Y33775
X23750Y32775
X23750Y31775
X23750Y30775
X23750Y29775
X23750Y28775
X22550Y28775
X22550Y29775
X22550Y30775
X22550Y31775
X22550Y32775
X22550Y33775
X23750Y23575
X23750Y22575
X23750Y21575
X23750Y20575
X23750Y19575
X23750Y18575
X23750Y17575
X22550Y17575
X22550Y18575
X22550Y19575
X22550Y20575
X22550Y21575
X22550Y22575
X23750Y12375
X23750Y11375
X23750Y10375
X23750Y9375
X23750Y8375
X23750Y7375
X23750Y6375
X22550Y6375
X22550Y7375
X22550Y8375
X22550Y9375
X22550Y10375
X22550Y11375
X32750Y11375
X32750Y10375
X32750Y9375
X32750Y8375
X32750Y7375
X32750Y6375
X33950Y6375
X33950Y7375
X33950Y8375
X33950Y9375
X33950Y10375
X33950Y11375
X33950Y12375
X33950Y17575
X33950Y18575
X33950Y19575
X33950Y20575
X33950Y21575
X33950Y22575
X33950Y23575
X32750Y22575
X32750Y21575
X32750Y20575
X32750Y19575
X32750Y18575
X32750Y17575
X32750Y28775
X32750Y29775
X32750Y30775
X32750Y31775
X32750Y32775
X32750Y33775
X33950Y33775
X33950Y32775
X33950Y31775
X33950Y30775
X33950Y29775
X33950Y28775
X33950Y34775
X33950Y39975
X33950Y40975
X33950Y41975
X33950Y42975
X33950Y43975
X33950Y44975
X33950Y45975
X32750Y44975
X32750Y43975
X32750Y42975
X32750Y41975
X32750Y40975
X32750Y39975
X32750Y51175
X32750Y52175
X32750Y53175
X32750Y54175
X32750Y55175
X32750Y56175
X33950Y56175
X33950Y57175
X33950Y55175
X33950Y54175
X33950Y53175
X33950Y52175
X33950Y51175
X42950Y51175
X42950Y52175
X42950Y53175
X42950Y54175
X42950Y55175
X42950Y56175
X42950Y44975
X42950Y43975
X42950Y42975
X42950Y41975
X42950Y40975
X42950Y39975
X42950Y33775
X42950Y32775
X42950Y31775
X42950Y30775
X42950Y29775
X42950Y28775
X42950Y22575
X42950Y21575
X42950Y20575
X42950Y19575
X42950Y18575
X42950Y17575
X42950Y11375
X42950Y10375
X42950Y9375
X42950Y8375
X42950Y7375
X42950Y6375
T05
X3850Y4875
X11850Y4875
X14050Y4875
X11850Y12875
X11850Y16075
X14050Y16075
X11850Y24075
X11850Y27275
X14050Y27275
X11850Y35275
X11850Y38475
X14050Y38475
X11850Y46475
X11850Y49675
X14050Y49675
X11850Y57675
X3850Y49675
X3850Y38475
X3850Y27275
X3850Y16075
X22050Y16075
X24250Y16075
X22050Y12875
X22050Y4875
X24250Y4875
X32250Y4875
X34450Y4875
X32250Y12875
X32250Y16075
X34450Y16075
X32250Y24075
X32250Y27275
X34450Y27275
X32250Y35275
X32250Y38475
X34450Y38475
X32250Y46475
X32250Y49675
X34450Y49675
X32250Y57675
X24250Y49675
X22050Y49675
X22050Y46475
X22050Y38475
X22050Y35275
X24250Y38475
X24250Y27275
X22050Y27275
X22050Y24075
X42450Y24075
X42450Y27275
X42450Y35275
X42450Y38475
X42450Y46475
X42450Y49675
X42450Y57675
X22050Y57675
X42450Y16075
X42450Y12875
X42450Y4875
M30
