G75*
%MOIN*%
%OFA0B0*%
%FSLAX25Y25*%
%IPPOS*%
%LPD*%
%AMOC8*
5,1,8,0,0,1.08239X$1,22.5*
%
%ADD10R,0.05524X0.08674*%
%ADD11R,0.03162X0.06115*%
%ADD12R,0.02375X0.07690*%
%ADD13R,0.08674X0.06548*%
%ADD14R,0.06410X0.10643*%
%ADD15C,0.00400*%
%ADD16C,0.08200*%
%ADD17C,0.13800*%
%ADD18C,0.01990*%
%ADD19R,0.02965X0.05524*%
%ADD20R,0.04146X0.04343*%
%ADD21R,0.03556X0.06706*%
%ADD22R,0.04737X0.03162*%
%ADD23R,0.04737X0.03950*%
%ADD24C,0.04343*%
%ADD25R,0.04343X0.04146*%
%ADD26R,0.04737X0.05131*%
%ADD27C,0.03300*%
%ADD28R,0.04737X0.04343*%
%ADD29C,0.04737*%
%ADD30R,0.03280X0.04068*%
%ADD31R,0.03950X0.04343*%
%ADD32R,0.01784X0.02375*%
%ADD33R,0.02375X0.01784*%
%ADD34R,0.14973X0.14973*%
D10*
X0162310Y0057865D03*
X0184357Y0057865D03*
D11*
X0179239Y0072333D03*
X0175302Y0072333D03*
X0171365Y0072333D03*
X0167428Y0072333D03*
D12*
X0155951Y0133833D03*
X0153392Y0133833D03*
X0150833Y0133833D03*
X0148274Y0133833D03*
X0145715Y0133833D03*
D13*
X0139416Y0132751D03*
X0162251Y0132751D03*
D14*
X0154623Y0144365D03*
X0147044Y0144365D03*
D15*
X0142959Y0144389D02*
X0137054Y0144389D01*
X0137054Y0143991D02*
X0142959Y0143991D01*
X0142959Y0143592D02*
X0137054Y0143592D01*
X0137054Y0143194D02*
X0142959Y0143194D01*
X0142959Y0142795D02*
X0137054Y0142795D01*
X0137054Y0142397D02*
X0142959Y0142397D01*
X0142959Y0141998D02*
X0137054Y0141998D01*
X0137054Y0141600D02*
X0142959Y0141600D01*
X0142959Y0141201D02*
X0137054Y0141201D01*
X0137054Y0140803D02*
X0142959Y0140803D01*
X0142959Y0140404D02*
X0137054Y0140404D01*
X0137054Y0140006D02*
X0142959Y0140006D01*
X0142959Y0139607D02*
X0137054Y0139607D01*
X0137054Y0139444D02*
X0137054Y0146924D01*
X0137132Y0147226D01*
X0137276Y0147502D01*
X0137477Y0147740D01*
X0137727Y0147927D01*
X0138011Y0148054D01*
X0138317Y0148114D01*
X0138629Y0148105D01*
X0141778Y0148105D01*
X0142041Y0148075D01*
X0142291Y0147988D01*
X0142515Y0147847D01*
X0142702Y0147660D01*
X0142842Y0147436D01*
X0142930Y0147187D01*
X0142959Y0146924D01*
X0142959Y0136294D01*
X0135873Y0136294D01*
X0135873Y0139444D01*
X0137054Y0139444D01*
X0135873Y0139209D02*
X0142959Y0139209D01*
X0142959Y0138810D02*
X0135873Y0138810D01*
X0135873Y0138412D02*
X0142959Y0138412D01*
X0142959Y0138013D02*
X0135873Y0138013D01*
X0135873Y0137615D02*
X0142959Y0137615D01*
X0142959Y0137216D02*
X0135873Y0137216D01*
X0135873Y0136818D02*
X0142959Y0136818D01*
X0142959Y0136419D02*
X0135873Y0136419D01*
X0137054Y0144788D02*
X0142959Y0144788D01*
X0142959Y0145186D02*
X0137054Y0145186D01*
X0137054Y0145585D02*
X0142959Y0145585D01*
X0142959Y0145983D02*
X0137054Y0145983D01*
X0137054Y0146382D02*
X0142959Y0146382D01*
X0142959Y0146781D02*
X0137054Y0146781D01*
X0137120Y0147179D02*
X0142931Y0147179D01*
X0142754Y0147578D02*
X0137339Y0147578D01*
X0137836Y0147976D02*
X0142310Y0147976D01*
X0158698Y0146842D02*
X0158707Y0146530D01*
X0158707Y0136294D01*
X0165794Y0136294D01*
X0165794Y0139444D01*
X0164219Y0139444D01*
X0164219Y0146530D01*
X0164180Y0146881D01*
X0164063Y0147213D01*
X0163876Y0147512D01*
X0163626Y0147761D01*
X0163328Y0147949D01*
X0162995Y0148066D01*
X0162644Y0148105D01*
X0159888Y0148105D01*
X0159587Y0148027D01*
X0159310Y0147883D01*
X0159072Y0147682D01*
X0158885Y0147432D01*
X0158758Y0147148D01*
X0158698Y0146842D01*
X0158700Y0146781D02*
X0164191Y0146781D01*
X0164219Y0146382D02*
X0158707Y0146382D01*
X0158707Y0145983D02*
X0164219Y0145983D01*
X0164219Y0145585D02*
X0158707Y0145585D01*
X0158707Y0145186D02*
X0164219Y0145186D01*
X0164219Y0144788D02*
X0158707Y0144788D01*
X0158707Y0144389D02*
X0164219Y0144389D01*
X0164219Y0143991D02*
X0158707Y0143991D01*
X0158707Y0143592D02*
X0164219Y0143592D01*
X0164219Y0143194D02*
X0158707Y0143194D01*
X0158707Y0142795D02*
X0164219Y0142795D01*
X0164219Y0142397D02*
X0158707Y0142397D01*
X0158707Y0141998D02*
X0164219Y0141998D01*
X0164219Y0141600D02*
X0158707Y0141600D01*
X0158707Y0141201D02*
X0164219Y0141201D01*
X0164219Y0140803D02*
X0158707Y0140803D01*
X0158707Y0140404D02*
X0164219Y0140404D01*
X0164219Y0140006D02*
X0158707Y0140006D01*
X0158707Y0139607D02*
X0164219Y0139607D01*
X0165794Y0139209D02*
X0158707Y0139209D01*
X0158707Y0138810D02*
X0165794Y0138810D01*
X0165794Y0138412D02*
X0158707Y0138412D01*
X0158707Y0138013D02*
X0165794Y0138013D01*
X0165794Y0137615D02*
X0158707Y0137615D01*
X0158707Y0137216D02*
X0165794Y0137216D01*
X0165794Y0136818D02*
X0158707Y0136818D01*
X0158707Y0136419D02*
X0165794Y0136419D01*
X0164075Y0147179D02*
X0158772Y0147179D01*
X0158994Y0147578D02*
X0163810Y0147578D01*
X0163250Y0147976D02*
X0159489Y0147976D01*
D16*
X0128333Y0137333D03*
X0128333Y0127333D03*
X0128333Y0117333D03*
X0128333Y0107333D03*
X0128333Y0097333D03*
X0128333Y0087333D03*
X0128333Y0077333D03*
X0218333Y0078333D03*
X0218333Y0088333D03*
X0218333Y0098333D03*
X0218333Y0108333D03*
X0218333Y0117333D03*
X0218333Y0127333D03*
D17*
X0213333Y0142333D03*
X0213333Y0062333D03*
X0133333Y0062333D03*
D18*
X0145508Y0062806D02*
X0145508Y0060060D01*
X0145508Y0062806D02*
X0148254Y0062806D01*
X0148254Y0060060D01*
X0145508Y0060060D01*
X0145508Y0061950D02*
X0148254Y0061950D01*
X0152413Y0062806D02*
X0152413Y0060060D01*
X0152413Y0062806D02*
X0155159Y0062806D01*
X0155159Y0060060D01*
X0152413Y0060060D01*
X0152413Y0061950D02*
X0155159Y0061950D01*
X0191008Y0062806D02*
X0191008Y0060060D01*
X0191008Y0062806D02*
X0193754Y0062806D01*
X0193754Y0060060D01*
X0191008Y0060060D01*
X0191008Y0061950D02*
X0193754Y0061950D01*
X0197913Y0062806D02*
X0197913Y0060060D01*
X0197913Y0062806D02*
X0200659Y0062806D01*
X0200659Y0060060D01*
X0197913Y0060060D01*
X0197913Y0061950D02*
X0200659Y0061950D01*
D19*
X0199033Y0072315D03*
X0195293Y0072315D03*
X0202773Y0072315D03*
X0202773Y0082552D03*
X0195293Y0082552D03*
D20*
X0197117Y0056133D03*
X0192550Y0056133D03*
X0151617Y0056433D03*
X0147050Y0056433D03*
X0200300Y0129083D03*
X0204867Y0129083D03*
D21*
X0194192Y0138844D03*
X0182381Y0138844D03*
X0176475Y0138844D03*
D22*
X0170963Y0149670D03*
X0199703Y0149670D03*
D23*
X0199703Y0141403D03*
X0170963Y0141403D03*
D24*
X0179428Y0145733D03*
X0191239Y0145733D03*
D25*
X0193333Y0107617D03*
X0193333Y0103050D03*
X0190233Y0078917D03*
X0190233Y0074350D03*
X0137613Y0098820D03*
X0137613Y0103387D03*
D26*
X0167433Y0089880D03*
X0167433Y0083187D03*
X0184333Y0081580D03*
X0184333Y0074887D03*
D27*
X0126333Y0055333D03*
X0220633Y0149633D03*
D28*
X0205483Y0121404D03*
X0199184Y0121404D03*
X0199184Y0105262D03*
X0205483Y0105262D03*
D29*
X0199333Y0096333D03*
X0194333Y0096333D03*
X0189333Y0096333D03*
X0184333Y0096333D03*
D30*
X0185206Y0133133D03*
X0194261Y0133133D03*
D31*
X0193673Y0127970D03*
X0186193Y0127970D03*
X0189933Y0119703D03*
D32*
X0160381Y0106428D03*
X0158412Y0106428D03*
X0156444Y0106428D03*
X0154475Y0106428D03*
X0152507Y0106428D03*
X0150538Y0106428D03*
X0148570Y0106428D03*
X0146601Y0106428D03*
X0146601Y0087924D03*
X0148570Y0087924D03*
X0150538Y0087924D03*
X0152507Y0087924D03*
X0154475Y0087924D03*
X0156444Y0087924D03*
X0158412Y0087924D03*
X0160381Y0087924D03*
D33*
X0162743Y0090286D03*
X0162743Y0092255D03*
X0162743Y0094223D03*
X0162743Y0096192D03*
X0162743Y0098160D03*
X0162743Y0100129D03*
X0162743Y0102097D03*
X0162743Y0104066D03*
X0144239Y0104066D03*
X0144239Y0102097D03*
X0144239Y0100129D03*
X0144239Y0098160D03*
X0144239Y0096192D03*
X0144239Y0094223D03*
X0144239Y0092255D03*
X0144239Y0090286D03*
D34*
X0153491Y0097176D03*
M02*
