%
M48
M72
T01C0.0150
T02C0.0200
T03C0.0354
T04C0.0400
T05C0.1300
%
T01
X14118Y8338
X13833Y8603
X14033Y9443
X15078Y8388
X15773Y8158
X16313Y8223
X15743Y7418
X15303Y7493
X14953Y6933
X16313Y6923
X17353Y5833
X18333Y6733
X19918Y6683
X20113Y5593
X17530Y8033
X17888Y8308
X18323Y8643
X18768Y9043
X17963Y9443
X17163Y8943
X16573Y10163
X16853Y10393
X16643Y10693
X17988Y10873
X17993Y10443
X18563Y10333
X19933Y11183
X21053Y10583
X18563Y11903
X17808Y11883
X17403Y11628
X16948Y12598
X17338Y13178
X17998Y13043
X18963Y13303
X18653Y14063
X19953Y13563
X19378Y12333
X16838Y13668
X14403Y12643
X14213Y11003
X19158Y8423
X19813Y8643
X20843Y8628
X15683Y5643
X13103Y14543
T02
X18433Y9633
X18933Y9633
X19433Y9633
X19933Y9633
T03
X19124Y14573
X17943Y14573
T04
X21833Y12733
X21833Y11733
X21833Y10833
X21833Y9833
X21833Y8833
X21833Y7833
X12833Y7733
X12833Y8733
X12833Y9733
X12833Y10733
X12833Y11733
X12833Y12733
X12833Y13733
T05
X13333Y6233
X21333Y6233
X21333Y14233
M30
