G75*
%MOIN*%
%OFA0B0*%
%FSLAX25Y25*%
%IPPOS*%
%LPD*%
%AMOC8*
5,1,8,0,0,1.08239X$1,22.5*
%
%ADD10R,0.05524X0.08674*%
%ADD11R,0.03162X0.06115*%
%ADD12R,0.02375X0.07690*%
%ADD13R,0.08674X0.06548*%
%ADD14R,0.06410X0.10643*%
%ADD15C,0.00400*%
%ADD16C,0.08200*%
%ADD17C,0.13800*%
%ADD18C,0.01990*%
%ADD19R,0.02965X0.05524*%
%ADD20R,0.04146X0.04343*%
%ADD21R,0.03556X0.06706*%
%ADD22R,0.04737X0.03162*%
%ADD23R,0.04737X0.03950*%
%ADD24C,0.04343*%
%ADD25R,0.04343X0.04146*%
%ADD26R,0.04737X0.05131*%
%ADD27C,0.03300*%
%ADD28R,0.04737X0.04343*%
%ADD29C,0.04737*%
%ADD30R,0.03280X0.04068*%
%ADD31R,0.03950X0.04343*%
%ADD32R,0.01784X0.02375*%
%ADD33R,0.02375X0.01784*%
%ADD34R,0.14973X0.14973*%
%ADD35C,0.05000*%
%ADD36C,0.06706*%
D10*
X0067476Y0044281D03*
X0089524Y0044281D03*
X0169476Y0044281D03*
X0191524Y0044281D03*
X0271476Y0044281D03*
X0293524Y0044281D03*
X0373476Y0044281D03*
X0395524Y0044281D03*
X0395524Y0156281D03*
X0373476Y0156281D03*
X0293524Y0156281D03*
X0271476Y0156281D03*
X0191524Y0156281D03*
X0169476Y0156281D03*
X0089524Y0156281D03*
X0067476Y0156281D03*
X0067476Y0268281D03*
X0089524Y0268281D03*
X0169476Y0268281D03*
X0191524Y0268281D03*
X0271476Y0268281D03*
X0293524Y0268281D03*
X0373476Y0268281D03*
X0395524Y0268281D03*
X0395524Y0380281D03*
X0373476Y0380281D03*
X0373476Y0492281D03*
X0395524Y0492281D03*
X0293524Y0492281D03*
X0271476Y0492281D03*
X0271476Y0380281D03*
X0293524Y0380281D03*
X0191524Y0380281D03*
X0169476Y0380281D03*
X0169476Y0492281D03*
X0191524Y0492281D03*
X0089524Y0492281D03*
X0067476Y0492281D03*
X0067476Y0380281D03*
X0089524Y0380281D03*
D11*
X0084406Y0394750D03*
X0080469Y0394750D03*
X0076531Y0394750D03*
X0072594Y0394750D03*
X0072594Y0282750D03*
X0076531Y0282750D03*
X0080469Y0282750D03*
X0084406Y0282750D03*
X0084406Y0170750D03*
X0080469Y0170750D03*
X0076531Y0170750D03*
X0072594Y0170750D03*
X0072594Y0058750D03*
X0076531Y0058750D03*
X0080469Y0058750D03*
X0084406Y0058750D03*
X0174594Y0058750D03*
X0178531Y0058750D03*
X0182469Y0058750D03*
X0186406Y0058750D03*
X0186406Y0170750D03*
X0182469Y0170750D03*
X0178531Y0170750D03*
X0174594Y0170750D03*
X0174594Y0282750D03*
X0178531Y0282750D03*
X0182469Y0282750D03*
X0186406Y0282750D03*
X0186406Y0394750D03*
X0182469Y0394750D03*
X0178531Y0394750D03*
X0174594Y0394750D03*
X0174594Y0506750D03*
X0178531Y0506750D03*
X0182469Y0506750D03*
X0186406Y0506750D03*
X0276594Y0506750D03*
X0280531Y0506750D03*
X0284469Y0506750D03*
X0288406Y0506750D03*
X0288406Y0394750D03*
X0284469Y0394750D03*
X0280531Y0394750D03*
X0276594Y0394750D03*
X0276594Y0282750D03*
X0280531Y0282750D03*
X0284469Y0282750D03*
X0288406Y0282750D03*
X0288406Y0170750D03*
X0284469Y0170750D03*
X0280531Y0170750D03*
X0276594Y0170750D03*
X0276594Y0058750D03*
X0280531Y0058750D03*
X0284469Y0058750D03*
X0288406Y0058750D03*
X0378594Y0058750D03*
X0382531Y0058750D03*
X0386469Y0058750D03*
X0390406Y0058750D03*
X0390406Y0170750D03*
X0386469Y0170750D03*
X0382531Y0170750D03*
X0378594Y0170750D03*
X0378594Y0282750D03*
X0382531Y0282750D03*
X0386469Y0282750D03*
X0390406Y0282750D03*
X0390406Y0394750D03*
X0386469Y0394750D03*
X0382531Y0394750D03*
X0378594Y0394750D03*
X0378594Y0506750D03*
X0382531Y0506750D03*
X0386469Y0506750D03*
X0390406Y0506750D03*
X0084406Y0506750D03*
X0080469Y0506750D03*
X0076531Y0506750D03*
X0072594Y0506750D03*
D12*
X0061118Y0456250D03*
X0058559Y0456250D03*
X0056000Y0456250D03*
X0053441Y0456250D03*
X0050882Y0456250D03*
X0050882Y0344250D03*
X0053441Y0344250D03*
X0056000Y0344250D03*
X0058559Y0344250D03*
X0061118Y0344250D03*
X0061118Y0232250D03*
X0058559Y0232250D03*
X0056000Y0232250D03*
X0053441Y0232250D03*
X0050882Y0232250D03*
X0050882Y0120250D03*
X0053441Y0120250D03*
X0056000Y0120250D03*
X0058559Y0120250D03*
X0061118Y0120250D03*
X0152882Y0120250D03*
X0155441Y0120250D03*
X0158000Y0120250D03*
X0160559Y0120250D03*
X0163118Y0120250D03*
X0163118Y0232250D03*
X0160559Y0232250D03*
X0158000Y0232250D03*
X0155441Y0232250D03*
X0152882Y0232250D03*
X0152882Y0344250D03*
X0155441Y0344250D03*
X0158000Y0344250D03*
X0160559Y0344250D03*
X0163118Y0344250D03*
X0163118Y0456250D03*
X0160559Y0456250D03*
X0158000Y0456250D03*
X0155441Y0456250D03*
X0152882Y0456250D03*
X0152882Y0568250D03*
X0155441Y0568250D03*
X0158000Y0568250D03*
X0160559Y0568250D03*
X0163118Y0568250D03*
X0254882Y0568250D03*
X0257441Y0568250D03*
X0260000Y0568250D03*
X0262559Y0568250D03*
X0265118Y0568250D03*
X0265118Y0456250D03*
X0262559Y0456250D03*
X0260000Y0456250D03*
X0257441Y0456250D03*
X0254882Y0456250D03*
X0254882Y0344250D03*
X0257441Y0344250D03*
X0260000Y0344250D03*
X0262559Y0344250D03*
X0265118Y0344250D03*
X0265118Y0232250D03*
X0262559Y0232250D03*
X0260000Y0232250D03*
X0257441Y0232250D03*
X0254882Y0232250D03*
X0254882Y0120250D03*
X0257441Y0120250D03*
X0260000Y0120250D03*
X0262559Y0120250D03*
X0265118Y0120250D03*
X0356882Y0120250D03*
X0359441Y0120250D03*
X0362000Y0120250D03*
X0364559Y0120250D03*
X0367118Y0120250D03*
X0367118Y0232250D03*
X0364559Y0232250D03*
X0362000Y0232250D03*
X0359441Y0232250D03*
X0356882Y0232250D03*
X0356882Y0344250D03*
X0359441Y0344250D03*
X0362000Y0344250D03*
X0364559Y0344250D03*
X0367118Y0344250D03*
X0367118Y0456250D03*
X0364559Y0456250D03*
X0362000Y0456250D03*
X0359441Y0456250D03*
X0356882Y0456250D03*
X0356882Y0568250D03*
X0359441Y0568250D03*
X0362000Y0568250D03*
X0364559Y0568250D03*
X0367118Y0568250D03*
X0061118Y0568250D03*
X0058559Y0568250D03*
X0056000Y0568250D03*
X0053441Y0568250D03*
X0050882Y0568250D03*
D13*
X0044583Y0567167D03*
X0067417Y0567167D03*
X0146583Y0567167D03*
X0169417Y0567167D03*
X0248583Y0567167D03*
X0271417Y0567167D03*
X0350583Y0567167D03*
X0373417Y0567167D03*
X0373417Y0455167D03*
X0350583Y0455167D03*
X0271417Y0455167D03*
X0248583Y0455167D03*
X0169417Y0455167D03*
X0146583Y0455167D03*
X0067417Y0455167D03*
X0044583Y0455167D03*
X0044583Y0343167D03*
X0067417Y0343167D03*
X0146583Y0343167D03*
X0169417Y0343167D03*
X0248583Y0343167D03*
X0271417Y0343167D03*
X0350583Y0343167D03*
X0373417Y0343167D03*
X0373417Y0231167D03*
X0350583Y0231167D03*
X0271417Y0231167D03*
X0248583Y0231167D03*
X0169417Y0231167D03*
X0146583Y0231167D03*
X0067417Y0231167D03*
X0044583Y0231167D03*
X0044583Y0119167D03*
X0067417Y0119167D03*
X0146583Y0119167D03*
X0169417Y0119167D03*
X0248583Y0119167D03*
X0271417Y0119167D03*
X0350583Y0119167D03*
X0373417Y0119167D03*
D14*
X0365789Y0130781D03*
X0358211Y0130781D03*
X0358211Y0242781D03*
X0365789Y0242781D03*
X0365789Y0354781D03*
X0358211Y0354781D03*
X0358211Y0466781D03*
X0365789Y0466781D03*
X0365789Y0578781D03*
X0358211Y0578781D03*
X0263789Y0578781D03*
X0256211Y0578781D03*
X0256211Y0466781D03*
X0263789Y0466781D03*
X0263789Y0354781D03*
X0256211Y0354781D03*
X0256211Y0242781D03*
X0263789Y0242781D03*
X0263789Y0130781D03*
X0256211Y0130781D03*
X0161789Y0130781D03*
X0154211Y0130781D03*
X0154211Y0242781D03*
X0161789Y0242781D03*
X0161789Y0354781D03*
X0154211Y0354781D03*
X0154211Y0466781D03*
X0161789Y0466781D03*
X0161789Y0578781D03*
X0154211Y0578781D03*
X0059789Y0578781D03*
X0052211Y0578781D03*
X0052211Y0466781D03*
X0059789Y0466781D03*
X0059789Y0354781D03*
X0052211Y0354781D03*
X0052211Y0242781D03*
X0059789Y0242781D03*
X0059789Y0130781D03*
X0052211Y0130781D03*
D15*
X0048126Y0130806D02*
X0042220Y0130806D01*
X0042220Y0130408D02*
X0048126Y0130408D01*
X0048126Y0130009D02*
X0042220Y0130009D01*
X0042220Y0129611D02*
X0048126Y0129611D01*
X0048126Y0129212D02*
X0042220Y0129212D01*
X0042220Y0128814D02*
X0048126Y0128814D01*
X0048126Y0128415D02*
X0042220Y0128415D01*
X0042220Y0128017D02*
X0048126Y0128017D01*
X0048126Y0127618D02*
X0042220Y0127618D01*
X0042220Y0127220D02*
X0048126Y0127220D01*
X0048126Y0126821D02*
X0042220Y0126821D01*
X0042220Y0126422D02*
X0048126Y0126422D01*
X0048126Y0126024D02*
X0042220Y0126024D01*
X0042220Y0125860D02*
X0042220Y0133341D01*
X0042299Y0133642D01*
X0042442Y0133919D01*
X0042644Y0134157D01*
X0042893Y0134344D01*
X0043178Y0134471D01*
X0043484Y0134531D01*
X0043795Y0134522D01*
X0046945Y0134522D01*
X0047208Y0134492D01*
X0047457Y0134405D01*
X0047681Y0134264D01*
X0047868Y0134077D01*
X0048009Y0133853D01*
X0048096Y0133603D01*
X0048126Y0133341D01*
X0048126Y0122711D01*
X0041039Y0122711D01*
X0041039Y0125860D01*
X0042220Y0125860D01*
X0041039Y0125625D02*
X0048126Y0125625D01*
X0048126Y0125227D02*
X0041039Y0125227D01*
X0041039Y0124828D02*
X0048126Y0124828D01*
X0048126Y0124430D02*
X0041039Y0124430D01*
X0041039Y0124031D02*
X0048126Y0124031D01*
X0048126Y0123633D02*
X0041039Y0123633D01*
X0041039Y0123234D02*
X0048126Y0123234D01*
X0048126Y0122836D02*
X0041039Y0122836D01*
X0042220Y0131205D02*
X0048126Y0131205D01*
X0048126Y0131603D02*
X0042220Y0131603D01*
X0042220Y0132002D02*
X0048126Y0132002D01*
X0048126Y0132400D02*
X0042220Y0132400D01*
X0042220Y0132799D02*
X0048126Y0132799D01*
X0048126Y0133197D02*
X0042220Y0133197D01*
X0042287Y0133596D02*
X0048097Y0133596D01*
X0047920Y0133994D02*
X0042506Y0133994D01*
X0043003Y0134393D02*
X0047476Y0134393D01*
X0063865Y0133258D02*
X0063874Y0132947D01*
X0063874Y0122711D01*
X0070961Y0122711D01*
X0070961Y0125860D01*
X0069386Y0125860D01*
X0069386Y0132947D01*
X0069346Y0133297D01*
X0069230Y0133630D01*
X0069042Y0133929D01*
X0068793Y0134178D01*
X0068494Y0134366D01*
X0068161Y0134482D01*
X0067811Y0134522D01*
X0065055Y0134522D01*
X0064753Y0134443D01*
X0064477Y0134300D01*
X0064239Y0134098D01*
X0064052Y0133849D01*
X0063925Y0133564D01*
X0063865Y0133258D01*
X0063867Y0133197D02*
X0069358Y0133197D01*
X0069386Y0132799D02*
X0063874Y0132799D01*
X0063874Y0132400D02*
X0069386Y0132400D01*
X0069386Y0132002D02*
X0063874Y0132002D01*
X0063874Y0131603D02*
X0069386Y0131603D01*
X0069386Y0131205D02*
X0063874Y0131205D01*
X0063874Y0130806D02*
X0069386Y0130806D01*
X0069386Y0130408D02*
X0063874Y0130408D01*
X0063874Y0130009D02*
X0069386Y0130009D01*
X0069386Y0129611D02*
X0063874Y0129611D01*
X0063874Y0129212D02*
X0069386Y0129212D01*
X0069386Y0128814D02*
X0063874Y0128814D01*
X0063874Y0128415D02*
X0069386Y0128415D01*
X0069386Y0128017D02*
X0063874Y0128017D01*
X0063874Y0127618D02*
X0069386Y0127618D01*
X0069386Y0127220D02*
X0063874Y0127220D01*
X0063874Y0126821D02*
X0069386Y0126821D01*
X0069386Y0126422D02*
X0063874Y0126422D01*
X0063874Y0126024D02*
X0069386Y0126024D01*
X0070961Y0125625D02*
X0063874Y0125625D01*
X0063874Y0125227D02*
X0070961Y0125227D01*
X0070961Y0124828D02*
X0063874Y0124828D01*
X0063874Y0124430D02*
X0070961Y0124430D01*
X0070961Y0124031D02*
X0063874Y0124031D01*
X0063874Y0123633D02*
X0070961Y0123633D01*
X0070961Y0123234D02*
X0063874Y0123234D01*
X0063874Y0122836D02*
X0070961Y0122836D01*
X0069242Y0133596D02*
X0063939Y0133596D01*
X0064161Y0133994D02*
X0068977Y0133994D01*
X0068417Y0134393D02*
X0064656Y0134393D01*
X0063874Y0234711D02*
X0063874Y0244947D01*
X0063865Y0245258D01*
X0063925Y0245564D01*
X0064052Y0245849D01*
X0064239Y0246098D01*
X0064477Y0246300D01*
X0064753Y0246443D01*
X0065055Y0246522D01*
X0067811Y0246522D01*
X0068161Y0246482D01*
X0068494Y0246366D01*
X0068793Y0246178D01*
X0069042Y0245929D01*
X0069230Y0245630D01*
X0069346Y0245297D01*
X0069386Y0244947D01*
X0069386Y0237860D01*
X0070961Y0237860D01*
X0070961Y0234711D01*
X0063874Y0234711D01*
X0063874Y0234818D02*
X0070961Y0234818D01*
X0070961Y0235216D02*
X0063874Y0235216D01*
X0063874Y0235615D02*
X0070961Y0235615D01*
X0070961Y0236013D02*
X0063874Y0236013D01*
X0063874Y0236412D02*
X0070961Y0236412D01*
X0070961Y0236810D02*
X0063874Y0236810D01*
X0063874Y0237209D02*
X0070961Y0237209D01*
X0070961Y0237607D02*
X0063874Y0237607D01*
X0063874Y0238006D02*
X0069386Y0238006D01*
X0069386Y0238404D02*
X0063874Y0238404D01*
X0063874Y0238803D02*
X0069386Y0238803D01*
X0069386Y0239201D02*
X0063874Y0239201D01*
X0063874Y0239600D02*
X0069386Y0239600D01*
X0069386Y0239998D02*
X0063874Y0239998D01*
X0063874Y0240397D02*
X0069386Y0240397D01*
X0069386Y0240795D02*
X0063874Y0240795D01*
X0063874Y0241194D02*
X0069386Y0241194D01*
X0069386Y0241592D02*
X0063874Y0241592D01*
X0063874Y0241991D02*
X0069386Y0241991D01*
X0069386Y0242389D02*
X0063874Y0242389D01*
X0063874Y0242788D02*
X0069386Y0242788D01*
X0069386Y0243186D02*
X0063874Y0243186D01*
X0063874Y0243585D02*
X0069386Y0243585D01*
X0069386Y0243983D02*
X0063874Y0243983D01*
X0063874Y0244382D02*
X0069386Y0244382D01*
X0069386Y0244780D02*
X0063874Y0244780D01*
X0063867Y0245179D02*
X0069360Y0245179D01*
X0069248Y0245577D02*
X0063931Y0245577D01*
X0064147Y0245976D02*
X0068995Y0245976D01*
X0068469Y0246374D02*
X0064621Y0246374D01*
X0048126Y0245341D02*
X0048126Y0234711D01*
X0041039Y0234711D01*
X0041039Y0237860D01*
X0042220Y0237860D01*
X0042220Y0245341D01*
X0042299Y0245642D01*
X0042442Y0245919D01*
X0042644Y0246157D01*
X0042893Y0246344D01*
X0043178Y0246471D01*
X0043484Y0246531D01*
X0043795Y0246522D01*
X0046945Y0246522D01*
X0047208Y0246492D01*
X0047457Y0246405D01*
X0047681Y0246264D01*
X0047868Y0246077D01*
X0048009Y0245853D01*
X0048096Y0245603D01*
X0048126Y0245341D01*
X0048126Y0245179D02*
X0042220Y0245179D01*
X0042220Y0244780D02*
X0048126Y0244780D01*
X0048126Y0244382D02*
X0042220Y0244382D01*
X0042220Y0243983D02*
X0048126Y0243983D01*
X0048126Y0243585D02*
X0042220Y0243585D01*
X0042220Y0243186D02*
X0048126Y0243186D01*
X0048126Y0242788D02*
X0042220Y0242788D01*
X0042220Y0242389D02*
X0048126Y0242389D01*
X0048126Y0241991D02*
X0042220Y0241991D01*
X0042220Y0241592D02*
X0048126Y0241592D01*
X0048126Y0241194D02*
X0042220Y0241194D01*
X0042220Y0240795D02*
X0048126Y0240795D01*
X0048126Y0240397D02*
X0042220Y0240397D01*
X0042220Y0239998D02*
X0048126Y0239998D01*
X0048126Y0239600D02*
X0042220Y0239600D01*
X0042220Y0239201D02*
X0048126Y0239201D01*
X0048126Y0238803D02*
X0042220Y0238803D01*
X0042220Y0238404D02*
X0048126Y0238404D01*
X0048126Y0238006D02*
X0042220Y0238006D01*
X0041039Y0237607D02*
X0048126Y0237607D01*
X0048126Y0237209D02*
X0041039Y0237209D01*
X0041039Y0236810D02*
X0048126Y0236810D01*
X0048126Y0236412D02*
X0041039Y0236412D01*
X0041039Y0236013D02*
X0048126Y0236013D01*
X0048126Y0235615D02*
X0041039Y0235615D01*
X0041039Y0235216D02*
X0048126Y0235216D01*
X0048126Y0234818D02*
X0041039Y0234818D01*
X0042282Y0245577D02*
X0048099Y0245577D01*
X0047932Y0245976D02*
X0042491Y0245976D01*
X0042962Y0246374D02*
X0047506Y0246374D01*
X0048126Y0346711D02*
X0041039Y0346711D01*
X0041039Y0349860D01*
X0042220Y0349860D01*
X0042220Y0357341D01*
X0042299Y0357642D01*
X0042442Y0357919D01*
X0042644Y0358157D01*
X0042893Y0358344D01*
X0043178Y0358471D01*
X0043484Y0358531D01*
X0043795Y0358522D01*
X0046945Y0358522D01*
X0047208Y0358492D01*
X0047457Y0358405D01*
X0047681Y0358264D01*
X0047868Y0358077D01*
X0048009Y0357853D01*
X0048096Y0357603D01*
X0048126Y0357341D01*
X0048126Y0346711D01*
X0048126Y0346799D02*
X0041039Y0346799D01*
X0041039Y0347198D02*
X0048126Y0347198D01*
X0048126Y0347596D02*
X0041039Y0347596D01*
X0041039Y0347995D02*
X0048126Y0347995D01*
X0048126Y0348393D02*
X0041039Y0348393D01*
X0041039Y0348792D02*
X0048126Y0348792D01*
X0048126Y0349190D02*
X0041039Y0349190D01*
X0041039Y0349589D02*
X0048126Y0349589D01*
X0048126Y0349987D02*
X0042220Y0349987D01*
X0042220Y0350386D02*
X0048126Y0350386D01*
X0048126Y0350784D02*
X0042220Y0350784D01*
X0042220Y0351183D02*
X0048126Y0351183D01*
X0048126Y0351581D02*
X0042220Y0351581D01*
X0042220Y0351980D02*
X0048126Y0351980D01*
X0048126Y0352378D02*
X0042220Y0352378D01*
X0042220Y0352777D02*
X0048126Y0352777D01*
X0048126Y0353175D02*
X0042220Y0353175D01*
X0042220Y0353574D02*
X0048126Y0353574D01*
X0048126Y0353972D02*
X0042220Y0353972D01*
X0042220Y0354371D02*
X0048126Y0354371D01*
X0048126Y0354769D02*
X0042220Y0354769D01*
X0042220Y0355168D02*
X0048126Y0355168D01*
X0048126Y0355566D02*
X0042220Y0355566D01*
X0042220Y0355965D02*
X0048126Y0355965D01*
X0048126Y0356364D02*
X0042220Y0356364D01*
X0042220Y0356762D02*
X0048126Y0356762D01*
X0048126Y0357161D02*
X0042220Y0357161D01*
X0042277Y0357559D02*
X0048101Y0357559D01*
X0047943Y0357958D02*
X0042475Y0357958D01*
X0042921Y0358356D02*
X0047535Y0358356D01*
X0063865Y0357258D02*
X0063925Y0357564D01*
X0064052Y0357849D01*
X0064239Y0358098D01*
X0064477Y0358300D01*
X0064753Y0358443D01*
X0065055Y0358522D01*
X0067811Y0358522D01*
X0068161Y0358482D01*
X0068494Y0358366D01*
X0068793Y0358178D01*
X0069042Y0357929D01*
X0069230Y0357630D01*
X0069346Y0357297D01*
X0069386Y0356947D01*
X0069386Y0349860D01*
X0070961Y0349860D01*
X0070961Y0346711D01*
X0063874Y0346711D01*
X0063874Y0356947D01*
X0063865Y0357258D01*
X0063868Y0357161D02*
X0069362Y0357161D01*
X0069386Y0356762D02*
X0063874Y0356762D01*
X0063874Y0356364D02*
X0069386Y0356364D01*
X0069386Y0355965D02*
X0063874Y0355965D01*
X0063874Y0355566D02*
X0069386Y0355566D01*
X0069386Y0355168D02*
X0063874Y0355168D01*
X0063874Y0354769D02*
X0069386Y0354769D01*
X0069386Y0354371D02*
X0063874Y0354371D01*
X0063874Y0353972D02*
X0069386Y0353972D01*
X0069386Y0353574D02*
X0063874Y0353574D01*
X0063874Y0353175D02*
X0069386Y0353175D01*
X0069386Y0352777D02*
X0063874Y0352777D01*
X0063874Y0352378D02*
X0069386Y0352378D01*
X0069386Y0351980D02*
X0063874Y0351980D01*
X0063874Y0351581D02*
X0069386Y0351581D01*
X0069386Y0351183D02*
X0063874Y0351183D01*
X0063874Y0350784D02*
X0069386Y0350784D01*
X0069386Y0350386D02*
X0063874Y0350386D01*
X0063874Y0349987D02*
X0069386Y0349987D01*
X0070961Y0349589D02*
X0063874Y0349589D01*
X0063874Y0349190D02*
X0070961Y0349190D01*
X0070961Y0348792D02*
X0063874Y0348792D01*
X0063874Y0348393D02*
X0070961Y0348393D01*
X0070961Y0347995D02*
X0063874Y0347995D01*
X0063874Y0347596D02*
X0070961Y0347596D01*
X0070961Y0347198D02*
X0063874Y0347198D01*
X0063874Y0346799D02*
X0070961Y0346799D01*
X0069255Y0357559D02*
X0063924Y0357559D01*
X0064133Y0357958D02*
X0069013Y0357958D01*
X0068510Y0358356D02*
X0064585Y0358356D01*
X0063874Y0458711D02*
X0063874Y0468947D01*
X0063865Y0469258D01*
X0063925Y0469564D01*
X0064052Y0469849D01*
X0064239Y0470098D01*
X0064477Y0470300D01*
X0064753Y0470443D01*
X0065055Y0470522D01*
X0067811Y0470522D01*
X0068161Y0470482D01*
X0068494Y0470366D01*
X0068793Y0470178D01*
X0069042Y0469929D01*
X0069230Y0469630D01*
X0069346Y0469297D01*
X0069386Y0468947D01*
X0069386Y0461860D01*
X0070961Y0461860D01*
X0070961Y0458711D01*
X0063874Y0458711D01*
X0063874Y0458781D02*
X0070961Y0458781D01*
X0070961Y0459179D02*
X0063874Y0459179D01*
X0063874Y0459578D02*
X0070961Y0459578D01*
X0070961Y0459976D02*
X0063874Y0459976D01*
X0063874Y0460375D02*
X0070961Y0460375D01*
X0070961Y0460773D02*
X0063874Y0460773D01*
X0063874Y0461172D02*
X0070961Y0461172D01*
X0070961Y0461571D02*
X0063874Y0461571D01*
X0063874Y0461969D02*
X0069386Y0461969D01*
X0069386Y0462368D02*
X0063874Y0462368D01*
X0063874Y0462766D02*
X0069386Y0462766D01*
X0069386Y0463165D02*
X0063874Y0463165D01*
X0063874Y0463563D02*
X0069386Y0463563D01*
X0069386Y0463962D02*
X0063874Y0463962D01*
X0063874Y0464360D02*
X0069386Y0464360D01*
X0069386Y0464759D02*
X0063874Y0464759D01*
X0063874Y0465157D02*
X0069386Y0465157D01*
X0069386Y0465556D02*
X0063874Y0465556D01*
X0063874Y0465954D02*
X0069386Y0465954D01*
X0069386Y0466353D02*
X0063874Y0466353D01*
X0063874Y0466751D02*
X0069386Y0466751D01*
X0069386Y0467150D02*
X0063874Y0467150D01*
X0063874Y0467548D02*
X0069386Y0467548D01*
X0069386Y0467947D02*
X0063874Y0467947D01*
X0063874Y0468345D02*
X0069386Y0468345D01*
X0069386Y0468744D02*
X0063874Y0468744D01*
X0063868Y0469142D02*
X0069364Y0469142D01*
X0069261Y0469541D02*
X0063920Y0469541D01*
X0064120Y0469939D02*
X0069032Y0469939D01*
X0068539Y0470338D02*
X0064550Y0470338D01*
X0048126Y0469341D02*
X0048126Y0458711D01*
X0041039Y0458711D01*
X0041039Y0461860D01*
X0042220Y0461860D01*
X0042220Y0469341D01*
X0042299Y0469642D01*
X0042442Y0469919D01*
X0042644Y0470157D01*
X0042893Y0470344D01*
X0043178Y0470471D01*
X0043484Y0470531D01*
X0043795Y0470522D01*
X0046945Y0470522D01*
X0047208Y0470492D01*
X0047457Y0470405D01*
X0047681Y0470264D01*
X0047868Y0470077D01*
X0048009Y0469853D01*
X0048096Y0469603D01*
X0048126Y0469341D01*
X0048126Y0469142D02*
X0042220Y0469142D01*
X0042220Y0468744D02*
X0048126Y0468744D01*
X0048126Y0468345D02*
X0042220Y0468345D01*
X0042220Y0467947D02*
X0048126Y0467947D01*
X0048126Y0467548D02*
X0042220Y0467548D01*
X0042220Y0467150D02*
X0048126Y0467150D01*
X0048126Y0466751D02*
X0042220Y0466751D01*
X0042220Y0466353D02*
X0048126Y0466353D01*
X0048126Y0465954D02*
X0042220Y0465954D01*
X0042220Y0465556D02*
X0048126Y0465556D01*
X0048126Y0465157D02*
X0042220Y0465157D01*
X0042220Y0464759D02*
X0048126Y0464759D01*
X0048126Y0464360D02*
X0042220Y0464360D01*
X0042220Y0463962D02*
X0048126Y0463962D01*
X0048126Y0463563D02*
X0042220Y0463563D01*
X0042220Y0463165D02*
X0048126Y0463165D01*
X0048126Y0462766D02*
X0042220Y0462766D01*
X0042220Y0462368D02*
X0048126Y0462368D01*
X0048126Y0461969D02*
X0042220Y0461969D01*
X0041039Y0461571D02*
X0048126Y0461571D01*
X0048126Y0461172D02*
X0041039Y0461172D01*
X0041039Y0460773D02*
X0048126Y0460773D01*
X0048126Y0460375D02*
X0041039Y0460375D01*
X0041039Y0459976D02*
X0048126Y0459976D01*
X0048126Y0459578D02*
X0041039Y0459578D01*
X0041039Y0459179D02*
X0048126Y0459179D01*
X0048126Y0458781D02*
X0041039Y0458781D01*
X0042272Y0469541D02*
X0048103Y0469541D01*
X0047955Y0469939D02*
X0042460Y0469939D01*
X0042885Y0470338D02*
X0047564Y0470338D01*
X0048126Y0570711D02*
X0041039Y0570711D01*
X0041039Y0573860D01*
X0042220Y0573860D01*
X0042220Y0581341D01*
X0042299Y0581642D01*
X0042442Y0581919D01*
X0042644Y0582157D01*
X0042893Y0582344D01*
X0043178Y0582471D01*
X0043484Y0582531D01*
X0043795Y0582522D01*
X0046945Y0582522D01*
X0047208Y0582492D01*
X0047457Y0582405D01*
X0047681Y0582264D01*
X0047868Y0582077D01*
X0048009Y0581853D01*
X0048096Y0581603D01*
X0048126Y0581341D01*
X0048126Y0570711D01*
X0048126Y0570763D02*
X0041039Y0570763D01*
X0041039Y0571161D02*
X0048126Y0571161D01*
X0048126Y0571560D02*
X0041039Y0571560D01*
X0041039Y0571958D02*
X0048126Y0571958D01*
X0048126Y0572357D02*
X0041039Y0572357D01*
X0041039Y0572755D02*
X0048126Y0572755D01*
X0048126Y0573154D02*
X0041039Y0573154D01*
X0041039Y0573552D02*
X0048126Y0573552D01*
X0048126Y0573951D02*
X0042220Y0573951D01*
X0042220Y0574349D02*
X0048126Y0574349D01*
X0048126Y0574748D02*
X0042220Y0574748D01*
X0042220Y0575146D02*
X0048126Y0575146D01*
X0048126Y0575545D02*
X0042220Y0575545D01*
X0042220Y0575943D02*
X0048126Y0575943D01*
X0048126Y0576342D02*
X0042220Y0576342D01*
X0042220Y0576740D02*
X0048126Y0576740D01*
X0048126Y0577139D02*
X0042220Y0577139D01*
X0042220Y0577537D02*
X0048126Y0577537D01*
X0048126Y0577936D02*
X0042220Y0577936D01*
X0042220Y0578334D02*
X0048126Y0578334D01*
X0048126Y0578733D02*
X0042220Y0578733D01*
X0042220Y0579131D02*
X0048126Y0579131D01*
X0048126Y0579530D02*
X0042220Y0579530D01*
X0042220Y0579928D02*
X0048126Y0579928D01*
X0048126Y0580327D02*
X0042220Y0580327D01*
X0042220Y0580725D02*
X0048126Y0580725D01*
X0048126Y0581124D02*
X0042220Y0581124D01*
X0042268Y0581522D02*
X0048105Y0581522D01*
X0047966Y0581921D02*
X0042444Y0581921D01*
X0042861Y0582319D02*
X0047593Y0582319D01*
X0063865Y0581258D02*
X0063925Y0581564D01*
X0064052Y0581849D01*
X0064239Y0582098D01*
X0064477Y0582300D01*
X0064753Y0582443D01*
X0065055Y0582522D01*
X0067811Y0582522D01*
X0068161Y0582482D01*
X0068494Y0582366D01*
X0068793Y0582178D01*
X0069042Y0581929D01*
X0069230Y0581630D01*
X0069346Y0581297D01*
X0069386Y0580947D01*
X0069386Y0573860D01*
X0070961Y0573860D01*
X0070961Y0570711D01*
X0063874Y0570711D01*
X0063874Y0580947D01*
X0063865Y0581258D01*
X0063869Y0581124D02*
X0069366Y0581124D01*
X0069386Y0580725D02*
X0063874Y0580725D01*
X0063874Y0580327D02*
X0069386Y0580327D01*
X0069386Y0579928D02*
X0063874Y0579928D01*
X0063874Y0579530D02*
X0069386Y0579530D01*
X0069386Y0579131D02*
X0063874Y0579131D01*
X0063874Y0578733D02*
X0069386Y0578733D01*
X0069386Y0578334D02*
X0063874Y0578334D01*
X0063874Y0577936D02*
X0069386Y0577936D01*
X0069386Y0577537D02*
X0063874Y0577537D01*
X0063874Y0577139D02*
X0069386Y0577139D01*
X0069386Y0576740D02*
X0063874Y0576740D01*
X0063874Y0576342D02*
X0069386Y0576342D01*
X0069386Y0575943D02*
X0063874Y0575943D01*
X0063874Y0575545D02*
X0069386Y0575545D01*
X0069386Y0575146D02*
X0063874Y0575146D01*
X0063874Y0574748D02*
X0069386Y0574748D01*
X0069386Y0574349D02*
X0063874Y0574349D01*
X0063874Y0573951D02*
X0069386Y0573951D01*
X0070961Y0573552D02*
X0063874Y0573552D01*
X0063874Y0573154D02*
X0070961Y0573154D01*
X0070961Y0572755D02*
X0063874Y0572755D01*
X0063874Y0572357D02*
X0070961Y0572357D01*
X0070961Y0571958D02*
X0063874Y0571958D01*
X0063874Y0571560D02*
X0070961Y0571560D01*
X0070961Y0571161D02*
X0063874Y0571161D01*
X0063874Y0570763D02*
X0070961Y0570763D01*
X0069268Y0581522D02*
X0063917Y0581522D01*
X0064106Y0581921D02*
X0069047Y0581921D01*
X0068568Y0582319D02*
X0064515Y0582319D01*
X0143039Y0573860D02*
X0143039Y0570711D01*
X0150126Y0570711D01*
X0150126Y0581341D01*
X0150096Y0581603D01*
X0150009Y0581853D01*
X0149868Y0582077D01*
X0149681Y0582264D01*
X0149457Y0582405D01*
X0149208Y0582492D01*
X0148945Y0582522D01*
X0145795Y0582522D01*
X0145484Y0582531D01*
X0145178Y0582471D01*
X0144893Y0582344D01*
X0144644Y0582157D01*
X0144442Y0581919D01*
X0144299Y0581642D01*
X0144220Y0581341D01*
X0144220Y0573860D01*
X0143039Y0573860D01*
X0143039Y0573552D02*
X0150126Y0573552D01*
X0150126Y0573154D02*
X0143039Y0573154D01*
X0143039Y0572755D02*
X0150126Y0572755D01*
X0150126Y0572357D02*
X0143039Y0572357D01*
X0143039Y0571958D02*
X0150126Y0571958D01*
X0150126Y0571560D02*
X0143039Y0571560D01*
X0143039Y0571161D02*
X0150126Y0571161D01*
X0150126Y0570763D02*
X0143039Y0570763D01*
X0144220Y0573951D02*
X0150126Y0573951D01*
X0150126Y0574349D02*
X0144220Y0574349D01*
X0144220Y0574748D02*
X0150126Y0574748D01*
X0150126Y0575146D02*
X0144220Y0575146D01*
X0144220Y0575545D02*
X0150126Y0575545D01*
X0150126Y0575943D02*
X0144220Y0575943D01*
X0144220Y0576342D02*
X0150126Y0576342D01*
X0150126Y0576740D02*
X0144220Y0576740D01*
X0144220Y0577139D02*
X0150126Y0577139D01*
X0150126Y0577537D02*
X0144220Y0577537D01*
X0144220Y0577936D02*
X0150126Y0577936D01*
X0150126Y0578334D02*
X0144220Y0578334D01*
X0144220Y0578733D02*
X0150126Y0578733D01*
X0150126Y0579131D02*
X0144220Y0579131D01*
X0144220Y0579530D02*
X0150126Y0579530D01*
X0150126Y0579928D02*
X0144220Y0579928D01*
X0144220Y0580327D02*
X0150126Y0580327D01*
X0150126Y0580725D02*
X0144220Y0580725D01*
X0144220Y0581124D02*
X0150126Y0581124D01*
X0150105Y0581522D02*
X0144268Y0581522D01*
X0144444Y0581921D02*
X0149966Y0581921D01*
X0149593Y0582319D02*
X0144861Y0582319D01*
X0165865Y0581258D02*
X0165925Y0581564D01*
X0166052Y0581849D01*
X0166239Y0582098D01*
X0166477Y0582300D01*
X0166753Y0582443D01*
X0167055Y0582522D01*
X0169811Y0582522D01*
X0170161Y0582482D01*
X0170494Y0582366D01*
X0170793Y0582178D01*
X0171042Y0581929D01*
X0171230Y0581630D01*
X0171346Y0581297D01*
X0171386Y0580947D01*
X0171386Y0573860D01*
X0172961Y0573860D01*
X0172961Y0570711D01*
X0165874Y0570711D01*
X0165874Y0580947D01*
X0165865Y0581258D01*
X0165869Y0581124D02*
X0171366Y0581124D01*
X0171386Y0580725D02*
X0165874Y0580725D01*
X0165874Y0580327D02*
X0171386Y0580327D01*
X0171386Y0579928D02*
X0165874Y0579928D01*
X0165874Y0579530D02*
X0171386Y0579530D01*
X0171386Y0579131D02*
X0165874Y0579131D01*
X0165874Y0578733D02*
X0171386Y0578733D01*
X0171386Y0578334D02*
X0165874Y0578334D01*
X0165874Y0577936D02*
X0171386Y0577936D01*
X0171386Y0577537D02*
X0165874Y0577537D01*
X0165874Y0577139D02*
X0171386Y0577139D01*
X0171386Y0576740D02*
X0165874Y0576740D01*
X0165874Y0576342D02*
X0171386Y0576342D01*
X0171386Y0575943D02*
X0165874Y0575943D01*
X0165874Y0575545D02*
X0171386Y0575545D01*
X0171386Y0575146D02*
X0165874Y0575146D01*
X0165874Y0574748D02*
X0171386Y0574748D01*
X0171386Y0574349D02*
X0165874Y0574349D01*
X0165874Y0573951D02*
X0171386Y0573951D01*
X0172961Y0573552D02*
X0165874Y0573552D01*
X0165874Y0573154D02*
X0172961Y0573154D01*
X0172961Y0572755D02*
X0165874Y0572755D01*
X0165874Y0572357D02*
X0172961Y0572357D01*
X0172961Y0571958D02*
X0165874Y0571958D01*
X0165874Y0571560D02*
X0172961Y0571560D01*
X0172961Y0571161D02*
X0165874Y0571161D01*
X0165874Y0570763D02*
X0172961Y0570763D01*
X0171268Y0581522D02*
X0165917Y0581522D01*
X0166106Y0581921D02*
X0171047Y0581921D01*
X0170568Y0582319D02*
X0166515Y0582319D01*
X0245039Y0573860D02*
X0245039Y0570711D01*
X0252126Y0570711D01*
X0252126Y0581341D01*
X0252096Y0581603D01*
X0252009Y0581853D01*
X0251868Y0582077D01*
X0251681Y0582264D01*
X0251457Y0582405D01*
X0251208Y0582492D01*
X0250945Y0582522D01*
X0247795Y0582522D01*
X0247484Y0582531D01*
X0247178Y0582471D01*
X0246893Y0582344D01*
X0246644Y0582157D01*
X0246442Y0581919D01*
X0246299Y0581642D01*
X0246220Y0581341D01*
X0246220Y0573860D01*
X0245039Y0573860D01*
X0245039Y0573552D02*
X0252126Y0573552D01*
X0252126Y0573154D02*
X0245039Y0573154D01*
X0245039Y0572755D02*
X0252126Y0572755D01*
X0252126Y0572357D02*
X0245039Y0572357D01*
X0245039Y0571958D02*
X0252126Y0571958D01*
X0252126Y0571560D02*
X0245039Y0571560D01*
X0245039Y0571161D02*
X0252126Y0571161D01*
X0252126Y0570763D02*
X0245039Y0570763D01*
X0246220Y0573951D02*
X0252126Y0573951D01*
X0252126Y0574349D02*
X0246220Y0574349D01*
X0246220Y0574748D02*
X0252126Y0574748D01*
X0252126Y0575146D02*
X0246220Y0575146D01*
X0246220Y0575545D02*
X0252126Y0575545D01*
X0252126Y0575943D02*
X0246220Y0575943D01*
X0246220Y0576342D02*
X0252126Y0576342D01*
X0252126Y0576740D02*
X0246220Y0576740D01*
X0246220Y0577139D02*
X0252126Y0577139D01*
X0252126Y0577537D02*
X0246220Y0577537D01*
X0246220Y0577936D02*
X0252126Y0577936D01*
X0252126Y0578334D02*
X0246220Y0578334D01*
X0246220Y0578733D02*
X0252126Y0578733D01*
X0252126Y0579131D02*
X0246220Y0579131D01*
X0246220Y0579530D02*
X0252126Y0579530D01*
X0252126Y0579928D02*
X0246220Y0579928D01*
X0246220Y0580327D02*
X0252126Y0580327D01*
X0252126Y0580725D02*
X0246220Y0580725D01*
X0246220Y0581124D02*
X0252126Y0581124D01*
X0252105Y0581522D02*
X0246268Y0581522D01*
X0246444Y0581921D02*
X0251966Y0581921D01*
X0251593Y0582319D02*
X0246861Y0582319D01*
X0267865Y0581258D02*
X0267925Y0581564D01*
X0268052Y0581849D01*
X0268239Y0582098D01*
X0268477Y0582300D01*
X0268753Y0582443D01*
X0269055Y0582522D01*
X0271811Y0582522D01*
X0272161Y0582482D01*
X0272494Y0582366D01*
X0272793Y0582178D01*
X0273042Y0581929D01*
X0273230Y0581630D01*
X0273346Y0581297D01*
X0273386Y0580947D01*
X0273386Y0573860D01*
X0274961Y0573860D01*
X0274961Y0570711D01*
X0267874Y0570711D01*
X0267874Y0580947D01*
X0267865Y0581258D01*
X0267869Y0581124D02*
X0273366Y0581124D01*
X0273386Y0580725D02*
X0267874Y0580725D01*
X0267874Y0580327D02*
X0273386Y0580327D01*
X0273386Y0579928D02*
X0267874Y0579928D01*
X0267874Y0579530D02*
X0273386Y0579530D01*
X0273386Y0579131D02*
X0267874Y0579131D01*
X0267874Y0578733D02*
X0273386Y0578733D01*
X0273386Y0578334D02*
X0267874Y0578334D01*
X0267874Y0577936D02*
X0273386Y0577936D01*
X0273386Y0577537D02*
X0267874Y0577537D01*
X0267874Y0577139D02*
X0273386Y0577139D01*
X0273386Y0576740D02*
X0267874Y0576740D01*
X0267874Y0576342D02*
X0273386Y0576342D01*
X0273386Y0575943D02*
X0267874Y0575943D01*
X0267874Y0575545D02*
X0273386Y0575545D01*
X0273386Y0575146D02*
X0267874Y0575146D01*
X0267874Y0574748D02*
X0273386Y0574748D01*
X0273386Y0574349D02*
X0267874Y0574349D01*
X0267874Y0573951D02*
X0273386Y0573951D01*
X0274961Y0573552D02*
X0267874Y0573552D01*
X0267874Y0573154D02*
X0274961Y0573154D01*
X0274961Y0572755D02*
X0267874Y0572755D01*
X0267874Y0572357D02*
X0274961Y0572357D01*
X0274961Y0571958D02*
X0267874Y0571958D01*
X0267874Y0571560D02*
X0274961Y0571560D01*
X0274961Y0571161D02*
X0267874Y0571161D01*
X0267874Y0570763D02*
X0274961Y0570763D01*
X0273268Y0581522D02*
X0267917Y0581522D01*
X0268106Y0581921D02*
X0273047Y0581921D01*
X0272568Y0582319D02*
X0268515Y0582319D01*
X0347039Y0573860D02*
X0347039Y0570711D01*
X0354126Y0570711D01*
X0354126Y0581341D01*
X0354096Y0581603D01*
X0354009Y0581853D01*
X0353868Y0582077D01*
X0353681Y0582264D01*
X0353457Y0582405D01*
X0353208Y0582492D01*
X0352945Y0582522D01*
X0349795Y0582522D01*
X0349484Y0582531D01*
X0349178Y0582471D01*
X0348893Y0582344D01*
X0348644Y0582157D01*
X0348442Y0581919D01*
X0348299Y0581642D01*
X0348220Y0581341D01*
X0348220Y0573860D01*
X0347039Y0573860D01*
X0347039Y0573552D02*
X0354126Y0573552D01*
X0354126Y0573154D02*
X0347039Y0573154D01*
X0347039Y0572755D02*
X0354126Y0572755D01*
X0354126Y0572357D02*
X0347039Y0572357D01*
X0347039Y0571958D02*
X0354126Y0571958D01*
X0354126Y0571560D02*
X0347039Y0571560D01*
X0347039Y0571161D02*
X0354126Y0571161D01*
X0354126Y0570763D02*
X0347039Y0570763D01*
X0348220Y0573951D02*
X0354126Y0573951D01*
X0354126Y0574349D02*
X0348220Y0574349D01*
X0348220Y0574748D02*
X0354126Y0574748D01*
X0354126Y0575146D02*
X0348220Y0575146D01*
X0348220Y0575545D02*
X0354126Y0575545D01*
X0354126Y0575943D02*
X0348220Y0575943D01*
X0348220Y0576342D02*
X0354126Y0576342D01*
X0354126Y0576740D02*
X0348220Y0576740D01*
X0348220Y0577139D02*
X0354126Y0577139D01*
X0354126Y0577537D02*
X0348220Y0577537D01*
X0348220Y0577936D02*
X0354126Y0577936D01*
X0354126Y0578334D02*
X0348220Y0578334D01*
X0348220Y0578733D02*
X0354126Y0578733D01*
X0354126Y0579131D02*
X0348220Y0579131D01*
X0348220Y0579530D02*
X0354126Y0579530D01*
X0354126Y0579928D02*
X0348220Y0579928D01*
X0348220Y0580327D02*
X0354126Y0580327D01*
X0354126Y0580725D02*
X0348220Y0580725D01*
X0348220Y0581124D02*
X0354126Y0581124D01*
X0354105Y0581522D02*
X0348268Y0581522D01*
X0348444Y0581921D02*
X0353966Y0581921D01*
X0353593Y0582319D02*
X0348861Y0582319D01*
X0369865Y0581258D02*
X0369925Y0581564D01*
X0370052Y0581849D01*
X0370239Y0582098D01*
X0370477Y0582300D01*
X0370753Y0582443D01*
X0371055Y0582522D01*
X0373811Y0582522D01*
X0374161Y0582482D01*
X0374494Y0582366D01*
X0374793Y0582178D01*
X0375042Y0581929D01*
X0375230Y0581630D01*
X0375346Y0581297D01*
X0375386Y0580947D01*
X0375386Y0573860D01*
X0376961Y0573860D01*
X0376961Y0570711D01*
X0369874Y0570711D01*
X0369874Y0580947D01*
X0369865Y0581258D01*
X0369869Y0581124D02*
X0375366Y0581124D01*
X0375386Y0580725D02*
X0369874Y0580725D01*
X0369874Y0580327D02*
X0375386Y0580327D01*
X0375386Y0579928D02*
X0369874Y0579928D01*
X0369874Y0579530D02*
X0375386Y0579530D01*
X0375386Y0579131D02*
X0369874Y0579131D01*
X0369874Y0578733D02*
X0375386Y0578733D01*
X0375386Y0578334D02*
X0369874Y0578334D01*
X0369874Y0577936D02*
X0375386Y0577936D01*
X0375386Y0577537D02*
X0369874Y0577537D01*
X0369874Y0577139D02*
X0375386Y0577139D01*
X0375386Y0576740D02*
X0369874Y0576740D01*
X0369874Y0576342D02*
X0375386Y0576342D01*
X0375386Y0575943D02*
X0369874Y0575943D01*
X0369874Y0575545D02*
X0375386Y0575545D01*
X0375386Y0575146D02*
X0369874Y0575146D01*
X0369874Y0574748D02*
X0375386Y0574748D01*
X0375386Y0574349D02*
X0369874Y0574349D01*
X0369874Y0573951D02*
X0375386Y0573951D01*
X0376961Y0573552D02*
X0369874Y0573552D01*
X0369874Y0573154D02*
X0376961Y0573154D01*
X0376961Y0572755D02*
X0369874Y0572755D01*
X0369874Y0572357D02*
X0376961Y0572357D01*
X0376961Y0571958D02*
X0369874Y0571958D01*
X0369874Y0571560D02*
X0376961Y0571560D01*
X0376961Y0571161D02*
X0369874Y0571161D01*
X0369874Y0570763D02*
X0376961Y0570763D01*
X0375268Y0581522D02*
X0369917Y0581522D01*
X0370106Y0581921D02*
X0375047Y0581921D01*
X0374568Y0582319D02*
X0370515Y0582319D01*
X0371055Y0470522D02*
X0373811Y0470522D01*
X0374161Y0470482D01*
X0374494Y0470366D01*
X0374793Y0470178D01*
X0375042Y0469929D01*
X0375230Y0469630D01*
X0375346Y0469297D01*
X0375386Y0468947D01*
X0375386Y0461860D01*
X0376961Y0461860D01*
X0376961Y0458711D01*
X0369874Y0458711D01*
X0369874Y0468947D01*
X0369865Y0469258D01*
X0369925Y0469564D01*
X0370052Y0469849D01*
X0370239Y0470098D01*
X0370477Y0470300D01*
X0370753Y0470443D01*
X0371055Y0470522D01*
X0370550Y0470338D02*
X0374539Y0470338D01*
X0375032Y0469939D02*
X0370120Y0469939D01*
X0369920Y0469541D02*
X0375261Y0469541D01*
X0375364Y0469142D02*
X0369868Y0469142D01*
X0369874Y0468744D02*
X0375386Y0468744D01*
X0375386Y0468345D02*
X0369874Y0468345D01*
X0369874Y0467947D02*
X0375386Y0467947D01*
X0375386Y0467548D02*
X0369874Y0467548D01*
X0369874Y0467150D02*
X0375386Y0467150D01*
X0375386Y0466751D02*
X0369874Y0466751D01*
X0369874Y0466353D02*
X0375386Y0466353D01*
X0375386Y0465954D02*
X0369874Y0465954D01*
X0369874Y0465556D02*
X0375386Y0465556D01*
X0375386Y0465157D02*
X0369874Y0465157D01*
X0369874Y0464759D02*
X0375386Y0464759D01*
X0375386Y0464360D02*
X0369874Y0464360D01*
X0369874Y0463962D02*
X0375386Y0463962D01*
X0375386Y0463563D02*
X0369874Y0463563D01*
X0369874Y0463165D02*
X0375386Y0463165D01*
X0375386Y0462766D02*
X0369874Y0462766D01*
X0369874Y0462368D02*
X0375386Y0462368D01*
X0375386Y0461969D02*
X0369874Y0461969D01*
X0369874Y0461571D02*
X0376961Y0461571D01*
X0376961Y0461172D02*
X0369874Y0461172D01*
X0369874Y0460773D02*
X0376961Y0460773D01*
X0376961Y0460375D02*
X0369874Y0460375D01*
X0369874Y0459976D02*
X0376961Y0459976D01*
X0376961Y0459578D02*
X0369874Y0459578D01*
X0369874Y0459179D02*
X0376961Y0459179D01*
X0376961Y0458781D02*
X0369874Y0458781D01*
X0354126Y0458781D02*
X0347039Y0458781D01*
X0347039Y0458711D02*
X0347039Y0461860D01*
X0348220Y0461860D01*
X0348220Y0469341D01*
X0348299Y0469642D01*
X0348442Y0469919D01*
X0348644Y0470157D01*
X0348893Y0470344D01*
X0349178Y0470471D01*
X0349484Y0470531D01*
X0349795Y0470522D01*
X0352945Y0470522D01*
X0353208Y0470492D01*
X0353457Y0470405D01*
X0353681Y0470264D01*
X0353868Y0470077D01*
X0354009Y0469853D01*
X0354096Y0469603D01*
X0354126Y0469341D01*
X0354126Y0458711D01*
X0347039Y0458711D01*
X0347039Y0459179D02*
X0354126Y0459179D01*
X0354126Y0459578D02*
X0347039Y0459578D01*
X0347039Y0459976D02*
X0354126Y0459976D01*
X0354126Y0460375D02*
X0347039Y0460375D01*
X0347039Y0460773D02*
X0354126Y0460773D01*
X0354126Y0461172D02*
X0347039Y0461172D01*
X0347039Y0461571D02*
X0354126Y0461571D01*
X0354126Y0461969D02*
X0348220Y0461969D01*
X0348220Y0462368D02*
X0354126Y0462368D01*
X0354126Y0462766D02*
X0348220Y0462766D01*
X0348220Y0463165D02*
X0354126Y0463165D01*
X0354126Y0463563D02*
X0348220Y0463563D01*
X0348220Y0463962D02*
X0354126Y0463962D01*
X0354126Y0464360D02*
X0348220Y0464360D01*
X0348220Y0464759D02*
X0354126Y0464759D01*
X0354126Y0465157D02*
X0348220Y0465157D01*
X0348220Y0465556D02*
X0354126Y0465556D01*
X0354126Y0465954D02*
X0348220Y0465954D01*
X0348220Y0466353D02*
X0354126Y0466353D01*
X0354126Y0466751D02*
X0348220Y0466751D01*
X0348220Y0467150D02*
X0354126Y0467150D01*
X0354126Y0467548D02*
X0348220Y0467548D01*
X0348220Y0467947D02*
X0354126Y0467947D01*
X0354126Y0468345D02*
X0348220Y0468345D01*
X0348220Y0468744D02*
X0354126Y0468744D01*
X0354126Y0469142D02*
X0348220Y0469142D01*
X0348272Y0469541D02*
X0354103Y0469541D01*
X0353955Y0469939D02*
X0348460Y0469939D01*
X0348885Y0470338D02*
X0353564Y0470338D01*
X0274961Y0461860D02*
X0274961Y0458711D01*
X0267874Y0458711D01*
X0267874Y0468947D01*
X0267865Y0469258D01*
X0267925Y0469564D01*
X0268052Y0469849D01*
X0268239Y0470098D01*
X0268477Y0470300D01*
X0268753Y0470443D01*
X0269055Y0470522D01*
X0271811Y0470522D01*
X0272161Y0470482D01*
X0272494Y0470366D01*
X0272793Y0470178D01*
X0273042Y0469929D01*
X0273230Y0469630D01*
X0273346Y0469297D01*
X0273386Y0468947D01*
X0273386Y0461860D01*
X0274961Y0461860D01*
X0274961Y0461571D02*
X0267874Y0461571D01*
X0267874Y0461969D02*
X0273386Y0461969D01*
X0273386Y0462368D02*
X0267874Y0462368D01*
X0267874Y0462766D02*
X0273386Y0462766D01*
X0273386Y0463165D02*
X0267874Y0463165D01*
X0267874Y0463563D02*
X0273386Y0463563D01*
X0273386Y0463962D02*
X0267874Y0463962D01*
X0267874Y0464360D02*
X0273386Y0464360D01*
X0273386Y0464759D02*
X0267874Y0464759D01*
X0267874Y0465157D02*
X0273386Y0465157D01*
X0273386Y0465556D02*
X0267874Y0465556D01*
X0267874Y0465954D02*
X0273386Y0465954D01*
X0273386Y0466353D02*
X0267874Y0466353D01*
X0267874Y0466751D02*
X0273386Y0466751D01*
X0273386Y0467150D02*
X0267874Y0467150D01*
X0267874Y0467548D02*
X0273386Y0467548D01*
X0273386Y0467947D02*
X0267874Y0467947D01*
X0267874Y0468345D02*
X0273386Y0468345D01*
X0273386Y0468744D02*
X0267874Y0468744D01*
X0267868Y0469142D02*
X0273364Y0469142D01*
X0273261Y0469541D02*
X0267920Y0469541D01*
X0268120Y0469939D02*
X0273032Y0469939D01*
X0272539Y0470338D02*
X0268550Y0470338D01*
X0267874Y0461172D02*
X0274961Y0461172D01*
X0274961Y0460773D02*
X0267874Y0460773D01*
X0267874Y0460375D02*
X0274961Y0460375D01*
X0274961Y0459976D02*
X0267874Y0459976D01*
X0267874Y0459578D02*
X0274961Y0459578D01*
X0274961Y0459179D02*
X0267874Y0459179D01*
X0267874Y0458781D02*
X0274961Y0458781D01*
X0252126Y0458781D02*
X0245039Y0458781D01*
X0245039Y0458711D02*
X0245039Y0461860D01*
X0246220Y0461860D01*
X0246220Y0469341D01*
X0246299Y0469642D01*
X0246442Y0469919D01*
X0246644Y0470157D01*
X0246893Y0470344D01*
X0247178Y0470471D01*
X0247484Y0470531D01*
X0247795Y0470522D01*
X0250945Y0470522D01*
X0251208Y0470492D01*
X0251457Y0470405D01*
X0251681Y0470264D01*
X0251868Y0470077D01*
X0252009Y0469853D01*
X0252096Y0469603D01*
X0252126Y0469341D01*
X0252126Y0458711D01*
X0245039Y0458711D01*
X0245039Y0459179D02*
X0252126Y0459179D01*
X0252126Y0459578D02*
X0245039Y0459578D01*
X0245039Y0459976D02*
X0252126Y0459976D01*
X0252126Y0460375D02*
X0245039Y0460375D01*
X0245039Y0460773D02*
X0252126Y0460773D01*
X0252126Y0461172D02*
X0245039Y0461172D01*
X0245039Y0461571D02*
X0252126Y0461571D01*
X0252126Y0461969D02*
X0246220Y0461969D01*
X0246220Y0462368D02*
X0252126Y0462368D01*
X0252126Y0462766D02*
X0246220Y0462766D01*
X0246220Y0463165D02*
X0252126Y0463165D01*
X0252126Y0463563D02*
X0246220Y0463563D01*
X0246220Y0463962D02*
X0252126Y0463962D01*
X0252126Y0464360D02*
X0246220Y0464360D01*
X0246220Y0464759D02*
X0252126Y0464759D01*
X0252126Y0465157D02*
X0246220Y0465157D01*
X0246220Y0465556D02*
X0252126Y0465556D01*
X0252126Y0465954D02*
X0246220Y0465954D01*
X0246220Y0466353D02*
X0252126Y0466353D01*
X0252126Y0466751D02*
X0246220Y0466751D01*
X0246220Y0467150D02*
X0252126Y0467150D01*
X0252126Y0467548D02*
X0246220Y0467548D01*
X0246220Y0467947D02*
X0252126Y0467947D01*
X0252126Y0468345D02*
X0246220Y0468345D01*
X0246220Y0468744D02*
X0252126Y0468744D01*
X0252126Y0469142D02*
X0246220Y0469142D01*
X0246272Y0469541D02*
X0252103Y0469541D01*
X0251955Y0469939D02*
X0246460Y0469939D01*
X0246885Y0470338D02*
X0251564Y0470338D01*
X0172961Y0461860D02*
X0172961Y0458711D01*
X0165874Y0458711D01*
X0165874Y0468947D01*
X0165865Y0469258D01*
X0165925Y0469564D01*
X0166052Y0469849D01*
X0166239Y0470098D01*
X0166477Y0470300D01*
X0166753Y0470443D01*
X0167055Y0470522D01*
X0169811Y0470522D01*
X0170161Y0470482D01*
X0170494Y0470366D01*
X0170793Y0470178D01*
X0171042Y0469929D01*
X0171230Y0469630D01*
X0171346Y0469297D01*
X0171386Y0468947D01*
X0171386Y0461860D01*
X0172961Y0461860D01*
X0172961Y0461571D02*
X0165874Y0461571D01*
X0165874Y0461969D02*
X0171386Y0461969D01*
X0171386Y0462368D02*
X0165874Y0462368D01*
X0165874Y0462766D02*
X0171386Y0462766D01*
X0171386Y0463165D02*
X0165874Y0463165D01*
X0165874Y0463563D02*
X0171386Y0463563D01*
X0171386Y0463962D02*
X0165874Y0463962D01*
X0165874Y0464360D02*
X0171386Y0464360D01*
X0171386Y0464759D02*
X0165874Y0464759D01*
X0165874Y0465157D02*
X0171386Y0465157D01*
X0171386Y0465556D02*
X0165874Y0465556D01*
X0165874Y0465954D02*
X0171386Y0465954D01*
X0171386Y0466353D02*
X0165874Y0466353D01*
X0165874Y0466751D02*
X0171386Y0466751D01*
X0171386Y0467150D02*
X0165874Y0467150D01*
X0165874Y0467548D02*
X0171386Y0467548D01*
X0171386Y0467947D02*
X0165874Y0467947D01*
X0165874Y0468345D02*
X0171386Y0468345D01*
X0171386Y0468744D02*
X0165874Y0468744D01*
X0165868Y0469142D02*
X0171364Y0469142D01*
X0171261Y0469541D02*
X0165920Y0469541D01*
X0166120Y0469939D02*
X0171032Y0469939D01*
X0170539Y0470338D02*
X0166550Y0470338D01*
X0165874Y0461172D02*
X0172961Y0461172D01*
X0172961Y0460773D02*
X0165874Y0460773D01*
X0165874Y0460375D02*
X0172961Y0460375D01*
X0172961Y0459976D02*
X0165874Y0459976D01*
X0165874Y0459578D02*
X0172961Y0459578D01*
X0172961Y0459179D02*
X0165874Y0459179D01*
X0165874Y0458781D02*
X0172961Y0458781D01*
X0150126Y0458781D02*
X0143039Y0458781D01*
X0143039Y0458711D02*
X0143039Y0461860D01*
X0144220Y0461860D01*
X0144220Y0469341D01*
X0144299Y0469642D01*
X0144442Y0469919D01*
X0144644Y0470157D01*
X0144893Y0470344D01*
X0145178Y0470471D01*
X0145484Y0470531D01*
X0145795Y0470522D01*
X0148945Y0470522D01*
X0149208Y0470492D01*
X0149457Y0470405D01*
X0149681Y0470264D01*
X0149868Y0470077D01*
X0150009Y0469853D01*
X0150096Y0469603D01*
X0150126Y0469341D01*
X0150126Y0458711D01*
X0143039Y0458711D01*
X0143039Y0459179D02*
X0150126Y0459179D01*
X0150126Y0459578D02*
X0143039Y0459578D01*
X0143039Y0459976D02*
X0150126Y0459976D01*
X0150126Y0460375D02*
X0143039Y0460375D01*
X0143039Y0460773D02*
X0150126Y0460773D01*
X0150126Y0461172D02*
X0143039Y0461172D01*
X0143039Y0461571D02*
X0150126Y0461571D01*
X0150126Y0461969D02*
X0144220Y0461969D01*
X0144220Y0462368D02*
X0150126Y0462368D01*
X0150126Y0462766D02*
X0144220Y0462766D01*
X0144220Y0463165D02*
X0150126Y0463165D01*
X0150126Y0463563D02*
X0144220Y0463563D01*
X0144220Y0463962D02*
X0150126Y0463962D01*
X0150126Y0464360D02*
X0144220Y0464360D01*
X0144220Y0464759D02*
X0150126Y0464759D01*
X0150126Y0465157D02*
X0144220Y0465157D01*
X0144220Y0465556D02*
X0150126Y0465556D01*
X0150126Y0465954D02*
X0144220Y0465954D01*
X0144220Y0466353D02*
X0150126Y0466353D01*
X0150126Y0466751D02*
X0144220Y0466751D01*
X0144220Y0467150D02*
X0150126Y0467150D01*
X0150126Y0467548D02*
X0144220Y0467548D01*
X0144220Y0467947D02*
X0150126Y0467947D01*
X0150126Y0468345D02*
X0144220Y0468345D01*
X0144220Y0468744D02*
X0150126Y0468744D01*
X0150126Y0469142D02*
X0144220Y0469142D01*
X0144272Y0469541D02*
X0150103Y0469541D01*
X0149955Y0469939D02*
X0144460Y0469939D01*
X0144885Y0470338D02*
X0149564Y0470338D01*
X0148945Y0358522D02*
X0145795Y0358522D01*
X0145484Y0358531D01*
X0145178Y0358471D01*
X0144893Y0358344D01*
X0144644Y0358157D01*
X0144442Y0357919D01*
X0144299Y0357642D01*
X0144220Y0357341D01*
X0144220Y0349860D01*
X0143039Y0349860D01*
X0143039Y0346711D01*
X0150126Y0346711D01*
X0150126Y0357341D01*
X0150096Y0357603D01*
X0150009Y0357853D01*
X0149868Y0358077D01*
X0149681Y0358264D01*
X0149457Y0358405D01*
X0149208Y0358492D01*
X0148945Y0358522D01*
X0149535Y0358356D02*
X0144921Y0358356D01*
X0144475Y0357958D02*
X0149943Y0357958D01*
X0150101Y0357559D02*
X0144277Y0357559D01*
X0144220Y0357161D02*
X0150126Y0357161D01*
X0150126Y0356762D02*
X0144220Y0356762D01*
X0144220Y0356364D02*
X0150126Y0356364D01*
X0150126Y0355965D02*
X0144220Y0355965D01*
X0144220Y0355566D02*
X0150126Y0355566D01*
X0150126Y0355168D02*
X0144220Y0355168D01*
X0144220Y0354769D02*
X0150126Y0354769D01*
X0150126Y0354371D02*
X0144220Y0354371D01*
X0144220Y0353972D02*
X0150126Y0353972D01*
X0150126Y0353574D02*
X0144220Y0353574D01*
X0144220Y0353175D02*
X0150126Y0353175D01*
X0150126Y0352777D02*
X0144220Y0352777D01*
X0144220Y0352378D02*
X0150126Y0352378D01*
X0150126Y0351980D02*
X0144220Y0351980D01*
X0144220Y0351581D02*
X0150126Y0351581D01*
X0150126Y0351183D02*
X0144220Y0351183D01*
X0144220Y0350784D02*
X0150126Y0350784D01*
X0150126Y0350386D02*
X0144220Y0350386D01*
X0144220Y0349987D02*
X0150126Y0349987D01*
X0150126Y0349589D02*
X0143039Y0349589D01*
X0143039Y0349190D02*
X0150126Y0349190D01*
X0150126Y0348792D02*
X0143039Y0348792D01*
X0143039Y0348393D02*
X0150126Y0348393D01*
X0150126Y0347995D02*
X0143039Y0347995D01*
X0143039Y0347596D02*
X0150126Y0347596D01*
X0150126Y0347198D02*
X0143039Y0347198D01*
X0143039Y0346799D02*
X0150126Y0346799D01*
X0165874Y0346799D02*
X0172961Y0346799D01*
X0172961Y0346711D02*
X0172961Y0349860D01*
X0171386Y0349860D01*
X0171386Y0356947D01*
X0171346Y0357297D01*
X0171230Y0357630D01*
X0171042Y0357929D01*
X0170793Y0358178D01*
X0170494Y0358366D01*
X0170161Y0358482D01*
X0169811Y0358522D01*
X0167055Y0358522D01*
X0166753Y0358443D01*
X0166477Y0358300D01*
X0166239Y0358098D01*
X0166052Y0357849D01*
X0165925Y0357564D01*
X0165865Y0357258D01*
X0165874Y0356947D01*
X0165874Y0346711D01*
X0172961Y0346711D01*
X0172961Y0347198D02*
X0165874Y0347198D01*
X0165874Y0347596D02*
X0172961Y0347596D01*
X0172961Y0347995D02*
X0165874Y0347995D01*
X0165874Y0348393D02*
X0172961Y0348393D01*
X0172961Y0348792D02*
X0165874Y0348792D01*
X0165874Y0349190D02*
X0172961Y0349190D01*
X0172961Y0349589D02*
X0165874Y0349589D01*
X0165874Y0349987D02*
X0171386Y0349987D01*
X0171386Y0350386D02*
X0165874Y0350386D01*
X0165874Y0350784D02*
X0171386Y0350784D01*
X0171386Y0351183D02*
X0165874Y0351183D01*
X0165874Y0351581D02*
X0171386Y0351581D01*
X0171386Y0351980D02*
X0165874Y0351980D01*
X0165874Y0352378D02*
X0171386Y0352378D01*
X0171386Y0352777D02*
X0165874Y0352777D01*
X0165874Y0353175D02*
X0171386Y0353175D01*
X0171386Y0353574D02*
X0165874Y0353574D01*
X0165874Y0353972D02*
X0171386Y0353972D01*
X0171386Y0354371D02*
X0165874Y0354371D01*
X0165874Y0354769D02*
X0171386Y0354769D01*
X0171386Y0355168D02*
X0165874Y0355168D01*
X0165874Y0355566D02*
X0171386Y0355566D01*
X0171386Y0355965D02*
X0165874Y0355965D01*
X0165874Y0356364D02*
X0171386Y0356364D01*
X0171386Y0356762D02*
X0165874Y0356762D01*
X0165868Y0357161D02*
X0171362Y0357161D01*
X0171255Y0357559D02*
X0165924Y0357559D01*
X0166133Y0357958D02*
X0171013Y0357958D01*
X0170510Y0358356D02*
X0166585Y0358356D01*
X0245039Y0349860D02*
X0246220Y0349860D01*
X0246220Y0357341D01*
X0246299Y0357642D01*
X0246442Y0357919D01*
X0246644Y0358157D01*
X0246893Y0358344D01*
X0247178Y0358471D01*
X0247484Y0358531D01*
X0247795Y0358522D01*
X0250945Y0358522D01*
X0251208Y0358492D01*
X0251457Y0358405D01*
X0251681Y0358264D01*
X0251868Y0358077D01*
X0252009Y0357853D01*
X0252096Y0357603D01*
X0252126Y0357341D01*
X0252126Y0346711D01*
X0245039Y0346711D01*
X0245039Y0349860D01*
X0245039Y0349589D02*
X0252126Y0349589D01*
X0252126Y0349987D02*
X0246220Y0349987D01*
X0246220Y0350386D02*
X0252126Y0350386D01*
X0252126Y0350784D02*
X0246220Y0350784D01*
X0246220Y0351183D02*
X0252126Y0351183D01*
X0252126Y0351581D02*
X0246220Y0351581D01*
X0246220Y0351980D02*
X0252126Y0351980D01*
X0252126Y0352378D02*
X0246220Y0352378D01*
X0246220Y0352777D02*
X0252126Y0352777D01*
X0252126Y0353175D02*
X0246220Y0353175D01*
X0246220Y0353574D02*
X0252126Y0353574D01*
X0252126Y0353972D02*
X0246220Y0353972D01*
X0246220Y0354371D02*
X0252126Y0354371D01*
X0252126Y0354769D02*
X0246220Y0354769D01*
X0246220Y0355168D02*
X0252126Y0355168D01*
X0252126Y0355566D02*
X0246220Y0355566D01*
X0246220Y0355965D02*
X0252126Y0355965D01*
X0252126Y0356364D02*
X0246220Y0356364D01*
X0246220Y0356762D02*
X0252126Y0356762D01*
X0252126Y0357161D02*
X0246220Y0357161D01*
X0246277Y0357559D02*
X0252101Y0357559D01*
X0251943Y0357958D02*
X0246475Y0357958D01*
X0246921Y0358356D02*
X0251535Y0358356D01*
X0252126Y0349190D02*
X0245039Y0349190D01*
X0245039Y0348792D02*
X0252126Y0348792D01*
X0252126Y0348393D02*
X0245039Y0348393D01*
X0245039Y0347995D02*
X0252126Y0347995D01*
X0252126Y0347596D02*
X0245039Y0347596D01*
X0245039Y0347198D02*
X0252126Y0347198D01*
X0252126Y0346799D02*
X0245039Y0346799D01*
X0267874Y0346799D02*
X0274961Y0346799D01*
X0274961Y0346711D02*
X0274961Y0349860D01*
X0273386Y0349860D01*
X0273386Y0356947D01*
X0273346Y0357297D01*
X0273230Y0357630D01*
X0273042Y0357929D01*
X0272793Y0358178D01*
X0272494Y0358366D01*
X0272161Y0358482D01*
X0271811Y0358522D01*
X0269055Y0358522D01*
X0268753Y0358443D01*
X0268477Y0358300D01*
X0268239Y0358098D01*
X0268052Y0357849D01*
X0267925Y0357564D01*
X0267865Y0357258D01*
X0267874Y0356947D01*
X0267874Y0346711D01*
X0274961Y0346711D01*
X0274961Y0347198D02*
X0267874Y0347198D01*
X0267874Y0347596D02*
X0274961Y0347596D01*
X0274961Y0347995D02*
X0267874Y0347995D01*
X0267874Y0348393D02*
X0274961Y0348393D01*
X0274961Y0348792D02*
X0267874Y0348792D01*
X0267874Y0349190D02*
X0274961Y0349190D01*
X0274961Y0349589D02*
X0267874Y0349589D01*
X0267874Y0349987D02*
X0273386Y0349987D01*
X0273386Y0350386D02*
X0267874Y0350386D01*
X0267874Y0350784D02*
X0273386Y0350784D01*
X0273386Y0351183D02*
X0267874Y0351183D01*
X0267874Y0351581D02*
X0273386Y0351581D01*
X0273386Y0351980D02*
X0267874Y0351980D01*
X0267874Y0352378D02*
X0273386Y0352378D01*
X0273386Y0352777D02*
X0267874Y0352777D01*
X0267874Y0353175D02*
X0273386Y0353175D01*
X0273386Y0353574D02*
X0267874Y0353574D01*
X0267874Y0353972D02*
X0273386Y0353972D01*
X0273386Y0354371D02*
X0267874Y0354371D01*
X0267874Y0354769D02*
X0273386Y0354769D01*
X0273386Y0355168D02*
X0267874Y0355168D01*
X0267874Y0355566D02*
X0273386Y0355566D01*
X0273386Y0355965D02*
X0267874Y0355965D01*
X0267874Y0356364D02*
X0273386Y0356364D01*
X0273386Y0356762D02*
X0267874Y0356762D01*
X0267868Y0357161D02*
X0273362Y0357161D01*
X0273255Y0357559D02*
X0267924Y0357559D01*
X0268133Y0357958D02*
X0273013Y0357958D01*
X0272510Y0358356D02*
X0268585Y0358356D01*
X0269055Y0246522D02*
X0271811Y0246522D01*
X0272161Y0246482D01*
X0272494Y0246366D01*
X0272793Y0246178D01*
X0273042Y0245929D01*
X0273230Y0245630D01*
X0273346Y0245297D01*
X0273386Y0244947D01*
X0273386Y0237860D01*
X0274961Y0237860D01*
X0274961Y0234711D01*
X0267874Y0234711D01*
X0267874Y0244947D01*
X0267865Y0245258D01*
X0267925Y0245564D01*
X0268052Y0245849D01*
X0268239Y0246098D01*
X0268477Y0246300D01*
X0268753Y0246443D01*
X0269055Y0246522D01*
X0268621Y0246374D02*
X0272469Y0246374D01*
X0272995Y0245976D02*
X0268147Y0245976D01*
X0267931Y0245577D02*
X0273248Y0245577D01*
X0273360Y0245179D02*
X0267867Y0245179D01*
X0267874Y0244780D02*
X0273386Y0244780D01*
X0273386Y0244382D02*
X0267874Y0244382D01*
X0267874Y0243983D02*
X0273386Y0243983D01*
X0273386Y0243585D02*
X0267874Y0243585D01*
X0267874Y0243186D02*
X0273386Y0243186D01*
X0273386Y0242788D02*
X0267874Y0242788D01*
X0267874Y0242389D02*
X0273386Y0242389D01*
X0273386Y0241991D02*
X0267874Y0241991D01*
X0267874Y0241592D02*
X0273386Y0241592D01*
X0273386Y0241194D02*
X0267874Y0241194D01*
X0267874Y0240795D02*
X0273386Y0240795D01*
X0273386Y0240397D02*
X0267874Y0240397D01*
X0267874Y0239998D02*
X0273386Y0239998D01*
X0273386Y0239600D02*
X0267874Y0239600D01*
X0267874Y0239201D02*
X0273386Y0239201D01*
X0273386Y0238803D02*
X0267874Y0238803D01*
X0267874Y0238404D02*
X0273386Y0238404D01*
X0273386Y0238006D02*
X0267874Y0238006D01*
X0267874Y0237607D02*
X0274961Y0237607D01*
X0274961Y0237209D02*
X0267874Y0237209D01*
X0267874Y0236810D02*
X0274961Y0236810D01*
X0274961Y0236412D02*
X0267874Y0236412D01*
X0267874Y0236013D02*
X0274961Y0236013D01*
X0274961Y0235615D02*
X0267874Y0235615D01*
X0267874Y0235216D02*
X0274961Y0235216D01*
X0274961Y0234818D02*
X0267874Y0234818D01*
X0252126Y0234818D02*
X0245039Y0234818D01*
X0245039Y0234711D02*
X0245039Y0237860D01*
X0246220Y0237860D01*
X0246220Y0245341D01*
X0246299Y0245642D01*
X0246442Y0245919D01*
X0246644Y0246157D01*
X0246893Y0246344D01*
X0247178Y0246471D01*
X0247484Y0246531D01*
X0247795Y0246522D01*
X0250945Y0246522D01*
X0251208Y0246492D01*
X0251457Y0246405D01*
X0251681Y0246264D01*
X0251868Y0246077D01*
X0252009Y0245853D01*
X0252096Y0245603D01*
X0252126Y0245341D01*
X0252126Y0234711D01*
X0245039Y0234711D01*
X0245039Y0235216D02*
X0252126Y0235216D01*
X0252126Y0235615D02*
X0245039Y0235615D01*
X0245039Y0236013D02*
X0252126Y0236013D01*
X0252126Y0236412D02*
X0245039Y0236412D01*
X0245039Y0236810D02*
X0252126Y0236810D01*
X0252126Y0237209D02*
X0245039Y0237209D01*
X0245039Y0237607D02*
X0252126Y0237607D01*
X0252126Y0238006D02*
X0246220Y0238006D01*
X0246220Y0238404D02*
X0252126Y0238404D01*
X0252126Y0238803D02*
X0246220Y0238803D01*
X0246220Y0239201D02*
X0252126Y0239201D01*
X0252126Y0239600D02*
X0246220Y0239600D01*
X0246220Y0239998D02*
X0252126Y0239998D01*
X0252126Y0240397D02*
X0246220Y0240397D01*
X0246220Y0240795D02*
X0252126Y0240795D01*
X0252126Y0241194D02*
X0246220Y0241194D01*
X0246220Y0241592D02*
X0252126Y0241592D01*
X0252126Y0241991D02*
X0246220Y0241991D01*
X0246220Y0242389D02*
X0252126Y0242389D01*
X0252126Y0242788D02*
X0246220Y0242788D01*
X0246220Y0243186D02*
X0252126Y0243186D01*
X0252126Y0243585D02*
X0246220Y0243585D01*
X0246220Y0243983D02*
X0252126Y0243983D01*
X0252126Y0244382D02*
X0246220Y0244382D01*
X0246220Y0244780D02*
X0252126Y0244780D01*
X0252126Y0245179D02*
X0246220Y0245179D01*
X0246282Y0245577D02*
X0252099Y0245577D01*
X0251932Y0245976D02*
X0246491Y0245976D01*
X0246962Y0246374D02*
X0251506Y0246374D01*
X0172961Y0237860D02*
X0172961Y0234711D01*
X0165874Y0234711D01*
X0165874Y0244947D01*
X0165865Y0245258D01*
X0165925Y0245564D01*
X0166052Y0245849D01*
X0166239Y0246098D01*
X0166477Y0246300D01*
X0166753Y0246443D01*
X0167055Y0246522D01*
X0169811Y0246522D01*
X0170161Y0246482D01*
X0170494Y0246366D01*
X0170793Y0246178D01*
X0171042Y0245929D01*
X0171230Y0245630D01*
X0171346Y0245297D01*
X0171386Y0244947D01*
X0171386Y0237860D01*
X0172961Y0237860D01*
X0172961Y0237607D02*
X0165874Y0237607D01*
X0165874Y0237209D02*
X0172961Y0237209D01*
X0172961Y0236810D02*
X0165874Y0236810D01*
X0165874Y0236412D02*
X0172961Y0236412D01*
X0172961Y0236013D02*
X0165874Y0236013D01*
X0165874Y0235615D02*
X0172961Y0235615D01*
X0172961Y0235216D02*
X0165874Y0235216D01*
X0165874Y0234818D02*
X0172961Y0234818D01*
X0171386Y0238006D02*
X0165874Y0238006D01*
X0165874Y0238404D02*
X0171386Y0238404D01*
X0171386Y0238803D02*
X0165874Y0238803D01*
X0165874Y0239201D02*
X0171386Y0239201D01*
X0171386Y0239600D02*
X0165874Y0239600D01*
X0165874Y0239998D02*
X0171386Y0239998D01*
X0171386Y0240397D02*
X0165874Y0240397D01*
X0165874Y0240795D02*
X0171386Y0240795D01*
X0171386Y0241194D02*
X0165874Y0241194D01*
X0165874Y0241592D02*
X0171386Y0241592D01*
X0171386Y0241991D02*
X0165874Y0241991D01*
X0165874Y0242389D02*
X0171386Y0242389D01*
X0171386Y0242788D02*
X0165874Y0242788D01*
X0165874Y0243186D02*
X0171386Y0243186D01*
X0171386Y0243585D02*
X0165874Y0243585D01*
X0165874Y0243983D02*
X0171386Y0243983D01*
X0171386Y0244382D02*
X0165874Y0244382D01*
X0165874Y0244780D02*
X0171386Y0244780D01*
X0171360Y0245179D02*
X0165867Y0245179D01*
X0165931Y0245577D02*
X0171248Y0245577D01*
X0170995Y0245976D02*
X0166147Y0245976D01*
X0166621Y0246374D02*
X0170469Y0246374D01*
X0150126Y0245341D02*
X0150126Y0234711D01*
X0143039Y0234711D01*
X0143039Y0237860D01*
X0144220Y0237860D01*
X0144220Y0245341D01*
X0144299Y0245642D01*
X0144442Y0245919D01*
X0144644Y0246157D01*
X0144893Y0246344D01*
X0145178Y0246471D01*
X0145484Y0246531D01*
X0145795Y0246522D01*
X0148945Y0246522D01*
X0149208Y0246492D01*
X0149457Y0246405D01*
X0149681Y0246264D01*
X0149868Y0246077D01*
X0150009Y0245853D01*
X0150096Y0245603D01*
X0150126Y0245341D01*
X0150126Y0245179D02*
X0144220Y0245179D01*
X0144220Y0244780D02*
X0150126Y0244780D01*
X0150126Y0244382D02*
X0144220Y0244382D01*
X0144220Y0243983D02*
X0150126Y0243983D01*
X0150126Y0243585D02*
X0144220Y0243585D01*
X0144220Y0243186D02*
X0150126Y0243186D01*
X0150126Y0242788D02*
X0144220Y0242788D01*
X0144220Y0242389D02*
X0150126Y0242389D01*
X0150126Y0241991D02*
X0144220Y0241991D01*
X0144220Y0241592D02*
X0150126Y0241592D01*
X0150126Y0241194D02*
X0144220Y0241194D01*
X0144220Y0240795D02*
X0150126Y0240795D01*
X0150126Y0240397D02*
X0144220Y0240397D01*
X0144220Y0239998D02*
X0150126Y0239998D01*
X0150126Y0239600D02*
X0144220Y0239600D01*
X0144220Y0239201D02*
X0150126Y0239201D01*
X0150126Y0238803D02*
X0144220Y0238803D01*
X0144220Y0238404D02*
X0150126Y0238404D01*
X0150126Y0238006D02*
X0144220Y0238006D01*
X0143039Y0237607D02*
X0150126Y0237607D01*
X0150126Y0237209D02*
X0143039Y0237209D01*
X0143039Y0236810D02*
X0150126Y0236810D01*
X0150126Y0236412D02*
X0143039Y0236412D01*
X0143039Y0236013D02*
X0150126Y0236013D01*
X0150126Y0235615D02*
X0143039Y0235615D01*
X0143039Y0235216D02*
X0150126Y0235216D01*
X0150126Y0234818D02*
X0143039Y0234818D01*
X0144282Y0245577D02*
X0150099Y0245577D01*
X0149932Y0245976D02*
X0144491Y0245976D01*
X0144962Y0246374D02*
X0149506Y0246374D01*
X0148945Y0134522D02*
X0145795Y0134522D01*
X0145484Y0134531D01*
X0145178Y0134471D01*
X0144893Y0134344D01*
X0144644Y0134157D01*
X0144442Y0133919D01*
X0144299Y0133642D01*
X0144220Y0133341D01*
X0144220Y0125860D01*
X0143039Y0125860D01*
X0143039Y0122711D01*
X0150126Y0122711D01*
X0150126Y0133341D01*
X0150096Y0133603D01*
X0150009Y0133853D01*
X0149868Y0134077D01*
X0149681Y0134264D01*
X0149457Y0134405D01*
X0149208Y0134492D01*
X0148945Y0134522D01*
X0149476Y0134393D02*
X0145003Y0134393D01*
X0144506Y0133994D02*
X0149920Y0133994D01*
X0150097Y0133596D02*
X0144287Y0133596D01*
X0144220Y0133197D02*
X0150126Y0133197D01*
X0150126Y0132799D02*
X0144220Y0132799D01*
X0144220Y0132400D02*
X0150126Y0132400D01*
X0150126Y0132002D02*
X0144220Y0132002D01*
X0144220Y0131603D02*
X0150126Y0131603D01*
X0150126Y0131205D02*
X0144220Y0131205D01*
X0144220Y0130806D02*
X0150126Y0130806D01*
X0150126Y0130408D02*
X0144220Y0130408D01*
X0144220Y0130009D02*
X0150126Y0130009D01*
X0150126Y0129611D02*
X0144220Y0129611D01*
X0144220Y0129212D02*
X0150126Y0129212D01*
X0150126Y0128814D02*
X0144220Y0128814D01*
X0144220Y0128415D02*
X0150126Y0128415D01*
X0150126Y0128017D02*
X0144220Y0128017D01*
X0144220Y0127618D02*
X0150126Y0127618D01*
X0150126Y0127220D02*
X0144220Y0127220D01*
X0144220Y0126821D02*
X0150126Y0126821D01*
X0150126Y0126422D02*
X0144220Y0126422D01*
X0144220Y0126024D02*
X0150126Y0126024D01*
X0150126Y0125625D02*
X0143039Y0125625D01*
X0143039Y0125227D02*
X0150126Y0125227D01*
X0150126Y0124828D02*
X0143039Y0124828D01*
X0143039Y0124430D02*
X0150126Y0124430D01*
X0150126Y0124031D02*
X0143039Y0124031D01*
X0143039Y0123633D02*
X0150126Y0123633D01*
X0150126Y0123234D02*
X0143039Y0123234D01*
X0143039Y0122836D02*
X0150126Y0122836D01*
X0165874Y0122836D02*
X0172961Y0122836D01*
X0172961Y0122711D02*
X0172961Y0125860D01*
X0171386Y0125860D01*
X0171386Y0132947D01*
X0171346Y0133297D01*
X0171230Y0133630D01*
X0171042Y0133929D01*
X0170793Y0134178D01*
X0170494Y0134366D01*
X0170161Y0134482D01*
X0169811Y0134522D01*
X0167055Y0134522D01*
X0166753Y0134443D01*
X0166477Y0134300D01*
X0166239Y0134098D01*
X0166052Y0133849D01*
X0165925Y0133564D01*
X0165865Y0133258D01*
X0165874Y0132947D01*
X0165874Y0122711D01*
X0172961Y0122711D01*
X0172961Y0123234D02*
X0165874Y0123234D01*
X0165874Y0123633D02*
X0172961Y0123633D01*
X0172961Y0124031D02*
X0165874Y0124031D01*
X0165874Y0124430D02*
X0172961Y0124430D01*
X0172961Y0124828D02*
X0165874Y0124828D01*
X0165874Y0125227D02*
X0172961Y0125227D01*
X0172961Y0125625D02*
X0165874Y0125625D01*
X0165874Y0126024D02*
X0171386Y0126024D01*
X0171386Y0126422D02*
X0165874Y0126422D01*
X0165874Y0126821D02*
X0171386Y0126821D01*
X0171386Y0127220D02*
X0165874Y0127220D01*
X0165874Y0127618D02*
X0171386Y0127618D01*
X0171386Y0128017D02*
X0165874Y0128017D01*
X0165874Y0128415D02*
X0171386Y0128415D01*
X0171386Y0128814D02*
X0165874Y0128814D01*
X0165874Y0129212D02*
X0171386Y0129212D01*
X0171386Y0129611D02*
X0165874Y0129611D01*
X0165874Y0130009D02*
X0171386Y0130009D01*
X0171386Y0130408D02*
X0165874Y0130408D01*
X0165874Y0130806D02*
X0171386Y0130806D01*
X0171386Y0131205D02*
X0165874Y0131205D01*
X0165874Y0131603D02*
X0171386Y0131603D01*
X0171386Y0132002D02*
X0165874Y0132002D01*
X0165874Y0132400D02*
X0171386Y0132400D01*
X0171386Y0132799D02*
X0165874Y0132799D01*
X0165867Y0133197D02*
X0171358Y0133197D01*
X0171242Y0133596D02*
X0165939Y0133596D01*
X0166161Y0133994D02*
X0170977Y0133994D01*
X0170417Y0134393D02*
X0166656Y0134393D01*
X0245039Y0125860D02*
X0246220Y0125860D01*
X0246220Y0133341D01*
X0246299Y0133642D01*
X0246442Y0133919D01*
X0246644Y0134157D01*
X0246893Y0134344D01*
X0247178Y0134471D01*
X0247484Y0134531D01*
X0247795Y0134522D01*
X0250945Y0134522D01*
X0251208Y0134492D01*
X0251457Y0134405D01*
X0251681Y0134264D01*
X0251868Y0134077D01*
X0252009Y0133853D01*
X0252096Y0133603D01*
X0252126Y0133341D01*
X0252126Y0122711D01*
X0245039Y0122711D01*
X0245039Y0125860D01*
X0245039Y0125625D02*
X0252126Y0125625D01*
X0252126Y0125227D02*
X0245039Y0125227D01*
X0245039Y0124828D02*
X0252126Y0124828D01*
X0252126Y0124430D02*
X0245039Y0124430D01*
X0245039Y0124031D02*
X0252126Y0124031D01*
X0252126Y0123633D02*
X0245039Y0123633D01*
X0245039Y0123234D02*
X0252126Y0123234D01*
X0252126Y0122836D02*
X0245039Y0122836D01*
X0246220Y0126024D02*
X0252126Y0126024D01*
X0252126Y0126422D02*
X0246220Y0126422D01*
X0246220Y0126821D02*
X0252126Y0126821D01*
X0252126Y0127220D02*
X0246220Y0127220D01*
X0246220Y0127618D02*
X0252126Y0127618D01*
X0252126Y0128017D02*
X0246220Y0128017D01*
X0246220Y0128415D02*
X0252126Y0128415D01*
X0252126Y0128814D02*
X0246220Y0128814D01*
X0246220Y0129212D02*
X0252126Y0129212D01*
X0252126Y0129611D02*
X0246220Y0129611D01*
X0246220Y0130009D02*
X0252126Y0130009D01*
X0252126Y0130408D02*
X0246220Y0130408D01*
X0246220Y0130806D02*
X0252126Y0130806D01*
X0252126Y0131205D02*
X0246220Y0131205D01*
X0246220Y0131603D02*
X0252126Y0131603D01*
X0252126Y0132002D02*
X0246220Y0132002D01*
X0246220Y0132400D02*
X0252126Y0132400D01*
X0252126Y0132799D02*
X0246220Y0132799D01*
X0246220Y0133197D02*
X0252126Y0133197D01*
X0252097Y0133596D02*
X0246287Y0133596D01*
X0246506Y0133994D02*
X0251920Y0133994D01*
X0251476Y0134393D02*
X0247003Y0134393D01*
X0267865Y0133258D02*
X0267874Y0132947D01*
X0267874Y0122711D01*
X0274961Y0122711D01*
X0274961Y0125860D01*
X0273386Y0125860D01*
X0273386Y0132947D01*
X0273346Y0133297D01*
X0273230Y0133630D01*
X0273042Y0133929D01*
X0272793Y0134178D01*
X0272494Y0134366D01*
X0272161Y0134482D01*
X0271811Y0134522D01*
X0269055Y0134522D01*
X0268753Y0134443D01*
X0268477Y0134300D01*
X0268239Y0134098D01*
X0268052Y0133849D01*
X0267925Y0133564D01*
X0267865Y0133258D01*
X0267867Y0133197D02*
X0273358Y0133197D01*
X0273386Y0132799D02*
X0267874Y0132799D01*
X0267874Y0132400D02*
X0273386Y0132400D01*
X0273386Y0132002D02*
X0267874Y0132002D01*
X0267874Y0131603D02*
X0273386Y0131603D01*
X0273386Y0131205D02*
X0267874Y0131205D01*
X0267874Y0130806D02*
X0273386Y0130806D01*
X0273386Y0130408D02*
X0267874Y0130408D01*
X0267874Y0130009D02*
X0273386Y0130009D01*
X0273386Y0129611D02*
X0267874Y0129611D01*
X0267874Y0129212D02*
X0273386Y0129212D01*
X0273386Y0128814D02*
X0267874Y0128814D01*
X0267874Y0128415D02*
X0273386Y0128415D01*
X0273386Y0128017D02*
X0267874Y0128017D01*
X0267874Y0127618D02*
X0273386Y0127618D01*
X0273386Y0127220D02*
X0267874Y0127220D01*
X0267874Y0126821D02*
X0273386Y0126821D01*
X0273386Y0126422D02*
X0267874Y0126422D01*
X0267874Y0126024D02*
X0273386Y0126024D01*
X0274961Y0125625D02*
X0267874Y0125625D01*
X0267874Y0125227D02*
X0274961Y0125227D01*
X0274961Y0124828D02*
X0267874Y0124828D01*
X0267874Y0124430D02*
X0274961Y0124430D01*
X0274961Y0124031D02*
X0267874Y0124031D01*
X0267874Y0123633D02*
X0274961Y0123633D01*
X0274961Y0123234D02*
X0267874Y0123234D01*
X0267874Y0122836D02*
X0274961Y0122836D01*
X0273242Y0133596D02*
X0267939Y0133596D01*
X0268161Y0133994D02*
X0272977Y0133994D01*
X0272417Y0134393D02*
X0268656Y0134393D01*
X0347039Y0125860D02*
X0348220Y0125860D01*
X0348220Y0133341D01*
X0348299Y0133642D01*
X0348442Y0133919D01*
X0348644Y0134157D01*
X0348893Y0134344D01*
X0349178Y0134471D01*
X0349484Y0134531D01*
X0349795Y0134522D01*
X0352945Y0134522D01*
X0353208Y0134492D01*
X0353457Y0134405D01*
X0353681Y0134264D01*
X0353868Y0134077D01*
X0354009Y0133853D01*
X0354096Y0133603D01*
X0354126Y0133341D01*
X0354126Y0122711D01*
X0347039Y0122711D01*
X0347039Y0125860D01*
X0347039Y0125625D02*
X0354126Y0125625D01*
X0354126Y0125227D02*
X0347039Y0125227D01*
X0347039Y0124828D02*
X0354126Y0124828D01*
X0354126Y0124430D02*
X0347039Y0124430D01*
X0347039Y0124031D02*
X0354126Y0124031D01*
X0354126Y0123633D02*
X0347039Y0123633D01*
X0347039Y0123234D02*
X0354126Y0123234D01*
X0354126Y0122836D02*
X0347039Y0122836D01*
X0348220Y0126024D02*
X0354126Y0126024D01*
X0354126Y0126422D02*
X0348220Y0126422D01*
X0348220Y0126821D02*
X0354126Y0126821D01*
X0354126Y0127220D02*
X0348220Y0127220D01*
X0348220Y0127618D02*
X0354126Y0127618D01*
X0354126Y0128017D02*
X0348220Y0128017D01*
X0348220Y0128415D02*
X0354126Y0128415D01*
X0354126Y0128814D02*
X0348220Y0128814D01*
X0348220Y0129212D02*
X0354126Y0129212D01*
X0354126Y0129611D02*
X0348220Y0129611D01*
X0348220Y0130009D02*
X0354126Y0130009D01*
X0354126Y0130408D02*
X0348220Y0130408D01*
X0348220Y0130806D02*
X0354126Y0130806D01*
X0354126Y0131205D02*
X0348220Y0131205D01*
X0348220Y0131603D02*
X0354126Y0131603D01*
X0354126Y0132002D02*
X0348220Y0132002D01*
X0348220Y0132400D02*
X0354126Y0132400D01*
X0354126Y0132799D02*
X0348220Y0132799D01*
X0348220Y0133197D02*
X0354126Y0133197D01*
X0354097Y0133596D02*
X0348287Y0133596D01*
X0348506Y0133994D02*
X0353920Y0133994D01*
X0353476Y0134393D02*
X0349003Y0134393D01*
X0369865Y0133258D02*
X0369874Y0132947D01*
X0369874Y0122711D01*
X0376961Y0122711D01*
X0376961Y0125860D01*
X0375386Y0125860D01*
X0375386Y0132947D01*
X0375346Y0133297D01*
X0375230Y0133630D01*
X0375042Y0133929D01*
X0374793Y0134178D01*
X0374494Y0134366D01*
X0374161Y0134482D01*
X0373811Y0134522D01*
X0371055Y0134522D01*
X0370753Y0134443D01*
X0370477Y0134300D01*
X0370239Y0134098D01*
X0370052Y0133849D01*
X0369925Y0133564D01*
X0369865Y0133258D01*
X0369867Y0133197D02*
X0375358Y0133197D01*
X0375386Y0132799D02*
X0369874Y0132799D01*
X0369874Y0132400D02*
X0375386Y0132400D01*
X0375386Y0132002D02*
X0369874Y0132002D01*
X0369874Y0131603D02*
X0375386Y0131603D01*
X0375386Y0131205D02*
X0369874Y0131205D01*
X0369874Y0130806D02*
X0375386Y0130806D01*
X0375386Y0130408D02*
X0369874Y0130408D01*
X0369874Y0130009D02*
X0375386Y0130009D01*
X0375386Y0129611D02*
X0369874Y0129611D01*
X0369874Y0129212D02*
X0375386Y0129212D01*
X0375386Y0128814D02*
X0369874Y0128814D01*
X0369874Y0128415D02*
X0375386Y0128415D01*
X0375386Y0128017D02*
X0369874Y0128017D01*
X0369874Y0127618D02*
X0375386Y0127618D01*
X0375386Y0127220D02*
X0369874Y0127220D01*
X0369874Y0126821D02*
X0375386Y0126821D01*
X0375386Y0126422D02*
X0369874Y0126422D01*
X0369874Y0126024D02*
X0375386Y0126024D01*
X0376961Y0125625D02*
X0369874Y0125625D01*
X0369874Y0125227D02*
X0376961Y0125227D01*
X0376961Y0124828D02*
X0369874Y0124828D01*
X0369874Y0124430D02*
X0376961Y0124430D01*
X0376961Y0124031D02*
X0369874Y0124031D01*
X0369874Y0123633D02*
X0376961Y0123633D01*
X0376961Y0123234D02*
X0369874Y0123234D01*
X0369874Y0122836D02*
X0376961Y0122836D01*
X0375242Y0133596D02*
X0369939Y0133596D01*
X0370161Y0133994D02*
X0374977Y0133994D01*
X0374417Y0134393D02*
X0370656Y0134393D01*
X0369874Y0234711D02*
X0369874Y0244947D01*
X0369865Y0245258D01*
X0369925Y0245564D01*
X0370052Y0245849D01*
X0370239Y0246098D01*
X0370477Y0246300D01*
X0370753Y0246443D01*
X0371055Y0246522D01*
X0373811Y0246522D01*
X0374161Y0246482D01*
X0374494Y0246366D01*
X0374793Y0246178D01*
X0375042Y0245929D01*
X0375230Y0245630D01*
X0375346Y0245297D01*
X0375386Y0244947D01*
X0375386Y0237860D01*
X0376961Y0237860D01*
X0376961Y0234711D01*
X0369874Y0234711D01*
X0369874Y0234818D02*
X0376961Y0234818D01*
X0376961Y0235216D02*
X0369874Y0235216D01*
X0369874Y0235615D02*
X0376961Y0235615D01*
X0376961Y0236013D02*
X0369874Y0236013D01*
X0369874Y0236412D02*
X0376961Y0236412D01*
X0376961Y0236810D02*
X0369874Y0236810D01*
X0369874Y0237209D02*
X0376961Y0237209D01*
X0376961Y0237607D02*
X0369874Y0237607D01*
X0369874Y0238006D02*
X0375386Y0238006D01*
X0375386Y0238404D02*
X0369874Y0238404D01*
X0369874Y0238803D02*
X0375386Y0238803D01*
X0375386Y0239201D02*
X0369874Y0239201D01*
X0369874Y0239600D02*
X0375386Y0239600D01*
X0375386Y0239998D02*
X0369874Y0239998D01*
X0369874Y0240397D02*
X0375386Y0240397D01*
X0375386Y0240795D02*
X0369874Y0240795D01*
X0369874Y0241194D02*
X0375386Y0241194D01*
X0375386Y0241592D02*
X0369874Y0241592D01*
X0369874Y0241991D02*
X0375386Y0241991D01*
X0375386Y0242389D02*
X0369874Y0242389D01*
X0369874Y0242788D02*
X0375386Y0242788D01*
X0375386Y0243186D02*
X0369874Y0243186D01*
X0369874Y0243585D02*
X0375386Y0243585D01*
X0375386Y0243983D02*
X0369874Y0243983D01*
X0369874Y0244382D02*
X0375386Y0244382D01*
X0375386Y0244780D02*
X0369874Y0244780D01*
X0369867Y0245179D02*
X0375360Y0245179D01*
X0375248Y0245577D02*
X0369931Y0245577D01*
X0370147Y0245976D02*
X0374995Y0245976D01*
X0374469Y0246374D02*
X0370621Y0246374D01*
X0354126Y0245341D02*
X0354126Y0234711D01*
X0347039Y0234711D01*
X0347039Y0237860D01*
X0348220Y0237860D01*
X0348220Y0245341D01*
X0348299Y0245642D01*
X0348442Y0245919D01*
X0348644Y0246157D01*
X0348893Y0246344D01*
X0349178Y0246471D01*
X0349484Y0246531D01*
X0349795Y0246522D01*
X0352945Y0246522D01*
X0353208Y0246492D01*
X0353457Y0246405D01*
X0353681Y0246264D01*
X0353868Y0246077D01*
X0354009Y0245853D01*
X0354096Y0245603D01*
X0354126Y0245341D01*
X0354126Y0245179D02*
X0348220Y0245179D01*
X0348220Y0244780D02*
X0354126Y0244780D01*
X0354126Y0244382D02*
X0348220Y0244382D01*
X0348220Y0243983D02*
X0354126Y0243983D01*
X0354126Y0243585D02*
X0348220Y0243585D01*
X0348220Y0243186D02*
X0354126Y0243186D01*
X0354126Y0242788D02*
X0348220Y0242788D01*
X0348220Y0242389D02*
X0354126Y0242389D01*
X0354126Y0241991D02*
X0348220Y0241991D01*
X0348220Y0241592D02*
X0354126Y0241592D01*
X0354126Y0241194D02*
X0348220Y0241194D01*
X0348220Y0240795D02*
X0354126Y0240795D01*
X0354126Y0240397D02*
X0348220Y0240397D01*
X0348220Y0239998D02*
X0354126Y0239998D01*
X0354126Y0239600D02*
X0348220Y0239600D01*
X0348220Y0239201D02*
X0354126Y0239201D01*
X0354126Y0238803D02*
X0348220Y0238803D01*
X0348220Y0238404D02*
X0354126Y0238404D01*
X0354126Y0238006D02*
X0348220Y0238006D01*
X0347039Y0237607D02*
X0354126Y0237607D01*
X0354126Y0237209D02*
X0347039Y0237209D01*
X0347039Y0236810D02*
X0354126Y0236810D01*
X0354126Y0236412D02*
X0347039Y0236412D01*
X0347039Y0236013D02*
X0354126Y0236013D01*
X0354126Y0235615D02*
X0347039Y0235615D01*
X0347039Y0235216D02*
X0354126Y0235216D01*
X0354126Y0234818D02*
X0347039Y0234818D01*
X0348282Y0245577D02*
X0354099Y0245577D01*
X0353932Y0245976D02*
X0348491Y0245976D01*
X0348962Y0246374D02*
X0353506Y0246374D01*
X0354126Y0346711D02*
X0347039Y0346711D01*
X0347039Y0349860D01*
X0348220Y0349860D01*
X0348220Y0357341D01*
X0348299Y0357642D01*
X0348442Y0357919D01*
X0348644Y0358157D01*
X0348893Y0358344D01*
X0349178Y0358471D01*
X0349484Y0358531D01*
X0349795Y0358522D01*
X0352945Y0358522D01*
X0353208Y0358492D01*
X0353457Y0358405D01*
X0353681Y0358264D01*
X0353868Y0358077D01*
X0354009Y0357853D01*
X0354096Y0357603D01*
X0354126Y0357341D01*
X0354126Y0346711D01*
X0354126Y0346799D02*
X0347039Y0346799D01*
X0347039Y0347198D02*
X0354126Y0347198D01*
X0354126Y0347596D02*
X0347039Y0347596D01*
X0347039Y0347995D02*
X0354126Y0347995D01*
X0354126Y0348393D02*
X0347039Y0348393D01*
X0347039Y0348792D02*
X0354126Y0348792D01*
X0354126Y0349190D02*
X0347039Y0349190D01*
X0347039Y0349589D02*
X0354126Y0349589D01*
X0354126Y0349987D02*
X0348220Y0349987D01*
X0348220Y0350386D02*
X0354126Y0350386D01*
X0354126Y0350784D02*
X0348220Y0350784D01*
X0348220Y0351183D02*
X0354126Y0351183D01*
X0354126Y0351581D02*
X0348220Y0351581D01*
X0348220Y0351980D02*
X0354126Y0351980D01*
X0354126Y0352378D02*
X0348220Y0352378D01*
X0348220Y0352777D02*
X0354126Y0352777D01*
X0354126Y0353175D02*
X0348220Y0353175D01*
X0348220Y0353574D02*
X0354126Y0353574D01*
X0354126Y0353972D02*
X0348220Y0353972D01*
X0348220Y0354371D02*
X0354126Y0354371D01*
X0354126Y0354769D02*
X0348220Y0354769D01*
X0348220Y0355168D02*
X0354126Y0355168D01*
X0354126Y0355566D02*
X0348220Y0355566D01*
X0348220Y0355965D02*
X0354126Y0355965D01*
X0354126Y0356364D02*
X0348220Y0356364D01*
X0348220Y0356762D02*
X0354126Y0356762D01*
X0354126Y0357161D02*
X0348220Y0357161D01*
X0348277Y0357559D02*
X0354101Y0357559D01*
X0353943Y0357958D02*
X0348475Y0357958D01*
X0348921Y0358356D02*
X0353535Y0358356D01*
X0369865Y0357258D02*
X0369925Y0357564D01*
X0370052Y0357849D01*
X0370239Y0358098D01*
X0370477Y0358300D01*
X0370753Y0358443D01*
X0371055Y0358522D01*
X0373811Y0358522D01*
X0374161Y0358482D01*
X0374494Y0358366D01*
X0374793Y0358178D01*
X0375042Y0357929D01*
X0375230Y0357630D01*
X0375346Y0357297D01*
X0375386Y0356947D01*
X0375386Y0349860D01*
X0376961Y0349860D01*
X0376961Y0346711D01*
X0369874Y0346711D01*
X0369874Y0356947D01*
X0369865Y0357258D01*
X0369868Y0357161D02*
X0375362Y0357161D01*
X0375386Y0356762D02*
X0369874Y0356762D01*
X0369874Y0356364D02*
X0375386Y0356364D01*
X0375386Y0355965D02*
X0369874Y0355965D01*
X0369874Y0355566D02*
X0375386Y0355566D01*
X0375386Y0355168D02*
X0369874Y0355168D01*
X0369874Y0354769D02*
X0375386Y0354769D01*
X0375386Y0354371D02*
X0369874Y0354371D01*
X0369874Y0353972D02*
X0375386Y0353972D01*
X0375386Y0353574D02*
X0369874Y0353574D01*
X0369874Y0353175D02*
X0375386Y0353175D01*
X0375386Y0352777D02*
X0369874Y0352777D01*
X0369874Y0352378D02*
X0375386Y0352378D01*
X0375386Y0351980D02*
X0369874Y0351980D01*
X0369874Y0351581D02*
X0375386Y0351581D01*
X0375386Y0351183D02*
X0369874Y0351183D01*
X0369874Y0350784D02*
X0375386Y0350784D01*
X0375386Y0350386D02*
X0369874Y0350386D01*
X0369874Y0349987D02*
X0375386Y0349987D01*
X0376961Y0349589D02*
X0369874Y0349589D01*
X0369874Y0349190D02*
X0376961Y0349190D01*
X0376961Y0348792D02*
X0369874Y0348792D01*
X0369874Y0348393D02*
X0376961Y0348393D01*
X0376961Y0347995D02*
X0369874Y0347995D01*
X0369874Y0347596D02*
X0376961Y0347596D01*
X0376961Y0347198D02*
X0369874Y0347198D01*
X0369874Y0346799D02*
X0376961Y0346799D01*
X0375255Y0357559D02*
X0369924Y0357559D01*
X0370133Y0357958D02*
X0375013Y0357958D01*
X0374510Y0358356D02*
X0370585Y0358356D01*
D16*
X0339500Y0347750D03*
X0339500Y0337750D03*
X0339500Y0327750D03*
X0339500Y0317750D03*
X0339500Y0307750D03*
X0339500Y0297750D03*
X0339500Y0287750D03*
X0327500Y0287750D03*
X0327500Y0297750D03*
X0327500Y0307750D03*
X0327500Y0317750D03*
X0327500Y0327750D03*
X0327500Y0337750D03*
X0327500Y0399750D03*
X0327500Y0409750D03*
X0327500Y0419750D03*
X0327500Y0429750D03*
X0327500Y0439750D03*
X0327500Y0449750D03*
X0339500Y0449750D03*
X0339500Y0439750D03*
X0339500Y0429750D03*
X0339500Y0419750D03*
X0339500Y0409750D03*
X0339500Y0399750D03*
X0339500Y0459750D03*
X0339500Y0511750D03*
X0339500Y0521750D03*
X0339500Y0531750D03*
X0339500Y0541750D03*
X0339500Y0551750D03*
X0339500Y0561750D03*
X0339500Y0571750D03*
X0327500Y0561750D03*
X0327500Y0551750D03*
X0327500Y0541750D03*
X0327500Y0531750D03*
X0327500Y0521750D03*
X0327500Y0511750D03*
X0237500Y0511750D03*
X0237500Y0521750D03*
X0237500Y0531750D03*
X0237500Y0541750D03*
X0237500Y0551750D03*
X0237500Y0561750D03*
X0237500Y0571750D03*
X0225500Y0561750D03*
X0225500Y0551750D03*
X0225500Y0541750D03*
X0225500Y0531750D03*
X0225500Y0521750D03*
X0225500Y0511750D03*
X0237500Y0459750D03*
X0237500Y0449750D03*
X0237500Y0439750D03*
X0237500Y0429750D03*
X0237500Y0419750D03*
X0237500Y0409750D03*
X0237500Y0399750D03*
X0225500Y0399750D03*
X0225500Y0409750D03*
X0225500Y0419750D03*
X0225500Y0429750D03*
X0225500Y0439750D03*
X0225500Y0449750D03*
X0237500Y0347750D03*
X0237500Y0337750D03*
X0237500Y0327750D03*
X0237500Y0317750D03*
X0237500Y0307750D03*
X0237500Y0297750D03*
X0237500Y0287750D03*
X0225500Y0287750D03*
X0225500Y0297750D03*
X0225500Y0307750D03*
X0225500Y0317750D03*
X0225500Y0327750D03*
X0225500Y0337750D03*
X0237500Y0235750D03*
X0237500Y0225750D03*
X0237500Y0215750D03*
X0237500Y0205750D03*
X0237500Y0195750D03*
X0237500Y0185750D03*
X0237500Y0175750D03*
X0225500Y0175750D03*
X0225500Y0185750D03*
X0225500Y0195750D03*
X0225500Y0205750D03*
X0225500Y0215750D03*
X0225500Y0225750D03*
X0237500Y0123750D03*
X0237500Y0113750D03*
X0237500Y0103750D03*
X0237500Y0093750D03*
X0237500Y0083750D03*
X0237500Y0073750D03*
X0237500Y0063750D03*
X0225500Y0063750D03*
X0225500Y0073750D03*
X0225500Y0083750D03*
X0225500Y0093750D03*
X0225500Y0103750D03*
X0225500Y0113750D03*
X0135500Y0113750D03*
X0135500Y0123750D03*
X0123500Y0113750D03*
X0123500Y0103750D03*
X0123500Y0093750D03*
X0123500Y0083750D03*
X0123500Y0073750D03*
X0123500Y0063750D03*
X0135500Y0063750D03*
X0135500Y0073750D03*
X0135500Y0083750D03*
X0135500Y0093750D03*
X0135500Y0103750D03*
X0135500Y0175750D03*
X0135500Y0185750D03*
X0135500Y0195750D03*
X0135500Y0205750D03*
X0135500Y0215750D03*
X0135500Y0225750D03*
X0135500Y0235750D03*
X0123500Y0225750D03*
X0123500Y0215750D03*
X0123500Y0205750D03*
X0123500Y0195750D03*
X0123500Y0185750D03*
X0123500Y0175750D03*
X0123500Y0287750D03*
X0123500Y0297750D03*
X0123500Y0307750D03*
X0123500Y0317750D03*
X0123500Y0327750D03*
X0123500Y0337750D03*
X0135500Y0337750D03*
X0135500Y0327750D03*
X0135500Y0317750D03*
X0135500Y0307750D03*
X0135500Y0297750D03*
X0135500Y0287750D03*
X0135500Y0347750D03*
X0135500Y0399750D03*
X0135500Y0409750D03*
X0135500Y0419750D03*
X0135500Y0429750D03*
X0135500Y0439750D03*
X0135500Y0449750D03*
X0135500Y0459750D03*
X0123500Y0449750D03*
X0123500Y0439750D03*
X0123500Y0429750D03*
X0123500Y0419750D03*
X0123500Y0409750D03*
X0123500Y0399750D03*
X0123500Y0511750D03*
X0123500Y0521750D03*
X0123500Y0531750D03*
X0123500Y0541750D03*
X0123500Y0551750D03*
X0123500Y0561750D03*
X0135500Y0561750D03*
X0135500Y0571750D03*
X0135500Y0551750D03*
X0135500Y0541750D03*
X0135500Y0531750D03*
X0135500Y0521750D03*
X0135500Y0511750D03*
X0033500Y0511750D03*
X0033500Y0521750D03*
X0033500Y0531750D03*
X0033500Y0541750D03*
X0033500Y0551750D03*
X0033500Y0561750D03*
X0033500Y0571750D03*
X0033500Y0459750D03*
X0033500Y0449750D03*
X0033500Y0439750D03*
X0033500Y0429750D03*
X0033500Y0419750D03*
X0033500Y0409750D03*
X0033500Y0399750D03*
X0033500Y0347750D03*
X0033500Y0337750D03*
X0033500Y0327750D03*
X0033500Y0317750D03*
X0033500Y0307750D03*
X0033500Y0297750D03*
X0033500Y0287750D03*
X0033500Y0235750D03*
X0033500Y0225750D03*
X0033500Y0215750D03*
X0033500Y0205750D03*
X0033500Y0195750D03*
X0033500Y0185750D03*
X0033500Y0175750D03*
X0033500Y0123750D03*
X0033500Y0113750D03*
X0033500Y0103750D03*
X0033500Y0093750D03*
X0033500Y0083750D03*
X0033500Y0073750D03*
X0033500Y0063750D03*
X0327500Y0063750D03*
X0327500Y0073750D03*
X0327500Y0083750D03*
X0327500Y0093750D03*
X0327500Y0103750D03*
X0327500Y0113750D03*
X0339500Y0113750D03*
X0339500Y0123750D03*
X0339500Y0103750D03*
X0339500Y0093750D03*
X0339500Y0083750D03*
X0339500Y0073750D03*
X0339500Y0063750D03*
X0339500Y0175750D03*
X0339500Y0185750D03*
X0339500Y0195750D03*
X0339500Y0205750D03*
X0339500Y0215750D03*
X0339500Y0225750D03*
X0339500Y0235750D03*
X0327500Y0225750D03*
X0327500Y0215750D03*
X0327500Y0205750D03*
X0327500Y0195750D03*
X0327500Y0185750D03*
X0327500Y0175750D03*
X0429500Y0175750D03*
X0429500Y0185750D03*
X0429500Y0195750D03*
X0429500Y0205750D03*
X0429500Y0215750D03*
X0429500Y0225750D03*
X0429500Y0287750D03*
X0429500Y0297750D03*
X0429500Y0307750D03*
X0429500Y0317750D03*
X0429500Y0327750D03*
X0429500Y0337750D03*
X0429500Y0399750D03*
X0429500Y0409750D03*
X0429500Y0419750D03*
X0429500Y0429750D03*
X0429500Y0439750D03*
X0429500Y0449750D03*
X0429500Y0511750D03*
X0429500Y0521750D03*
X0429500Y0531750D03*
X0429500Y0541750D03*
X0429500Y0551750D03*
X0429500Y0561750D03*
X0429500Y0113750D03*
X0429500Y0103750D03*
X0429500Y0093750D03*
X0429500Y0083750D03*
X0429500Y0073750D03*
X0429500Y0063750D03*
D17*
X0424500Y0048750D03*
X0424500Y0128750D03*
X0424500Y0160750D03*
X0424500Y0240750D03*
X0424500Y0272750D03*
X0424500Y0352750D03*
X0424500Y0384750D03*
X0424500Y0464750D03*
X0424500Y0496750D03*
X0424500Y0576750D03*
X0344500Y0496750D03*
X0322500Y0496750D03*
X0322500Y0464750D03*
X0322500Y0384750D03*
X0322500Y0352750D03*
X0344500Y0384750D03*
X0344500Y0272750D03*
X0322500Y0272750D03*
X0322500Y0240750D03*
X0322500Y0160750D03*
X0344500Y0160750D03*
X0322500Y0128750D03*
X0322500Y0048750D03*
X0344500Y0048750D03*
X0242500Y0048750D03*
X0220500Y0048750D03*
X0220500Y0128750D03*
X0220500Y0160750D03*
X0242500Y0160750D03*
X0220500Y0240750D03*
X0220500Y0272750D03*
X0242500Y0272750D03*
X0220500Y0352750D03*
X0220500Y0384750D03*
X0242500Y0384750D03*
X0220500Y0464750D03*
X0220500Y0496750D03*
X0242500Y0496750D03*
X0220500Y0576750D03*
X0140500Y0496750D03*
X0118500Y0496750D03*
X0118500Y0464750D03*
X0118500Y0384750D03*
X0118500Y0352750D03*
X0140500Y0384750D03*
X0140500Y0272750D03*
X0118500Y0272750D03*
X0118500Y0240750D03*
X0118500Y0160750D03*
X0140500Y0160750D03*
X0118500Y0128750D03*
X0118500Y0048750D03*
X0140500Y0048750D03*
X0038500Y0048750D03*
X0038500Y0160750D03*
X0038500Y0272750D03*
X0038500Y0384750D03*
X0038500Y0496750D03*
X0118500Y0576750D03*
X0322500Y0576750D03*
D18*
X0307080Y0497223D02*
X0307080Y0494477D01*
X0307080Y0497223D02*
X0309826Y0497223D01*
X0309826Y0494477D01*
X0307080Y0494477D01*
X0307080Y0496367D02*
X0309826Y0496367D01*
X0300174Y0497223D02*
X0300174Y0494477D01*
X0300174Y0497223D02*
X0302920Y0497223D01*
X0302920Y0494477D01*
X0300174Y0494477D01*
X0300174Y0496367D02*
X0302920Y0496367D01*
X0261580Y0497223D02*
X0261580Y0494477D01*
X0261580Y0497223D02*
X0264326Y0497223D01*
X0264326Y0494477D01*
X0261580Y0494477D01*
X0261580Y0496367D02*
X0264326Y0496367D01*
X0254674Y0497223D02*
X0254674Y0494477D01*
X0254674Y0497223D02*
X0257420Y0497223D01*
X0257420Y0494477D01*
X0254674Y0494477D01*
X0254674Y0496367D02*
X0257420Y0496367D01*
X0205080Y0497223D02*
X0205080Y0494477D01*
X0205080Y0497223D02*
X0207826Y0497223D01*
X0207826Y0494477D01*
X0205080Y0494477D01*
X0205080Y0496367D02*
X0207826Y0496367D01*
X0198174Y0497223D02*
X0198174Y0494477D01*
X0198174Y0497223D02*
X0200920Y0497223D01*
X0200920Y0494477D01*
X0198174Y0494477D01*
X0198174Y0496367D02*
X0200920Y0496367D01*
X0159580Y0497223D02*
X0159580Y0494477D01*
X0159580Y0497223D02*
X0162326Y0497223D01*
X0162326Y0494477D01*
X0159580Y0494477D01*
X0159580Y0496367D02*
X0162326Y0496367D01*
X0152674Y0497223D02*
X0152674Y0494477D01*
X0152674Y0497223D02*
X0155420Y0497223D01*
X0155420Y0494477D01*
X0152674Y0494477D01*
X0152674Y0496367D02*
X0155420Y0496367D01*
X0103080Y0497223D02*
X0103080Y0494477D01*
X0103080Y0497223D02*
X0105826Y0497223D01*
X0105826Y0494477D01*
X0103080Y0494477D01*
X0103080Y0496367D02*
X0105826Y0496367D01*
X0096174Y0497223D02*
X0096174Y0494477D01*
X0096174Y0497223D02*
X0098920Y0497223D01*
X0098920Y0494477D01*
X0096174Y0494477D01*
X0096174Y0496367D02*
X0098920Y0496367D01*
X0057580Y0497223D02*
X0057580Y0494477D01*
X0057580Y0497223D02*
X0060326Y0497223D01*
X0060326Y0494477D01*
X0057580Y0494477D01*
X0057580Y0496367D02*
X0060326Y0496367D01*
X0050674Y0497223D02*
X0050674Y0494477D01*
X0050674Y0497223D02*
X0053420Y0497223D01*
X0053420Y0494477D01*
X0050674Y0494477D01*
X0050674Y0496367D02*
X0053420Y0496367D01*
X0050674Y0385223D02*
X0050674Y0382477D01*
X0050674Y0385223D02*
X0053420Y0385223D01*
X0053420Y0382477D01*
X0050674Y0382477D01*
X0050674Y0384367D02*
X0053420Y0384367D01*
X0057580Y0385223D02*
X0057580Y0382477D01*
X0057580Y0385223D02*
X0060326Y0385223D01*
X0060326Y0382477D01*
X0057580Y0382477D01*
X0057580Y0384367D02*
X0060326Y0384367D01*
X0096174Y0385223D02*
X0096174Y0382477D01*
X0096174Y0385223D02*
X0098920Y0385223D01*
X0098920Y0382477D01*
X0096174Y0382477D01*
X0096174Y0384367D02*
X0098920Y0384367D01*
X0103080Y0385223D02*
X0103080Y0382477D01*
X0103080Y0385223D02*
X0105826Y0385223D01*
X0105826Y0382477D01*
X0103080Y0382477D01*
X0103080Y0384367D02*
X0105826Y0384367D01*
X0152674Y0385223D02*
X0152674Y0382477D01*
X0152674Y0385223D02*
X0155420Y0385223D01*
X0155420Y0382477D01*
X0152674Y0382477D01*
X0152674Y0384367D02*
X0155420Y0384367D01*
X0159580Y0385223D02*
X0159580Y0382477D01*
X0159580Y0385223D02*
X0162326Y0385223D01*
X0162326Y0382477D01*
X0159580Y0382477D01*
X0159580Y0384367D02*
X0162326Y0384367D01*
X0198174Y0385223D02*
X0198174Y0382477D01*
X0198174Y0385223D02*
X0200920Y0385223D01*
X0200920Y0382477D01*
X0198174Y0382477D01*
X0198174Y0384367D02*
X0200920Y0384367D01*
X0205080Y0385223D02*
X0205080Y0382477D01*
X0205080Y0385223D02*
X0207826Y0385223D01*
X0207826Y0382477D01*
X0205080Y0382477D01*
X0205080Y0384367D02*
X0207826Y0384367D01*
X0254674Y0385223D02*
X0254674Y0382477D01*
X0254674Y0385223D02*
X0257420Y0385223D01*
X0257420Y0382477D01*
X0254674Y0382477D01*
X0254674Y0384367D02*
X0257420Y0384367D01*
X0261580Y0385223D02*
X0261580Y0382477D01*
X0261580Y0385223D02*
X0264326Y0385223D01*
X0264326Y0382477D01*
X0261580Y0382477D01*
X0261580Y0384367D02*
X0264326Y0384367D01*
X0300174Y0385223D02*
X0300174Y0382477D01*
X0300174Y0385223D02*
X0302920Y0385223D01*
X0302920Y0382477D01*
X0300174Y0382477D01*
X0300174Y0384367D02*
X0302920Y0384367D01*
X0307080Y0385223D02*
X0307080Y0382477D01*
X0307080Y0385223D02*
X0309826Y0385223D01*
X0309826Y0382477D01*
X0307080Y0382477D01*
X0307080Y0384367D02*
X0309826Y0384367D01*
X0356674Y0385223D02*
X0356674Y0382477D01*
X0356674Y0385223D02*
X0359420Y0385223D01*
X0359420Y0382477D01*
X0356674Y0382477D01*
X0356674Y0384367D02*
X0359420Y0384367D01*
X0363580Y0385223D02*
X0363580Y0382477D01*
X0363580Y0385223D02*
X0366326Y0385223D01*
X0366326Y0382477D01*
X0363580Y0382477D01*
X0363580Y0384367D02*
X0366326Y0384367D01*
X0402174Y0385223D02*
X0402174Y0382477D01*
X0402174Y0385223D02*
X0404920Y0385223D01*
X0404920Y0382477D01*
X0402174Y0382477D01*
X0402174Y0384367D02*
X0404920Y0384367D01*
X0409080Y0385223D02*
X0409080Y0382477D01*
X0409080Y0385223D02*
X0411826Y0385223D01*
X0411826Y0382477D01*
X0409080Y0382477D01*
X0409080Y0384367D02*
X0411826Y0384367D01*
X0409080Y0494477D02*
X0409080Y0497223D01*
X0411826Y0497223D01*
X0411826Y0494477D01*
X0409080Y0494477D01*
X0409080Y0496367D02*
X0411826Y0496367D01*
X0402174Y0497223D02*
X0402174Y0494477D01*
X0402174Y0497223D02*
X0404920Y0497223D01*
X0404920Y0494477D01*
X0402174Y0494477D01*
X0402174Y0496367D02*
X0404920Y0496367D01*
X0363580Y0497223D02*
X0363580Y0494477D01*
X0363580Y0497223D02*
X0366326Y0497223D01*
X0366326Y0494477D01*
X0363580Y0494477D01*
X0363580Y0496367D02*
X0366326Y0496367D01*
X0356674Y0497223D02*
X0356674Y0494477D01*
X0356674Y0497223D02*
X0359420Y0497223D01*
X0359420Y0494477D01*
X0356674Y0494477D01*
X0356674Y0496367D02*
X0359420Y0496367D01*
X0356674Y0273223D02*
X0356674Y0270477D01*
X0356674Y0273223D02*
X0359420Y0273223D01*
X0359420Y0270477D01*
X0356674Y0270477D01*
X0356674Y0272367D02*
X0359420Y0272367D01*
X0363580Y0273223D02*
X0363580Y0270477D01*
X0363580Y0273223D02*
X0366326Y0273223D01*
X0366326Y0270477D01*
X0363580Y0270477D01*
X0363580Y0272367D02*
X0366326Y0272367D01*
X0402174Y0273223D02*
X0402174Y0270477D01*
X0402174Y0273223D02*
X0404920Y0273223D01*
X0404920Y0270477D01*
X0402174Y0270477D01*
X0402174Y0272367D02*
X0404920Y0272367D01*
X0409080Y0273223D02*
X0409080Y0270477D01*
X0409080Y0273223D02*
X0411826Y0273223D01*
X0411826Y0270477D01*
X0409080Y0270477D01*
X0409080Y0272367D02*
X0411826Y0272367D01*
X0409080Y0161223D02*
X0409080Y0158477D01*
X0409080Y0161223D02*
X0411826Y0161223D01*
X0411826Y0158477D01*
X0409080Y0158477D01*
X0409080Y0160367D02*
X0411826Y0160367D01*
X0402174Y0161223D02*
X0402174Y0158477D01*
X0402174Y0161223D02*
X0404920Y0161223D01*
X0404920Y0158477D01*
X0402174Y0158477D01*
X0402174Y0160367D02*
X0404920Y0160367D01*
X0363580Y0161223D02*
X0363580Y0158477D01*
X0363580Y0161223D02*
X0366326Y0161223D01*
X0366326Y0158477D01*
X0363580Y0158477D01*
X0363580Y0160367D02*
X0366326Y0160367D01*
X0356674Y0161223D02*
X0356674Y0158477D01*
X0356674Y0161223D02*
X0359420Y0161223D01*
X0359420Y0158477D01*
X0356674Y0158477D01*
X0356674Y0160367D02*
X0359420Y0160367D01*
X0307080Y0161223D02*
X0307080Y0158477D01*
X0307080Y0161223D02*
X0309826Y0161223D01*
X0309826Y0158477D01*
X0307080Y0158477D01*
X0307080Y0160367D02*
X0309826Y0160367D01*
X0300174Y0161223D02*
X0300174Y0158477D01*
X0300174Y0161223D02*
X0302920Y0161223D01*
X0302920Y0158477D01*
X0300174Y0158477D01*
X0300174Y0160367D02*
X0302920Y0160367D01*
X0261580Y0161223D02*
X0261580Y0158477D01*
X0261580Y0161223D02*
X0264326Y0161223D01*
X0264326Y0158477D01*
X0261580Y0158477D01*
X0261580Y0160367D02*
X0264326Y0160367D01*
X0254674Y0161223D02*
X0254674Y0158477D01*
X0254674Y0161223D02*
X0257420Y0161223D01*
X0257420Y0158477D01*
X0254674Y0158477D01*
X0254674Y0160367D02*
X0257420Y0160367D01*
X0205080Y0161223D02*
X0205080Y0158477D01*
X0205080Y0161223D02*
X0207826Y0161223D01*
X0207826Y0158477D01*
X0205080Y0158477D01*
X0205080Y0160367D02*
X0207826Y0160367D01*
X0198174Y0161223D02*
X0198174Y0158477D01*
X0198174Y0161223D02*
X0200920Y0161223D01*
X0200920Y0158477D01*
X0198174Y0158477D01*
X0198174Y0160367D02*
X0200920Y0160367D01*
X0159580Y0161223D02*
X0159580Y0158477D01*
X0159580Y0161223D02*
X0162326Y0161223D01*
X0162326Y0158477D01*
X0159580Y0158477D01*
X0159580Y0160367D02*
X0162326Y0160367D01*
X0152674Y0161223D02*
X0152674Y0158477D01*
X0152674Y0161223D02*
X0155420Y0161223D01*
X0155420Y0158477D01*
X0152674Y0158477D01*
X0152674Y0160367D02*
X0155420Y0160367D01*
X0103080Y0161223D02*
X0103080Y0158477D01*
X0103080Y0161223D02*
X0105826Y0161223D01*
X0105826Y0158477D01*
X0103080Y0158477D01*
X0103080Y0160367D02*
X0105826Y0160367D01*
X0096174Y0161223D02*
X0096174Y0158477D01*
X0096174Y0161223D02*
X0098920Y0161223D01*
X0098920Y0158477D01*
X0096174Y0158477D01*
X0096174Y0160367D02*
X0098920Y0160367D01*
X0057580Y0161223D02*
X0057580Y0158477D01*
X0057580Y0161223D02*
X0060326Y0161223D01*
X0060326Y0158477D01*
X0057580Y0158477D01*
X0057580Y0160367D02*
X0060326Y0160367D01*
X0050674Y0161223D02*
X0050674Y0158477D01*
X0050674Y0161223D02*
X0053420Y0161223D01*
X0053420Y0158477D01*
X0050674Y0158477D01*
X0050674Y0160367D02*
X0053420Y0160367D01*
X0050674Y0270477D02*
X0050674Y0273223D01*
X0053420Y0273223D01*
X0053420Y0270477D01*
X0050674Y0270477D01*
X0050674Y0272367D02*
X0053420Y0272367D01*
X0057580Y0273223D02*
X0057580Y0270477D01*
X0057580Y0273223D02*
X0060326Y0273223D01*
X0060326Y0270477D01*
X0057580Y0270477D01*
X0057580Y0272367D02*
X0060326Y0272367D01*
X0096174Y0273223D02*
X0096174Y0270477D01*
X0096174Y0273223D02*
X0098920Y0273223D01*
X0098920Y0270477D01*
X0096174Y0270477D01*
X0096174Y0272367D02*
X0098920Y0272367D01*
X0103080Y0273223D02*
X0103080Y0270477D01*
X0103080Y0273223D02*
X0105826Y0273223D01*
X0105826Y0270477D01*
X0103080Y0270477D01*
X0103080Y0272367D02*
X0105826Y0272367D01*
X0152674Y0273223D02*
X0152674Y0270477D01*
X0152674Y0273223D02*
X0155420Y0273223D01*
X0155420Y0270477D01*
X0152674Y0270477D01*
X0152674Y0272367D02*
X0155420Y0272367D01*
X0159580Y0273223D02*
X0159580Y0270477D01*
X0159580Y0273223D02*
X0162326Y0273223D01*
X0162326Y0270477D01*
X0159580Y0270477D01*
X0159580Y0272367D02*
X0162326Y0272367D01*
X0198174Y0273223D02*
X0198174Y0270477D01*
X0198174Y0273223D02*
X0200920Y0273223D01*
X0200920Y0270477D01*
X0198174Y0270477D01*
X0198174Y0272367D02*
X0200920Y0272367D01*
X0205080Y0273223D02*
X0205080Y0270477D01*
X0205080Y0273223D02*
X0207826Y0273223D01*
X0207826Y0270477D01*
X0205080Y0270477D01*
X0205080Y0272367D02*
X0207826Y0272367D01*
X0254674Y0273223D02*
X0254674Y0270477D01*
X0254674Y0273223D02*
X0257420Y0273223D01*
X0257420Y0270477D01*
X0254674Y0270477D01*
X0254674Y0272367D02*
X0257420Y0272367D01*
X0261580Y0273223D02*
X0261580Y0270477D01*
X0261580Y0273223D02*
X0264326Y0273223D01*
X0264326Y0270477D01*
X0261580Y0270477D01*
X0261580Y0272367D02*
X0264326Y0272367D01*
X0300174Y0273223D02*
X0300174Y0270477D01*
X0300174Y0273223D02*
X0302920Y0273223D01*
X0302920Y0270477D01*
X0300174Y0270477D01*
X0300174Y0272367D02*
X0302920Y0272367D01*
X0307080Y0273223D02*
X0307080Y0270477D01*
X0307080Y0273223D02*
X0309826Y0273223D01*
X0309826Y0270477D01*
X0307080Y0270477D01*
X0307080Y0272367D02*
X0309826Y0272367D01*
X0307080Y0049223D02*
X0307080Y0046477D01*
X0307080Y0049223D02*
X0309826Y0049223D01*
X0309826Y0046477D01*
X0307080Y0046477D01*
X0307080Y0048367D02*
X0309826Y0048367D01*
X0300174Y0049223D02*
X0300174Y0046477D01*
X0300174Y0049223D02*
X0302920Y0049223D01*
X0302920Y0046477D01*
X0300174Y0046477D01*
X0300174Y0048367D02*
X0302920Y0048367D01*
X0261580Y0049223D02*
X0261580Y0046477D01*
X0261580Y0049223D02*
X0264326Y0049223D01*
X0264326Y0046477D01*
X0261580Y0046477D01*
X0261580Y0048367D02*
X0264326Y0048367D01*
X0254674Y0049223D02*
X0254674Y0046477D01*
X0254674Y0049223D02*
X0257420Y0049223D01*
X0257420Y0046477D01*
X0254674Y0046477D01*
X0254674Y0048367D02*
X0257420Y0048367D01*
X0205080Y0049223D02*
X0205080Y0046477D01*
X0205080Y0049223D02*
X0207826Y0049223D01*
X0207826Y0046477D01*
X0205080Y0046477D01*
X0205080Y0048367D02*
X0207826Y0048367D01*
X0198174Y0049223D02*
X0198174Y0046477D01*
X0198174Y0049223D02*
X0200920Y0049223D01*
X0200920Y0046477D01*
X0198174Y0046477D01*
X0198174Y0048367D02*
X0200920Y0048367D01*
X0159580Y0049223D02*
X0159580Y0046477D01*
X0159580Y0049223D02*
X0162326Y0049223D01*
X0162326Y0046477D01*
X0159580Y0046477D01*
X0159580Y0048367D02*
X0162326Y0048367D01*
X0152674Y0049223D02*
X0152674Y0046477D01*
X0152674Y0049223D02*
X0155420Y0049223D01*
X0155420Y0046477D01*
X0152674Y0046477D01*
X0152674Y0048367D02*
X0155420Y0048367D01*
X0103080Y0049223D02*
X0103080Y0046477D01*
X0103080Y0049223D02*
X0105826Y0049223D01*
X0105826Y0046477D01*
X0103080Y0046477D01*
X0103080Y0048367D02*
X0105826Y0048367D01*
X0096174Y0049223D02*
X0096174Y0046477D01*
X0096174Y0049223D02*
X0098920Y0049223D01*
X0098920Y0046477D01*
X0096174Y0046477D01*
X0096174Y0048367D02*
X0098920Y0048367D01*
X0057580Y0049223D02*
X0057580Y0046477D01*
X0057580Y0049223D02*
X0060326Y0049223D01*
X0060326Y0046477D01*
X0057580Y0046477D01*
X0057580Y0048367D02*
X0060326Y0048367D01*
X0050674Y0049223D02*
X0050674Y0046477D01*
X0050674Y0049223D02*
X0053420Y0049223D01*
X0053420Y0046477D01*
X0050674Y0046477D01*
X0050674Y0048367D02*
X0053420Y0048367D01*
X0356674Y0049223D02*
X0356674Y0046477D01*
X0356674Y0049223D02*
X0359420Y0049223D01*
X0359420Y0046477D01*
X0356674Y0046477D01*
X0356674Y0048367D02*
X0359420Y0048367D01*
X0363580Y0049223D02*
X0363580Y0046477D01*
X0363580Y0049223D02*
X0366326Y0049223D01*
X0366326Y0046477D01*
X0363580Y0046477D01*
X0363580Y0048367D02*
X0366326Y0048367D01*
X0402174Y0049223D02*
X0402174Y0046477D01*
X0402174Y0049223D02*
X0404920Y0049223D01*
X0404920Y0046477D01*
X0402174Y0046477D01*
X0402174Y0048367D02*
X0404920Y0048367D01*
X0409080Y0049223D02*
X0409080Y0046477D01*
X0409080Y0049223D02*
X0411826Y0049223D01*
X0411826Y0046477D01*
X0409080Y0046477D01*
X0409080Y0048367D02*
X0411826Y0048367D01*
D19*
X0410200Y0058731D03*
X0406460Y0058731D03*
X0413940Y0058731D03*
X0413940Y0068969D03*
X0406460Y0068969D03*
X0406460Y0170731D03*
X0410200Y0170731D03*
X0413940Y0170731D03*
X0413940Y0180969D03*
X0406460Y0180969D03*
X0406460Y0282731D03*
X0410200Y0282731D03*
X0413940Y0282731D03*
X0413940Y0292969D03*
X0406460Y0292969D03*
X0406460Y0394731D03*
X0410200Y0394731D03*
X0413940Y0394731D03*
X0413940Y0404969D03*
X0406460Y0404969D03*
X0406460Y0506731D03*
X0410200Y0506731D03*
X0413940Y0506731D03*
X0413940Y0516969D03*
X0406460Y0516969D03*
X0311940Y0516969D03*
X0304460Y0516969D03*
X0304460Y0506731D03*
X0308200Y0506731D03*
X0311940Y0506731D03*
X0311940Y0404969D03*
X0304460Y0404969D03*
X0304460Y0394731D03*
X0308200Y0394731D03*
X0311940Y0394731D03*
X0311940Y0292969D03*
X0304460Y0292969D03*
X0304460Y0282731D03*
X0308200Y0282731D03*
X0311940Y0282731D03*
X0311940Y0180969D03*
X0304460Y0180969D03*
X0304460Y0170731D03*
X0308200Y0170731D03*
X0311940Y0170731D03*
X0311940Y0068969D03*
X0304460Y0068969D03*
X0304460Y0058731D03*
X0308200Y0058731D03*
X0311940Y0058731D03*
X0209940Y0058731D03*
X0206200Y0058731D03*
X0202460Y0058731D03*
X0202460Y0068969D03*
X0209940Y0068969D03*
X0209940Y0170731D03*
X0206200Y0170731D03*
X0202460Y0170731D03*
X0202460Y0180969D03*
X0209940Y0180969D03*
X0209940Y0282731D03*
X0206200Y0282731D03*
X0202460Y0282731D03*
X0202460Y0292969D03*
X0209940Y0292969D03*
X0209940Y0394731D03*
X0206200Y0394731D03*
X0202460Y0394731D03*
X0202460Y0404969D03*
X0209940Y0404969D03*
X0209940Y0506731D03*
X0206200Y0506731D03*
X0202460Y0506731D03*
X0202460Y0516969D03*
X0209940Y0516969D03*
X0107940Y0516969D03*
X0100460Y0516969D03*
X0100460Y0506731D03*
X0104200Y0506731D03*
X0107940Y0506731D03*
X0107940Y0404969D03*
X0100460Y0404969D03*
X0100460Y0394731D03*
X0104200Y0394731D03*
X0107940Y0394731D03*
X0107940Y0292969D03*
X0100460Y0292969D03*
X0100460Y0282731D03*
X0104200Y0282731D03*
X0107940Y0282731D03*
X0107940Y0180969D03*
X0100460Y0180969D03*
X0100460Y0170731D03*
X0104200Y0170731D03*
X0107940Y0170731D03*
X0107940Y0068969D03*
X0100460Y0068969D03*
X0100460Y0058731D03*
X0104200Y0058731D03*
X0107940Y0058731D03*
D20*
X0102283Y0042550D03*
X0097717Y0042550D03*
X0056783Y0042850D03*
X0052217Y0042850D03*
X0105467Y0115500D03*
X0110033Y0115500D03*
X0102283Y0154550D03*
X0097717Y0154550D03*
X0056783Y0154850D03*
X0052217Y0154850D03*
X0105467Y0227500D03*
X0110033Y0227500D03*
X0102283Y0266550D03*
X0097717Y0266550D03*
X0056783Y0266850D03*
X0052217Y0266850D03*
X0105467Y0339500D03*
X0110033Y0339500D03*
X0102283Y0378550D03*
X0097717Y0378550D03*
X0056783Y0378850D03*
X0052217Y0378850D03*
X0105467Y0451500D03*
X0110033Y0451500D03*
X0102283Y0490550D03*
X0097717Y0490550D03*
X0056783Y0490850D03*
X0052217Y0490850D03*
X0105467Y0563500D03*
X0110033Y0563500D03*
X0154217Y0490850D03*
X0158783Y0490850D03*
X0199717Y0490550D03*
X0204283Y0490550D03*
X0207467Y0451500D03*
X0212033Y0451500D03*
X0256217Y0490850D03*
X0260783Y0490850D03*
X0301717Y0490550D03*
X0306283Y0490550D03*
X0309467Y0451500D03*
X0314033Y0451500D03*
X0358217Y0490850D03*
X0362783Y0490850D03*
X0403717Y0490550D03*
X0408283Y0490550D03*
X0411467Y0451500D03*
X0416033Y0451500D03*
X0408283Y0378550D03*
X0403717Y0378550D03*
X0411467Y0339500D03*
X0416033Y0339500D03*
X0362783Y0378850D03*
X0358217Y0378850D03*
X0314033Y0339500D03*
X0309467Y0339500D03*
X0306283Y0378550D03*
X0301717Y0378550D03*
X0260783Y0378850D03*
X0256217Y0378850D03*
X0212033Y0339500D03*
X0207467Y0339500D03*
X0204283Y0378550D03*
X0199717Y0378550D03*
X0158783Y0378850D03*
X0154217Y0378850D03*
X0154217Y0266850D03*
X0158783Y0266850D03*
X0199717Y0266550D03*
X0204283Y0266550D03*
X0207467Y0227500D03*
X0212033Y0227500D03*
X0256217Y0266850D03*
X0260783Y0266850D03*
X0301717Y0266550D03*
X0306283Y0266550D03*
X0309467Y0227500D03*
X0314033Y0227500D03*
X0358217Y0266850D03*
X0362783Y0266850D03*
X0403717Y0266550D03*
X0408283Y0266550D03*
X0411467Y0227500D03*
X0416033Y0227500D03*
X0408283Y0154550D03*
X0403717Y0154550D03*
X0411467Y0115500D03*
X0416033Y0115500D03*
X0362783Y0154850D03*
X0358217Y0154850D03*
X0314033Y0115500D03*
X0309467Y0115500D03*
X0306283Y0154550D03*
X0301717Y0154550D03*
X0260783Y0154850D03*
X0256217Y0154850D03*
X0212033Y0115500D03*
X0207467Y0115500D03*
X0204283Y0154550D03*
X0199717Y0154550D03*
X0158783Y0154850D03*
X0154217Y0154850D03*
X0154217Y0042850D03*
X0158783Y0042850D03*
X0199717Y0042550D03*
X0204283Y0042550D03*
X0256217Y0042850D03*
X0260783Y0042850D03*
X0301717Y0042550D03*
X0306283Y0042550D03*
X0358217Y0042850D03*
X0362783Y0042850D03*
X0403717Y0042550D03*
X0408283Y0042550D03*
X0411467Y0563500D03*
X0416033Y0563500D03*
X0314033Y0563500D03*
X0309467Y0563500D03*
X0212033Y0563500D03*
X0207467Y0563500D03*
D21*
X0201358Y0573260D03*
X0189547Y0573260D03*
X0183642Y0573260D03*
X0183642Y0461260D03*
X0189547Y0461260D03*
X0201358Y0461260D03*
X0201358Y0349260D03*
X0189547Y0349260D03*
X0183642Y0349260D03*
X0183642Y0237260D03*
X0189547Y0237260D03*
X0201358Y0237260D03*
X0201358Y0125260D03*
X0189547Y0125260D03*
X0183642Y0125260D03*
X0099358Y0125260D03*
X0087547Y0125260D03*
X0081642Y0125260D03*
X0081642Y0237260D03*
X0087547Y0237260D03*
X0099358Y0237260D03*
X0099358Y0349260D03*
X0087547Y0349260D03*
X0081642Y0349260D03*
X0081642Y0461260D03*
X0087547Y0461260D03*
X0099358Y0461260D03*
X0099358Y0573260D03*
X0087547Y0573260D03*
X0081642Y0573260D03*
X0285642Y0573260D03*
X0291547Y0573260D03*
X0303358Y0573260D03*
X0303358Y0461260D03*
X0291547Y0461260D03*
X0285642Y0461260D03*
X0285642Y0349260D03*
X0291547Y0349260D03*
X0303358Y0349260D03*
X0303358Y0237260D03*
X0291547Y0237260D03*
X0285642Y0237260D03*
X0285642Y0125260D03*
X0291547Y0125260D03*
X0303358Y0125260D03*
X0387642Y0125260D03*
X0393547Y0125260D03*
X0405358Y0125260D03*
X0405358Y0237260D03*
X0393547Y0237260D03*
X0387642Y0237260D03*
X0387642Y0349260D03*
X0393547Y0349260D03*
X0405358Y0349260D03*
X0405358Y0461260D03*
X0393547Y0461260D03*
X0387642Y0461260D03*
X0387642Y0573260D03*
X0393547Y0573260D03*
X0405358Y0573260D03*
D22*
X0410870Y0584087D03*
X0382130Y0584087D03*
X0308870Y0584087D03*
X0280130Y0584087D03*
X0206870Y0584087D03*
X0178130Y0584087D03*
X0104870Y0584087D03*
X0076130Y0584087D03*
X0076130Y0472087D03*
X0104870Y0472087D03*
X0178130Y0472087D03*
X0206870Y0472087D03*
X0280130Y0472087D03*
X0308870Y0472087D03*
X0382130Y0472087D03*
X0410870Y0472087D03*
X0410870Y0360087D03*
X0382130Y0360087D03*
X0308870Y0360087D03*
X0280130Y0360087D03*
X0206870Y0360087D03*
X0178130Y0360087D03*
X0104870Y0360087D03*
X0076130Y0360087D03*
X0076130Y0248087D03*
X0104870Y0248087D03*
X0178130Y0248087D03*
X0206870Y0248087D03*
X0280130Y0248087D03*
X0308870Y0248087D03*
X0382130Y0248087D03*
X0410870Y0248087D03*
X0410870Y0136087D03*
X0382130Y0136087D03*
X0308870Y0136087D03*
X0280130Y0136087D03*
X0206870Y0136087D03*
X0178130Y0136087D03*
X0104870Y0136087D03*
X0076130Y0136087D03*
D23*
X0076130Y0127819D03*
X0104870Y0127819D03*
X0178130Y0127819D03*
X0206870Y0127819D03*
X0280130Y0127819D03*
X0308870Y0127819D03*
X0382130Y0127819D03*
X0410870Y0127819D03*
X0410870Y0239819D03*
X0382130Y0239819D03*
X0308870Y0239819D03*
X0280130Y0239819D03*
X0206870Y0239819D03*
X0178130Y0239819D03*
X0104870Y0239819D03*
X0076130Y0239819D03*
X0076130Y0351819D03*
X0104870Y0351819D03*
X0178130Y0351819D03*
X0206870Y0351819D03*
X0280130Y0351819D03*
X0308870Y0351819D03*
X0382130Y0351819D03*
X0410870Y0351819D03*
X0410870Y0463819D03*
X0382130Y0463819D03*
X0308870Y0463819D03*
X0280130Y0463819D03*
X0206870Y0463819D03*
X0178130Y0463819D03*
X0104870Y0463819D03*
X0076130Y0463819D03*
X0076130Y0575819D03*
X0104870Y0575819D03*
X0178130Y0575819D03*
X0206870Y0575819D03*
X0280130Y0575819D03*
X0308870Y0575819D03*
X0382130Y0575819D03*
X0410870Y0575819D03*
D24*
X0402406Y0580150D03*
X0390594Y0580150D03*
X0390594Y0468150D03*
X0402406Y0468150D03*
X0402406Y0356150D03*
X0390594Y0356150D03*
X0390594Y0244150D03*
X0402406Y0244150D03*
X0402406Y0132150D03*
X0390594Y0132150D03*
X0300406Y0132150D03*
X0288594Y0132150D03*
X0288594Y0244150D03*
X0300406Y0244150D03*
X0300406Y0356150D03*
X0288594Y0356150D03*
X0288594Y0468150D03*
X0300406Y0468150D03*
X0300406Y0580150D03*
X0288594Y0580150D03*
X0198406Y0580150D03*
X0186594Y0580150D03*
X0186594Y0468150D03*
X0198406Y0468150D03*
X0198406Y0356150D03*
X0186594Y0356150D03*
X0186594Y0244150D03*
X0198406Y0244150D03*
X0198406Y0132150D03*
X0186594Y0132150D03*
X0096406Y0132150D03*
X0084594Y0132150D03*
X0084594Y0244150D03*
X0096406Y0244150D03*
X0096406Y0356150D03*
X0084594Y0356150D03*
X0084594Y0468150D03*
X0096406Y0468150D03*
X0096406Y0580150D03*
X0084594Y0580150D03*
D25*
X0094100Y0542133D03*
X0094100Y0537567D03*
X0099500Y0537567D03*
X0099500Y0542133D03*
X0095400Y0513333D03*
X0095400Y0508767D03*
X0144780Y0533237D03*
X0144780Y0537803D03*
X0196100Y0537567D03*
X0196100Y0542133D03*
X0201500Y0542133D03*
X0201500Y0537567D03*
X0197400Y0513333D03*
X0197400Y0508767D03*
X0246780Y0533237D03*
X0246780Y0537803D03*
X0298100Y0537567D03*
X0298100Y0542133D03*
X0303500Y0542133D03*
X0303500Y0537567D03*
X0299400Y0513333D03*
X0299400Y0508767D03*
X0348780Y0533237D03*
X0348780Y0537803D03*
X0400100Y0537567D03*
X0400100Y0542133D03*
X0405500Y0542133D03*
X0405500Y0537567D03*
X0401400Y0513333D03*
X0401400Y0508767D03*
X0400100Y0430133D03*
X0400100Y0425567D03*
X0405500Y0425567D03*
X0405500Y0430133D03*
X0401400Y0401333D03*
X0401400Y0396767D03*
X0348780Y0421237D03*
X0348780Y0425803D03*
X0303500Y0425567D03*
X0303500Y0430133D03*
X0298100Y0430133D03*
X0298100Y0425567D03*
X0299400Y0401333D03*
X0299400Y0396767D03*
X0246780Y0421237D03*
X0246780Y0425803D03*
X0201500Y0425567D03*
X0201500Y0430133D03*
X0196100Y0430133D03*
X0196100Y0425567D03*
X0197400Y0401333D03*
X0197400Y0396767D03*
X0144780Y0421237D03*
X0144780Y0425803D03*
X0099500Y0425567D03*
X0099500Y0430133D03*
X0094100Y0430133D03*
X0094100Y0425567D03*
X0095400Y0401333D03*
X0095400Y0396767D03*
X0042780Y0421237D03*
X0042780Y0425803D03*
X0042780Y0313803D03*
X0042780Y0309237D03*
X0094100Y0313567D03*
X0094100Y0318133D03*
X0099500Y0318133D03*
X0099500Y0313567D03*
X0095400Y0289333D03*
X0095400Y0284767D03*
X0144780Y0309237D03*
X0144780Y0313803D03*
X0196100Y0313567D03*
X0196100Y0318133D03*
X0201500Y0318133D03*
X0201500Y0313567D03*
X0197400Y0289333D03*
X0197400Y0284767D03*
X0246780Y0309237D03*
X0246780Y0313803D03*
X0298100Y0313567D03*
X0298100Y0318133D03*
X0303500Y0318133D03*
X0303500Y0313567D03*
X0299400Y0289333D03*
X0299400Y0284767D03*
X0348780Y0309237D03*
X0348780Y0313803D03*
X0400100Y0313567D03*
X0400100Y0318133D03*
X0405500Y0318133D03*
X0405500Y0313567D03*
X0401400Y0289333D03*
X0401400Y0284767D03*
X0400100Y0206133D03*
X0400100Y0201567D03*
X0405500Y0201567D03*
X0405500Y0206133D03*
X0401400Y0177333D03*
X0401400Y0172767D03*
X0348780Y0197237D03*
X0348780Y0201803D03*
X0303500Y0201567D03*
X0303500Y0206133D03*
X0298100Y0206133D03*
X0298100Y0201567D03*
X0299400Y0177333D03*
X0299400Y0172767D03*
X0246780Y0197237D03*
X0246780Y0201803D03*
X0201500Y0201567D03*
X0201500Y0206133D03*
X0196100Y0206133D03*
X0196100Y0201567D03*
X0197400Y0177333D03*
X0197400Y0172767D03*
X0144780Y0197237D03*
X0144780Y0201803D03*
X0099500Y0201567D03*
X0099500Y0206133D03*
X0094100Y0206133D03*
X0094100Y0201567D03*
X0095400Y0177333D03*
X0095400Y0172767D03*
X0042780Y0197237D03*
X0042780Y0201803D03*
X0094100Y0094133D03*
X0094100Y0089567D03*
X0099500Y0089567D03*
X0099500Y0094133D03*
X0095400Y0065333D03*
X0095400Y0060767D03*
X0144780Y0085237D03*
X0144780Y0089803D03*
X0196100Y0089567D03*
X0196100Y0094133D03*
X0201500Y0094133D03*
X0201500Y0089567D03*
X0197400Y0065333D03*
X0197400Y0060767D03*
X0246780Y0085237D03*
X0246780Y0089803D03*
X0298100Y0089567D03*
X0298100Y0094133D03*
X0303500Y0094133D03*
X0303500Y0089567D03*
X0299400Y0065333D03*
X0299400Y0060767D03*
X0348780Y0085237D03*
X0348780Y0089803D03*
X0400100Y0089567D03*
X0400100Y0094133D03*
X0405500Y0094133D03*
X0405500Y0089567D03*
X0401400Y0065333D03*
X0401400Y0060767D03*
X0042780Y0085237D03*
X0042780Y0089803D03*
X0042780Y0533237D03*
X0042780Y0537803D03*
D26*
X0072600Y0524296D03*
X0072600Y0517604D03*
X0089500Y0515996D03*
X0089500Y0509304D03*
X0072600Y0412296D03*
X0072600Y0405604D03*
X0089500Y0403996D03*
X0089500Y0397304D03*
X0072600Y0300296D03*
X0072600Y0293604D03*
X0089500Y0291996D03*
X0089500Y0285304D03*
X0072600Y0188296D03*
X0072600Y0181604D03*
X0089500Y0179996D03*
X0089500Y0173304D03*
X0072600Y0076296D03*
X0072600Y0069604D03*
X0089500Y0067996D03*
X0089500Y0061304D03*
X0174600Y0069604D03*
X0174600Y0076296D03*
X0191500Y0067996D03*
X0191500Y0061304D03*
X0191500Y0173304D03*
X0191500Y0179996D03*
X0174600Y0181604D03*
X0174600Y0188296D03*
X0191500Y0285304D03*
X0191500Y0291996D03*
X0174600Y0293604D03*
X0174600Y0300296D03*
X0191500Y0397304D03*
X0191500Y0403996D03*
X0174600Y0405604D03*
X0174600Y0412296D03*
X0191500Y0509304D03*
X0191500Y0515996D03*
X0174600Y0517604D03*
X0174600Y0524296D03*
X0276600Y0524296D03*
X0276600Y0517604D03*
X0293500Y0515996D03*
X0293500Y0509304D03*
X0276600Y0412296D03*
X0276600Y0405604D03*
X0293500Y0403996D03*
X0293500Y0397304D03*
X0276600Y0300296D03*
X0276600Y0293604D03*
X0293500Y0291996D03*
X0293500Y0285304D03*
X0276600Y0188296D03*
X0276600Y0181604D03*
X0293500Y0179996D03*
X0293500Y0173304D03*
X0276600Y0076296D03*
X0276600Y0069604D03*
X0293500Y0067996D03*
X0293500Y0061304D03*
X0378600Y0069604D03*
X0378600Y0076296D03*
X0395500Y0067996D03*
X0395500Y0061304D03*
X0395500Y0173304D03*
X0395500Y0179996D03*
X0378600Y0181604D03*
X0378600Y0188296D03*
X0395500Y0285304D03*
X0395500Y0291996D03*
X0378600Y0293604D03*
X0378600Y0300296D03*
X0395500Y0397304D03*
X0395500Y0403996D03*
X0378600Y0405604D03*
X0378600Y0412296D03*
X0395500Y0509304D03*
X0395500Y0515996D03*
X0378600Y0517604D03*
X0378600Y0524296D03*
D27*
X0031500Y0041750D03*
X0031500Y0153750D03*
X0031500Y0265750D03*
X0031500Y0377750D03*
X0031500Y0489750D03*
X0125800Y0472050D03*
X0133500Y0489750D03*
X0125800Y0584050D03*
X0227800Y0584050D03*
X0235500Y0489750D03*
X0227800Y0472050D03*
X0235500Y0377750D03*
X0227800Y0360050D03*
X0235500Y0265750D03*
X0227800Y0248050D03*
X0235500Y0153750D03*
X0227800Y0136050D03*
X0235500Y0041750D03*
X0329800Y0136050D03*
X0337500Y0153750D03*
X0329800Y0248050D03*
X0337500Y0265750D03*
X0329800Y0360050D03*
X0337500Y0377750D03*
X0329800Y0472050D03*
X0337500Y0489750D03*
X0329800Y0584050D03*
X0431800Y0584050D03*
X0431800Y0472050D03*
X0431800Y0360050D03*
X0431800Y0248050D03*
X0431800Y0136050D03*
X0337500Y0041750D03*
X0133500Y0041750D03*
X0125800Y0136050D03*
X0133500Y0153750D03*
X0125800Y0248050D03*
X0133500Y0265750D03*
X0125800Y0360050D03*
X0133500Y0377750D03*
D28*
X0111350Y0331821D03*
X0105050Y0331821D03*
X0105050Y0315679D03*
X0111350Y0315679D03*
X0111350Y0219821D03*
X0105050Y0219821D03*
X0105050Y0203679D03*
X0111350Y0203679D03*
X0111350Y0107821D03*
X0105050Y0107821D03*
X0105050Y0091679D03*
X0111350Y0091679D03*
X0207050Y0091679D03*
X0213350Y0091679D03*
X0213350Y0107821D03*
X0207050Y0107821D03*
X0207050Y0203679D03*
X0213350Y0203679D03*
X0213350Y0219821D03*
X0207050Y0219821D03*
X0207050Y0315679D03*
X0213350Y0315679D03*
X0213350Y0331821D03*
X0207050Y0331821D03*
X0207050Y0427679D03*
X0213350Y0427679D03*
X0213350Y0443821D03*
X0207050Y0443821D03*
X0207050Y0539679D03*
X0213350Y0539679D03*
X0213350Y0555821D03*
X0207050Y0555821D03*
X0111350Y0555821D03*
X0105050Y0555821D03*
X0105050Y0539679D03*
X0111350Y0539679D03*
X0111350Y0443821D03*
X0105050Y0443821D03*
X0105050Y0427679D03*
X0111350Y0427679D03*
X0309050Y0427679D03*
X0315350Y0427679D03*
X0315350Y0443821D03*
X0309050Y0443821D03*
X0309050Y0539679D03*
X0315350Y0539679D03*
X0315350Y0555821D03*
X0309050Y0555821D03*
X0411050Y0555821D03*
X0417350Y0555821D03*
X0417350Y0539679D03*
X0411050Y0539679D03*
X0411050Y0443821D03*
X0417350Y0443821D03*
X0417350Y0427679D03*
X0411050Y0427679D03*
X0411050Y0331821D03*
X0417350Y0331821D03*
X0417350Y0315679D03*
X0411050Y0315679D03*
X0411050Y0219821D03*
X0417350Y0219821D03*
X0417350Y0203679D03*
X0411050Y0203679D03*
X0411050Y0107821D03*
X0417350Y0107821D03*
X0417350Y0091679D03*
X0411050Y0091679D03*
X0315350Y0091679D03*
X0309050Y0091679D03*
X0309050Y0107821D03*
X0315350Y0107821D03*
X0315350Y0203679D03*
X0309050Y0203679D03*
X0309050Y0219821D03*
X0315350Y0219821D03*
X0315350Y0315679D03*
X0309050Y0315679D03*
X0309050Y0331821D03*
X0315350Y0331821D03*
D29*
X0308500Y0306750D03*
X0303500Y0306750D03*
X0298500Y0306750D03*
X0293500Y0306750D03*
X0293500Y0418750D03*
X0298500Y0418750D03*
X0303500Y0418750D03*
X0308500Y0418750D03*
X0308500Y0530750D03*
X0303500Y0530750D03*
X0298500Y0530750D03*
X0293500Y0530750D03*
X0206500Y0530750D03*
X0201500Y0530750D03*
X0196500Y0530750D03*
X0191500Y0530750D03*
X0191500Y0418750D03*
X0196500Y0418750D03*
X0201500Y0418750D03*
X0206500Y0418750D03*
X0206500Y0306750D03*
X0201500Y0306750D03*
X0196500Y0306750D03*
X0191500Y0306750D03*
X0191500Y0194750D03*
X0196500Y0194750D03*
X0201500Y0194750D03*
X0206500Y0194750D03*
X0206500Y0082750D03*
X0201500Y0082750D03*
X0196500Y0082750D03*
X0191500Y0082750D03*
X0104500Y0082750D03*
X0099500Y0082750D03*
X0094500Y0082750D03*
X0089500Y0082750D03*
X0089500Y0194750D03*
X0094500Y0194750D03*
X0099500Y0194750D03*
X0104500Y0194750D03*
X0104500Y0306750D03*
X0099500Y0306750D03*
X0094500Y0306750D03*
X0089500Y0306750D03*
X0089500Y0418750D03*
X0094500Y0418750D03*
X0099500Y0418750D03*
X0104500Y0418750D03*
X0104500Y0530750D03*
X0099500Y0530750D03*
X0094500Y0530750D03*
X0089500Y0530750D03*
X0055500Y0605000D03*
X0293500Y0194750D03*
X0298500Y0194750D03*
X0303500Y0194750D03*
X0308500Y0194750D03*
X0308500Y0082750D03*
X0303500Y0082750D03*
X0298500Y0082750D03*
X0293500Y0082750D03*
X0395500Y0082750D03*
X0400500Y0082750D03*
X0405500Y0082750D03*
X0410500Y0082750D03*
X0410500Y0194750D03*
X0405500Y0194750D03*
X0400500Y0194750D03*
X0395500Y0194750D03*
X0395500Y0306750D03*
X0400500Y0306750D03*
X0405500Y0306750D03*
X0410500Y0306750D03*
X0410500Y0418750D03*
X0405500Y0418750D03*
X0400500Y0418750D03*
X0395500Y0418750D03*
X0395500Y0530750D03*
X0400500Y0530750D03*
X0405500Y0530750D03*
X0410500Y0530750D03*
X0407500Y0605000D03*
D30*
X0405428Y0567550D03*
X0396372Y0567550D03*
X0396372Y0455550D03*
X0405428Y0455550D03*
X0405428Y0343550D03*
X0396372Y0343550D03*
X0396372Y0231550D03*
X0405428Y0231550D03*
X0405428Y0119550D03*
X0396372Y0119550D03*
X0303428Y0119550D03*
X0294372Y0119550D03*
X0294372Y0231550D03*
X0303428Y0231550D03*
X0303428Y0343550D03*
X0294372Y0343550D03*
X0294372Y0455550D03*
X0303428Y0455550D03*
X0303428Y0567550D03*
X0294372Y0567550D03*
X0201428Y0567550D03*
X0192372Y0567550D03*
X0192372Y0455550D03*
X0201428Y0455550D03*
X0201428Y0343550D03*
X0192372Y0343550D03*
X0192372Y0231550D03*
X0201428Y0231550D03*
X0201428Y0119550D03*
X0192372Y0119550D03*
X0099428Y0119550D03*
X0090372Y0119550D03*
X0090372Y0231550D03*
X0099428Y0231550D03*
X0099428Y0343550D03*
X0090372Y0343550D03*
X0090372Y0455550D03*
X0099428Y0455550D03*
X0099428Y0567550D03*
X0090372Y0567550D03*
D31*
X0091360Y0562387D03*
X0098840Y0562387D03*
X0095100Y0554119D03*
X0091360Y0450387D03*
X0098840Y0450387D03*
X0095100Y0442119D03*
X0091360Y0338387D03*
X0098840Y0338387D03*
X0095100Y0330119D03*
X0091360Y0226387D03*
X0098840Y0226387D03*
X0095100Y0218119D03*
X0091360Y0114387D03*
X0098840Y0114387D03*
X0095100Y0106119D03*
X0193360Y0114387D03*
X0200840Y0114387D03*
X0197100Y0106119D03*
X0197100Y0218119D03*
X0193360Y0226387D03*
X0200840Y0226387D03*
X0197100Y0330119D03*
X0193360Y0338387D03*
X0200840Y0338387D03*
X0197100Y0442119D03*
X0193360Y0450387D03*
X0200840Y0450387D03*
X0197100Y0554119D03*
X0193360Y0562387D03*
X0200840Y0562387D03*
X0295360Y0562387D03*
X0302840Y0562387D03*
X0299100Y0554119D03*
X0295360Y0450387D03*
X0302840Y0450387D03*
X0299100Y0442119D03*
X0295360Y0338387D03*
X0302840Y0338387D03*
X0299100Y0330119D03*
X0295360Y0226387D03*
X0302840Y0226387D03*
X0299100Y0218119D03*
X0295360Y0114387D03*
X0302840Y0114387D03*
X0299100Y0106119D03*
X0397360Y0114387D03*
X0404840Y0114387D03*
X0401100Y0106119D03*
X0401100Y0218119D03*
X0397360Y0226387D03*
X0404840Y0226387D03*
X0401100Y0330119D03*
X0397360Y0338387D03*
X0404840Y0338387D03*
X0401100Y0442119D03*
X0397360Y0450387D03*
X0404840Y0450387D03*
X0401100Y0554119D03*
X0397360Y0562387D03*
X0404840Y0562387D03*
D32*
X0371547Y0540844D03*
X0369579Y0540844D03*
X0367610Y0540844D03*
X0365642Y0540844D03*
X0363673Y0540844D03*
X0361705Y0540844D03*
X0359736Y0540844D03*
X0357768Y0540844D03*
X0357768Y0522341D03*
X0359736Y0522341D03*
X0361705Y0522341D03*
X0363673Y0522341D03*
X0365642Y0522341D03*
X0367610Y0522341D03*
X0369579Y0522341D03*
X0371547Y0522341D03*
X0371547Y0428844D03*
X0369579Y0428844D03*
X0367610Y0428844D03*
X0365642Y0428844D03*
X0363673Y0428844D03*
X0361705Y0428844D03*
X0359736Y0428844D03*
X0357768Y0428844D03*
X0357768Y0410341D03*
X0359736Y0410341D03*
X0361705Y0410341D03*
X0363673Y0410341D03*
X0365642Y0410341D03*
X0367610Y0410341D03*
X0369579Y0410341D03*
X0371547Y0410341D03*
X0371547Y0316844D03*
X0369579Y0316844D03*
X0367610Y0316844D03*
X0365642Y0316844D03*
X0363673Y0316844D03*
X0361705Y0316844D03*
X0359736Y0316844D03*
X0357768Y0316844D03*
X0357768Y0298341D03*
X0359736Y0298341D03*
X0361705Y0298341D03*
X0363673Y0298341D03*
X0365642Y0298341D03*
X0367610Y0298341D03*
X0369579Y0298341D03*
X0371547Y0298341D03*
X0371547Y0204844D03*
X0369579Y0204844D03*
X0367610Y0204844D03*
X0365642Y0204844D03*
X0363673Y0204844D03*
X0361705Y0204844D03*
X0359736Y0204844D03*
X0357768Y0204844D03*
X0357768Y0186341D03*
X0359736Y0186341D03*
X0361705Y0186341D03*
X0363673Y0186341D03*
X0365642Y0186341D03*
X0367610Y0186341D03*
X0369579Y0186341D03*
X0371547Y0186341D03*
X0371547Y0092844D03*
X0369579Y0092844D03*
X0367610Y0092844D03*
X0365642Y0092844D03*
X0363673Y0092844D03*
X0361705Y0092844D03*
X0359736Y0092844D03*
X0357768Y0092844D03*
X0357768Y0074341D03*
X0359736Y0074341D03*
X0361705Y0074341D03*
X0363673Y0074341D03*
X0365642Y0074341D03*
X0367610Y0074341D03*
X0369579Y0074341D03*
X0371547Y0074341D03*
X0269547Y0074341D03*
X0267579Y0074341D03*
X0265610Y0074341D03*
X0263642Y0074341D03*
X0261673Y0074341D03*
X0259705Y0074341D03*
X0257736Y0074341D03*
X0255768Y0074341D03*
X0255768Y0092844D03*
X0257736Y0092844D03*
X0259705Y0092844D03*
X0261673Y0092844D03*
X0263642Y0092844D03*
X0265610Y0092844D03*
X0267579Y0092844D03*
X0269547Y0092844D03*
X0269547Y0186341D03*
X0267579Y0186341D03*
X0265610Y0186341D03*
X0263642Y0186341D03*
X0261673Y0186341D03*
X0259705Y0186341D03*
X0257736Y0186341D03*
X0255768Y0186341D03*
X0255768Y0204844D03*
X0257736Y0204844D03*
X0259705Y0204844D03*
X0261673Y0204844D03*
X0263642Y0204844D03*
X0265610Y0204844D03*
X0267579Y0204844D03*
X0269547Y0204844D03*
X0269547Y0298341D03*
X0267579Y0298341D03*
X0265610Y0298341D03*
X0263642Y0298341D03*
X0261673Y0298341D03*
X0259705Y0298341D03*
X0257736Y0298341D03*
X0255768Y0298341D03*
X0255768Y0316844D03*
X0257736Y0316844D03*
X0259705Y0316844D03*
X0261673Y0316844D03*
X0263642Y0316844D03*
X0265610Y0316844D03*
X0267579Y0316844D03*
X0269547Y0316844D03*
X0269547Y0410341D03*
X0267579Y0410341D03*
X0265610Y0410341D03*
X0263642Y0410341D03*
X0261673Y0410341D03*
X0259705Y0410341D03*
X0257736Y0410341D03*
X0255768Y0410341D03*
X0255768Y0428844D03*
X0257736Y0428844D03*
X0259705Y0428844D03*
X0261673Y0428844D03*
X0263642Y0428844D03*
X0265610Y0428844D03*
X0267579Y0428844D03*
X0269547Y0428844D03*
X0269547Y0522341D03*
X0267579Y0522341D03*
X0265610Y0522341D03*
X0263642Y0522341D03*
X0261673Y0522341D03*
X0259705Y0522341D03*
X0257736Y0522341D03*
X0255768Y0522341D03*
X0255768Y0540844D03*
X0257736Y0540844D03*
X0259705Y0540844D03*
X0261673Y0540844D03*
X0263642Y0540844D03*
X0265610Y0540844D03*
X0267579Y0540844D03*
X0269547Y0540844D03*
X0167547Y0540844D03*
X0165579Y0540844D03*
X0163610Y0540844D03*
X0161642Y0540844D03*
X0159673Y0540844D03*
X0157705Y0540844D03*
X0155736Y0540844D03*
X0153768Y0540844D03*
X0153768Y0522341D03*
X0155736Y0522341D03*
X0157705Y0522341D03*
X0159673Y0522341D03*
X0161642Y0522341D03*
X0163610Y0522341D03*
X0165579Y0522341D03*
X0167547Y0522341D03*
X0167547Y0428844D03*
X0165579Y0428844D03*
X0163610Y0428844D03*
X0161642Y0428844D03*
X0159673Y0428844D03*
X0157705Y0428844D03*
X0155736Y0428844D03*
X0153768Y0428844D03*
X0153768Y0410341D03*
X0155736Y0410341D03*
X0157705Y0410341D03*
X0159673Y0410341D03*
X0161642Y0410341D03*
X0163610Y0410341D03*
X0165579Y0410341D03*
X0167547Y0410341D03*
X0167547Y0316844D03*
X0165579Y0316844D03*
X0163610Y0316844D03*
X0161642Y0316844D03*
X0159673Y0316844D03*
X0157705Y0316844D03*
X0155736Y0316844D03*
X0153768Y0316844D03*
X0153768Y0298341D03*
X0155736Y0298341D03*
X0157705Y0298341D03*
X0159673Y0298341D03*
X0161642Y0298341D03*
X0163610Y0298341D03*
X0165579Y0298341D03*
X0167547Y0298341D03*
X0167547Y0204844D03*
X0165579Y0204844D03*
X0163610Y0204844D03*
X0161642Y0204844D03*
X0159673Y0204844D03*
X0157705Y0204844D03*
X0155736Y0204844D03*
X0153768Y0204844D03*
X0153768Y0186341D03*
X0155736Y0186341D03*
X0157705Y0186341D03*
X0159673Y0186341D03*
X0161642Y0186341D03*
X0163610Y0186341D03*
X0165579Y0186341D03*
X0167547Y0186341D03*
X0167547Y0092844D03*
X0165579Y0092844D03*
X0163610Y0092844D03*
X0161642Y0092844D03*
X0159673Y0092844D03*
X0157705Y0092844D03*
X0155736Y0092844D03*
X0153768Y0092844D03*
X0153768Y0074341D03*
X0155736Y0074341D03*
X0157705Y0074341D03*
X0159673Y0074341D03*
X0161642Y0074341D03*
X0163610Y0074341D03*
X0165579Y0074341D03*
X0167547Y0074341D03*
X0065547Y0074341D03*
X0063579Y0074341D03*
X0061610Y0074341D03*
X0059642Y0074341D03*
X0057673Y0074341D03*
X0055705Y0074341D03*
X0053736Y0074341D03*
X0051768Y0074341D03*
X0051768Y0092844D03*
X0053736Y0092844D03*
X0055705Y0092844D03*
X0057673Y0092844D03*
X0059642Y0092844D03*
X0061610Y0092844D03*
X0063579Y0092844D03*
X0065547Y0092844D03*
X0065547Y0186341D03*
X0063579Y0186341D03*
X0061610Y0186341D03*
X0059642Y0186341D03*
X0057673Y0186341D03*
X0055705Y0186341D03*
X0053736Y0186341D03*
X0051768Y0186341D03*
X0051768Y0204844D03*
X0053736Y0204844D03*
X0055705Y0204844D03*
X0057673Y0204844D03*
X0059642Y0204844D03*
X0061610Y0204844D03*
X0063579Y0204844D03*
X0065547Y0204844D03*
X0065547Y0298341D03*
X0063579Y0298341D03*
X0061610Y0298341D03*
X0059642Y0298341D03*
X0057673Y0298341D03*
X0055705Y0298341D03*
X0053736Y0298341D03*
X0051768Y0298341D03*
X0051768Y0316844D03*
X0053736Y0316844D03*
X0055705Y0316844D03*
X0057673Y0316844D03*
X0059642Y0316844D03*
X0061610Y0316844D03*
X0063579Y0316844D03*
X0065547Y0316844D03*
X0065547Y0410341D03*
X0063579Y0410341D03*
X0061610Y0410341D03*
X0059642Y0410341D03*
X0057673Y0410341D03*
X0055705Y0410341D03*
X0053736Y0410341D03*
X0051768Y0410341D03*
X0051768Y0428844D03*
X0053736Y0428844D03*
X0055705Y0428844D03*
X0057673Y0428844D03*
X0059642Y0428844D03*
X0061610Y0428844D03*
X0063579Y0428844D03*
X0065547Y0428844D03*
X0065547Y0522341D03*
X0063579Y0522341D03*
X0061610Y0522341D03*
X0059642Y0522341D03*
X0057673Y0522341D03*
X0055705Y0522341D03*
X0053736Y0522341D03*
X0051768Y0522341D03*
X0051768Y0540844D03*
X0053736Y0540844D03*
X0055705Y0540844D03*
X0057673Y0540844D03*
X0059642Y0540844D03*
X0061610Y0540844D03*
X0063579Y0540844D03*
X0065547Y0540844D03*
D33*
X0067909Y0538482D03*
X0067909Y0536514D03*
X0067909Y0534545D03*
X0067909Y0532577D03*
X0067909Y0530608D03*
X0067909Y0528640D03*
X0067909Y0526671D03*
X0067909Y0524703D03*
X0049406Y0524703D03*
X0049406Y0526671D03*
X0049406Y0528640D03*
X0049406Y0530608D03*
X0049406Y0532577D03*
X0049406Y0534545D03*
X0049406Y0536514D03*
X0049406Y0538482D03*
X0049406Y0426482D03*
X0049406Y0424514D03*
X0049406Y0422545D03*
X0049406Y0420577D03*
X0049406Y0418608D03*
X0049406Y0416640D03*
X0049406Y0414671D03*
X0049406Y0412703D03*
X0067909Y0412703D03*
X0067909Y0414671D03*
X0067909Y0416640D03*
X0067909Y0418608D03*
X0067909Y0420577D03*
X0067909Y0422545D03*
X0067909Y0424514D03*
X0067909Y0426482D03*
X0151406Y0426482D03*
X0151406Y0424514D03*
X0151406Y0422545D03*
X0151406Y0420577D03*
X0151406Y0418608D03*
X0151406Y0416640D03*
X0151406Y0414671D03*
X0151406Y0412703D03*
X0169909Y0412703D03*
X0169909Y0414671D03*
X0169909Y0416640D03*
X0169909Y0418608D03*
X0169909Y0420577D03*
X0169909Y0422545D03*
X0169909Y0424514D03*
X0169909Y0426482D03*
X0169909Y0524703D03*
X0169909Y0526671D03*
X0169909Y0528640D03*
X0169909Y0530608D03*
X0169909Y0532577D03*
X0169909Y0534545D03*
X0169909Y0536514D03*
X0169909Y0538482D03*
X0151406Y0538482D03*
X0151406Y0536514D03*
X0151406Y0534545D03*
X0151406Y0532577D03*
X0151406Y0530608D03*
X0151406Y0528640D03*
X0151406Y0526671D03*
X0151406Y0524703D03*
X0253406Y0524703D03*
X0253406Y0526671D03*
X0253406Y0528640D03*
X0253406Y0530608D03*
X0253406Y0532577D03*
X0253406Y0534545D03*
X0253406Y0536514D03*
X0253406Y0538482D03*
X0271909Y0538482D03*
X0271909Y0536514D03*
X0271909Y0534545D03*
X0271909Y0532577D03*
X0271909Y0530608D03*
X0271909Y0528640D03*
X0271909Y0526671D03*
X0271909Y0524703D03*
X0271909Y0426482D03*
X0271909Y0424514D03*
X0271909Y0422545D03*
X0271909Y0420577D03*
X0271909Y0418608D03*
X0271909Y0416640D03*
X0271909Y0414671D03*
X0271909Y0412703D03*
X0253406Y0412703D03*
X0253406Y0414671D03*
X0253406Y0416640D03*
X0253406Y0418608D03*
X0253406Y0420577D03*
X0253406Y0422545D03*
X0253406Y0424514D03*
X0253406Y0426482D03*
X0253406Y0314482D03*
X0253406Y0312514D03*
X0253406Y0310545D03*
X0253406Y0308577D03*
X0253406Y0306608D03*
X0253406Y0304640D03*
X0253406Y0302671D03*
X0253406Y0300703D03*
X0271909Y0300703D03*
X0271909Y0302671D03*
X0271909Y0304640D03*
X0271909Y0306608D03*
X0271909Y0308577D03*
X0271909Y0310545D03*
X0271909Y0312514D03*
X0271909Y0314482D03*
X0355406Y0314482D03*
X0355406Y0312514D03*
X0355406Y0310545D03*
X0355406Y0308577D03*
X0355406Y0306608D03*
X0355406Y0304640D03*
X0355406Y0302671D03*
X0355406Y0300703D03*
X0373909Y0300703D03*
X0373909Y0302671D03*
X0373909Y0304640D03*
X0373909Y0306608D03*
X0373909Y0308577D03*
X0373909Y0310545D03*
X0373909Y0312514D03*
X0373909Y0314482D03*
X0373909Y0412703D03*
X0373909Y0414671D03*
X0373909Y0416640D03*
X0373909Y0418608D03*
X0373909Y0420577D03*
X0373909Y0422545D03*
X0373909Y0424514D03*
X0373909Y0426482D03*
X0355406Y0426482D03*
X0355406Y0424514D03*
X0355406Y0422545D03*
X0355406Y0420577D03*
X0355406Y0418608D03*
X0355406Y0416640D03*
X0355406Y0414671D03*
X0355406Y0412703D03*
X0355406Y0524703D03*
X0355406Y0526671D03*
X0355406Y0528640D03*
X0355406Y0530608D03*
X0355406Y0532577D03*
X0355406Y0534545D03*
X0355406Y0536514D03*
X0355406Y0538482D03*
X0373909Y0538482D03*
X0373909Y0536514D03*
X0373909Y0534545D03*
X0373909Y0532577D03*
X0373909Y0530608D03*
X0373909Y0528640D03*
X0373909Y0526671D03*
X0373909Y0524703D03*
X0169909Y0314482D03*
X0169909Y0312514D03*
X0169909Y0310545D03*
X0169909Y0308577D03*
X0169909Y0306608D03*
X0169909Y0304640D03*
X0169909Y0302671D03*
X0169909Y0300703D03*
X0151406Y0300703D03*
X0151406Y0302671D03*
X0151406Y0304640D03*
X0151406Y0306608D03*
X0151406Y0308577D03*
X0151406Y0310545D03*
X0151406Y0312514D03*
X0151406Y0314482D03*
X0067909Y0314482D03*
X0067909Y0312514D03*
X0067909Y0310545D03*
X0067909Y0308577D03*
X0067909Y0306608D03*
X0067909Y0304640D03*
X0067909Y0302671D03*
X0067909Y0300703D03*
X0049406Y0300703D03*
X0049406Y0302671D03*
X0049406Y0304640D03*
X0049406Y0306608D03*
X0049406Y0308577D03*
X0049406Y0310545D03*
X0049406Y0312514D03*
X0049406Y0314482D03*
X0049406Y0202482D03*
X0049406Y0200514D03*
X0049406Y0198545D03*
X0049406Y0196577D03*
X0049406Y0194608D03*
X0049406Y0192640D03*
X0049406Y0190671D03*
X0049406Y0188703D03*
X0067909Y0188703D03*
X0067909Y0190671D03*
X0067909Y0192640D03*
X0067909Y0194608D03*
X0067909Y0196577D03*
X0067909Y0198545D03*
X0067909Y0200514D03*
X0067909Y0202482D03*
X0151406Y0202482D03*
X0151406Y0200514D03*
X0151406Y0198545D03*
X0151406Y0196577D03*
X0151406Y0194608D03*
X0151406Y0192640D03*
X0151406Y0190671D03*
X0151406Y0188703D03*
X0169909Y0188703D03*
X0169909Y0190671D03*
X0169909Y0192640D03*
X0169909Y0194608D03*
X0169909Y0196577D03*
X0169909Y0198545D03*
X0169909Y0200514D03*
X0169909Y0202482D03*
X0169909Y0090482D03*
X0169909Y0088514D03*
X0169909Y0086545D03*
X0169909Y0084577D03*
X0169909Y0082608D03*
X0169909Y0080640D03*
X0169909Y0078671D03*
X0169909Y0076703D03*
X0151406Y0076703D03*
X0151406Y0078671D03*
X0151406Y0080640D03*
X0151406Y0082608D03*
X0151406Y0084577D03*
X0151406Y0086545D03*
X0151406Y0088514D03*
X0151406Y0090482D03*
X0067909Y0090482D03*
X0067909Y0088514D03*
X0067909Y0086545D03*
X0067909Y0084577D03*
X0067909Y0082608D03*
X0067909Y0080640D03*
X0067909Y0078671D03*
X0067909Y0076703D03*
X0049406Y0076703D03*
X0049406Y0078671D03*
X0049406Y0080640D03*
X0049406Y0082608D03*
X0049406Y0084577D03*
X0049406Y0086545D03*
X0049406Y0088514D03*
X0049406Y0090482D03*
X0253406Y0090482D03*
X0253406Y0088514D03*
X0253406Y0086545D03*
X0253406Y0084577D03*
X0253406Y0082608D03*
X0253406Y0080640D03*
X0253406Y0078671D03*
X0253406Y0076703D03*
X0271909Y0076703D03*
X0271909Y0078671D03*
X0271909Y0080640D03*
X0271909Y0082608D03*
X0271909Y0084577D03*
X0271909Y0086545D03*
X0271909Y0088514D03*
X0271909Y0090482D03*
X0271909Y0188703D03*
X0271909Y0190671D03*
X0271909Y0192640D03*
X0271909Y0194608D03*
X0271909Y0196577D03*
X0271909Y0198545D03*
X0271909Y0200514D03*
X0271909Y0202482D03*
X0253406Y0202482D03*
X0253406Y0200514D03*
X0253406Y0198545D03*
X0253406Y0196577D03*
X0253406Y0194608D03*
X0253406Y0192640D03*
X0253406Y0190671D03*
X0253406Y0188703D03*
X0355406Y0188703D03*
X0355406Y0190671D03*
X0355406Y0192640D03*
X0355406Y0194608D03*
X0355406Y0196577D03*
X0355406Y0198545D03*
X0355406Y0200514D03*
X0355406Y0202482D03*
X0373909Y0202482D03*
X0373909Y0200514D03*
X0373909Y0198545D03*
X0373909Y0196577D03*
X0373909Y0194608D03*
X0373909Y0192640D03*
X0373909Y0190671D03*
X0373909Y0188703D03*
X0373909Y0090482D03*
X0373909Y0088514D03*
X0373909Y0086545D03*
X0373909Y0084577D03*
X0373909Y0082608D03*
X0373909Y0080640D03*
X0373909Y0078671D03*
X0373909Y0076703D03*
X0355406Y0076703D03*
X0355406Y0078671D03*
X0355406Y0080640D03*
X0355406Y0082608D03*
X0355406Y0084577D03*
X0355406Y0086545D03*
X0355406Y0088514D03*
X0355406Y0090482D03*
D34*
X0364657Y0083593D03*
X0364657Y0195593D03*
X0364657Y0307593D03*
X0364657Y0419593D03*
X0364657Y0531593D03*
X0262657Y0531593D03*
X0262657Y0419593D03*
X0262657Y0307593D03*
X0262657Y0195593D03*
X0262657Y0083593D03*
X0160657Y0083593D03*
X0160657Y0195593D03*
X0160657Y0307593D03*
X0160657Y0419593D03*
X0160657Y0531593D03*
X0058657Y0531593D03*
X0058657Y0419593D03*
X0058657Y0307593D03*
X0058657Y0195593D03*
X0058657Y0083593D03*
D35*
X0051935Y0020500D02*
X0051937Y0020619D01*
X0051943Y0020738D01*
X0051953Y0020857D01*
X0051967Y0020975D01*
X0051985Y0021093D01*
X0052006Y0021210D01*
X0052032Y0021326D01*
X0052062Y0021442D01*
X0052095Y0021556D01*
X0052132Y0021669D01*
X0052173Y0021781D01*
X0052218Y0021892D01*
X0052266Y0022001D01*
X0052318Y0022108D01*
X0052374Y0022213D01*
X0052433Y0022317D01*
X0052495Y0022418D01*
X0052561Y0022518D01*
X0052630Y0022615D01*
X0052702Y0022709D01*
X0052778Y0022802D01*
X0052856Y0022891D01*
X0052937Y0022978D01*
X0053022Y0023063D01*
X0053109Y0023144D01*
X0053198Y0023222D01*
X0053291Y0023298D01*
X0053385Y0023370D01*
X0053482Y0023439D01*
X0053582Y0023505D01*
X0053683Y0023567D01*
X0053787Y0023626D01*
X0053892Y0023682D01*
X0053999Y0023734D01*
X0054108Y0023782D01*
X0054219Y0023827D01*
X0054331Y0023868D01*
X0054444Y0023905D01*
X0054558Y0023938D01*
X0054674Y0023968D01*
X0054790Y0023994D01*
X0054907Y0024015D01*
X0055025Y0024033D01*
X0055143Y0024047D01*
X0055262Y0024057D01*
X0055381Y0024063D01*
X0055500Y0024065D01*
X0055619Y0024063D01*
X0055738Y0024057D01*
X0055857Y0024047D01*
X0055975Y0024033D01*
X0056093Y0024015D01*
X0056210Y0023994D01*
X0056326Y0023968D01*
X0056442Y0023938D01*
X0056556Y0023905D01*
X0056669Y0023868D01*
X0056781Y0023827D01*
X0056892Y0023782D01*
X0057001Y0023734D01*
X0057108Y0023682D01*
X0057213Y0023626D01*
X0057317Y0023567D01*
X0057418Y0023505D01*
X0057518Y0023439D01*
X0057615Y0023370D01*
X0057709Y0023298D01*
X0057802Y0023222D01*
X0057891Y0023144D01*
X0057978Y0023063D01*
X0058063Y0022978D01*
X0058144Y0022891D01*
X0058222Y0022802D01*
X0058298Y0022709D01*
X0058370Y0022615D01*
X0058439Y0022518D01*
X0058505Y0022418D01*
X0058567Y0022317D01*
X0058626Y0022213D01*
X0058682Y0022108D01*
X0058734Y0022001D01*
X0058782Y0021892D01*
X0058827Y0021781D01*
X0058868Y0021669D01*
X0058905Y0021556D01*
X0058938Y0021442D01*
X0058968Y0021326D01*
X0058994Y0021210D01*
X0059015Y0021093D01*
X0059033Y0020975D01*
X0059047Y0020857D01*
X0059057Y0020738D01*
X0059063Y0020619D01*
X0059065Y0020500D01*
X0059063Y0020381D01*
X0059057Y0020262D01*
X0059047Y0020143D01*
X0059033Y0020025D01*
X0059015Y0019907D01*
X0058994Y0019790D01*
X0058968Y0019674D01*
X0058938Y0019558D01*
X0058905Y0019444D01*
X0058868Y0019331D01*
X0058827Y0019219D01*
X0058782Y0019108D01*
X0058734Y0018999D01*
X0058682Y0018892D01*
X0058626Y0018787D01*
X0058567Y0018683D01*
X0058505Y0018582D01*
X0058439Y0018482D01*
X0058370Y0018385D01*
X0058298Y0018291D01*
X0058222Y0018198D01*
X0058144Y0018109D01*
X0058063Y0018022D01*
X0057978Y0017937D01*
X0057891Y0017856D01*
X0057802Y0017778D01*
X0057709Y0017702D01*
X0057615Y0017630D01*
X0057518Y0017561D01*
X0057418Y0017495D01*
X0057317Y0017433D01*
X0057213Y0017374D01*
X0057108Y0017318D01*
X0057001Y0017266D01*
X0056892Y0017218D01*
X0056781Y0017173D01*
X0056669Y0017132D01*
X0056556Y0017095D01*
X0056442Y0017062D01*
X0056326Y0017032D01*
X0056210Y0017006D01*
X0056093Y0016985D01*
X0055975Y0016967D01*
X0055857Y0016953D01*
X0055738Y0016943D01*
X0055619Y0016937D01*
X0055500Y0016935D01*
X0055381Y0016937D01*
X0055262Y0016943D01*
X0055143Y0016953D01*
X0055025Y0016967D01*
X0054907Y0016985D01*
X0054790Y0017006D01*
X0054674Y0017032D01*
X0054558Y0017062D01*
X0054444Y0017095D01*
X0054331Y0017132D01*
X0054219Y0017173D01*
X0054108Y0017218D01*
X0053999Y0017266D01*
X0053892Y0017318D01*
X0053787Y0017374D01*
X0053683Y0017433D01*
X0053582Y0017495D01*
X0053482Y0017561D01*
X0053385Y0017630D01*
X0053291Y0017702D01*
X0053198Y0017778D01*
X0053109Y0017856D01*
X0053022Y0017937D01*
X0052937Y0018022D01*
X0052856Y0018109D01*
X0052778Y0018198D01*
X0052702Y0018291D01*
X0052630Y0018385D01*
X0052561Y0018482D01*
X0052495Y0018582D01*
X0052433Y0018683D01*
X0052374Y0018787D01*
X0052318Y0018892D01*
X0052266Y0018999D01*
X0052218Y0019108D01*
X0052173Y0019219D01*
X0052132Y0019331D01*
X0052095Y0019444D01*
X0052062Y0019558D01*
X0052032Y0019674D01*
X0052006Y0019790D01*
X0051985Y0019907D01*
X0051967Y0020025D01*
X0051953Y0020143D01*
X0051943Y0020262D01*
X0051937Y0020381D01*
X0051935Y0020500D01*
D36*
X0055500Y0020500D03*
M02*
