G75*
%MOIN*%
%OFA0B0*%
%FSLAX25Y25*%
%IPPOS*%
%LPD*%
%AMOC8*
5,1,8,0,0,1.08239X$1,22.5*
%
%ADD10C,0.00500*%
%ADD11C,0.05512*%
%ADD12C,0.03937*%
%ADD13C,0.07400*%
%ADD14R,0.06700X0.02400*%
%ADD15C,0.02900*%
%ADD16C,0.02500*%
%ADD17C,0.03937*%
%ADD18R,0.03937X0.04331*%
%ADD19R,0.05000X0.02500*%
%ADD20R,0.01000X0.01600*%
%ADD21R,0.03937X0.18110*%
%ADD22R,0.06299X0.13386*%
%ADD23C,0.01000*%
%ADD24C,0.00800*%
D10*
X0148148Y0054058D02*
X0148186Y0054141D01*
X0148222Y0054226D01*
X0148253Y0054312D01*
X0148281Y0054400D01*
X0148305Y0054488D01*
X0148326Y0054577D01*
X0148343Y0054668D01*
X0148356Y0054758D01*
X0148365Y0054850D01*
X0148371Y0054941D01*
X0148373Y0055033D01*
X0146873Y0055033D02*
X0146875Y0054941D01*
X0146881Y0054850D01*
X0146890Y0054758D01*
X0146903Y0054668D01*
X0146920Y0054577D01*
X0146941Y0054488D01*
X0146965Y0054400D01*
X0146993Y0054312D01*
X0147024Y0054226D01*
X0147060Y0054141D01*
X0147098Y0054058D01*
X0147115Y0054015D01*
X0147135Y0053974D01*
X0147158Y0053935D01*
X0147185Y0053897D01*
X0147215Y0053862D01*
X0147247Y0053830D01*
X0147282Y0053800D01*
X0147319Y0053773D01*
X0147359Y0053750D01*
X0147400Y0053730D01*
X0147443Y0053713D01*
X0147487Y0053700D01*
X0147532Y0053691D01*
X0147577Y0053685D01*
X0147623Y0053683D01*
X0147669Y0053685D01*
X0147714Y0053691D01*
X0147759Y0053700D01*
X0147803Y0053713D01*
X0147846Y0053730D01*
X0147887Y0053750D01*
X0147927Y0053773D01*
X0147964Y0053800D01*
X0147999Y0053830D01*
X0148031Y0053862D01*
X0148061Y0053897D01*
X0148088Y0053935D01*
X0148111Y0053974D01*
X0148131Y0054015D01*
X0148148Y0054058D01*
X0148223Y0054283D02*
X0147023Y0055783D01*
X0147098Y0056008D02*
X0147115Y0056051D01*
X0147135Y0056092D01*
X0147158Y0056131D01*
X0147185Y0056169D01*
X0147215Y0056204D01*
X0147247Y0056236D01*
X0147282Y0056266D01*
X0147319Y0056293D01*
X0147359Y0056316D01*
X0147400Y0056336D01*
X0147443Y0056353D01*
X0147487Y0056366D01*
X0147532Y0056375D01*
X0147577Y0056381D01*
X0147623Y0056383D01*
X0147669Y0056381D01*
X0147714Y0056375D01*
X0147759Y0056366D01*
X0147803Y0056353D01*
X0147846Y0056336D01*
X0147887Y0056316D01*
X0147927Y0056293D01*
X0147964Y0056266D01*
X0147999Y0056236D01*
X0148031Y0056204D01*
X0148061Y0056169D01*
X0148088Y0056131D01*
X0148111Y0056092D01*
X0148131Y0056051D01*
X0148148Y0056008D01*
X0147098Y0056008D02*
X0147060Y0055925D01*
X0147024Y0055840D01*
X0146993Y0055754D01*
X0146965Y0055666D01*
X0146941Y0055578D01*
X0146920Y0055489D01*
X0146903Y0055398D01*
X0146890Y0055308D01*
X0146881Y0055216D01*
X0146875Y0055125D01*
X0146873Y0055033D01*
X0148373Y0055033D02*
X0148371Y0055125D01*
X0148365Y0055216D01*
X0148356Y0055308D01*
X0148343Y0055398D01*
X0148326Y0055489D01*
X0148305Y0055578D01*
X0148281Y0055666D01*
X0148253Y0055754D01*
X0148222Y0055840D01*
X0148186Y0055925D01*
X0148148Y0056008D01*
X0150503Y0056383D02*
X0150503Y0053683D01*
X0151253Y0053683D02*
X0149753Y0053683D01*
X0151253Y0055783D02*
X0150503Y0056383D01*
X0152483Y0056383D02*
X0153383Y0053683D01*
X0154283Y0056383D01*
D11*
X0161587Y0142420D02*
X0161587Y0145176D01*
X0140091Y0145176D02*
X0140091Y0142420D01*
D12*
X0141266Y0133657D02*
X0141266Y0132475D01*
X0141266Y0133657D02*
X0141266Y0133657D01*
X0141266Y0132475D01*
X0141266Y0132475D01*
X0160400Y0132475D02*
X0160400Y0133657D01*
X0160400Y0133657D01*
X0160400Y0132475D01*
X0160400Y0132475D01*
D13*
X0128333Y0137333D03*
X0128333Y0127333D03*
X0128333Y0117333D03*
X0128333Y0107333D03*
X0128333Y0097333D03*
X0128333Y0087333D03*
X0128333Y0077333D03*
X0218333Y0078333D03*
X0218333Y0088333D03*
X0218333Y0098333D03*
X0218333Y0108333D03*
X0218333Y0117333D03*
X0218333Y0127333D03*
D14*
X0174133Y0107833D03*
X0174133Y0102833D03*
X0174133Y0097833D03*
X0174133Y0092833D03*
X0148533Y0092833D03*
X0148533Y0097833D03*
X0148533Y0102833D03*
X0148533Y0107833D03*
D15*
X0142133Y0110033D03*
X0166433Y0106933D03*
X0168533Y0103933D03*
X0165733Y0101633D03*
X0179933Y0104433D03*
X0179883Y0108733D03*
X0185633Y0103333D03*
X0199333Y0111833D03*
X0210533Y0105833D03*
X0185633Y0119033D03*
X0178083Y0118833D03*
X0174033Y0116283D03*
X0169483Y0125983D03*
X0173383Y0131783D03*
X0179983Y0130433D03*
X0189633Y0133033D03*
X0186533Y0140633D03*
X0199533Y0135633D03*
X0193783Y0123333D03*
X0168383Y0136683D03*
X0144033Y0126433D03*
X0131033Y0145433D03*
X0140333Y0094433D03*
X0138333Y0086033D03*
X0141183Y0083383D03*
X0150783Y0083883D03*
X0157733Y0081583D03*
X0163133Y0082233D03*
X0157433Y0074183D03*
X0153033Y0074933D03*
X0149533Y0069333D03*
X0163133Y0069233D03*
X0173533Y0058333D03*
X0183333Y0067333D03*
X0199183Y0066833D03*
X0201133Y0055933D03*
X0175302Y0080333D03*
X0178883Y0083083D03*
X0183233Y0086433D03*
X0187683Y0090433D03*
X0179633Y0094433D03*
X0171633Y0089433D03*
X0191583Y0084233D03*
X0198133Y0086433D03*
X0208433Y0086283D03*
X0156833Y0056433D03*
D16*
X0126333Y0055333D03*
X0220633Y0149633D03*
D17*
X0199333Y0096333D03*
X0194333Y0096333D03*
X0189333Y0096333D03*
X0184333Y0096333D03*
D18*
X0191833Y0101987D03*
X0191833Y0108680D03*
D19*
X0195333Y0062333D03*
X0195333Y0058333D03*
D20*
X0195333Y0060333D03*
D21*
X0164270Y0120766D03*
X0156396Y0120766D03*
D22*
X0146948Y0141239D03*
X0173719Y0141239D03*
D23*
X0168870Y0141201D02*
X0165666Y0141201D01*
X0165738Y0141423D02*
X0165843Y0142085D01*
X0165843Y0143298D01*
X0162087Y0143298D01*
X0162087Y0144298D01*
X0161087Y0144298D01*
X0161087Y0149405D01*
X0160590Y0149327D01*
X0159953Y0149120D01*
X0159356Y0148815D01*
X0158814Y0148422D01*
X0158341Y0147948D01*
X0157947Y0147406D01*
X0157643Y0146809D01*
X0157436Y0146172D01*
X0157331Y0145510D01*
X0157331Y0144298D01*
X0161087Y0144298D01*
X0161087Y0143298D01*
X0157331Y0143298D01*
X0157331Y0142085D01*
X0157436Y0141423D01*
X0157643Y0140786D01*
X0157947Y0140189D01*
X0158060Y0140033D01*
X0156922Y0140033D01*
X0155485Y0138596D01*
X0154196Y0137308D01*
X0154196Y0131522D01*
X0153724Y0131522D01*
X0152728Y0130526D01*
X0152728Y0112433D01*
X0144188Y0112433D01*
X0143918Y0112704D01*
X0142760Y0113183D01*
X0141507Y0113183D01*
X0140349Y0112704D01*
X0139833Y0112188D01*
X0139833Y0128803D01*
X0133336Y0135300D01*
X0133733Y0136259D01*
X0133733Y0138407D01*
X0132911Y0140392D01*
X0131392Y0141911D01*
X0129407Y0142733D01*
X0127259Y0142733D01*
X0125433Y0141977D01*
X0125433Y0150233D01*
X0208124Y0150233D01*
X0206021Y0148469D01*
X0206021Y0148469D01*
X0206021Y0148469D01*
X0204364Y0145598D01*
X0203788Y0142333D01*
X0204364Y0139069D01*
X0204364Y0139069D01*
X0206021Y0136198D01*
X0208561Y0134067D01*
X0211676Y0132933D01*
X0214991Y0132933D01*
X0218106Y0134067D01*
X0220645Y0136198D01*
X0221233Y0137217D01*
X0221233Y0131977D01*
X0219407Y0132733D01*
X0217259Y0132733D01*
X0215274Y0131911D01*
X0213755Y0130392D01*
X0212933Y0128407D01*
X0212933Y0126259D01*
X0213330Y0125300D01*
X0206463Y0118433D01*
X0188783Y0118433D01*
X0188783Y0119660D01*
X0188304Y0120818D01*
X0187418Y0121704D01*
X0186260Y0122183D01*
X0185007Y0122183D01*
X0183849Y0121704D01*
X0183379Y0121233D01*
X0183145Y0121233D01*
X0171532Y0132846D01*
X0177573Y0132846D01*
X0178569Y0133842D01*
X0178569Y0142331D01*
X0178737Y0142262D01*
X0180118Y0142262D01*
X0181394Y0142790D01*
X0182371Y0143767D01*
X0182899Y0145043D01*
X0182899Y0146424D01*
X0182371Y0147700D01*
X0181394Y0148676D01*
X0180118Y0149205D01*
X0178737Y0149205D01*
X0178216Y0148989D01*
X0177573Y0149632D01*
X0169865Y0149632D01*
X0168870Y0148636D01*
X0168870Y0135508D01*
X0164782Y0139596D01*
X0164833Y0139647D01*
X0165227Y0140189D01*
X0165531Y0140786D01*
X0165738Y0141423D01*
X0165843Y0142199D02*
X0168870Y0142199D01*
X0168870Y0143198D02*
X0165843Y0143198D01*
X0165843Y0144298D02*
X0165843Y0145510D01*
X0165738Y0146172D01*
X0165531Y0146809D01*
X0165227Y0147406D01*
X0164833Y0147948D01*
X0164359Y0148422D01*
X0163818Y0148815D01*
X0163221Y0149120D01*
X0162584Y0149327D01*
X0162087Y0149405D01*
X0162087Y0144298D01*
X0165843Y0144298D01*
X0165843Y0145195D02*
X0168870Y0145195D01*
X0168870Y0146193D02*
X0165731Y0146193D01*
X0165336Y0147192D02*
X0168870Y0147192D01*
X0168870Y0148190D02*
X0164591Y0148190D01*
X0163007Y0149189D02*
X0169423Y0149189D01*
X0162087Y0149189D02*
X0161087Y0149189D01*
X0160167Y0149189D02*
X0151244Y0149189D01*
X0150801Y0149632D02*
X0143094Y0149632D01*
X0142292Y0148830D01*
X0141725Y0149120D01*
X0141087Y0149327D01*
X0140591Y0149405D01*
X0140591Y0144298D01*
X0139591Y0144298D01*
X0139591Y0149405D01*
X0139094Y0149327D01*
X0138457Y0149120D01*
X0137860Y0148815D01*
X0137318Y0148422D01*
X0136845Y0147948D01*
X0136451Y0147406D01*
X0136147Y0146809D01*
X0135940Y0146172D01*
X0135835Y0145510D01*
X0135835Y0144298D01*
X0139591Y0144298D01*
X0139591Y0143298D01*
X0135835Y0143298D01*
X0135835Y0142085D01*
X0135940Y0141423D01*
X0136147Y0140786D01*
X0136451Y0140189D01*
X0136845Y0139647D01*
X0137318Y0139173D01*
X0137860Y0138780D01*
X0138457Y0138476D01*
X0139094Y0138269D01*
X0139591Y0138190D01*
X0139591Y0143298D01*
X0140591Y0143298D01*
X0140591Y0138190D01*
X0141087Y0138269D01*
X0141725Y0138476D01*
X0142098Y0138666D01*
X0142098Y0137027D01*
X0141751Y0137096D01*
X0141751Y0133550D01*
X0142390Y0133550D01*
X0143094Y0132846D01*
X0150801Y0132846D01*
X0151797Y0133842D01*
X0151797Y0148636D01*
X0150801Y0149632D01*
X0151797Y0148190D02*
X0158583Y0148190D01*
X0157838Y0147192D02*
X0151797Y0147192D01*
X0151797Y0146193D02*
X0157443Y0146193D01*
X0157331Y0145195D02*
X0151797Y0145195D01*
X0151797Y0144196D02*
X0161087Y0144196D01*
X0161087Y0145195D02*
X0162087Y0145195D01*
X0162087Y0146193D02*
X0161087Y0146193D01*
X0161087Y0147192D02*
X0162087Y0147192D01*
X0162087Y0148190D02*
X0161087Y0148190D01*
X0162087Y0144196D02*
X0168870Y0144196D01*
X0168870Y0140202D02*
X0165234Y0140202D01*
X0165174Y0139204D02*
X0168870Y0139204D01*
X0168870Y0138205D02*
X0166173Y0138205D01*
X0167171Y0137207D02*
X0168870Y0137207D01*
X0168870Y0136208D02*
X0168170Y0136208D01*
X0164943Y0133213D02*
X0160885Y0133213D01*
X0160885Y0133550D02*
X0163869Y0133550D01*
X0163869Y0133998D01*
X0163797Y0134358D01*
X0167098Y0131058D01*
X0166818Y0131219D01*
X0166436Y0131322D01*
X0164755Y0131322D01*
X0164755Y0121251D01*
X0167739Y0121251D01*
X0167739Y0130019D01*
X0167637Y0130400D01*
X0167475Y0130680D01*
X0176548Y0121607D01*
X0176299Y0121504D01*
X0175413Y0120618D01*
X0174933Y0119460D01*
X0174933Y0119320D01*
X0174660Y0119433D01*
X0173407Y0119433D01*
X0172249Y0118954D01*
X0171363Y0118068D01*
X0170883Y0116910D01*
X0170883Y0115657D01*
X0171363Y0114499D01*
X0172249Y0113613D01*
X0173407Y0113133D01*
X0174660Y0113133D01*
X0175818Y0113613D01*
X0176388Y0114183D01*
X0178413Y0114183D01*
X0178513Y0114083D01*
X0178463Y0114083D01*
X0176813Y0112433D01*
X0167739Y0112433D01*
X0167739Y0120282D01*
X0164755Y0120282D01*
X0164755Y0121251D01*
X0163786Y0121251D01*
X0163786Y0131322D01*
X0163677Y0131322D01*
X0163735Y0131463D01*
X0163869Y0132133D01*
X0163869Y0132581D01*
X0160885Y0132581D01*
X0160885Y0133550D01*
X0160885Y0132581D02*
X0159916Y0132581D01*
X0159916Y0130675D01*
X0160065Y0130526D01*
X0160065Y0112433D01*
X0160802Y0112433D01*
X0160802Y0120282D01*
X0163786Y0120282D01*
X0163786Y0121251D01*
X0160802Y0121251D01*
X0160802Y0130019D01*
X0160885Y0130328D01*
X0160885Y0132581D01*
X0160885Y0132214D02*
X0159916Y0132214D01*
X0159916Y0131216D02*
X0160885Y0131216D01*
X0160855Y0130217D02*
X0160065Y0130217D01*
X0160065Y0129219D02*
X0160802Y0129219D01*
X0160802Y0128220D02*
X0160065Y0128220D01*
X0160065Y0127222D02*
X0160802Y0127222D01*
X0160802Y0126223D02*
X0160065Y0126223D01*
X0160065Y0125225D02*
X0160802Y0125225D01*
X0160802Y0124226D02*
X0160065Y0124226D01*
X0160065Y0123228D02*
X0160802Y0123228D01*
X0160802Y0122229D02*
X0160065Y0122229D01*
X0160065Y0121231D02*
X0163786Y0121231D01*
X0164755Y0121231D02*
X0176026Y0121231D01*
X0175926Y0122229D02*
X0167739Y0122229D01*
X0167739Y0123228D02*
X0174928Y0123228D01*
X0173929Y0124226D02*
X0167739Y0124226D01*
X0167739Y0125225D02*
X0172931Y0125225D01*
X0171932Y0126223D02*
X0167739Y0126223D01*
X0167739Y0127222D02*
X0170934Y0127222D01*
X0169935Y0128220D02*
X0167739Y0128220D01*
X0167739Y0129219D02*
X0168937Y0129219D01*
X0167938Y0130217D02*
X0167686Y0130217D01*
X0166940Y0131216D02*
X0166824Y0131216D01*
X0165941Y0132214D02*
X0163869Y0132214D01*
X0163786Y0131216D02*
X0164755Y0131216D01*
X0164755Y0130217D02*
X0163786Y0130217D01*
X0163786Y0129219D02*
X0164755Y0129219D01*
X0164755Y0128220D02*
X0163786Y0128220D01*
X0163786Y0127222D02*
X0164755Y0127222D01*
X0164755Y0126223D02*
X0163786Y0126223D01*
X0163786Y0125225D02*
X0164755Y0125225D01*
X0164755Y0124226D02*
X0163786Y0124226D01*
X0163786Y0123228D02*
X0164755Y0123228D01*
X0164755Y0122229D02*
X0163786Y0122229D01*
X0160802Y0120232D02*
X0160065Y0120232D01*
X0160065Y0119234D02*
X0160802Y0119234D01*
X0160802Y0118235D02*
X0160065Y0118235D01*
X0160065Y0117237D02*
X0160802Y0117237D01*
X0160802Y0116238D02*
X0160065Y0116238D01*
X0160065Y0115240D02*
X0160802Y0115240D01*
X0160802Y0114241D02*
X0160065Y0114241D01*
X0160065Y0113243D02*
X0160802Y0113243D01*
X0167739Y0113243D02*
X0173143Y0113243D01*
X0174924Y0113243D02*
X0177623Y0113243D01*
X0171621Y0114241D02*
X0167739Y0114241D01*
X0167739Y0115240D02*
X0171056Y0115240D01*
X0170883Y0116238D02*
X0167739Y0116238D01*
X0167739Y0117237D02*
X0171019Y0117237D01*
X0171530Y0118235D02*
X0167739Y0118235D01*
X0167739Y0119234D02*
X0172925Y0119234D01*
X0175253Y0120232D02*
X0167739Y0120232D01*
X0178155Y0126223D02*
X0212948Y0126223D01*
X0212933Y0127222D02*
X0177156Y0127222D01*
X0177742Y0128220D02*
X0176158Y0128220D01*
X0177313Y0128649D02*
X0176833Y0129807D01*
X0176833Y0131060D01*
X0177313Y0132218D01*
X0178199Y0133104D01*
X0179357Y0133583D01*
X0180022Y0133583D01*
X0180383Y0133945D01*
X0181672Y0135233D01*
X0187379Y0135233D01*
X0187849Y0135704D01*
X0189007Y0136183D01*
X0190260Y0136183D01*
X0191418Y0135704D01*
X0192304Y0134818D01*
X0192783Y0133660D01*
X0192783Y0132407D01*
X0192304Y0131249D01*
X0191418Y0130363D01*
X0190260Y0129883D01*
X0189007Y0129883D01*
X0187849Y0130363D01*
X0187379Y0130833D01*
X0183495Y0130833D01*
X0183133Y0130472D01*
X0183133Y0129807D01*
X0182654Y0128649D01*
X0181768Y0127763D01*
X0180610Y0127283D01*
X0179357Y0127283D01*
X0178199Y0127763D01*
X0177313Y0128649D01*
X0177077Y0129219D02*
X0175159Y0129219D01*
X0174161Y0130217D02*
X0176833Y0130217D01*
X0176898Y0131216D02*
X0173162Y0131216D01*
X0172164Y0132214D02*
X0177311Y0132214D01*
X0177940Y0133213D02*
X0178462Y0133213D01*
X0178569Y0134211D02*
X0180650Y0134211D01*
X0181648Y0135210D02*
X0178569Y0135210D01*
X0178569Y0136208D02*
X0206015Y0136208D01*
X0206021Y0136198D02*
X0206021Y0136198D01*
X0205439Y0137207D02*
X0178569Y0137207D01*
X0178569Y0138205D02*
X0204862Y0138205D01*
X0204340Y0139204D02*
X0178569Y0139204D01*
X0178569Y0140202D02*
X0204164Y0140202D01*
X0203988Y0141201D02*
X0178569Y0141201D01*
X0178569Y0142199D02*
X0203812Y0142199D01*
X0203788Y0142333D02*
X0203788Y0142333D01*
X0203941Y0143198D02*
X0193613Y0143198D01*
X0193205Y0142790D02*
X0194182Y0143767D01*
X0194710Y0145043D01*
X0194710Y0146424D01*
X0194182Y0147700D01*
X0193205Y0148676D01*
X0191929Y0149205D01*
X0190548Y0149205D01*
X0189272Y0148676D01*
X0188296Y0147700D01*
X0187767Y0146424D01*
X0187767Y0145043D01*
X0188296Y0143767D01*
X0189272Y0142790D01*
X0190548Y0142262D01*
X0191929Y0142262D01*
X0193205Y0142790D01*
X0194360Y0144196D02*
X0204117Y0144196D01*
X0204293Y0145195D02*
X0194710Y0145195D01*
X0194710Y0146193D02*
X0204708Y0146193D01*
X0204364Y0145598D02*
X0204364Y0145598D01*
X0205284Y0147192D02*
X0194392Y0147192D01*
X0193691Y0148190D02*
X0205861Y0148190D01*
X0206880Y0149189D02*
X0191968Y0149189D01*
X0190510Y0149189D02*
X0180157Y0149189D01*
X0178699Y0149189D02*
X0178016Y0149189D01*
X0181880Y0148190D02*
X0188786Y0148190D01*
X0188085Y0147192D02*
X0182581Y0147192D01*
X0182899Y0146193D02*
X0187767Y0146193D01*
X0187767Y0145195D02*
X0182899Y0145195D01*
X0182549Y0144196D02*
X0188118Y0144196D01*
X0188865Y0143198D02*
X0181802Y0143198D01*
X0191912Y0135210D02*
X0207199Y0135210D01*
X0208389Y0134211D02*
X0192555Y0134211D01*
X0192783Y0133213D02*
X0210908Y0133213D01*
X0208561Y0134067D02*
X0208561Y0134067D01*
X0213683Y0130217D02*
X0191066Y0130217D01*
X0192270Y0131216D02*
X0214579Y0131216D01*
X0216006Y0132214D02*
X0192704Y0132214D01*
X0189633Y0133033D02*
X0182583Y0133033D01*
X0179983Y0130433D01*
X0182225Y0128220D02*
X0212933Y0128220D01*
X0213269Y0129219D02*
X0182890Y0129219D01*
X0183133Y0130217D02*
X0188201Y0130217D01*
X0181150Y0123228D02*
X0211258Y0123228D01*
X0212256Y0124226D02*
X0180152Y0124226D01*
X0179153Y0125225D02*
X0213255Y0125225D01*
X0210259Y0122229D02*
X0182149Y0122229D01*
X0182233Y0119033D02*
X0163433Y0137833D01*
X0157833Y0137833D01*
X0156396Y0136396D01*
X0156396Y0120766D01*
X0152728Y0121231D02*
X0139833Y0121231D01*
X0139833Y0122229D02*
X0152728Y0122229D01*
X0152728Y0123228D02*
X0139833Y0123228D01*
X0139833Y0124226D02*
X0152728Y0124226D01*
X0152728Y0125225D02*
X0139833Y0125225D01*
X0139833Y0126223D02*
X0152728Y0126223D01*
X0152728Y0127222D02*
X0139833Y0127222D01*
X0139833Y0128220D02*
X0152728Y0128220D01*
X0152728Y0129219D02*
X0142468Y0129219D01*
X0142278Y0129140D02*
X0142909Y0129401D01*
X0143477Y0129781D01*
X0143961Y0130264D01*
X0144340Y0130832D01*
X0144602Y0131463D01*
X0144735Y0132133D01*
X0144735Y0132581D01*
X0141751Y0132581D01*
X0141751Y0133550D01*
X0140782Y0133550D01*
X0140782Y0137096D01*
X0140255Y0136991D01*
X0139623Y0136730D01*
X0139055Y0136350D01*
X0138572Y0135867D01*
X0138193Y0135299D01*
X0137931Y0134668D01*
X0137798Y0133998D01*
X0137798Y0133550D01*
X0140782Y0133550D01*
X0140782Y0132581D01*
X0141751Y0132581D01*
X0141751Y0129035D01*
X0142278Y0129140D01*
X0141751Y0129219D02*
X0140782Y0129219D01*
X0140782Y0129035D02*
X0140782Y0132581D01*
X0137798Y0132581D01*
X0137798Y0132133D01*
X0137931Y0131463D01*
X0138193Y0130832D01*
X0138572Y0130264D01*
X0139055Y0129781D01*
X0139623Y0129401D01*
X0140255Y0129140D01*
X0140782Y0129035D01*
X0140064Y0129219D02*
X0139418Y0129219D01*
X0138619Y0130217D02*
X0138419Y0130217D01*
X0138034Y0131216D02*
X0137421Y0131216D01*
X0137798Y0132214D02*
X0136422Y0132214D01*
X0135424Y0133213D02*
X0140782Y0133213D01*
X0141751Y0133213D02*
X0142727Y0133213D01*
X0141751Y0134211D02*
X0140782Y0134211D01*
X0140782Y0135210D02*
X0141751Y0135210D01*
X0141751Y0136208D02*
X0140782Y0136208D01*
X0142098Y0137207D02*
X0133733Y0137207D01*
X0133733Y0138205D02*
X0139493Y0138205D01*
X0139591Y0138205D02*
X0140591Y0138205D01*
X0140688Y0138205D02*
X0142098Y0138205D01*
X0140591Y0139204D02*
X0139591Y0139204D01*
X0139591Y0140202D02*
X0140591Y0140202D01*
X0140591Y0141201D02*
X0139591Y0141201D01*
X0139591Y0142199D02*
X0140591Y0142199D01*
X0140591Y0143198D02*
X0139591Y0143198D01*
X0139591Y0144196D02*
X0125433Y0144196D01*
X0125433Y0143198D02*
X0135835Y0143198D01*
X0135835Y0142199D02*
X0130697Y0142199D01*
X0132103Y0141201D02*
X0136012Y0141201D01*
X0136444Y0140202D02*
X0132990Y0140202D01*
X0133403Y0139204D02*
X0137288Y0139204D01*
X0138913Y0136208D02*
X0133712Y0136208D01*
X0133427Y0135210D02*
X0138156Y0135210D01*
X0137840Y0134211D02*
X0134425Y0134211D01*
X0140782Y0132214D02*
X0141751Y0132214D01*
X0141751Y0131216D02*
X0140782Y0131216D01*
X0140782Y0130217D02*
X0141751Y0130217D01*
X0143914Y0130217D02*
X0152728Y0130217D01*
X0153418Y0131216D02*
X0144499Y0131216D01*
X0144735Y0132214D02*
X0154196Y0132214D01*
X0154196Y0133213D02*
X0151168Y0133213D01*
X0151797Y0134211D02*
X0154196Y0134211D01*
X0154196Y0135210D02*
X0151797Y0135210D01*
X0151797Y0136208D02*
X0154196Y0136208D01*
X0154196Y0137207D02*
X0151797Y0137207D01*
X0151797Y0138205D02*
X0155094Y0138205D01*
X0155485Y0138596D02*
X0155485Y0138596D01*
X0156093Y0139204D02*
X0151797Y0139204D01*
X0151797Y0140202D02*
X0157940Y0140202D01*
X0157508Y0141201D02*
X0151797Y0141201D01*
X0151797Y0142199D02*
X0157331Y0142199D01*
X0157331Y0143198D02*
X0151797Y0143198D01*
X0142651Y0149189D02*
X0141511Y0149189D01*
X0140591Y0149189D02*
X0139591Y0149189D01*
X0138670Y0149189D02*
X0125433Y0149189D01*
X0125433Y0150187D02*
X0208070Y0150187D01*
X0221228Y0137207D02*
X0221233Y0137207D01*
X0221233Y0136208D02*
X0220651Y0136208D01*
X0220645Y0136198D02*
X0220645Y0136198D01*
X0220645Y0136198D01*
X0221233Y0135210D02*
X0219468Y0135210D01*
X0218278Y0134211D02*
X0221233Y0134211D01*
X0221233Y0133213D02*
X0215758Y0133213D01*
X0218106Y0134067D02*
X0218106Y0134067D01*
X0220661Y0132214D02*
X0221233Y0132214D01*
X0209261Y0121231D02*
X0187891Y0121231D01*
X0188546Y0120232D02*
X0208262Y0120232D01*
X0207264Y0119234D02*
X0188783Y0119234D01*
X0185633Y0119033D02*
X0182233Y0119033D01*
X0202391Y0112683D02*
X0209653Y0112683D01*
X0212203Y0115233D01*
X0213358Y0115233D01*
X0213755Y0114274D01*
X0215197Y0112833D01*
X0213755Y0111392D01*
X0212933Y0109407D01*
X0212933Y0107259D01*
X0213623Y0105593D01*
X0210083Y0102053D01*
X0210083Y0093203D01*
X0209513Y0092633D01*
X0191163Y0092633D01*
X0186151Y0087621D01*
X0185904Y0088218D01*
X0185046Y0089076D01*
X0188635Y0092665D01*
X0190063Y0092665D01*
X0191411Y0093223D01*
X0191975Y0093787D01*
X0192122Y0093639D01*
X0192690Y0093260D01*
X0193322Y0092998D01*
X0193992Y0092865D01*
X0194333Y0092865D01*
X0194333Y0096333D01*
X0194333Y0096333D01*
X0194333Y0092865D01*
X0194675Y0092865D01*
X0195345Y0092998D01*
X0195976Y0093260D01*
X0196544Y0093639D01*
X0196692Y0093787D01*
X0197255Y0093223D01*
X0198604Y0092665D01*
X0200063Y0092665D01*
X0201411Y0093223D01*
X0202443Y0094255D01*
X0203002Y0095604D01*
X0203002Y0097032D01*
X0203433Y0097463D01*
X0203433Y0111303D01*
X0202483Y0112253D01*
X0202483Y0112460D01*
X0202391Y0112683D01*
X0202492Y0112244D02*
X0214607Y0112244D01*
X0214787Y0113243D02*
X0210212Y0113243D01*
X0211211Y0114241D02*
X0213789Y0114241D01*
X0213695Y0111245D02*
X0203433Y0111245D01*
X0203433Y0110247D02*
X0213281Y0110247D01*
X0212933Y0109248D02*
X0203433Y0109248D01*
X0203433Y0108250D02*
X0212933Y0108250D01*
X0212937Y0107251D02*
X0203433Y0107251D01*
X0203433Y0106253D02*
X0213350Y0106253D01*
X0213285Y0105254D02*
X0203433Y0105254D01*
X0203433Y0104256D02*
X0212286Y0104256D01*
X0211288Y0103257D02*
X0203433Y0103257D01*
X0203433Y0102259D02*
X0210289Y0102259D01*
X0210083Y0101260D02*
X0203433Y0101260D01*
X0203433Y0100262D02*
X0210083Y0100262D01*
X0210083Y0099263D02*
X0203433Y0099263D01*
X0203433Y0098265D02*
X0210083Y0098265D01*
X0210083Y0097266D02*
X0203236Y0097266D01*
X0203002Y0096268D02*
X0210083Y0096268D01*
X0210083Y0095269D02*
X0202863Y0095269D01*
X0202450Y0094271D02*
X0210083Y0094271D01*
X0210083Y0093272D02*
X0201460Y0093272D01*
X0197206Y0093272D02*
X0195995Y0093272D01*
X0194333Y0093272D02*
X0194333Y0093272D01*
X0194333Y0094271D02*
X0194333Y0094271D01*
X0194333Y0095269D02*
X0194333Y0095269D01*
X0194333Y0096268D02*
X0194333Y0096268D01*
X0192671Y0093272D02*
X0191460Y0093272D01*
X0190804Y0092274D02*
X0188244Y0092274D01*
X0187245Y0091275D02*
X0189805Y0091275D01*
X0188807Y0090277D02*
X0186247Y0090277D01*
X0185248Y0089278D02*
X0187808Y0089278D01*
X0186810Y0088280D02*
X0185842Y0088280D01*
X0190956Y0084286D02*
X0195826Y0084286D01*
X0195463Y0084649D02*
X0196349Y0083763D01*
X0197507Y0083283D01*
X0198760Y0083283D01*
X0199918Y0083763D01*
X0200238Y0084083D01*
X0206179Y0084083D01*
X0206649Y0083613D01*
X0207807Y0083133D01*
X0209060Y0083133D01*
X0210218Y0083613D01*
X0210688Y0084083D01*
X0214947Y0084083D01*
X0215274Y0083755D01*
X0216558Y0083224D01*
X0216337Y0083152D01*
X0215608Y0082781D01*
X0214946Y0082300D01*
X0214367Y0081721D01*
X0213886Y0081059D01*
X0213514Y0080329D01*
X0213261Y0079551D01*
X0213148Y0078833D01*
X0217833Y0078833D01*
X0217833Y0077833D01*
X0218833Y0077833D01*
X0218833Y0073148D01*
X0219551Y0073261D01*
X0220329Y0073514D01*
X0221059Y0073886D01*
X0221233Y0074013D01*
X0221233Y0067450D01*
X0220645Y0068469D01*
X0218106Y0070600D01*
X0214991Y0071733D01*
X0211676Y0071733D01*
X0208561Y0070600D01*
X0206021Y0068469D01*
X0206021Y0068469D01*
X0206021Y0068469D01*
X0204364Y0065598D01*
X0203788Y0062333D01*
X0204364Y0059069D01*
X0204364Y0059069D01*
X0206021Y0056198D01*
X0208124Y0054433D01*
X0203922Y0054433D01*
X0204283Y0055307D01*
X0204283Y0056560D01*
X0203804Y0057718D01*
X0202918Y0058604D01*
X0201760Y0059083D01*
X0200507Y0059083D01*
X0199533Y0058680D01*
X0199533Y0060287D01*
X0199487Y0060333D01*
X0199533Y0060379D01*
X0199533Y0064287D01*
X0198537Y0065283D01*
X0192129Y0065283D01*
X0191379Y0064533D01*
X0189245Y0064533D01*
X0186483Y0067295D01*
X0186483Y0067960D01*
X0186004Y0069118D01*
X0185118Y0070004D01*
X0183960Y0070483D01*
X0182707Y0070483D01*
X0181549Y0070004D01*
X0180663Y0069118D01*
X0180183Y0067960D01*
X0180183Y0066707D01*
X0180663Y0065549D01*
X0181549Y0064663D01*
X0182707Y0064183D01*
X0183372Y0064183D01*
X0186133Y0061422D01*
X0187422Y0060133D01*
X0191133Y0060133D01*
X0191133Y0056379D01*
X0192129Y0055383D01*
X0195313Y0055383D01*
X0196263Y0054433D01*
X0159288Y0054433D01*
X0159504Y0054649D01*
X0159983Y0055807D01*
X0159983Y0057060D01*
X0159504Y0058218D01*
X0158933Y0058788D01*
X0158933Y0069063D01*
X0163603Y0073733D01*
X0167903Y0073733D01*
X0169133Y0074963D01*
X0172675Y0078505D01*
X0173517Y0077663D01*
X0174675Y0077183D01*
X0175928Y0077183D01*
X0177086Y0077663D01*
X0177657Y0078233D01*
X0184903Y0078233D01*
X0193603Y0086933D01*
X0194983Y0086933D01*
X0194983Y0085807D01*
X0195463Y0084649D01*
X0195200Y0085284D02*
X0191954Y0085284D01*
X0192953Y0086283D02*
X0194983Y0086283D01*
X0198133Y0086433D02*
X0198283Y0086283D01*
X0208433Y0086283D01*
X0214283Y0086283D01*
X0216333Y0088333D01*
X0218333Y0088333D01*
X0216405Y0083287D02*
X0209431Y0083287D01*
X0207435Y0083287D02*
X0198769Y0083287D01*
X0197497Y0083287D02*
X0189957Y0083287D01*
X0188959Y0082289D02*
X0214935Y0082289D01*
X0214054Y0081290D02*
X0187960Y0081290D01*
X0186961Y0080292D02*
X0213502Y0080292D01*
X0213221Y0079293D02*
X0185963Y0079293D01*
X0184964Y0078295D02*
X0217833Y0078295D01*
X0217833Y0077833D02*
X0213148Y0077833D01*
X0213261Y0077116D01*
X0213514Y0076337D01*
X0213886Y0075608D01*
X0214367Y0074946D01*
X0214946Y0074367D01*
X0215608Y0073886D01*
X0216337Y0073514D01*
X0217116Y0073261D01*
X0217833Y0073148D01*
X0217833Y0077833D01*
X0217833Y0077296D02*
X0218833Y0077296D01*
X0218833Y0076298D02*
X0217833Y0076298D01*
X0217833Y0075299D02*
X0218833Y0075299D01*
X0218833Y0074301D02*
X0217833Y0074301D01*
X0217833Y0073302D02*
X0218833Y0073302D01*
X0219676Y0073302D02*
X0221233Y0073302D01*
X0221233Y0072304D02*
X0162173Y0072304D01*
X0163172Y0073302D02*
X0216990Y0073302D01*
X0216167Y0071305D02*
X0221233Y0071305D01*
X0221233Y0070307D02*
X0218455Y0070307D01*
X0219645Y0069308D02*
X0221233Y0069308D01*
X0221233Y0068310D02*
X0220737Y0068310D01*
X0220645Y0068469D02*
X0220645Y0068469D01*
X0215037Y0074301D02*
X0168470Y0074301D01*
X0169133Y0074963D02*
X0169133Y0074963D01*
X0169469Y0075299D02*
X0214110Y0075299D01*
X0213534Y0076298D02*
X0170467Y0076298D01*
X0171466Y0077296D02*
X0174403Y0077296D01*
X0176201Y0077296D02*
X0213233Y0077296D01*
X0210499Y0071305D02*
X0161175Y0071305D01*
X0160176Y0070307D02*
X0182280Y0070307D01*
X0180853Y0069308D02*
X0159178Y0069308D01*
X0158933Y0068310D02*
X0180328Y0068310D01*
X0180183Y0067311D02*
X0158933Y0067311D01*
X0158933Y0066312D02*
X0180347Y0066312D01*
X0180898Y0065314D02*
X0158933Y0065314D01*
X0158933Y0064315D02*
X0182388Y0064315D01*
X0184238Y0063317D02*
X0158933Y0063317D01*
X0158933Y0062318D02*
X0185237Y0062318D01*
X0186235Y0061320D02*
X0158933Y0061320D01*
X0158933Y0060321D02*
X0187234Y0060321D01*
X0188333Y0062333D02*
X0195333Y0062333D01*
X0199533Y0062318D02*
X0203791Y0062318D01*
X0203788Y0062333D02*
X0203788Y0062333D01*
X0203962Y0063317D02*
X0199533Y0063317D01*
X0199505Y0064315D02*
X0204138Y0064315D01*
X0204314Y0065314D02*
X0188464Y0065314D01*
X0187465Y0066312D02*
X0204777Y0066312D01*
X0204364Y0065598D02*
X0204364Y0065598D01*
X0205353Y0067311D02*
X0186483Y0067311D01*
X0186339Y0068310D02*
X0205930Y0068310D01*
X0207022Y0069308D02*
X0185813Y0069308D01*
X0184387Y0070307D02*
X0208212Y0070307D01*
X0208561Y0070600D02*
X0208561Y0070600D01*
X0203967Y0061320D02*
X0199533Y0061320D01*
X0199499Y0060321D02*
X0204143Y0060321D01*
X0204319Y0059323D02*
X0199533Y0059323D01*
X0203197Y0058324D02*
X0204794Y0058324D01*
X0205370Y0057326D02*
X0203966Y0057326D01*
X0204283Y0056327D02*
X0205947Y0056327D01*
X0206021Y0056198D02*
X0206021Y0056198D01*
X0207057Y0055329D02*
X0204283Y0055329D01*
X0195368Y0055329D02*
X0159785Y0055329D01*
X0159983Y0056327D02*
X0191185Y0056327D01*
X0191133Y0057326D02*
X0159873Y0057326D01*
X0159397Y0058324D02*
X0191133Y0058324D01*
X0191133Y0059323D02*
X0158933Y0059323D01*
X0154733Y0059323D02*
X0142348Y0059323D01*
X0142303Y0059069D02*
X0142878Y0062333D01*
X0142878Y0062333D01*
X0142303Y0065598D01*
X0140645Y0068469D01*
X0138106Y0070600D01*
X0134991Y0071733D01*
X0131676Y0071733D01*
X0128561Y0070600D01*
X0126021Y0068469D01*
X0126021Y0068469D01*
X0126021Y0068469D01*
X0125433Y0067450D01*
X0125433Y0072690D01*
X0127259Y0071933D01*
X0129407Y0071933D01*
X0131392Y0072755D01*
X0132911Y0074274D01*
X0133733Y0076259D01*
X0133733Y0078407D01*
X0133128Y0079869D01*
X0142863Y0070133D01*
X0154733Y0070133D01*
X0154733Y0058788D01*
X0154359Y0058414D01*
X0154134Y0058489D01*
X0153383Y0058113D01*
X0152633Y0058489D01*
X0151525Y0058119D01*
X0151311Y0058333D01*
X0151187Y0058333D01*
X0151091Y0058411D01*
X0150395Y0058333D01*
X0149696Y0058333D01*
X0149608Y0058246D01*
X0149485Y0058232D01*
X0149152Y0057815D01*
X0148443Y0058321D01*
X0148431Y0058333D01*
X0146816Y0058333D01*
X0146803Y0058321D01*
X0145852Y0057641D01*
X0145699Y0057589D01*
X0145657Y0057502D01*
X0145514Y0057400D01*
X0145360Y0056950D01*
X0145174Y0056801D01*
X0145133Y0056426D01*
X0144923Y0055997D01*
X0144923Y0054433D01*
X0138542Y0054433D01*
X0140645Y0056198D01*
X0142303Y0059069D01*
X0142303Y0059069D01*
X0141873Y0058324D02*
X0146807Y0058324D01*
X0145514Y0057400D02*
X0145514Y0057400D01*
X0145514Y0057400D01*
X0145489Y0057326D02*
X0141296Y0057326D01*
X0140720Y0056327D02*
X0145085Y0056327D01*
X0144923Y0055329D02*
X0139610Y0055329D01*
X0140645Y0056198D02*
X0140645Y0056198D01*
X0140645Y0056198D01*
X0142524Y0060321D02*
X0154733Y0060321D01*
X0154733Y0061320D02*
X0142700Y0061320D01*
X0142876Y0062318D02*
X0154733Y0062318D01*
X0154733Y0063317D02*
X0142705Y0063317D01*
X0142529Y0064315D02*
X0154733Y0064315D01*
X0154733Y0065314D02*
X0142353Y0065314D01*
X0142303Y0065598D02*
X0142303Y0065598D01*
X0141890Y0066312D02*
X0154733Y0066312D01*
X0154733Y0067311D02*
X0141314Y0067311D01*
X0140737Y0068310D02*
X0154733Y0068310D01*
X0154733Y0069308D02*
X0139645Y0069308D01*
X0140645Y0068469D02*
X0140645Y0068469D01*
X0142690Y0070307D02*
X0138455Y0070307D01*
X0138106Y0070600D02*
X0138106Y0070600D01*
X0136167Y0071305D02*
X0141692Y0071305D01*
X0140693Y0072304D02*
X0130301Y0072304D01*
X0130499Y0071305D02*
X0125433Y0071305D01*
X0125433Y0070307D02*
X0128212Y0070307D01*
X0128561Y0070600D02*
X0128561Y0070600D01*
X0127022Y0069308D02*
X0125433Y0069308D01*
X0125433Y0068310D02*
X0125930Y0068310D01*
X0126365Y0072304D02*
X0125433Y0072304D01*
X0131939Y0073302D02*
X0139695Y0073302D01*
X0138696Y0074301D02*
X0132922Y0074301D01*
X0133336Y0075299D02*
X0137698Y0075299D01*
X0136699Y0076298D02*
X0133733Y0076298D01*
X0133733Y0077296D02*
X0135701Y0077296D01*
X0134702Y0078295D02*
X0133733Y0078295D01*
X0133704Y0079293D02*
X0133366Y0079293D01*
X0145759Y0088233D02*
X0148109Y0085883D01*
X0148329Y0085883D01*
X0148999Y0086554D01*
X0150157Y0087033D01*
X0151410Y0087033D01*
X0152568Y0086554D01*
X0153454Y0085668D01*
X0153933Y0084510D01*
X0153933Y0083383D01*
X0155079Y0083383D01*
X0155949Y0084254D01*
X0157107Y0084733D01*
X0158360Y0084733D01*
X0159518Y0084254D01*
X0160404Y0083368D01*
X0160883Y0082210D01*
X0160883Y0081133D01*
X0165013Y0081133D01*
X0174013Y0090133D01*
X0170586Y0090133D01*
X0170204Y0090236D01*
X0169862Y0090433D01*
X0169583Y0090712D01*
X0169386Y0091054D01*
X0169283Y0091436D01*
X0169283Y0092733D01*
X0174033Y0092733D01*
X0174033Y0092933D01*
X0169283Y0092933D01*
X0169283Y0094231D01*
X0169386Y0094612D01*
X0169583Y0094954D01*
X0169762Y0095133D01*
X0164245Y0095133D01*
X0157345Y0088233D01*
X0145759Y0088233D01*
X0146712Y0087281D02*
X0171161Y0087281D01*
X0170163Y0086283D02*
X0152839Y0086283D01*
X0153613Y0085284D02*
X0169164Y0085284D01*
X0168166Y0084286D02*
X0159441Y0084286D01*
X0160437Y0083287D02*
X0167167Y0083287D01*
X0166169Y0082289D02*
X0160851Y0082289D01*
X0160883Y0081290D02*
X0165170Y0081290D01*
X0172464Y0078295D02*
X0172886Y0078295D01*
X0172160Y0088280D02*
X0157391Y0088280D01*
X0158390Y0089278D02*
X0173158Y0089278D01*
X0170133Y0090277D02*
X0159388Y0090277D01*
X0160387Y0091275D02*
X0169326Y0091275D01*
X0169283Y0092274D02*
X0161385Y0092274D01*
X0162384Y0093272D02*
X0169283Y0093272D01*
X0169294Y0094271D02*
X0163382Y0094271D01*
X0163333Y0097333D02*
X0156433Y0090433D01*
X0143933Y0090433D01*
X0140333Y0094033D01*
X0140333Y0094433D01*
X0140333Y0099333D01*
X0143333Y0102333D01*
X0147033Y0102333D01*
X0148533Y0102833D02*
X0148533Y0107833D01*
X0139889Y0112244D02*
X0139833Y0112244D01*
X0139833Y0113243D02*
X0152728Y0113243D01*
X0152728Y0114241D02*
X0139833Y0114241D01*
X0139833Y0115240D02*
X0152728Y0115240D01*
X0152728Y0116238D02*
X0139833Y0116238D01*
X0139833Y0117237D02*
X0152728Y0117237D01*
X0152728Y0118235D02*
X0139833Y0118235D01*
X0139833Y0119234D02*
X0152728Y0119234D01*
X0152728Y0120232D02*
X0139833Y0120232D01*
X0163826Y0134211D02*
X0163944Y0134211D01*
X0140591Y0145195D02*
X0139591Y0145195D01*
X0139591Y0146193D02*
X0140591Y0146193D01*
X0140591Y0147192D02*
X0139591Y0147192D01*
X0139591Y0148190D02*
X0140591Y0148190D01*
X0137087Y0148190D02*
X0125433Y0148190D01*
X0125433Y0147192D02*
X0136342Y0147192D01*
X0135947Y0146193D02*
X0125433Y0146193D01*
X0125433Y0145195D02*
X0135835Y0145195D01*
X0125970Y0142199D02*
X0125433Y0142199D01*
X0179933Y0097833D02*
X0185433Y0103333D01*
X0185633Y0103333D01*
X0190487Y0103333D01*
X0191833Y0101987D01*
X0180803Y0095269D02*
X0178523Y0095269D01*
X0178446Y0095192D02*
X0178887Y0095633D01*
X0180665Y0095633D01*
X0180665Y0095604D01*
X0181223Y0094255D01*
X0181254Y0094224D01*
X0178983Y0091953D01*
X0178983Y0092733D01*
X0174233Y0092733D01*
X0174233Y0092933D01*
X0178983Y0092933D01*
X0178983Y0094231D01*
X0178881Y0094612D01*
X0178684Y0094954D01*
X0178446Y0095192D01*
X0178973Y0094271D02*
X0181217Y0094271D01*
X0180302Y0093272D02*
X0178983Y0093272D01*
X0178983Y0092274D02*
X0179304Y0092274D01*
X0179933Y0097833D02*
X0174133Y0097833D01*
X0173633Y0097333D01*
X0163333Y0097333D01*
X0148728Y0086283D02*
X0147710Y0086283D01*
X0153933Y0084286D02*
X0156026Y0084286D01*
X0183333Y0067333D02*
X0188333Y0062333D01*
X0153805Y0058324D02*
X0152961Y0058324D01*
X0152140Y0058324D02*
X0151320Y0058324D01*
X0149687Y0058324D02*
X0148440Y0058324D01*
D24*
X0156833Y0056433D02*
X0156833Y0069933D01*
X0162733Y0075833D01*
X0167033Y0075833D01*
X0176933Y0085733D01*
X0182533Y0085733D01*
X0183233Y0086433D01*
X0180433Y0087433D02*
X0189333Y0096333D01*
X0184333Y0096333D02*
X0184333Y0094333D01*
X0178933Y0088933D01*
X0175783Y0088933D01*
X0165883Y0079033D01*
X0143633Y0079033D01*
X0141183Y0081483D01*
X0141183Y0083383D01*
X0138333Y0082133D02*
X0142933Y0077533D01*
X0166533Y0077533D01*
X0176433Y0087433D01*
X0180433Y0087433D01*
X0178883Y0083083D02*
X0184583Y0083083D01*
X0192033Y0090533D01*
X0210383Y0090533D01*
X0212183Y0092333D01*
X0212183Y0101183D01*
X0218333Y0107333D01*
X0218333Y0108333D01*
X0211333Y0117333D02*
X0208783Y0114783D01*
X0180783Y0114783D01*
X0179283Y0116283D01*
X0174033Y0116283D01*
X0178083Y0118833D02*
X0178933Y0118833D01*
X0181433Y0116333D01*
X0207333Y0116333D01*
X0218333Y0127333D01*
X0218333Y0117333D02*
X0211333Y0117333D01*
X0201333Y0110433D02*
X0199933Y0111833D01*
X0199333Y0111833D01*
X0199183Y0111983D01*
X0179333Y0111983D01*
X0177683Y0110333D01*
X0142433Y0110333D01*
X0142133Y0110033D01*
X0134683Y0110983D02*
X0134683Y0083583D01*
X0143333Y0074933D01*
X0153033Y0074933D01*
X0155483Y0072233D02*
X0143733Y0072233D01*
X0133133Y0082833D01*
X0133133Y0102533D01*
X0128333Y0107333D01*
X0134683Y0110983D02*
X0128333Y0117333D01*
X0136233Y0119433D02*
X0136233Y0092633D01*
X0147583Y0081283D01*
X0157433Y0081283D01*
X0157733Y0081583D01*
X0150783Y0083883D02*
X0150683Y0083783D01*
X0147240Y0083783D01*
X0137733Y0093290D01*
X0137733Y0127933D01*
X0128333Y0137333D01*
X0128333Y0127333D02*
X0136233Y0119433D01*
X0163433Y0103133D02*
X0166433Y0106133D01*
X0166433Y0106933D01*
X0168533Y0103933D02*
X0169633Y0102833D01*
X0174133Y0102833D01*
X0174133Y0107833D02*
X0177633Y0107833D01*
X0178533Y0108733D01*
X0179883Y0108733D01*
X0179783Y0108833D01*
X0191680Y0108833D01*
X0191833Y0108680D01*
X0201333Y0110433D02*
X0201333Y0098333D01*
X0199333Y0096333D01*
X0192733Y0089033D02*
X0184033Y0080333D01*
X0175302Y0080333D01*
X0157433Y0074183D02*
X0155483Y0072233D01*
X0138333Y0082133D02*
X0138333Y0086033D01*
X0148533Y0092833D02*
X0153333Y0092833D01*
X0162133Y0101633D01*
X0165733Y0101633D01*
X0163433Y0103133D02*
X0159233Y0103133D01*
X0153933Y0097833D01*
X0148533Y0097833D01*
X0148033Y0102333D02*
X0147033Y0102333D01*
X0148033Y0102333D02*
X0148533Y0102833D01*
X0192733Y0089033D02*
X0211033Y0089033D01*
X0218333Y0096333D01*
X0218333Y0098333D01*
X0195333Y0058333D02*
X0197733Y0055933D01*
X0201133Y0055933D01*
M02*
