G75*
%MOIN*%
%OFA0B0*%
%FSLAX25Y25*%
%IPPOS*%
%LPD*%
%AMOC8*
5,1,8,0,0,1.08239X$1,22.5*
%
%ADD10R,0.06700X0.02400*%
%ADD11R,0.03937X0.18110*%
%ADD12R,0.06299X0.13386*%
D10*
X0053700Y0078950D03*
X0053700Y0083950D03*
X0053700Y0088950D03*
X0053700Y0093950D03*
X0079300Y0093950D03*
X0079300Y0088950D03*
X0079300Y0083950D03*
X0079300Y0078950D03*
X0155700Y0078950D03*
X0155700Y0083950D03*
X0155700Y0088950D03*
X0155700Y0093950D03*
X0181300Y0093950D03*
X0181300Y0088950D03*
X0181300Y0083950D03*
X0181300Y0078950D03*
X0257700Y0078950D03*
X0257700Y0083950D03*
X0257700Y0088950D03*
X0257700Y0093950D03*
X0283300Y0093950D03*
X0283300Y0088950D03*
X0283300Y0083950D03*
X0283300Y0078950D03*
X0359700Y0078950D03*
X0359700Y0083950D03*
X0359700Y0088950D03*
X0359700Y0093950D03*
X0385300Y0093950D03*
X0385300Y0088950D03*
X0385300Y0083950D03*
X0385300Y0078950D03*
X0385300Y0190950D03*
X0385300Y0195950D03*
X0385300Y0200950D03*
X0385300Y0205950D03*
X0359700Y0205950D03*
X0359700Y0200950D03*
X0359700Y0195950D03*
X0359700Y0190950D03*
X0283300Y0190950D03*
X0283300Y0195950D03*
X0283300Y0200950D03*
X0283300Y0205950D03*
X0257700Y0205950D03*
X0257700Y0200950D03*
X0257700Y0195950D03*
X0257700Y0190950D03*
X0181300Y0190950D03*
X0181300Y0195950D03*
X0181300Y0200950D03*
X0181300Y0205950D03*
X0155700Y0205950D03*
X0155700Y0200950D03*
X0155700Y0195950D03*
X0155700Y0190950D03*
X0079300Y0190950D03*
X0079300Y0195950D03*
X0079300Y0200950D03*
X0079300Y0205950D03*
X0053700Y0205950D03*
X0053700Y0200950D03*
X0053700Y0195950D03*
X0053700Y0190950D03*
X0053700Y0302950D03*
X0053700Y0307950D03*
X0053700Y0312950D03*
X0053700Y0317950D03*
X0079300Y0317950D03*
X0079300Y0312950D03*
X0079300Y0307950D03*
X0079300Y0302950D03*
X0155700Y0302950D03*
X0155700Y0307950D03*
X0155700Y0312950D03*
X0155700Y0317950D03*
X0181300Y0317950D03*
X0181300Y0312950D03*
X0181300Y0307950D03*
X0181300Y0302950D03*
X0257700Y0302950D03*
X0257700Y0307950D03*
X0257700Y0312950D03*
X0257700Y0317950D03*
X0283300Y0317950D03*
X0283300Y0312950D03*
X0283300Y0307950D03*
X0283300Y0302950D03*
X0359700Y0302950D03*
X0359700Y0307950D03*
X0359700Y0312950D03*
X0359700Y0317950D03*
X0385300Y0317950D03*
X0385300Y0312950D03*
X0385300Y0307950D03*
X0385300Y0302950D03*
X0385300Y0414950D03*
X0385300Y0419950D03*
X0385300Y0424950D03*
X0385300Y0429950D03*
X0359700Y0429950D03*
X0359700Y0424950D03*
X0359700Y0419950D03*
X0359700Y0414950D03*
X0283300Y0414950D03*
X0283300Y0419950D03*
X0283300Y0424950D03*
X0283300Y0429950D03*
X0257700Y0429950D03*
X0257700Y0424950D03*
X0257700Y0419950D03*
X0257700Y0414950D03*
X0181300Y0414950D03*
X0181300Y0419950D03*
X0181300Y0424950D03*
X0181300Y0429950D03*
X0155700Y0429950D03*
X0155700Y0424950D03*
X0155700Y0419950D03*
X0155700Y0414950D03*
X0079300Y0414950D03*
X0079300Y0419950D03*
X0079300Y0424950D03*
X0079300Y0429950D03*
X0053700Y0429950D03*
X0053700Y0424950D03*
X0053700Y0419950D03*
X0053700Y0414950D03*
X0053700Y0526950D03*
X0053700Y0531950D03*
X0053700Y0536950D03*
X0053700Y0541950D03*
X0079300Y0541950D03*
X0079300Y0536950D03*
X0079300Y0531950D03*
X0079300Y0526950D03*
X0155700Y0526950D03*
X0155700Y0531950D03*
X0155700Y0536950D03*
X0155700Y0541950D03*
X0181300Y0541950D03*
X0181300Y0536950D03*
X0181300Y0531950D03*
X0181300Y0526950D03*
X0257700Y0526950D03*
X0257700Y0531950D03*
X0257700Y0536950D03*
X0257700Y0541950D03*
X0283300Y0541950D03*
X0283300Y0536950D03*
X0283300Y0531950D03*
X0283300Y0526950D03*
X0359700Y0526950D03*
X0359700Y0531950D03*
X0359700Y0536950D03*
X0359700Y0541950D03*
X0385300Y0541950D03*
X0385300Y0536950D03*
X0385300Y0531950D03*
X0385300Y0526950D03*
D11*
X0375437Y0555883D03*
X0367563Y0555883D03*
X0367563Y0443883D03*
X0375437Y0443883D03*
X0375437Y0331883D03*
X0367563Y0331883D03*
X0367563Y0219883D03*
X0375437Y0219883D03*
X0375437Y0107883D03*
X0367563Y0107883D03*
X0273437Y0107883D03*
X0265563Y0107883D03*
X0265563Y0219883D03*
X0273437Y0219883D03*
X0273437Y0331883D03*
X0265563Y0331883D03*
X0265563Y0443883D03*
X0273437Y0443883D03*
X0273437Y0555883D03*
X0265563Y0555883D03*
X0171437Y0555883D03*
X0163563Y0555883D03*
X0163563Y0443883D03*
X0171437Y0443883D03*
X0171437Y0331883D03*
X0163563Y0331883D03*
X0163563Y0219883D03*
X0171437Y0219883D03*
X0171437Y0107883D03*
X0163563Y0107883D03*
X0069437Y0107883D03*
X0061563Y0107883D03*
X0061563Y0219883D03*
X0069437Y0219883D03*
X0069437Y0331883D03*
X0061563Y0331883D03*
X0061563Y0443883D03*
X0069437Y0443883D03*
X0069437Y0555883D03*
X0061563Y0555883D03*
D12*
X0052114Y0576356D03*
X0078886Y0576356D03*
X0154114Y0576356D03*
X0180886Y0576356D03*
X0256114Y0576356D03*
X0282886Y0576356D03*
X0358114Y0576356D03*
X0384886Y0576356D03*
X0384886Y0464356D03*
X0358114Y0464356D03*
X0282886Y0464356D03*
X0256114Y0464356D03*
X0180886Y0464356D03*
X0154114Y0464356D03*
X0078886Y0464356D03*
X0052114Y0464356D03*
X0052114Y0352356D03*
X0078886Y0352356D03*
X0154114Y0352356D03*
X0180886Y0352356D03*
X0256114Y0352356D03*
X0282886Y0352356D03*
X0358114Y0352356D03*
X0384886Y0352356D03*
X0384886Y0240356D03*
X0358114Y0240356D03*
X0282886Y0240356D03*
X0256114Y0240356D03*
X0180886Y0240356D03*
X0154114Y0240356D03*
X0078886Y0240356D03*
X0052114Y0240356D03*
X0052114Y0128356D03*
X0078886Y0128356D03*
X0154114Y0128356D03*
X0180886Y0128356D03*
X0256114Y0128356D03*
X0282886Y0128356D03*
X0358114Y0128356D03*
X0384886Y0128356D03*
M02*
