<?xml version="1.0" encoding="utf-8" ?>
<svg baseProfile="tiny" height="2250" version="1.2" width="630" xmlns="http://www.w3.org/2000/svg" xmlns:ev="http://www.w3.org/2001/xml-events" xmlns:xlink="http://www.w3.org/1999/xlink"><defs /><rect fill="white" height="12" opacity="0.3" rx="1" ry="1" stroke="black" width="55" x="0" y="15" /><text fill="black" font-family="Montserrat" font-size="12" x="1" y="27">Pin name</text><rect fill="red" height="12" opacity="0.8" rx="1" ry="1" stroke="red" width="55" x="58" y="15" /><text fill="black" font-family="Montserrat" font-size="12" x="59" y="27">Power</text><rect fill="black" height="12" opacity="0.9" rx="1" ry="1" stroke="black" width="55" x="116" y="15" /><text fill="white" font-family="Montserrat" font-size="12" x="117" y="27">Ground</text><rect fill="yellow" height="12" opacity="0.8" rx="1" ry="1" stroke="yellow" width="55" x="174" y="15" /><text fill="black" font-family="Montserrat" font-size="11" x="175" y="27">Control</text><rect fill="green" height="12" opacity="0.3" rx="1" ry="1" stroke="green" width="55" x="232" y="15" /><text fill="black" font-family="Montserrat" font-size="12" x="233" y="27">Arduino</text><rect fill="blue" height="12" opacity="0.4" rx="1" ry="1" stroke="blue" width="55" x="290" y="15" /><text fill="black" font-family="Montserrat" font-size="12" x="291" y="27">Port</text><rect fill="purple" height="12" opacity="0.3" rx="1" ry="1" stroke="purple" width="55" x="348" y="15" /><text fill="black" font-family="Montserrat" font-size="10" x="349" y="27">Analog</text><rect fill="yellow" height="12" opacity="0.2" rx="1" ry="1" stroke="yellow" width="55" x="406" y="15" /><text fill="black" font-family="Montserrat" font-size="10" x="407" y="27">Serial</text><rect fill="grey" height="12" opacity="0.3" rx="1" ry="1" stroke="grey" width="55" x="464" y="15" /><text fill="black" font-family="Montserrat" font-size="12" x="465" y="27">PWM</text><rect fill="blue" height="12" opacity="0.1" rx="1" ry="1" stroke="blue" width="55" x="522" y="15" /><text fill="black" font-family="Montserrat" font-size="12" x="523" y="27">Misc</text><rect fill="white" height="12" opacity="0.3" rx="1" ry="1" stroke="black" width="55" x="0" y="45" /><text fill="black" font-family="Montserrat" font-size="12" x="1" y="57">D15</text><rect fill="green" height="12" opacity="0.3" rx="1" ry="1" stroke="green" width="55" x="58" y="45" /><text fill="black" font-family="Montserrat" font-size="12" x="59" y="57">D15</text><rect fill="blue" height="12" opacity="0.4" rx="1" ry="1" stroke="blue" width="55" x="116" y="45" /><text fill="black" font-family="Montserrat" font-size="12" x="117" y="57">PA22</text><rect fill="yellow" height="12" opacity="0.2" rx="1" ry="1" stroke="yellow" width="55" x="174" y="45" /><text fill="black" font-family="Montserrat" font-size="10" x="175" y="57">RX</text><rect fill="grey" height="12" opacity="0.3" rx="1" ry="1" stroke="grey" width="55" x="232" y="45" /><text fill="black" font-family="Montserrat" font-size="12" x="233" y="57">X</text><rect fill="white" height="12" opacity="0.3" rx="1" ry="1" stroke="black" width="55" x="0" y="60" /><text fill="black" font-family="Montserrat" font-size="12" x="1" y="72">D14</text><rect fill="green" height="12" opacity="0.3" rx="1" ry="1" stroke="green" width="55" x="58" y="60" /><text fill="black" font-family="Montserrat" font-size="12" x="59" y="72">D14</text><rect fill="blue" height="12" opacity="0.4" rx="1" ry="1" stroke="blue" width="55" x="116" y="60" /><text fill="black" font-family="Montserrat" font-size="12" x="117" y="72">PA23</text><rect fill="yellow" height="12" opacity="0.2" rx="1" ry="1" stroke="yellow" width="55" x="174" y="60" /><text fill="black" font-family="Montserrat" font-size="10" x="175" y="72">TX</text><rect fill="grey" height="12" opacity="0.3" rx="1" ry="1" stroke="grey" width="55" x="232" y="60" /><text fill="black" font-family="Montserrat" font-size="12" x="233" y="72">X</text><rect fill="white" height="12" opacity="0.3" rx="1" ry="1" stroke="black" width="55" x="0" y="75" /><text fill="black" font-family="Montserrat" font-size="12" x="1" y="87">SCL</text><rect fill="green" height="12" opacity="0.3" rx="1" ry="1" stroke="green" width="55" x="58" y="75" /><text fill="black" font-family="Montserrat" font-size="12" x="59" y="87">D2</text><rect fill="blue" height="12" opacity="0.4" rx="1" ry="1" stroke="blue" width="55" x="116" y="75" /><text fill="black" font-family="Montserrat" font-size="12" x="117" y="87">PA8</text><rect fill="yellow" height="12" opacity="0.2" rx="1" ry="1" stroke="yellow" width="55" x="174" y="75" /><text fill="black" font-family="Montserrat" font-size="10" x="175" y="87">SCL</text><rect fill="grey" height="12" opacity="0.3" rx="1" ry="1" stroke="grey" width="55" x="232" y="75" /><text fill="black" font-family="Montserrat" font-size="12" x="233" y="87">X</text><rect fill="white" height="12" opacity="0.3" rx="1" ry="1" stroke="black" width="55" x="0" y="90" /><text fill="black" font-family="Montserrat" font-size="12" x="1" y="102">SDA</text><rect fill="green" height="12" opacity="0.3" rx="1" ry="1" stroke="green" width="55" x="58" y="90" /><text fill="black" font-family="Montserrat" font-size="12" x="59" y="102">D0</text><rect fill="blue" height="12" opacity="0.4" rx="1" ry="1" stroke="blue" width="55" x="116" y="90" /><text fill="black" font-family="Montserrat" font-size="12" x="117" y="102">PA9</text><rect fill="yellow" height="12" opacity="0.2" rx="1" ry="1" stroke="yellow" width="55" x="174" y="90" /><text fill="black" font-family="Montserrat" font-size="10" x="175" y="102">SDA</text><rect fill="grey" height="12" opacity="0.3" rx="1" ry="1" stroke="grey" width="55" x="232" y="90" /><text fill="black" font-family="Montserrat" font-size="12" x="233" y="102">X</text><rect fill="white" height="12" opacity="0.3" rx="1" ry="1" stroke="black" width="55" x="0" y="105" /><text fill="black" font-family="Montserrat" font-size="12" x="1" y="117">3.3V</text><rect fill="red" height="12" opacity="0.8" rx="1" ry="1" stroke="red" width="55" x="58" y="105" /><text fill="black" font-family="Montserrat" font-size="12" x="59" y="117">3.3V</text><rect fill="white" height="12" opacity="0.3" rx="1" ry="1" stroke="black" width="55" x="0" y="120" /><text fill="black" font-family="Montserrat" font-size="12" x="1" y="132">GND</text><rect fill="black" height="12" opacity="0.9" rx="1" ry="1" stroke="black" width="55" x="58" y="120" /><text fill="white" font-family="Montserrat" font-size="12" x="59" y="132">GND</text><rect fill="white" height="12" opacity="0.3" rx="1" ry="1" stroke="black" width="55" x="572" y="195" /><text fill="black" font-family="Montserrat" font-size="12" x="573" y="207">DAC</text><rect fill="green" height="12" opacity="0.3" rx="1" ry="1" stroke="green" width="55" x="514" y="195" /><text fill="black" font-family="Montserrat" font-size="12" x="515" y="207">D1</text><rect fill="blue" height="12" opacity="0.4" rx="1" ry="1" stroke="blue" width="55" x="456" y="195" /><text fill="black" font-family="Montserrat" font-size="12" x="457" y="207">PA2</text><rect fill="purple" height="12" opacity="0.3" rx="1" ry="1" stroke="purple" width="55" x="398" y="195" /><text fill="black" font-family="Montserrat" font-size="10" x="399" y="207">A0</text><rect fill="blue" height="12" opacity="0.1" rx="1" ry="1" stroke="blue" width="55" x="340" y="195" /><text fill="black" font-family="Montserrat" font-size="12" x="341" y="207">DAC</text><rect fill="white" height="12" opacity="0.3" rx="1" ry="1" stroke="black" width="55" x="572" y="210" /><text fill="black" font-family="Montserrat" font-size="12" x="573" y="222">D4</text><rect fill="green" height="12" opacity="0.3" rx="1" ry="1" stroke="green" width="55" x="514" y="210" /><text fill="black" font-family="Montserrat" font-size="12" x="515" y="222">D4</text><rect fill="blue" height="12" opacity="0.4" rx="1" ry="1" stroke="blue" width="55" x="456" y="210" /><text fill="black" font-family="Montserrat" font-size="12" x="457" y="222">PA6</text><rect fill="purple" height="12" opacity="0.3" rx="1" ry="1" stroke="purple" width="55" x="398" y="210" /><text fill="black" font-family="Montserrat" font-size="10" x="399" y="222">A1</text><rect fill="yellow" height="12" opacity="0.2" rx="1" ry="1" stroke="yellow" width="55" x="340" y="210" /><text fill="black" font-family="Montserrat" font-size="10" x="341" y="222">MOSI</text><rect fill="grey" height="12" opacity="0.3" rx="1" ry="1" stroke="grey" width="55" x="282" y="210" /><text fill="black" font-family="Montserrat" font-size="12" x="283" y="222">X</text><rect fill="white" height="12" opacity="0.3" rx="1" ry="1" stroke="black" width="55" x="572" y="225" /><text fill="black" font-family="Montserrat" font-size="12" x="573" y="237">D5</text><rect fill="green" height="12" opacity="0.3" rx="1" ry="1" stroke="green" width="55" x="514" y="225" /><text fill="black" font-family="Montserrat" font-size="12" x="515" y="237">D5</text><rect fill="blue" height="12" opacity="0.4" rx="1" ry="1" stroke="blue" width="55" x="456" y="225" /><text fill="black" font-family="Montserrat" font-size="12" x="457" y="237">PA5</text><rect fill="purple" height="12" opacity="0.3" rx="1" ry="1" stroke="purple" width="55" x="398" y="225" /><text fill="black" font-family="Montserrat" font-size="10" x="399" y="237">A2</text><rect fill="yellow" height="12" opacity="0.2" rx="1" ry="1" stroke="yellow" width="55" x="340" y="225" /><text fill="black" font-family="Montserrat" font-size="10" x="341" y="237">MISO</text><rect fill="grey" height="12" opacity="0.3" rx="1" ry="1" stroke="grey" width="55" x="282" y="225" /><text fill="black" font-family="Montserrat" font-size="12" x="283" y="237">X</text><rect fill="white" height="12" opacity="0.3" rx="1" ry="1" stroke="black" width="55" x="572" y="240" /><text fill="black" font-family="Montserrat" font-size="12" x="573" y="252">D3</text><rect fill="green" height="12" opacity="0.3" rx="1" ry="1" stroke="green" width="55" x="514" y="240" /><text fill="black" font-family="Montserrat" font-size="12" x="515" y="252">D3</text><rect fill="blue" height="12" opacity="0.4" rx="1" ry="1" stroke="blue" width="55" x="456" y="240" /><text fill="black" font-family="Montserrat" font-size="12" x="457" y="252">PA7</text><rect fill="purple" height="12" opacity="0.3" rx="1" ry="1" stroke="purple" width="55" x="398" y="240" /><text fill="black" font-family="Montserrat" font-size="10" x="399" y="252">A3</text><rect fill="yellow" height="12" opacity="0.2" rx="1" ry="1" stroke="yellow" width="55" x="340" y="240" /><text fill="black" font-family="Montserrat" font-size="10" x="341" y="252">SCK</text><rect fill="grey" height="12" opacity="0.3" rx="1" ry="1" stroke="grey" width="55" x="282" y="240" /><text fill="black" font-family="Montserrat" font-size="12" x="283" y="252">X</text><rect fill="white" height="12" opacity="0.3" rx="1" ry="1" stroke="black" width="55" x="572" y="255" /><text fill="black" font-family="Montserrat" font-size="12" x="573" y="267">D13</text><rect fill="green" height="12" opacity="0.3" rx="1" ry="1" stroke="green" width="55" x="514" y="255" /><text fill="black" font-family="Montserrat" font-size="12" x="515" y="267">D13</text><rect fill="blue" height="12" opacity="0.4" rx="1" ry="1" stroke="blue" width="55" x="456" y="255" /><text fill="black" font-family="Montserrat" font-size="12" x="457" y="267">PA10</text><rect fill="purple" height="12" opacity="0.3" rx="1" ry="1" stroke="purple" width="55" x="398" y="255" /><text fill="black" font-family="Montserrat" font-size="10" x="399" y="267">A4</text><rect fill="grey" height="12" opacity="0.3" rx="1" ry="1" stroke="grey" width="55" x="340" y="255" /><text fill="black" font-family="Montserrat" font-size="12" x="341" y="267">X</text><rect fill="white" height="12" opacity="0.3" rx="1" ry="1" stroke="black" width="55" x="572" y="270" /><text fill="black" font-family="Montserrat" font-size="12" x="573" y="282">D6</text><rect fill="yellow" height="12" opacity="0.8" rx="1" ry="1" stroke="yellow" width="55" x="514" y="270" /><text fill="black" font-family="Montserrat" font-size="11" x="515" y="282">AREFB</text><rect fill="green" height="12" opacity="0.3" rx="1" ry="1" stroke="green" width="55" x="456" y="270" /><text fill="black" font-family="Montserrat" font-size="12" x="457" y="282">D6</text><rect fill="blue" height="12" opacity="0.4" rx="1" ry="1" stroke="blue" width="55" x="398" y="270" /><text fill="black" font-family="Montserrat" font-size="12" x="399" y="282">PA4</text><rect fill="purple" height="12" opacity="0.3" rx="1" ry="1" stroke="purple" width="55" x="340" y="270" /><text fill="black" font-family="Montserrat" font-size="10" x="341" y="282">A5</text><rect fill="grey" height="12" opacity="0.3" rx="1" ry="1" stroke="grey" width="55" x="282" y="270" /><text fill="black" font-family="Montserrat" font-size="12" x="283" y="282">X</text><rect fill="white" height="12" opacity="0.3" rx="1" ry="1" stroke="black" width="55" x="0" y="330" /><text fill="black" font-family="Montserrat" font-size="12" x="1" y="342">SWDIO</text><rect fill="green" height="12" opacity="0.3" rx="1" ry="1" stroke="green" width="55" x="58" y="330" /><text fill="black" font-family="Montserrat" font-size="12" x="59" y="342">D20</text><rect fill="blue" height="12" opacity="0.4" rx="1" ry="1" stroke="blue" width="55" x="116" y="330" /><text fill="black" font-family="Montserrat" font-size="12" x="117" y="342">PA30</text><rect fill="grey" height="12" opacity="0.3" rx="1" ry="1" stroke="grey" width="55" x="174" y="330" /><text fill="black" font-family="Montserrat" font-size="12" x="175" y="342">X</text><rect fill="white" height="12" opacity="0.3" rx="1" ry="1" stroke="black" width="55" x="0" y="345" /><text fill="black" font-family="Montserrat" font-size="12" x="1" y="357">SWCLK</text><rect fill="green" height="12" opacity="0.3" rx="1" ry="1" stroke="green" width="55" x="58" y="345" /><text fill="black" font-family="Montserrat" font-size="12" x="59" y="357">D21</text><rect fill="blue" height="12" opacity="0.4" rx="1" ry="1" stroke="blue" width="55" x="116" y="345" /><text fill="black" font-family="Montserrat" font-size="12" x="117" y="357">PA31</text><rect fill="grey" height="12" opacity="0.3" rx="1" ry="1" stroke="grey" width="55" x="174" y="345" /><text fill="black" font-family="Montserrat" font-size="12" x="175" y="357">X</text><rect fill="white" height="12" opacity="0.3" rx="1" ry="1" stroke="black" width="55" x="0" y="360" /><text fill="black" font-family="Montserrat" font-size="12" x="1" y="372">RESET</text><rect fill="yellow" height="12" opacity="0.8" rx="1" ry="1" stroke="yellow" width="55" x="58" y="360" /><text fill="black" font-family="Montserrat" font-size="11" x="59" y="372">CONTROL</text><rect fill="white" height="12" opacity="0.3" rx="1" ry="1" stroke="black" width="55" x="0" y="375" /><text fill="black" font-family="Montserrat" font-size="12" x="1" y="387">GND</text><rect fill="black" height="12" opacity="0.9" rx="1" ry="1" stroke="black" width="55" x="58" y="375" /><text fill="white" font-family="Montserrat" font-size="12" x="59" y="387">GND</text></svg>